M48
; DRILL file {KiCad 7.0.5} date Fri Feb 16 17:16:36 2024
; FORMAT={-:-/ absolute / metric / decimal}
; #@! TF.CreationDate,2024-02-16T17:16:36-05:00
; #@! TF.GenerationSoftware,Kicad,Pcbnew,7.0.5
; #@! TF.FileFunction,Plated,1,2,PTH
FMAT,2
METRIC
; #@! TA.AperFunction,Plated,PTH,ViaDrill
T1C0.400
; #@! TA.AperFunction,Plated,PTH,ViaDrill
T2C0.500
; #@! TA.AperFunction,Plated,PTH,ComponentDrill
T3C0.600
; #@! TA.AperFunction,Plated,PTH,ComponentDrill
T4C0.800
; #@! TA.AperFunction,Plated,PTH,ComponentDrill
T5C1.000
%
G90
G05
T1
X76.0Y-45.4
X76.7Y-48.1
X83.5Y-35.8
X86.0Y-34.8
X89.1Y-33.8
X114.637Y-73.3
T2
X96.25Y-82.75
X111.6Y-73.7
X112.6Y-64.3
X122.44Y-64.35
T3
X125.25Y-64.05
X127.25Y-64.05
T4
X98.475Y-77.3
X98.475Y-84.92
X101.015Y-77.3
X101.015Y-84.92
X103.555Y-77.3
X103.555Y-84.92
X106.095Y-77.3
X106.095Y-84.92
X108.635Y-77.3
X108.635Y-84.92
X111.175Y-77.3
X111.175Y-84.92
X113.715Y-77.3
X113.715Y-84.92
T5
X67.139Y-38.1
X67.139Y-40.64
X67.139Y-43.18
X67.139Y-45.72
X67.139Y-48.26
X67.139Y-50.8
X67.139Y-53.34
X67.139Y-55.88
X67.139Y-58.42
X67.139Y-60.96
X67.139Y-63.5
X67.139Y-66.04
X67.139Y-68.58
X67.139Y-71.12
X67.139Y-73.66
X69.7Y-45.72
X69.7Y-48.26
X69.7Y-71.12
X90.02Y-66.04
X90.02Y-68.58
X92.539Y-38.1
X92.539Y-40.64
X92.539Y-43.18
X92.539Y-45.72
X92.539Y-48.26
X92.539Y-50.8
X92.539Y-53.34
X92.539Y-55.88
X92.539Y-58.42
X92.539Y-60.96
X92.539Y-63.5
X92.539Y-66.04
X92.539Y-68.58
X92.539Y-71.12
X92.539Y-73.66
X97.05Y-71.225
X99.06Y-46.3
X99.06Y-54.305
X99.59Y-71.225
X101.6Y-46.3
X101.6Y-54.305
X102.13Y-71.225
X102.82Y-23.8
X104.14Y-46.3
X104.14Y-54.305
X104.67Y-71.225
X105.36Y-23.8
X106.68Y-46.3
X106.68Y-54.305
X107.21Y-71.225
X107.9Y-23.8
X109.22Y-46.3
X109.22Y-54.305
X110.44Y-23.8
X111.76Y-46.3
X111.76Y-54.305
X112.98Y-23.8
X114.3Y-46.3
X118.4Y-79.9
X118.4Y-82.44
X118.4Y-84.98
X119.36Y-50.72
X119.36Y-53.26
X119.36Y-55.8
X119.36Y-58.34
X120.94Y-79.9
X120.94Y-82.44
X120.94Y-84.98
X121.9Y-50.72
X121.9Y-53.26
X121.9Y-55.8
X121.9Y-58.34
X124.46Y-30.84
X124.46Y-33.38
X124.46Y-35.92
X124.46Y-38.46
X124.46Y-41.0
X124.75Y-69.2
X124.75Y-71.74
X124.75Y-74.28
X124.75Y-76.82
X127.0Y-30.84
X127.0Y-33.38
X127.0Y-35.92
X127.0Y-38.46
X127.0Y-41.0
X127.29Y-69.2
X127.29Y-71.74
X127.29Y-74.28
X127.29Y-76.82
X127.3Y-51.3
X127.3Y-53.84
X127.3Y-58.92
T0
M30
