G04 #@! TF.GenerationSoftware,KiCad,Pcbnew,7.0.5*
G04 #@! TF.CreationDate,2024-02-16T17:16:27-05:00*
G04 #@! TF.ProjectId,SoyuzControlBoard,536f7975-7a43-46f6-9e74-726f6c426f61,rev?*
G04 #@! TF.SameCoordinates,Original*
G04 #@! TF.FileFunction,Soldermask,Top*
G04 #@! TF.FilePolarity,Negative*
%FSLAX46Y46*%
G04 Gerber Fmt 4.6, Leading zero omitted, Abs format (unit mm)*
G04 Created by KiCad (PCBNEW 7.0.5) date 2024-02-16 17:16:27*
%MOMM*%
%LPD*%
G01*
G04 APERTURE LIST*
G04 Aperture macros list*
%AMRoundRect*
0 Rectangle with rounded corners*
0 $1 Rounding radius*
0 $2 $3 $4 $5 $6 $7 $8 $9 X,Y pos of 4 corners*
0 Add a 4 corners polygon primitive as box body*
4,1,4,$2,$3,$4,$5,$6,$7,$8,$9,$2,$3,0*
0 Add four circle primitives for the rounded corners*
1,1,$1+$1,$2,$3*
1,1,$1+$1,$4,$5*
1,1,$1+$1,$6,$7*
1,1,$1+$1,$8,$9*
0 Add four rect primitives between the rounded corners*
20,1,$1+$1,$2,$3,$4,$5,0*
20,1,$1+$1,$4,$5,$6,$7,0*
20,1,$1+$1,$6,$7,$8,$9,0*
20,1,$1+$1,$8,$9,$2,$3,0*%
G04 Aperture macros list end*
%ADD10R,1.700000X1.700000*%
%ADD11O,1.700000X1.700000*%
%ADD12C,3.200000*%
%ADD13C,1.700000*%
%ADD14RoundRect,0.250000X0.450000X-0.350000X0.450000X0.350000X-0.450000X0.350000X-0.450000X-0.350000X0*%
%ADD15RoundRect,0.250000X-0.450000X0.350000X-0.450000X-0.350000X0.450000X-0.350000X0.450000X0.350000X0*%
%ADD16RoundRect,0.250000X-0.350000X-0.450000X0.350000X-0.450000X0.350000X0.450000X-0.350000X0.450000X0*%
%ADD17R,1.200000X1.200000*%
%ADD18C,1.200000*%
%ADD19RoundRect,0.250000X0.600000X0.600000X-0.600000X0.600000X-0.600000X-0.600000X0.600000X-0.600000X0*%
%ADD20RoundRect,0.102000X0.850000X0.850000X-0.850000X0.850000X-0.850000X-0.850000X0.850000X-0.850000X0*%
%ADD21C,1.904000*%
%ADD22R,1.600000X1.600000*%
%ADD23O,1.600000X1.600000*%
%ADD24R,1.700000X3.400000*%
%ADD25O,1.700000X3.400000*%
G04 APERTURE END LIST*
D10*
X118400000Y-84980000D03*
D11*
X120940000Y-84980000D03*
X118400000Y-82440000D03*
X120940000Y-82440000D03*
X118400000Y-79900000D03*
X120940000Y-79900000D03*
D12*
X71500000Y-86400000D03*
D13*
X69700000Y-45720000D03*
D14*
X85700000Y-39700000D03*
X85700000Y-37700000D03*
D12*
X129000000Y-22400000D03*
D13*
X90020000Y-68580000D03*
D14*
X82600000Y-39700000D03*
X82600000Y-37700000D03*
D15*
X124300000Y-50900000D03*
X124300000Y-52900000D03*
D14*
X88800000Y-39700000D03*
X88800000Y-37700000D03*
D12*
X71500000Y-22400000D03*
D16*
X121600000Y-61200000D03*
X123600000Y-61200000D03*
D13*
X69700000Y-48260000D03*
D10*
X127290000Y-69200000D03*
D11*
X124750000Y-69200000D03*
X127290000Y-71740000D03*
X124750000Y-71740000D03*
X127290000Y-74280000D03*
X124750000Y-74280000D03*
X127290000Y-76820000D03*
X124750000Y-76820000D03*
D13*
X69700000Y-71120000D03*
D12*
X129000000Y-86400000D03*
D13*
X90020000Y-66040000D03*
D17*
X127250000Y-64050000D03*
D18*
X125250000Y-64050000D03*
D10*
X119360000Y-58340000D03*
D11*
X121900000Y-58340000D03*
X119360000Y-55800000D03*
X121900000Y-55800000D03*
X119360000Y-53260000D03*
X121900000Y-53260000D03*
X119360000Y-50720000D03*
X121900000Y-50720000D03*
D19*
X127000000Y-30840000D03*
D13*
X124460000Y-30840000D03*
X127000000Y-33380000D03*
X124460000Y-33380000D03*
X127000000Y-35920000D03*
X124460000Y-35920000D03*
X127000000Y-38460000D03*
X124460000Y-38460000D03*
X127000000Y-41000000D03*
X124460000Y-41000000D03*
D20*
X92539500Y-38100000D03*
D21*
X92539500Y-40640000D03*
X92539500Y-43180000D03*
X92539500Y-45720000D03*
X92539500Y-48260000D03*
X92539500Y-50800000D03*
X92539500Y-53340000D03*
X92539500Y-55880000D03*
X92539500Y-58420000D03*
X92539500Y-60960000D03*
X92539500Y-63500000D03*
X92539500Y-66040000D03*
X92539500Y-68580000D03*
X92539500Y-71120000D03*
X92539500Y-73660000D03*
X67139500Y-73660000D03*
X67139500Y-71120000D03*
X67139500Y-68580000D03*
X67139500Y-66040000D03*
X67139500Y-63500000D03*
X67139500Y-60960000D03*
X67139500Y-58420000D03*
X67139500Y-55880000D03*
X67139500Y-53340000D03*
X67139500Y-50800000D03*
X67139500Y-48260000D03*
X67139500Y-45720000D03*
X67139500Y-43180000D03*
X67139500Y-40640000D03*
X67139500Y-38100000D03*
D22*
X98475000Y-77300000D03*
D23*
X101015000Y-77300000D03*
X103555000Y-77300000D03*
X106095000Y-77300000D03*
X108635000Y-77300000D03*
X111175000Y-77300000D03*
X113715000Y-77300000D03*
X113715000Y-84920000D03*
X111175000Y-84920000D03*
X108635000Y-84920000D03*
X106095000Y-84920000D03*
X103555000Y-84920000D03*
X101015000Y-84920000D03*
X98475000Y-84920000D03*
D24*
X112980000Y-23000000D03*
D25*
X110440000Y-23000000D03*
X107900000Y-23000000D03*
X105360000Y-23000000D03*
X102820000Y-23000000D03*
D10*
X127300000Y-51300000D03*
D11*
X127300000Y-53840000D03*
X127300000Y-58920000D03*
D10*
X99060000Y-54305200D03*
D11*
X101600000Y-54305200D03*
X104140000Y-54305200D03*
X106680000Y-54305200D03*
X109220000Y-54305200D03*
X111760000Y-54305200D03*
D10*
X97050000Y-71225000D03*
D11*
X99590000Y-71225000D03*
X102130000Y-71225000D03*
X104670000Y-71225000D03*
X107210000Y-71225000D03*
D10*
X99060000Y-46300000D03*
D11*
X101600000Y-46300000D03*
X104140000Y-46300000D03*
X106680000Y-46300000D03*
X109220000Y-46300000D03*
X111760000Y-46300000D03*
X114300000Y-46300000D03*
M02*
