G04 #@! TF.GenerationSoftware,KiCad,Pcbnew,7.0.5*
G04 #@! TF.CreationDate,2024-02-16T17:16:27-05:00*
G04 #@! TF.ProjectId,SoyuzControlBoard,536f7975-7a43-46f6-9e74-726f6c426f61,rev?*
G04 #@! TF.SameCoordinates,Original*
G04 #@! TF.FileFunction,Copper,L2,Bot*
G04 #@! TF.FilePolarity,Positive*
%FSLAX46Y46*%
G04 Gerber Fmt 4.6, Leading zero omitted, Abs format (unit mm)*
G04 Created by KiCad (PCBNEW 7.0.5) date 2024-02-16 17:16:27*
%MOMM*%
%LPD*%
G01*
G04 APERTURE LIST*
G04 Aperture macros list*
%AMRoundRect*
0 Rectangle with rounded corners*
0 $1 Rounding radius*
0 $2 $3 $4 $5 $6 $7 $8 $9 X,Y pos of 4 corners*
0 Add a 4 corners polygon primitive as box body*
4,1,4,$2,$3,$4,$5,$6,$7,$8,$9,$2,$3,0*
0 Add four circle primitives for the rounded corners*
1,1,$1+$1,$2,$3*
1,1,$1+$1,$4,$5*
1,1,$1+$1,$6,$7*
1,1,$1+$1,$8,$9*
0 Add four rect primitives between the rounded corners*
20,1,$1+$1,$2,$3,$4,$5,0*
20,1,$1+$1,$4,$5,$6,$7,0*
20,1,$1+$1,$6,$7,$8,$9,0*
20,1,$1+$1,$8,$9,$2,$3,0*%
G04 Aperture macros list end*
G04 #@! TA.AperFunction,ComponentPad*
%ADD10R,1.700000X1.700000*%
G04 #@! TD*
G04 #@! TA.AperFunction,ComponentPad*
%ADD11O,1.700000X1.700000*%
G04 #@! TD*
G04 #@! TA.AperFunction,ComponentPad*
%ADD12C,1.700000*%
G04 #@! TD*
G04 #@! TA.AperFunction,ComponentPad*
%ADD13R,1.200000X1.200000*%
G04 #@! TD*
G04 #@! TA.AperFunction,ComponentPad*
%ADD14C,1.200000*%
G04 #@! TD*
G04 #@! TA.AperFunction,ComponentPad*
%ADD15RoundRect,0.250000X0.600000X0.600000X-0.600000X0.600000X-0.600000X-0.600000X0.600000X-0.600000X0*%
G04 #@! TD*
G04 #@! TA.AperFunction,SMDPad,CuDef*
%ADD16RoundRect,0.250000X0.337500X0.475000X-0.337500X0.475000X-0.337500X-0.475000X0.337500X-0.475000X0*%
G04 #@! TD*
G04 #@! TA.AperFunction,ComponentPad*
%ADD17R,1.600000X1.600000*%
G04 #@! TD*
G04 #@! TA.AperFunction,ComponentPad*
%ADD18O,1.600000X1.600000*%
G04 #@! TD*
G04 #@! TA.AperFunction,SMDPad,CuDef*
%ADD19R,1.500000X2.000000*%
G04 #@! TD*
G04 #@! TA.AperFunction,SMDPad,CuDef*
%ADD20R,3.800000X2.000000*%
G04 #@! TD*
G04 #@! TA.AperFunction,ComponentPad*
%ADD21R,1.700000X3.400000*%
G04 #@! TD*
G04 #@! TA.AperFunction,ComponentPad*
%ADD22O,1.700000X3.400000*%
G04 #@! TD*
G04 #@! TA.AperFunction,SMDPad,CuDef*
%ADD23RoundRect,0.250000X0.475000X-0.337500X0.475000X0.337500X-0.475000X0.337500X-0.475000X-0.337500X0*%
G04 #@! TD*
G04 #@! TA.AperFunction,ViaPad*
%ADD24C,0.800000*%
G04 #@! TD*
G04 #@! TA.AperFunction,ViaPad*
%ADD25C,1.000000*%
G04 #@! TD*
G04 #@! TA.AperFunction,Conductor*
%ADD26C,0.250000*%
G04 #@! TD*
G04 #@! TA.AperFunction,Conductor*
%ADD27C,0.600000*%
G04 #@! TD*
G04 #@! TA.AperFunction,Conductor*
%ADD28C,0.700000*%
G04 #@! TD*
G04 #@! TA.AperFunction,Conductor*
%ADD29C,0.400000*%
G04 #@! TD*
G04 #@! TA.AperFunction,Conductor*
%ADD30C,1.000000*%
G04 #@! TD*
G04 #@! TA.AperFunction,Conductor*
%ADD31C,0.500000*%
G04 #@! TD*
G04 #@! TA.AperFunction,Conductor*
%ADD32C,1.500000*%
G04 #@! TD*
G04 APERTURE END LIST*
D10*
X118400000Y-84980000D03*
D11*
X120940000Y-84980000D03*
X118400000Y-82440000D03*
X120940000Y-82440000D03*
X118400000Y-79900000D03*
X120940000Y-79900000D03*
D12*
X69700000Y-45720000D03*
X90020000Y-68580000D03*
X69700000Y-48260000D03*
D10*
X127290000Y-69200000D03*
D11*
X124750000Y-69200000D03*
X127290000Y-71740000D03*
X124750000Y-71740000D03*
X127290000Y-74280000D03*
X124750000Y-74280000D03*
X127290000Y-76820000D03*
X124750000Y-76820000D03*
D12*
X69700000Y-71120000D03*
X90020000Y-66040000D03*
D13*
X127250000Y-64050000D03*
D14*
X125250000Y-64050000D03*
D10*
X119360000Y-58340000D03*
D11*
X121900000Y-58340000D03*
X119360000Y-55800000D03*
X121900000Y-55800000D03*
X119360000Y-53260000D03*
X121900000Y-53260000D03*
X119360000Y-50720000D03*
X121900000Y-50720000D03*
D15*
X127000000Y-30840000D03*
D12*
X124460000Y-30840000D03*
X127000000Y-33380000D03*
X124460000Y-33380000D03*
X127000000Y-35920000D03*
X124460000Y-35920000D03*
X127000000Y-38460000D03*
X124460000Y-38460000D03*
X127000000Y-41000000D03*
X124460000Y-41000000D03*
D16*
X114637500Y-73300000D03*
X112562500Y-73300000D03*
D10*
X92539500Y-38100000D03*
D12*
X92539500Y-40640000D03*
X92539500Y-43180000D03*
X92539500Y-45720000D03*
X92539500Y-48260000D03*
X92539500Y-50800000D03*
X92539500Y-53340000D03*
X92539500Y-55880000D03*
X92539500Y-58420000D03*
X92539500Y-60960000D03*
X92539500Y-63500000D03*
X92539500Y-66040000D03*
X92539500Y-68580000D03*
X92539500Y-71120000D03*
X92539500Y-73660000D03*
X67139500Y-73660000D03*
X67139500Y-71120000D03*
X67139500Y-68580000D03*
X67139500Y-66040000D03*
X67139500Y-63500000D03*
X67139500Y-60960000D03*
X67139500Y-58420000D03*
X67139500Y-55880000D03*
X67139500Y-53340000D03*
X67139500Y-50800000D03*
X67139500Y-48260000D03*
X67139500Y-45720000D03*
X67139500Y-43180000D03*
X67139500Y-40640000D03*
X67139500Y-38100000D03*
D17*
X98475000Y-77300000D03*
D18*
X101015000Y-77300000D03*
X103555000Y-77300000D03*
X106095000Y-77300000D03*
X108635000Y-77300000D03*
X111175000Y-77300000D03*
X113715000Y-77300000D03*
X113715000Y-84920000D03*
X111175000Y-84920000D03*
X108635000Y-84920000D03*
X106095000Y-84920000D03*
X103555000Y-84920000D03*
X101015000Y-84920000D03*
X98475000Y-84920000D03*
D19*
X113700000Y-64350000D03*
X116000000Y-64350000D03*
D20*
X116000000Y-70650000D03*
D19*
X118300000Y-64350000D03*
D21*
X112980000Y-23000000D03*
D22*
X110440000Y-23000000D03*
X107900000Y-23000000D03*
X105360000Y-23000000D03*
X102820000Y-23000000D03*
D10*
X127300000Y-51300000D03*
D11*
X127300000Y-53840000D03*
X127300000Y-58920000D03*
D23*
X95300000Y-84937500D03*
X95300000Y-82862500D03*
D10*
X99060000Y-54305200D03*
D11*
X101600000Y-54305200D03*
X104140000Y-54305200D03*
X106680000Y-54305200D03*
X109220000Y-54305200D03*
X111760000Y-54305200D03*
D10*
X97050000Y-71225000D03*
D11*
X99590000Y-71225000D03*
X102130000Y-71225000D03*
X104670000Y-71225000D03*
X107210000Y-71225000D03*
D10*
X99060000Y-46300000D03*
D11*
X101600000Y-46300000D03*
X104140000Y-46300000D03*
X106680000Y-46300000D03*
X109220000Y-46300000D03*
X111760000Y-46300000D03*
X114300000Y-46300000D03*
D24*
X114637500Y-73300000D03*
D25*
X122440000Y-64350000D03*
X112600000Y-64300000D03*
X96250000Y-82750000D03*
X111600000Y-73700000D03*
D24*
X76700000Y-48100000D03*
X76000000Y-45400000D03*
X89100000Y-33800000D03*
X86000000Y-34800000D03*
X83500000Y-35800000D03*
D26*
X117550000Y-76250000D02*
X122780000Y-76250000D01*
X113715000Y-80085000D02*
X117550000Y-76250000D01*
X122780000Y-76250000D02*
X124750000Y-74280000D01*
X113715000Y-84920000D02*
X113715000Y-80085000D01*
X120690000Y-75800000D02*
X124750000Y-71740000D01*
X112675000Y-75800000D02*
X120690000Y-75800000D01*
X111175000Y-77300000D02*
X112675000Y-75800000D01*
X118650000Y-75300000D02*
X105555000Y-75300000D01*
X124750000Y-69200000D02*
X118650000Y-75300000D01*
X105555000Y-75300000D02*
X103555000Y-77300000D01*
D27*
X116280000Y-87100000D02*
X118400000Y-84980000D01*
X100655000Y-87100000D02*
X116280000Y-87100000D01*
X118400000Y-84980000D02*
X120940000Y-84980000D01*
X123020000Y-84980000D02*
X129900000Y-78100000D01*
X120940000Y-84980000D02*
X123020000Y-84980000D01*
D28*
X127250000Y-69160000D02*
X127290000Y-69200000D01*
X127300000Y-58920000D02*
X127300000Y-64000000D01*
D27*
X129240000Y-71740000D02*
X129900000Y-72400000D01*
X118300000Y-64350000D02*
X122440000Y-64350000D01*
D28*
X127300000Y-64000000D02*
X127250000Y-64050000D01*
D27*
X100655000Y-87100000D02*
X98475000Y-84920000D01*
X65400000Y-39839500D02*
X65400000Y-74400000D01*
X122440000Y-64350000D02*
X127290000Y-69200000D01*
X75937500Y-84937500D02*
X95300000Y-84937500D01*
D28*
X127250000Y-64050000D02*
X127250000Y-69160000D01*
D27*
X95300000Y-84937500D02*
X98457500Y-84937500D01*
X67139500Y-38100000D02*
X65400000Y-39839500D01*
D29*
X98457500Y-84937500D02*
X98475000Y-84920000D01*
D27*
X129900000Y-72400000D02*
X129900000Y-78100000D01*
X65400000Y-74400000D02*
X75937500Y-84937500D01*
D28*
X127290000Y-69200000D02*
X127290000Y-71740000D01*
D27*
X127290000Y-71740000D02*
X129240000Y-71740000D01*
D29*
X96137500Y-82862500D02*
X96250000Y-82750000D01*
D30*
X112600000Y-64300000D02*
X113650000Y-64300000D01*
D29*
X112562500Y-73300000D02*
X112000000Y-73300000D01*
X113650000Y-64300000D02*
X113700000Y-64350000D01*
X112000000Y-73300000D02*
X111600000Y-73700000D01*
X95300000Y-82862500D02*
X96137500Y-82862500D01*
D31*
X113180000Y-24000000D02*
X112980000Y-23800000D01*
X127900000Y-26500000D02*
X124200000Y-26500000D01*
X116000000Y-64350000D02*
X116000000Y-63700000D01*
X116000000Y-63700000D02*
X117200000Y-62500000D01*
D29*
X109600000Y-73500000D02*
X112450000Y-70650000D01*
D31*
X121700000Y-24000000D02*
X113180000Y-24000000D01*
X124200000Y-50300000D02*
X130200000Y-44300000D01*
X117200000Y-62500000D02*
X122400000Y-62500000D01*
X130200000Y-28800000D02*
X127900000Y-26500000D01*
D30*
X116000000Y-70650000D02*
X116000000Y-71937500D01*
D31*
X122400000Y-62500000D02*
X124200000Y-60700000D01*
D29*
X97750000Y-73500000D02*
X109600000Y-73500000D01*
D31*
X124200000Y-26500000D02*
X121700000Y-24000000D01*
X124200000Y-60700000D02*
X124200000Y-50300000D01*
D32*
X116000000Y-70650000D02*
X116000000Y-64350000D01*
D29*
X112450000Y-70650000D02*
X116000000Y-70650000D01*
X97050000Y-71225000D02*
X97050000Y-72800000D01*
D31*
X130200000Y-44300000D02*
X130200000Y-28800000D01*
D30*
X116000000Y-71937500D02*
X114637500Y-73300000D01*
D29*
X97050000Y-72800000D02*
X97750000Y-73500000D01*
D26*
X92539500Y-63500000D02*
X99590000Y-70550500D01*
X99590000Y-70550500D02*
X99590000Y-71225000D01*
X107900000Y-23800000D02*
X105400000Y-26300000D01*
X76725000Y-32311396D02*
X76725000Y-48075000D01*
X76725000Y-48075000D02*
X76700000Y-48100000D01*
X82736396Y-26300000D02*
X105400000Y-26300000D01*
X76725000Y-32311396D02*
X82736396Y-26300000D01*
X76000000Y-32400000D02*
X82600000Y-25800000D01*
X76000000Y-32400000D02*
X76000000Y-45400000D01*
X104700000Y-25800000D02*
X82600000Y-25800000D01*
X105360000Y-25140000D02*
X104700000Y-25800000D01*
X105360000Y-23800000D02*
X105360000Y-25140000D01*
X91927500Y-55880000D02*
X100025200Y-55880000D01*
X100025200Y-55880000D02*
X101600000Y-54305200D01*
X91927500Y-60960000D02*
X102565200Y-60960000D01*
X102565200Y-60960000D02*
X109220000Y-54305200D01*
X108640000Y-43180000D02*
X91927500Y-43180000D01*
X111760000Y-46300000D02*
X108640000Y-43180000D01*
X119360000Y-50720000D02*
X118140000Y-49500000D01*
X118140000Y-49500000D02*
X109880000Y-49500000D01*
X109880000Y-49500000D02*
X106680000Y-46300000D01*
X96200000Y-44600000D02*
X96199500Y-44600000D01*
X109220000Y-46300000D02*
X106720000Y-43800000D01*
X106720000Y-43800000D02*
X97000000Y-43800000D01*
X97000000Y-43800000D02*
X96200000Y-44600000D01*
X96199500Y-44600000D02*
X92539500Y-48260000D01*
X91927500Y-58420000D02*
X102565200Y-58420000D01*
X102565200Y-58420000D02*
X106680000Y-54305200D01*
X76380000Y-58420000D02*
X66527500Y-58420000D01*
X78250000Y-37904416D02*
X78250000Y-56550000D01*
X124460000Y-30840000D02*
X122850000Y-32450000D01*
X78250000Y-56550000D02*
X76380000Y-58420000D01*
X83704416Y-32450000D02*
X78250000Y-37904416D01*
X122850000Y-32450000D02*
X83704416Y-32450000D01*
X83890812Y-32900000D02*
X123980000Y-32900000D01*
X78700000Y-38090812D02*
X83890812Y-32900000D01*
X77240000Y-60960000D02*
X78700000Y-59500000D01*
X123980000Y-32900000D02*
X124460000Y-33380000D01*
X66527500Y-60960000D02*
X77240000Y-60960000D01*
X78700000Y-59500000D02*
X78700000Y-38090812D01*
X79150000Y-59700000D02*
X75350000Y-63500000D01*
X83627208Y-33800000D02*
X79150000Y-38277208D01*
X89100000Y-33800000D02*
X83627208Y-33800000D01*
X124460000Y-35920000D02*
X122340000Y-33800000D01*
X79150000Y-38277208D02*
X79150000Y-59700000D01*
X75350000Y-63500000D02*
X66527500Y-63500000D01*
X89100000Y-33800000D02*
X122340000Y-33800000D01*
X83263604Y-34800000D02*
X86000000Y-34800000D01*
X79600000Y-59886396D02*
X79600000Y-38463604D01*
X73446396Y-66040000D02*
X79600000Y-59886396D01*
X66527500Y-66040000D02*
X73446396Y-66040000D01*
X86000000Y-34800000D02*
X120800000Y-34800000D01*
X79600000Y-38463604D02*
X83263604Y-34800000D01*
X120800000Y-34800000D02*
X124460000Y-38460000D01*
X80050000Y-60072792D02*
X71542792Y-68580000D01*
X80050000Y-38650000D02*
X80050000Y-60072792D01*
X83500000Y-35800000D02*
X119260000Y-35800000D01*
X124460000Y-41000000D02*
X119260000Y-35800000D01*
X71542792Y-68580000D02*
X66527500Y-68580000D01*
X82900000Y-35800000D02*
X80050000Y-38650000D01*
X83500000Y-35800000D02*
X82900000Y-35800000D01*
X94254800Y-49500000D02*
X99060000Y-54305200D01*
X91927500Y-38100000D02*
X91000000Y-38100000D01*
X89400000Y-49500000D02*
X94254800Y-49500000D01*
X87200000Y-47300000D02*
X89400000Y-49500000D01*
X91000000Y-38100000D02*
X87200000Y-41900000D01*
X87200000Y-41900000D02*
X87200000Y-47300000D01*
M02*
