%TF.GenerationSoftware,KiCad,Pcbnew,7.0.5*%
%TF.CreationDate,2024-02-16T17:16:37-05:00*%
%TF.ProjectId,SoyuzControlBoard,536f7975-7a43-46f6-9e74-726f6c426f61,rev?*%
%TF.SameCoordinates,Original*%
%TF.FileFunction,Drillmap*%
%TF.FilePolarity,Positive*%
%FSLAX45Y45*%
G04 Gerber Fmt 4.5, Leading zero omitted, Abs format (unit mm)*
G04 Created by KiCad (PCBNEW 7.0.5) date 2024-02-16 17:16:37*
%MOMM*%
%LPD*%
G01*
G04 APERTURE LIST*
%ADD10C,0.100000*%
%ADD11C,0.200000*%
%ADD12C,0.040000*%
%ADD13C,0.050000*%
%ADD14C,0.060000*%
%ADD15C,0.080000*%
G04 APERTURE END LIST*
D10*
X6960000Y-2000000D02*
X6410000Y-2550000D01*
X13200000Y-2000000D02*
X6960000Y-2000000D01*
X13200000Y-2000000D02*
X13200000Y-8880000D01*
X6410000Y-2550000D02*
X6410000Y-8330000D01*
X6960000Y-8880000D02*
X13200000Y-8880000D01*
X6960000Y-8880000D02*
X6410000Y-8330000D01*
D11*
D12*
X7580000Y-4520000D02*
X7620000Y-4560000D01*
X7620000Y-4520000D02*
X7580000Y-4560000D01*
X7650000Y-4790000D02*
X7690000Y-4830000D01*
X7690000Y-4790000D02*
X7650000Y-4830000D01*
X8330000Y-3560000D02*
X8370000Y-3600000D01*
X8370000Y-3560000D02*
X8330000Y-3600000D01*
X8580000Y-3460000D02*
X8620000Y-3500000D01*
X8620000Y-3460000D02*
X8580000Y-3500000D01*
X8890000Y-3360000D02*
X8930000Y-3400000D01*
X8930000Y-3360000D02*
X8890000Y-3400000D01*
X11443750Y-7310000D02*
X11483750Y-7350000D01*
X11483750Y-7310000D02*
X11443750Y-7350000D01*
D13*
X9650000Y-8275000D02*
G75*
G03*
X9650000Y-8275000I-25000J0D01*
G01*
X11185000Y-7370000D02*
G75*
G03*
X11185000Y-7370000I-25000J0D01*
G01*
X11285000Y-6430000D02*
G75*
G03*
X11285000Y-6430000I-25000J0D01*
G01*
X12269000Y-6435000D02*
G75*
G03*
X12269000Y-6435000I-25000J0D01*
G01*
D14*
X12525000Y-6375000D02*
X12525000Y-6435000D01*
X12495000Y-6405000D02*
X12555000Y-6405000D01*
X12725000Y-6375000D02*
X12725000Y-6435000D01*
X12695000Y-6405000D02*
X12755000Y-6405000D01*
D15*
X9875785Y-7758284D02*
X9875785Y-7701715D01*
X9819216Y-7701715D01*
X9819216Y-7758284D01*
X9875785Y-7758284D01*
X9875785Y-8520285D02*
X9875785Y-8463716D01*
X9819216Y-8463716D01*
X9819216Y-8520285D01*
X9875785Y-8520285D01*
X10129785Y-7758284D02*
X10129785Y-7701715D01*
X10073216Y-7701715D01*
X10073216Y-7758284D01*
X10129785Y-7758284D01*
X10129785Y-8520285D02*
X10129785Y-8463716D01*
X10073216Y-8463716D01*
X10073216Y-8520285D01*
X10129785Y-8520285D01*
X10383785Y-7758284D02*
X10383785Y-7701715D01*
X10327216Y-7701715D01*
X10327216Y-7758284D01*
X10383785Y-7758284D01*
X10383785Y-8520285D02*
X10383785Y-8463716D01*
X10327216Y-8463716D01*
X10327216Y-8520285D01*
X10383785Y-8520285D01*
X10637785Y-7758284D02*
X10637785Y-7701715D01*
X10581216Y-7701715D01*
X10581216Y-7758284D01*
X10637785Y-7758284D01*
X10637785Y-8520285D02*
X10637785Y-8463716D01*
X10581216Y-8463716D01*
X10581216Y-8520285D01*
X10637785Y-8520285D01*
X10891785Y-7758284D02*
X10891785Y-7701715D01*
X10835216Y-7701715D01*
X10835216Y-7758284D01*
X10891785Y-7758284D01*
X10891785Y-8520285D02*
X10891785Y-8463716D01*
X10835216Y-8463716D01*
X10835216Y-8520285D01*
X10891785Y-8520285D01*
X11145785Y-7758284D02*
X11145785Y-7701715D01*
X11089216Y-7701715D01*
X11089216Y-7758284D01*
X11145785Y-7758284D01*
X11145785Y-8520285D02*
X11145785Y-8463716D01*
X11089216Y-8463716D01*
X11089216Y-8520285D01*
X11145785Y-8520285D01*
X11399784Y-7758284D02*
X11399784Y-7701715D01*
X11343215Y-7701715D01*
X11343215Y-7758284D01*
X11399784Y-7758284D01*
X11399784Y-8520285D02*
X11399784Y-8463716D01*
X11343215Y-8463716D01*
X11343215Y-8520285D01*
X11399784Y-8520285D01*
D10*
X6713950Y-3860000D02*
X6763950Y-3810000D01*
X6713950Y-3760000D01*
X6663950Y-3810000D01*
X6713950Y-3860000D01*
X6713950Y-4114000D02*
X6763950Y-4064000D01*
X6713950Y-4014000D01*
X6663950Y-4064000D01*
X6713950Y-4114000D01*
X6713950Y-4368000D02*
X6763950Y-4318000D01*
X6713950Y-4268000D01*
X6663950Y-4318000D01*
X6713950Y-4368000D01*
X6713950Y-4622000D02*
X6763950Y-4572000D01*
X6713950Y-4522000D01*
X6663950Y-4572000D01*
X6713950Y-4622000D01*
X6713950Y-4876000D02*
X6763950Y-4826000D01*
X6713950Y-4776000D01*
X6663950Y-4826000D01*
X6713950Y-4876000D01*
X6713950Y-5130000D02*
X6763950Y-5080000D01*
X6713950Y-5030000D01*
X6663950Y-5080000D01*
X6713950Y-5130000D01*
X6713950Y-5384000D02*
X6763950Y-5334000D01*
X6713950Y-5284000D01*
X6663950Y-5334000D01*
X6713950Y-5384000D01*
X6713950Y-5638000D02*
X6763950Y-5588000D01*
X6713950Y-5538000D01*
X6663950Y-5588000D01*
X6713950Y-5638000D01*
X6713950Y-5892000D02*
X6763950Y-5842000D01*
X6713950Y-5792000D01*
X6663950Y-5842000D01*
X6713950Y-5892000D01*
X6713950Y-6146000D02*
X6763950Y-6096000D01*
X6713950Y-6046000D01*
X6663950Y-6096000D01*
X6713950Y-6146000D01*
X6713950Y-6400000D02*
X6763950Y-6350000D01*
X6713950Y-6300000D01*
X6663950Y-6350000D01*
X6713950Y-6400000D01*
X6713950Y-6654000D02*
X6763950Y-6604000D01*
X6713950Y-6554000D01*
X6663950Y-6604000D01*
X6713950Y-6654000D01*
X6713950Y-6908000D02*
X6763950Y-6858000D01*
X6713950Y-6808000D01*
X6663950Y-6858000D01*
X6713950Y-6908000D01*
X6713950Y-7162000D02*
X6763950Y-7112000D01*
X6713950Y-7062000D01*
X6663950Y-7112000D01*
X6713950Y-7162000D01*
X6713950Y-7416000D02*
X6763950Y-7366000D01*
X6713950Y-7316000D01*
X6663950Y-7366000D01*
X6713950Y-7416000D01*
X6970000Y-4622000D02*
X7020000Y-4572000D01*
X6970000Y-4522000D01*
X6920000Y-4572000D01*
X6970000Y-4622000D01*
X6970000Y-4876000D02*
X7020000Y-4826000D01*
X6970000Y-4776000D01*
X6920000Y-4826000D01*
X6970000Y-4876000D01*
X6970000Y-7162000D02*
X7020000Y-7112000D01*
X6970000Y-7062000D01*
X6920000Y-7112000D01*
X6970000Y-7162000D01*
X9002000Y-6654000D02*
X9052000Y-6604000D01*
X9002000Y-6554000D01*
X8952000Y-6604000D01*
X9002000Y-6654000D01*
X9002000Y-6908000D02*
X9052000Y-6858000D01*
X9002000Y-6808000D01*
X8952000Y-6858000D01*
X9002000Y-6908000D01*
X9253950Y-3860000D02*
X9303950Y-3810000D01*
X9253950Y-3760000D01*
X9203950Y-3810000D01*
X9253950Y-3860000D01*
X9253950Y-4114000D02*
X9303950Y-4064000D01*
X9253950Y-4014000D01*
X9203950Y-4064000D01*
X9253950Y-4114000D01*
X9253950Y-4368000D02*
X9303950Y-4318000D01*
X9253950Y-4268000D01*
X9203950Y-4318000D01*
X9253950Y-4368000D01*
X9253950Y-4622000D02*
X9303950Y-4572000D01*
X9253950Y-4522000D01*
X9203950Y-4572000D01*
X9253950Y-4622000D01*
X9253950Y-4876000D02*
X9303950Y-4826000D01*
X9253950Y-4776000D01*
X9203950Y-4826000D01*
X9253950Y-4876000D01*
X9253950Y-5130000D02*
X9303950Y-5080000D01*
X9253950Y-5030000D01*
X9203950Y-5080000D01*
X9253950Y-5130000D01*
X9253950Y-5384000D02*
X9303950Y-5334000D01*
X9253950Y-5284000D01*
X9203950Y-5334000D01*
X9253950Y-5384000D01*
X9253950Y-5638000D02*
X9303950Y-5588000D01*
X9253950Y-5538000D01*
X9203950Y-5588000D01*
X9253950Y-5638000D01*
X9253950Y-5892000D02*
X9303950Y-5842000D01*
X9253950Y-5792000D01*
X9203950Y-5842000D01*
X9253950Y-5892000D01*
X9253950Y-6146000D02*
X9303950Y-6096000D01*
X9253950Y-6046000D01*
X9203950Y-6096000D01*
X9253950Y-6146000D01*
X9253950Y-6400000D02*
X9303950Y-6350000D01*
X9253950Y-6300000D01*
X9203950Y-6350000D01*
X9253950Y-6400000D01*
X9253950Y-6654000D02*
X9303950Y-6604000D01*
X9253950Y-6554000D01*
X9203950Y-6604000D01*
X9253950Y-6654000D01*
X9253950Y-6908000D02*
X9303950Y-6858000D01*
X9253950Y-6808000D01*
X9203950Y-6858000D01*
X9253950Y-6908000D01*
X9253950Y-7162000D02*
X9303950Y-7112000D01*
X9253950Y-7062000D01*
X9203950Y-7112000D01*
X9253950Y-7162000D01*
X9253950Y-7416000D02*
X9303950Y-7366000D01*
X9253950Y-7316000D01*
X9203950Y-7366000D01*
X9253950Y-7416000D01*
X9705000Y-7172500D02*
X9755000Y-7122500D01*
X9705000Y-7072500D01*
X9655000Y-7122500D01*
X9705000Y-7172500D01*
X9906000Y-4680000D02*
X9956000Y-4630000D01*
X9906000Y-4580000D01*
X9856000Y-4630000D01*
X9906000Y-4680000D01*
X9906000Y-5480520D02*
X9956000Y-5430520D01*
X9906000Y-5380520D01*
X9856000Y-5430520D01*
X9906000Y-5480520D01*
X9959000Y-7172500D02*
X10009000Y-7122500D01*
X9959000Y-7072500D01*
X9909000Y-7122500D01*
X9959000Y-7172500D01*
X10160000Y-4680000D02*
X10210000Y-4630000D01*
X10160000Y-4580000D01*
X10110000Y-4630000D01*
X10160000Y-4680000D01*
X10160000Y-5480520D02*
X10210000Y-5430520D01*
X10160000Y-5380520D01*
X10110000Y-5430520D01*
X10160000Y-5480520D01*
X10213000Y-7172500D02*
X10263000Y-7122500D01*
X10213000Y-7072500D01*
X10163000Y-7122500D01*
X10213000Y-7172500D01*
X10282000Y-2430000D02*
X10332000Y-2380000D01*
X10282000Y-2330000D01*
X10232000Y-2380000D01*
X10282000Y-2430000D01*
X10414000Y-4680000D02*
X10464000Y-4630000D01*
X10414000Y-4580000D01*
X10364000Y-4630000D01*
X10414000Y-4680000D01*
X10414000Y-5480520D02*
X10464000Y-5430520D01*
X10414000Y-5380520D01*
X10364000Y-5430520D01*
X10414000Y-5480520D01*
X10467000Y-7172500D02*
X10517000Y-7122500D01*
X10467000Y-7072500D01*
X10417000Y-7122500D01*
X10467000Y-7172500D01*
X10536000Y-2430000D02*
X10586000Y-2380000D01*
X10536000Y-2330000D01*
X10486000Y-2380000D01*
X10536000Y-2430000D01*
X10668000Y-4680000D02*
X10718000Y-4630000D01*
X10668000Y-4580000D01*
X10618000Y-4630000D01*
X10668000Y-4680000D01*
X10668000Y-5480520D02*
X10718000Y-5430520D01*
X10668000Y-5380520D01*
X10618000Y-5430520D01*
X10668000Y-5480520D01*
X10721000Y-7172500D02*
X10771000Y-7122500D01*
X10721000Y-7072500D01*
X10671000Y-7122500D01*
X10721000Y-7172500D01*
X10790000Y-2430000D02*
X10840000Y-2380000D01*
X10790000Y-2330000D01*
X10740000Y-2380000D01*
X10790000Y-2430000D01*
X10922000Y-4680000D02*
X10972000Y-4630000D01*
X10922000Y-4580000D01*
X10872000Y-4630000D01*
X10922000Y-4680000D01*
X10922000Y-5480520D02*
X10972000Y-5430520D01*
X10922000Y-5380520D01*
X10872000Y-5430520D01*
X10922000Y-5480520D01*
X11044000Y-2430000D02*
X11094000Y-2380000D01*
X11044000Y-2330000D01*
X10994000Y-2380000D01*
X11044000Y-2430000D01*
X11176000Y-4680000D02*
X11226000Y-4630000D01*
X11176000Y-4580000D01*
X11126000Y-4630000D01*
X11176000Y-4680000D01*
X11176000Y-5480520D02*
X11226000Y-5430520D01*
X11176000Y-5380520D01*
X11126000Y-5430520D01*
X11176000Y-5480520D01*
X11298000Y-2430000D02*
X11348000Y-2380000D01*
X11298000Y-2330000D01*
X11248000Y-2380000D01*
X11298000Y-2430000D01*
X11430000Y-4680000D02*
X11480000Y-4630000D01*
X11430000Y-4580000D01*
X11380000Y-4630000D01*
X11430000Y-4680000D01*
X11840000Y-8040000D02*
X11890000Y-7990000D01*
X11840000Y-7940000D01*
X11790000Y-7990000D01*
X11840000Y-8040000D01*
X11840000Y-8294000D02*
X11890000Y-8244000D01*
X11840000Y-8194000D01*
X11790000Y-8244000D01*
X11840000Y-8294000D01*
X11840000Y-8548000D02*
X11890000Y-8498000D01*
X11840000Y-8448000D01*
X11790000Y-8498000D01*
X11840000Y-8548000D01*
X11936000Y-5122000D02*
X11986000Y-5072000D01*
X11936000Y-5022000D01*
X11886000Y-5072000D01*
X11936000Y-5122000D01*
X11936000Y-5376000D02*
X11986000Y-5326000D01*
X11936000Y-5276000D01*
X11886000Y-5326000D01*
X11936000Y-5376000D01*
X11936000Y-5630000D02*
X11986000Y-5580000D01*
X11936000Y-5530000D01*
X11886000Y-5580000D01*
X11936000Y-5630000D01*
X11936000Y-5884000D02*
X11986000Y-5834000D01*
X11936000Y-5784000D01*
X11886000Y-5834000D01*
X11936000Y-5884000D01*
X12094000Y-8040000D02*
X12144000Y-7990000D01*
X12094000Y-7940000D01*
X12044000Y-7990000D01*
X12094000Y-8040000D01*
X12094000Y-8294000D02*
X12144000Y-8244000D01*
X12094000Y-8194000D01*
X12044000Y-8244000D01*
X12094000Y-8294000D01*
X12094000Y-8548000D02*
X12144000Y-8498000D01*
X12094000Y-8448000D01*
X12044000Y-8498000D01*
X12094000Y-8548000D01*
X12190000Y-5122000D02*
X12240000Y-5072000D01*
X12190000Y-5022000D01*
X12140000Y-5072000D01*
X12190000Y-5122000D01*
X12190000Y-5376000D02*
X12240000Y-5326000D01*
X12190000Y-5276000D01*
X12140000Y-5326000D01*
X12190000Y-5376000D01*
X12190000Y-5630000D02*
X12240000Y-5580000D01*
X12190000Y-5530000D01*
X12140000Y-5580000D01*
X12190000Y-5630000D01*
X12190000Y-5884000D02*
X12240000Y-5834000D01*
X12190000Y-5784000D01*
X12140000Y-5834000D01*
X12190000Y-5884000D01*
X12446000Y-3134000D02*
X12496000Y-3084000D01*
X12446000Y-3034000D01*
X12396000Y-3084000D01*
X12446000Y-3134000D01*
X12446000Y-3388000D02*
X12496000Y-3338000D01*
X12446000Y-3288000D01*
X12396000Y-3338000D01*
X12446000Y-3388000D01*
X12446000Y-3642000D02*
X12496000Y-3592000D01*
X12446000Y-3542000D01*
X12396000Y-3592000D01*
X12446000Y-3642000D01*
X12446000Y-3896000D02*
X12496000Y-3846000D01*
X12446000Y-3796000D01*
X12396000Y-3846000D01*
X12446000Y-3896000D01*
X12446000Y-4150000D02*
X12496000Y-4100000D01*
X12446000Y-4050000D01*
X12396000Y-4100000D01*
X12446000Y-4150000D01*
X12475000Y-6970000D02*
X12525000Y-6920000D01*
X12475000Y-6870000D01*
X12425000Y-6920000D01*
X12475000Y-6970000D01*
X12475000Y-7224000D02*
X12525000Y-7174000D01*
X12475000Y-7124000D01*
X12425000Y-7174000D01*
X12475000Y-7224000D01*
X12475000Y-7478000D02*
X12525000Y-7428000D01*
X12475000Y-7378000D01*
X12425000Y-7428000D01*
X12475000Y-7478000D01*
X12475000Y-7732000D02*
X12525000Y-7682000D01*
X12475000Y-7632000D01*
X12425000Y-7682000D01*
X12475000Y-7732000D01*
X12700000Y-3134000D02*
X12750000Y-3084000D01*
X12700000Y-3034000D01*
X12650000Y-3084000D01*
X12700000Y-3134000D01*
X12700000Y-3388000D02*
X12750000Y-3338000D01*
X12700000Y-3288000D01*
X12650000Y-3338000D01*
X12700000Y-3388000D01*
X12700000Y-3642000D02*
X12750000Y-3592000D01*
X12700000Y-3542000D01*
X12650000Y-3592000D01*
X12700000Y-3642000D01*
X12700000Y-3896000D02*
X12750000Y-3846000D01*
X12700000Y-3796000D01*
X12650000Y-3846000D01*
X12700000Y-3896000D01*
X12700000Y-4150000D02*
X12750000Y-4100000D01*
X12700000Y-4050000D01*
X12650000Y-4100000D01*
X12700000Y-4150000D01*
X12729000Y-6970000D02*
X12779000Y-6920000D01*
X12729000Y-6870000D01*
X12679000Y-6920000D01*
X12729000Y-6970000D01*
X12729000Y-7224000D02*
X12779000Y-7174000D01*
X12729000Y-7124000D01*
X12679000Y-7174000D01*
X12729000Y-7224000D01*
X12729000Y-7478000D02*
X12779000Y-7428000D01*
X12729000Y-7378000D01*
X12679000Y-7428000D01*
X12729000Y-7478000D01*
X12729000Y-7732000D02*
X12779000Y-7682000D01*
X12729000Y-7632000D01*
X12679000Y-7682000D01*
X12729000Y-7732000D01*
X12730000Y-5180000D02*
X12780000Y-5130000D01*
X12730000Y-5080000D01*
X12680000Y-5130000D01*
X12730000Y-5180000D01*
X12730000Y-5434000D02*
X12780000Y-5384000D01*
X12730000Y-5334000D01*
X12680000Y-5384000D01*
X12730000Y-5434000D01*
X12730000Y-5942000D02*
X12780000Y-5892000D01*
X12730000Y-5842000D01*
X12680000Y-5892000D01*
X12730000Y-5942000D01*
D11*
X6665777Y-9196484D02*
X6665777Y-8996484D01*
X6665777Y-8996484D02*
X6713396Y-8996484D01*
X6713396Y-8996484D02*
X6741967Y-9006008D01*
X6741967Y-9006008D02*
X6761015Y-9025055D01*
X6761015Y-9025055D02*
X6770539Y-9044103D01*
X6770539Y-9044103D02*
X6780062Y-9082198D01*
X6780062Y-9082198D02*
X6780062Y-9110770D01*
X6780062Y-9110770D02*
X6770539Y-9148865D01*
X6770539Y-9148865D02*
X6761015Y-9167912D01*
X6761015Y-9167912D02*
X6741967Y-9186960D01*
X6741967Y-9186960D02*
X6713396Y-9196484D01*
X6713396Y-9196484D02*
X6665777Y-9196484D01*
X6865777Y-9196484D02*
X6865777Y-9063150D01*
X6865777Y-9101246D02*
X6875301Y-9082198D01*
X6875301Y-9082198D02*
X6884824Y-9072674D01*
X6884824Y-9072674D02*
X6903872Y-9063150D01*
X6903872Y-9063150D02*
X6922920Y-9063150D01*
X6989586Y-9196484D02*
X6989586Y-9063150D01*
X6989586Y-8996484D02*
X6980062Y-9006008D01*
X6980062Y-9006008D02*
X6989586Y-9015531D01*
X6989586Y-9015531D02*
X6999110Y-9006008D01*
X6999110Y-9006008D02*
X6989586Y-8996484D01*
X6989586Y-8996484D02*
X6989586Y-9015531D01*
X7113396Y-9196484D02*
X7094348Y-9186960D01*
X7094348Y-9186960D02*
X7084824Y-9167912D01*
X7084824Y-9167912D02*
X7084824Y-8996484D01*
X7218158Y-9196484D02*
X7199110Y-9186960D01*
X7199110Y-9186960D02*
X7189586Y-9167912D01*
X7189586Y-9167912D02*
X7189586Y-8996484D01*
X7446729Y-9196484D02*
X7446729Y-8996484D01*
X7446729Y-8996484D02*
X7513396Y-9139341D01*
X7513396Y-9139341D02*
X7580062Y-8996484D01*
X7580062Y-8996484D02*
X7580062Y-9196484D01*
X7761015Y-9196484D02*
X7761015Y-9091722D01*
X7761015Y-9091722D02*
X7751491Y-9072674D01*
X7751491Y-9072674D02*
X7732443Y-9063150D01*
X7732443Y-9063150D02*
X7694348Y-9063150D01*
X7694348Y-9063150D02*
X7675301Y-9072674D01*
X7761015Y-9186960D02*
X7741967Y-9196484D01*
X7741967Y-9196484D02*
X7694348Y-9196484D01*
X7694348Y-9196484D02*
X7675301Y-9186960D01*
X7675301Y-9186960D02*
X7665777Y-9167912D01*
X7665777Y-9167912D02*
X7665777Y-9148865D01*
X7665777Y-9148865D02*
X7675301Y-9129817D01*
X7675301Y-9129817D02*
X7694348Y-9120293D01*
X7694348Y-9120293D02*
X7741967Y-9120293D01*
X7741967Y-9120293D02*
X7761015Y-9110770D01*
X7856253Y-9063150D02*
X7856253Y-9263150D01*
X7856253Y-9072674D02*
X7875301Y-9063150D01*
X7875301Y-9063150D02*
X7913396Y-9063150D01*
X7913396Y-9063150D02*
X7932443Y-9072674D01*
X7932443Y-9072674D02*
X7941967Y-9082198D01*
X7941967Y-9082198D02*
X7951491Y-9101246D01*
X7951491Y-9101246D02*
X7951491Y-9158389D01*
X7951491Y-9158389D02*
X7941967Y-9177436D01*
X7941967Y-9177436D02*
X7932443Y-9186960D01*
X7932443Y-9186960D02*
X7913396Y-9196484D01*
X7913396Y-9196484D02*
X7875301Y-9196484D01*
X7875301Y-9196484D02*
X7856253Y-9186960D01*
X8037205Y-9177436D02*
X8046729Y-9186960D01*
X8046729Y-9186960D02*
X8037205Y-9196484D01*
X8037205Y-9196484D02*
X8027682Y-9186960D01*
X8027682Y-9186960D02*
X8037205Y-9177436D01*
X8037205Y-9177436D02*
X8037205Y-9196484D01*
X8037205Y-9072674D02*
X8046729Y-9082198D01*
X8046729Y-9082198D02*
X8037205Y-9091722D01*
X8037205Y-9091722D02*
X8027682Y-9082198D01*
X8027682Y-9082198D02*
X8037205Y-9072674D01*
X8037205Y-9072674D02*
X8037205Y-9091722D01*
D12*
X6365000Y-9505000D02*
X6405000Y-9545000D01*
X6405000Y-9505000D02*
X6365000Y-9545000D01*
D11*
X6703872Y-9416484D02*
X6722920Y-9416484D01*
X6722920Y-9416484D02*
X6741967Y-9426008D01*
X6741967Y-9426008D02*
X6751491Y-9435531D01*
X6751491Y-9435531D02*
X6761015Y-9454579D01*
X6761015Y-9454579D02*
X6770539Y-9492674D01*
X6770539Y-9492674D02*
X6770539Y-9540293D01*
X6770539Y-9540293D02*
X6761015Y-9578389D01*
X6761015Y-9578389D02*
X6751491Y-9597436D01*
X6751491Y-9597436D02*
X6741967Y-9606960D01*
X6741967Y-9606960D02*
X6722920Y-9616484D01*
X6722920Y-9616484D02*
X6703872Y-9616484D01*
X6703872Y-9616484D02*
X6684824Y-9606960D01*
X6684824Y-9606960D02*
X6675301Y-9597436D01*
X6675301Y-9597436D02*
X6665777Y-9578389D01*
X6665777Y-9578389D02*
X6656253Y-9540293D01*
X6656253Y-9540293D02*
X6656253Y-9492674D01*
X6656253Y-9492674D02*
X6665777Y-9454579D01*
X6665777Y-9454579D02*
X6675301Y-9435531D01*
X6675301Y-9435531D02*
X6684824Y-9426008D01*
X6684824Y-9426008D02*
X6703872Y-9416484D01*
X6856253Y-9597436D02*
X6865777Y-9606960D01*
X6865777Y-9606960D02*
X6856253Y-9616484D01*
X6856253Y-9616484D02*
X6846729Y-9606960D01*
X6846729Y-9606960D02*
X6856253Y-9597436D01*
X6856253Y-9597436D02*
X6856253Y-9616484D01*
X7037205Y-9483150D02*
X7037205Y-9616484D01*
X6989586Y-9406960D02*
X6941967Y-9549817D01*
X6941967Y-9549817D02*
X7065777Y-9549817D01*
X7180062Y-9416484D02*
X7199110Y-9416484D01*
X7199110Y-9416484D02*
X7218158Y-9426008D01*
X7218158Y-9426008D02*
X7227682Y-9435531D01*
X7227682Y-9435531D02*
X7237205Y-9454579D01*
X7237205Y-9454579D02*
X7246729Y-9492674D01*
X7246729Y-9492674D02*
X7246729Y-9540293D01*
X7246729Y-9540293D02*
X7237205Y-9578389D01*
X7237205Y-9578389D02*
X7227682Y-9597436D01*
X7227682Y-9597436D02*
X7218158Y-9606960D01*
X7218158Y-9606960D02*
X7199110Y-9616484D01*
X7199110Y-9616484D02*
X7180062Y-9616484D01*
X7180062Y-9616484D02*
X7161015Y-9606960D01*
X7161015Y-9606960D02*
X7151491Y-9597436D01*
X7151491Y-9597436D02*
X7141967Y-9578389D01*
X7141967Y-9578389D02*
X7132443Y-9540293D01*
X7132443Y-9540293D02*
X7132443Y-9492674D01*
X7132443Y-9492674D02*
X7141967Y-9454579D01*
X7141967Y-9454579D02*
X7151491Y-9435531D01*
X7151491Y-9435531D02*
X7161015Y-9426008D01*
X7161015Y-9426008D02*
X7180062Y-9416484D01*
X7370539Y-9416484D02*
X7389586Y-9416484D01*
X7389586Y-9416484D02*
X7408634Y-9426008D01*
X7408634Y-9426008D02*
X7418158Y-9435531D01*
X7418158Y-9435531D02*
X7427682Y-9454579D01*
X7427682Y-9454579D02*
X7437205Y-9492674D01*
X7437205Y-9492674D02*
X7437205Y-9540293D01*
X7437205Y-9540293D02*
X7427682Y-9578389D01*
X7427682Y-9578389D02*
X7418158Y-9597436D01*
X7418158Y-9597436D02*
X7408634Y-9606960D01*
X7408634Y-9606960D02*
X7389586Y-9616484D01*
X7389586Y-9616484D02*
X7370539Y-9616484D01*
X7370539Y-9616484D02*
X7351491Y-9606960D01*
X7351491Y-9606960D02*
X7341967Y-9597436D01*
X7341967Y-9597436D02*
X7332443Y-9578389D01*
X7332443Y-9578389D02*
X7322920Y-9540293D01*
X7322920Y-9540293D02*
X7322920Y-9492674D01*
X7322920Y-9492674D02*
X7332443Y-9454579D01*
X7332443Y-9454579D02*
X7341967Y-9435531D01*
X7341967Y-9435531D02*
X7351491Y-9426008D01*
X7351491Y-9426008D02*
X7370539Y-9416484D01*
X7522920Y-9616484D02*
X7522920Y-9483150D01*
X7522920Y-9502198D02*
X7532443Y-9492674D01*
X7532443Y-9492674D02*
X7551491Y-9483150D01*
X7551491Y-9483150D02*
X7580063Y-9483150D01*
X7580063Y-9483150D02*
X7599110Y-9492674D01*
X7599110Y-9492674D02*
X7608634Y-9511722D01*
X7608634Y-9511722D02*
X7608634Y-9616484D01*
X7608634Y-9511722D02*
X7618158Y-9492674D01*
X7618158Y-9492674D02*
X7637205Y-9483150D01*
X7637205Y-9483150D02*
X7665777Y-9483150D01*
X7665777Y-9483150D02*
X7684824Y-9492674D01*
X7684824Y-9492674D02*
X7694348Y-9511722D01*
X7694348Y-9511722D02*
X7694348Y-9616484D01*
X7789586Y-9616484D02*
X7789586Y-9483150D01*
X7789586Y-9502198D02*
X7799110Y-9492674D01*
X7799110Y-9492674D02*
X7818158Y-9483150D01*
X7818158Y-9483150D02*
X7846729Y-9483150D01*
X7846729Y-9483150D02*
X7865777Y-9492674D01*
X7865777Y-9492674D02*
X7875301Y-9511722D01*
X7875301Y-9511722D02*
X7875301Y-9616484D01*
X7875301Y-9511722D02*
X7884824Y-9492674D01*
X7884824Y-9492674D02*
X7903872Y-9483150D01*
X7903872Y-9483150D02*
X7932443Y-9483150D01*
X7932443Y-9483150D02*
X7951491Y-9492674D01*
X7951491Y-9492674D02*
X7961015Y-9511722D01*
X7961015Y-9511722D02*
X7961015Y-9616484D01*
X8351491Y-9406960D02*
X8180063Y-9664103D01*
X8608634Y-9416484D02*
X8627682Y-9416484D01*
X8627682Y-9416484D02*
X8646729Y-9426008D01*
X8646729Y-9426008D02*
X8656253Y-9435531D01*
X8656253Y-9435531D02*
X8665777Y-9454579D01*
X8665777Y-9454579D02*
X8675301Y-9492674D01*
X8675301Y-9492674D02*
X8675301Y-9540293D01*
X8675301Y-9540293D02*
X8665777Y-9578389D01*
X8665777Y-9578389D02*
X8656253Y-9597436D01*
X8656253Y-9597436D02*
X8646729Y-9606960D01*
X8646729Y-9606960D02*
X8627682Y-9616484D01*
X8627682Y-9616484D02*
X8608634Y-9616484D01*
X8608634Y-9616484D02*
X8589587Y-9606960D01*
X8589587Y-9606960D02*
X8580063Y-9597436D01*
X8580063Y-9597436D02*
X8570539Y-9578389D01*
X8570539Y-9578389D02*
X8561015Y-9540293D01*
X8561015Y-9540293D02*
X8561015Y-9492674D01*
X8561015Y-9492674D02*
X8570539Y-9454579D01*
X8570539Y-9454579D02*
X8580063Y-9435531D01*
X8580063Y-9435531D02*
X8589587Y-9426008D01*
X8589587Y-9426008D02*
X8608634Y-9416484D01*
X8761015Y-9597436D02*
X8770539Y-9606960D01*
X8770539Y-9606960D02*
X8761015Y-9616484D01*
X8761015Y-9616484D02*
X8751491Y-9606960D01*
X8751491Y-9606960D02*
X8761015Y-9597436D01*
X8761015Y-9597436D02*
X8761015Y-9616484D01*
X8894348Y-9416484D02*
X8913396Y-9416484D01*
X8913396Y-9416484D02*
X8932444Y-9426008D01*
X8932444Y-9426008D02*
X8941968Y-9435531D01*
X8941968Y-9435531D02*
X8951491Y-9454579D01*
X8951491Y-9454579D02*
X8961015Y-9492674D01*
X8961015Y-9492674D02*
X8961015Y-9540293D01*
X8961015Y-9540293D02*
X8951491Y-9578389D01*
X8951491Y-9578389D02*
X8941968Y-9597436D01*
X8941968Y-9597436D02*
X8932444Y-9606960D01*
X8932444Y-9606960D02*
X8913396Y-9616484D01*
X8913396Y-9616484D02*
X8894348Y-9616484D01*
X8894348Y-9616484D02*
X8875301Y-9606960D01*
X8875301Y-9606960D02*
X8865777Y-9597436D01*
X8865777Y-9597436D02*
X8856253Y-9578389D01*
X8856253Y-9578389D02*
X8846729Y-9540293D01*
X8846729Y-9540293D02*
X8846729Y-9492674D01*
X8846729Y-9492674D02*
X8856253Y-9454579D01*
X8856253Y-9454579D02*
X8865777Y-9435531D01*
X8865777Y-9435531D02*
X8875301Y-9426008D01*
X8875301Y-9426008D02*
X8894348Y-9416484D01*
X9151491Y-9616484D02*
X9037206Y-9616484D01*
X9094348Y-9616484D02*
X9094348Y-9416484D01*
X9094348Y-9416484D02*
X9075301Y-9445055D01*
X9075301Y-9445055D02*
X9056253Y-9464103D01*
X9056253Y-9464103D02*
X9037206Y-9473627D01*
X9332444Y-9416484D02*
X9237206Y-9416484D01*
X9237206Y-9416484D02*
X9227682Y-9511722D01*
X9227682Y-9511722D02*
X9237206Y-9502198D01*
X9237206Y-9502198D02*
X9256253Y-9492674D01*
X9256253Y-9492674D02*
X9303872Y-9492674D01*
X9303872Y-9492674D02*
X9322920Y-9502198D01*
X9322920Y-9502198D02*
X9332444Y-9511722D01*
X9332444Y-9511722D02*
X9341968Y-9530770D01*
X9341968Y-9530770D02*
X9341968Y-9578389D01*
X9341968Y-9578389D02*
X9332444Y-9597436D01*
X9332444Y-9597436D02*
X9322920Y-9606960D01*
X9322920Y-9606960D02*
X9303872Y-9616484D01*
X9303872Y-9616484D02*
X9256253Y-9616484D01*
X9256253Y-9616484D02*
X9237206Y-9606960D01*
X9237206Y-9606960D02*
X9227682Y-9597436D01*
X9408634Y-9416484D02*
X9541968Y-9416484D01*
X9541968Y-9416484D02*
X9456253Y-9616484D01*
X9608634Y-9416484D02*
X9608634Y-9454579D01*
X9684825Y-9416484D02*
X9684825Y-9454579D01*
X9980063Y-9692674D02*
X9970539Y-9683150D01*
X9970539Y-9683150D02*
X9951491Y-9654579D01*
X9951491Y-9654579D02*
X9941968Y-9635531D01*
X9941968Y-9635531D02*
X9932444Y-9606960D01*
X9932444Y-9606960D02*
X9922920Y-9559341D01*
X9922920Y-9559341D02*
X9922920Y-9521246D01*
X9922920Y-9521246D02*
X9932444Y-9473627D01*
X9932444Y-9473627D02*
X9941968Y-9445055D01*
X9941968Y-9445055D02*
X9951491Y-9426008D01*
X9951491Y-9426008D02*
X9970539Y-9397436D01*
X9970539Y-9397436D02*
X9980063Y-9387912D01*
X10141968Y-9416484D02*
X10103872Y-9416484D01*
X10103872Y-9416484D02*
X10084825Y-9426008D01*
X10084825Y-9426008D02*
X10075301Y-9435531D01*
X10075301Y-9435531D02*
X10056253Y-9464103D01*
X10056253Y-9464103D02*
X10046730Y-9502198D01*
X10046730Y-9502198D02*
X10046730Y-9578389D01*
X10046730Y-9578389D02*
X10056253Y-9597436D01*
X10056253Y-9597436D02*
X10065777Y-9606960D01*
X10065777Y-9606960D02*
X10084825Y-9616484D01*
X10084825Y-9616484D02*
X10122920Y-9616484D01*
X10122920Y-9616484D02*
X10141968Y-9606960D01*
X10141968Y-9606960D02*
X10151491Y-9597436D01*
X10151491Y-9597436D02*
X10161015Y-9578389D01*
X10161015Y-9578389D02*
X10161015Y-9530770D01*
X10161015Y-9530770D02*
X10151491Y-9511722D01*
X10151491Y-9511722D02*
X10141968Y-9502198D01*
X10141968Y-9502198D02*
X10122920Y-9492674D01*
X10122920Y-9492674D02*
X10084825Y-9492674D01*
X10084825Y-9492674D02*
X10065777Y-9502198D01*
X10065777Y-9502198D02*
X10056253Y-9511722D01*
X10056253Y-9511722D02*
X10046730Y-9530770D01*
X10399111Y-9616484D02*
X10399111Y-9416484D01*
X10484825Y-9616484D02*
X10484825Y-9511722D01*
X10484825Y-9511722D02*
X10475301Y-9492674D01*
X10475301Y-9492674D02*
X10456253Y-9483150D01*
X10456253Y-9483150D02*
X10427682Y-9483150D01*
X10427682Y-9483150D02*
X10408634Y-9492674D01*
X10408634Y-9492674D02*
X10399111Y-9502198D01*
X10608634Y-9616484D02*
X10589587Y-9606960D01*
X10589587Y-9606960D02*
X10580063Y-9597436D01*
X10580063Y-9597436D02*
X10570539Y-9578389D01*
X10570539Y-9578389D02*
X10570539Y-9521246D01*
X10570539Y-9521246D02*
X10580063Y-9502198D01*
X10580063Y-9502198D02*
X10589587Y-9492674D01*
X10589587Y-9492674D02*
X10608634Y-9483150D01*
X10608634Y-9483150D02*
X10637206Y-9483150D01*
X10637206Y-9483150D02*
X10656253Y-9492674D01*
X10656253Y-9492674D02*
X10665777Y-9502198D01*
X10665777Y-9502198D02*
X10675301Y-9521246D01*
X10675301Y-9521246D02*
X10675301Y-9578389D01*
X10675301Y-9578389D02*
X10665777Y-9597436D01*
X10665777Y-9597436D02*
X10656253Y-9606960D01*
X10656253Y-9606960D02*
X10637206Y-9616484D01*
X10637206Y-9616484D02*
X10608634Y-9616484D01*
X10789587Y-9616484D02*
X10770539Y-9606960D01*
X10770539Y-9606960D02*
X10761015Y-9587912D01*
X10761015Y-9587912D02*
X10761015Y-9416484D01*
X10941968Y-9606960D02*
X10922920Y-9616484D01*
X10922920Y-9616484D02*
X10884825Y-9616484D01*
X10884825Y-9616484D02*
X10865777Y-9606960D01*
X10865777Y-9606960D02*
X10856253Y-9587912D01*
X10856253Y-9587912D02*
X10856253Y-9511722D01*
X10856253Y-9511722D02*
X10865777Y-9492674D01*
X10865777Y-9492674D02*
X10884825Y-9483150D01*
X10884825Y-9483150D02*
X10922920Y-9483150D01*
X10922920Y-9483150D02*
X10941968Y-9492674D01*
X10941968Y-9492674D02*
X10951492Y-9511722D01*
X10951492Y-9511722D02*
X10951492Y-9530770D01*
X10951492Y-9530770D02*
X10856253Y-9549817D01*
X11027682Y-9606960D02*
X11046730Y-9616484D01*
X11046730Y-9616484D02*
X11084825Y-9616484D01*
X11084825Y-9616484D02*
X11103873Y-9606960D01*
X11103873Y-9606960D02*
X11113396Y-9587912D01*
X11113396Y-9587912D02*
X11113396Y-9578389D01*
X11113396Y-9578389D02*
X11103873Y-9559341D01*
X11103873Y-9559341D02*
X11084825Y-9549817D01*
X11084825Y-9549817D02*
X11056253Y-9549817D01*
X11056253Y-9549817D02*
X11037206Y-9540293D01*
X11037206Y-9540293D02*
X11027682Y-9521246D01*
X11027682Y-9521246D02*
X11027682Y-9511722D01*
X11027682Y-9511722D02*
X11037206Y-9492674D01*
X11037206Y-9492674D02*
X11056253Y-9483150D01*
X11056253Y-9483150D02*
X11084825Y-9483150D01*
X11084825Y-9483150D02*
X11103873Y-9492674D01*
X11180063Y-9692674D02*
X11189587Y-9683150D01*
X11189587Y-9683150D02*
X11208634Y-9654579D01*
X11208634Y-9654579D02*
X11218158Y-9635531D01*
X11218158Y-9635531D02*
X11227682Y-9606960D01*
X11227682Y-9606960D02*
X11237206Y-9559341D01*
X11237206Y-9559341D02*
X11237206Y-9521246D01*
X11237206Y-9521246D02*
X11227682Y-9473627D01*
X11227682Y-9473627D02*
X11218158Y-9445055D01*
X11218158Y-9445055D02*
X11208634Y-9426008D01*
X11208634Y-9426008D02*
X11189587Y-9397436D01*
X11189587Y-9397436D02*
X11180063Y-9387912D01*
D13*
X6405000Y-9789000D02*
G75*
G03*
X6405000Y-9789000I-25000J0D01*
G01*
D11*
X6703872Y-9680484D02*
X6722920Y-9680484D01*
X6722920Y-9680484D02*
X6741967Y-9690008D01*
X6741967Y-9690008D02*
X6751491Y-9699531D01*
X6751491Y-9699531D02*
X6761015Y-9718579D01*
X6761015Y-9718579D02*
X6770539Y-9756674D01*
X6770539Y-9756674D02*
X6770539Y-9804293D01*
X6770539Y-9804293D02*
X6761015Y-9842389D01*
X6761015Y-9842389D02*
X6751491Y-9861436D01*
X6751491Y-9861436D02*
X6741967Y-9870960D01*
X6741967Y-9870960D02*
X6722920Y-9880484D01*
X6722920Y-9880484D02*
X6703872Y-9880484D01*
X6703872Y-9880484D02*
X6684824Y-9870960D01*
X6684824Y-9870960D02*
X6675301Y-9861436D01*
X6675301Y-9861436D02*
X6665777Y-9842389D01*
X6665777Y-9842389D02*
X6656253Y-9804293D01*
X6656253Y-9804293D02*
X6656253Y-9756674D01*
X6656253Y-9756674D02*
X6665777Y-9718579D01*
X6665777Y-9718579D02*
X6675301Y-9699531D01*
X6675301Y-9699531D02*
X6684824Y-9690008D01*
X6684824Y-9690008D02*
X6703872Y-9680484D01*
X6856253Y-9861436D02*
X6865777Y-9870960D01*
X6865777Y-9870960D02*
X6856253Y-9880484D01*
X6856253Y-9880484D02*
X6846729Y-9870960D01*
X6846729Y-9870960D02*
X6856253Y-9861436D01*
X6856253Y-9861436D02*
X6856253Y-9880484D01*
X7046729Y-9680484D02*
X6951491Y-9680484D01*
X6951491Y-9680484D02*
X6941967Y-9775722D01*
X6941967Y-9775722D02*
X6951491Y-9766198D01*
X6951491Y-9766198D02*
X6970539Y-9756674D01*
X6970539Y-9756674D02*
X7018158Y-9756674D01*
X7018158Y-9756674D02*
X7037205Y-9766198D01*
X7037205Y-9766198D02*
X7046729Y-9775722D01*
X7046729Y-9775722D02*
X7056253Y-9794770D01*
X7056253Y-9794770D02*
X7056253Y-9842389D01*
X7056253Y-9842389D02*
X7046729Y-9861436D01*
X7046729Y-9861436D02*
X7037205Y-9870960D01*
X7037205Y-9870960D02*
X7018158Y-9880484D01*
X7018158Y-9880484D02*
X6970539Y-9880484D01*
X6970539Y-9880484D02*
X6951491Y-9870960D01*
X6951491Y-9870960D02*
X6941967Y-9861436D01*
X7180062Y-9680484D02*
X7199110Y-9680484D01*
X7199110Y-9680484D02*
X7218158Y-9690008D01*
X7218158Y-9690008D02*
X7227682Y-9699531D01*
X7227682Y-9699531D02*
X7237205Y-9718579D01*
X7237205Y-9718579D02*
X7246729Y-9756674D01*
X7246729Y-9756674D02*
X7246729Y-9804293D01*
X7246729Y-9804293D02*
X7237205Y-9842389D01*
X7237205Y-9842389D02*
X7227682Y-9861436D01*
X7227682Y-9861436D02*
X7218158Y-9870960D01*
X7218158Y-9870960D02*
X7199110Y-9880484D01*
X7199110Y-9880484D02*
X7180062Y-9880484D01*
X7180062Y-9880484D02*
X7161015Y-9870960D01*
X7161015Y-9870960D02*
X7151491Y-9861436D01*
X7151491Y-9861436D02*
X7141967Y-9842389D01*
X7141967Y-9842389D02*
X7132443Y-9804293D01*
X7132443Y-9804293D02*
X7132443Y-9756674D01*
X7132443Y-9756674D02*
X7141967Y-9718579D01*
X7141967Y-9718579D02*
X7151491Y-9699531D01*
X7151491Y-9699531D02*
X7161015Y-9690008D01*
X7161015Y-9690008D02*
X7180062Y-9680484D01*
X7370539Y-9680484D02*
X7389586Y-9680484D01*
X7389586Y-9680484D02*
X7408634Y-9690008D01*
X7408634Y-9690008D02*
X7418158Y-9699531D01*
X7418158Y-9699531D02*
X7427682Y-9718579D01*
X7427682Y-9718579D02*
X7437205Y-9756674D01*
X7437205Y-9756674D02*
X7437205Y-9804293D01*
X7437205Y-9804293D02*
X7427682Y-9842389D01*
X7427682Y-9842389D02*
X7418158Y-9861436D01*
X7418158Y-9861436D02*
X7408634Y-9870960D01*
X7408634Y-9870960D02*
X7389586Y-9880484D01*
X7389586Y-9880484D02*
X7370539Y-9880484D01*
X7370539Y-9880484D02*
X7351491Y-9870960D01*
X7351491Y-9870960D02*
X7341967Y-9861436D01*
X7341967Y-9861436D02*
X7332443Y-9842389D01*
X7332443Y-9842389D02*
X7322920Y-9804293D01*
X7322920Y-9804293D02*
X7322920Y-9756674D01*
X7322920Y-9756674D02*
X7332443Y-9718579D01*
X7332443Y-9718579D02*
X7341967Y-9699531D01*
X7341967Y-9699531D02*
X7351491Y-9690008D01*
X7351491Y-9690008D02*
X7370539Y-9680484D01*
X7522920Y-9880484D02*
X7522920Y-9747150D01*
X7522920Y-9766198D02*
X7532443Y-9756674D01*
X7532443Y-9756674D02*
X7551491Y-9747150D01*
X7551491Y-9747150D02*
X7580063Y-9747150D01*
X7580063Y-9747150D02*
X7599110Y-9756674D01*
X7599110Y-9756674D02*
X7608634Y-9775722D01*
X7608634Y-9775722D02*
X7608634Y-9880484D01*
X7608634Y-9775722D02*
X7618158Y-9756674D01*
X7618158Y-9756674D02*
X7637205Y-9747150D01*
X7637205Y-9747150D02*
X7665777Y-9747150D01*
X7665777Y-9747150D02*
X7684824Y-9756674D01*
X7684824Y-9756674D02*
X7694348Y-9775722D01*
X7694348Y-9775722D02*
X7694348Y-9880484D01*
X7789586Y-9880484D02*
X7789586Y-9747150D01*
X7789586Y-9766198D02*
X7799110Y-9756674D01*
X7799110Y-9756674D02*
X7818158Y-9747150D01*
X7818158Y-9747150D02*
X7846729Y-9747150D01*
X7846729Y-9747150D02*
X7865777Y-9756674D01*
X7865777Y-9756674D02*
X7875301Y-9775722D01*
X7875301Y-9775722D02*
X7875301Y-9880484D01*
X7875301Y-9775722D02*
X7884824Y-9756674D01*
X7884824Y-9756674D02*
X7903872Y-9747150D01*
X7903872Y-9747150D02*
X7932443Y-9747150D01*
X7932443Y-9747150D02*
X7951491Y-9756674D01*
X7951491Y-9756674D02*
X7961015Y-9775722D01*
X7961015Y-9775722D02*
X7961015Y-9880484D01*
X8351491Y-9670960D02*
X8180063Y-9928103D01*
X8608634Y-9680484D02*
X8627682Y-9680484D01*
X8627682Y-9680484D02*
X8646729Y-9690008D01*
X8646729Y-9690008D02*
X8656253Y-9699531D01*
X8656253Y-9699531D02*
X8665777Y-9718579D01*
X8665777Y-9718579D02*
X8675301Y-9756674D01*
X8675301Y-9756674D02*
X8675301Y-9804293D01*
X8675301Y-9804293D02*
X8665777Y-9842389D01*
X8665777Y-9842389D02*
X8656253Y-9861436D01*
X8656253Y-9861436D02*
X8646729Y-9870960D01*
X8646729Y-9870960D02*
X8627682Y-9880484D01*
X8627682Y-9880484D02*
X8608634Y-9880484D01*
X8608634Y-9880484D02*
X8589587Y-9870960D01*
X8589587Y-9870960D02*
X8580063Y-9861436D01*
X8580063Y-9861436D02*
X8570539Y-9842389D01*
X8570539Y-9842389D02*
X8561015Y-9804293D01*
X8561015Y-9804293D02*
X8561015Y-9756674D01*
X8561015Y-9756674D02*
X8570539Y-9718579D01*
X8570539Y-9718579D02*
X8580063Y-9699531D01*
X8580063Y-9699531D02*
X8589587Y-9690008D01*
X8589587Y-9690008D02*
X8608634Y-9680484D01*
X8761015Y-9861436D02*
X8770539Y-9870960D01*
X8770539Y-9870960D02*
X8761015Y-9880484D01*
X8761015Y-9880484D02*
X8751491Y-9870960D01*
X8751491Y-9870960D02*
X8761015Y-9861436D01*
X8761015Y-9861436D02*
X8761015Y-9880484D01*
X8894348Y-9680484D02*
X8913396Y-9680484D01*
X8913396Y-9680484D02*
X8932444Y-9690008D01*
X8932444Y-9690008D02*
X8941968Y-9699531D01*
X8941968Y-9699531D02*
X8951491Y-9718579D01*
X8951491Y-9718579D02*
X8961015Y-9756674D01*
X8961015Y-9756674D02*
X8961015Y-9804293D01*
X8961015Y-9804293D02*
X8951491Y-9842389D01*
X8951491Y-9842389D02*
X8941968Y-9861436D01*
X8941968Y-9861436D02*
X8932444Y-9870960D01*
X8932444Y-9870960D02*
X8913396Y-9880484D01*
X8913396Y-9880484D02*
X8894348Y-9880484D01*
X8894348Y-9880484D02*
X8875301Y-9870960D01*
X8875301Y-9870960D02*
X8865777Y-9861436D01*
X8865777Y-9861436D02*
X8856253Y-9842389D01*
X8856253Y-9842389D02*
X8846729Y-9804293D01*
X8846729Y-9804293D02*
X8846729Y-9756674D01*
X8846729Y-9756674D02*
X8856253Y-9718579D01*
X8856253Y-9718579D02*
X8865777Y-9699531D01*
X8865777Y-9699531D02*
X8875301Y-9690008D01*
X8875301Y-9690008D02*
X8894348Y-9680484D01*
X9151491Y-9880484D02*
X9037206Y-9880484D01*
X9094348Y-9880484D02*
X9094348Y-9680484D01*
X9094348Y-9680484D02*
X9075301Y-9709055D01*
X9075301Y-9709055D02*
X9056253Y-9728103D01*
X9056253Y-9728103D02*
X9037206Y-9737627D01*
X9246729Y-9880484D02*
X9284825Y-9880484D01*
X9284825Y-9880484D02*
X9303872Y-9870960D01*
X9303872Y-9870960D02*
X9313396Y-9861436D01*
X9313396Y-9861436D02*
X9332444Y-9832865D01*
X9332444Y-9832865D02*
X9341968Y-9794770D01*
X9341968Y-9794770D02*
X9341968Y-9718579D01*
X9341968Y-9718579D02*
X9332444Y-9699531D01*
X9332444Y-9699531D02*
X9322920Y-9690008D01*
X9322920Y-9690008D02*
X9303872Y-9680484D01*
X9303872Y-9680484D02*
X9265777Y-9680484D01*
X9265777Y-9680484D02*
X9246729Y-9690008D01*
X9246729Y-9690008D02*
X9237206Y-9699531D01*
X9237206Y-9699531D02*
X9227682Y-9718579D01*
X9227682Y-9718579D02*
X9227682Y-9766198D01*
X9227682Y-9766198D02*
X9237206Y-9785246D01*
X9237206Y-9785246D02*
X9246729Y-9794770D01*
X9246729Y-9794770D02*
X9265777Y-9804293D01*
X9265777Y-9804293D02*
X9303872Y-9804293D01*
X9303872Y-9804293D02*
X9322920Y-9794770D01*
X9322920Y-9794770D02*
X9332444Y-9785246D01*
X9332444Y-9785246D02*
X9341968Y-9766198D01*
X9408634Y-9680484D02*
X9541968Y-9680484D01*
X9541968Y-9680484D02*
X9456253Y-9880484D01*
X9608634Y-9680484D02*
X9608634Y-9718579D01*
X9684825Y-9680484D02*
X9684825Y-9718579D01*
X9980063Y-9956674D02*
X9970539Y-9947150D01*
X9970539Y-9947150D02*
X9951491Y-9918579D01*
X9951491Y-9918579D02*
X9941968Y-9899531D01*
X9941968Y-9899531D02*
X9932444Y-9870960D01*
X9932444Y-9870960D02*
X9922920Y-9823341D01*
X9922920Y-9823341D02*
X9922920Y-9785246D01*
X9922920Y-9785246D02*
X9932444Y-9737627D01*
X9932444Y-9737627D02*
X9941968Y-9709055D01*
X9941968Y-9709055D02*
X9951491Y-9690008D01*
X9951491Y-9690008D02*
X9970539Y-9661436D01*
X9970539Y-9661436D02*
X9980063Y-9651912D01*
X10141968Y-9747150D02*
X10141968Y-9880484D01*
X10094349Y-9670960D02*
X10046730Y-9813817D01*
X10046730Y-9813817D02*
X10170539Y-9813817D01*
X10399111Y-9880484D02*
X10399111Y-9680484D01*
X10484825Y-9880484D02*
X10484825Y-9775722D01*
X10484825Y-9775722D02*
X10475301Y-9756674D01*
X10475301Y-9756674D02*
X10456253Y-9747150D01*
X10456253Y-9747150D02*
X10427682Y-9747150D01*
X10427682Y-9747150D02*
X10408634Y-9756674D01*
X10408634Y-9756674D02*
X10399111Y-9766198D01*
X10608634Y-9880484D02*
X10589587Y-9870960D01*
X10589587Y-9870960D02*
X10580063Y-9861436D01*
X10580063Y-9861436D02*
X10570539Y-9842389D01*
X10570539Y-9842389D02*
X10570539Y-9785246D01*
X10570539Y-9785246D02*
X10580063Y-9766198D01*
X10580063Y-9766198D02*
X10589587Y-9756674D01*
X10589587Y-9756674D02*
X10608634Y-9747150D01*
X10608634Y-9747150D02*
X10637206Y-9747150D01*
X10637206Y-9747150D02*
X10656253Y-9756674D01*
X10656253Y-9756674D02*
X10665777Y-9766198D01*
X10665777Y-9766198D02*
X10675301Y-9785246D01*
X10675301Y-9785246D02*
X10675301Y-9842389D01*
X10675301Y-9842389D02*
X10665777Y-9861436D01*
X10665777Y-9861436D02*
X10656253Y-9870960D01*
X10656253Y-9870960D02*
X10637206Y-9880484D01*
X10637206Y-9880484D02*
X10608634Y-9880484D01*
X10789587Y-9880484D02*
X10770539Y-9870960D01*
X10770539Y-9870960D02*
X10761015Y-9851912D01*
X10761015Y-9851912D02*
X10761015Y-9680484D01*
X10941968Y-9870960D02*
X10922920Y-9880484D01*
X10922920Y-9880484D02*
X10884825Y-9880484D01*
X10884825Y-9880484D02*
X10865777Y-9870960D01*
X10865777Y-9870960D02*
X10856253Y-9851912D01*
X10856253Y-9851912D02*
X10856253Y-9775722D01*
X10856253Y-9775722D02*
X10865777Y-9756674D01*
X10865777Y-9756674D02*
X10884825Y-9747150D01*
X10884825Y-9747150D02*
X10922920Y-9747150D01*
X10922920Y-9747150D02*
X10941968Y-9756674D01*
X10941968Y-9756674D02*
X10951492Y-9775722D01*
X10951492Y-9775722D02*
X10951492Y-9794770D01*
X10951492Y-9794770D02*
X10856253Y-9813817D01*
X11027682Y-9870960D02*
X11046730Y-9880484D01*
X11046730Y-9880484D02*
X11084825Y-9880484D01*
X11084825Y-9880484D02*
X11103873Y-9870960D01*
X11103873Y-9870960D02*
X11113396Y-9851912D01*
X11113396Y-9851912D02*
X11113396Y-9842389D01*
X11113396Y-9842389D02*
X11103873Y-9823341D01*
X11103873Y-9823341D02*
X11084825Y-9813817D01*
X11084825Y-9813817D02*
X11056253Y-9813817D01*
X11056253Y-9813817D02*
X11037206Y-9804293D01*
X11037206Y-9804293D02*
X11027682Y-9785246D01*
X11027682Y-9785246D02*
X11027682Y-9775722D01*
X11027682Y-9775722D02*
X11037206Y-9756674D01*
X11037206Y-9756674D02*
X11056253Y-9747150D01*
X11056253Y-9747150D02*
X11084825Y-9747150D01*
X11084825Y-9747150D02*
X11103873Y-9756674D01*
X11180063Y-9956674D02*
X11189587Y-9947150D01*
X11189587Y-9947150D02*
X11208634Y-9918579D01*
X11208634Y-9918579D02*
X11218158Y-9899531D01*
X11218158Y-9899531D02*
X11227682Y-9870960D01*
X11227682Y-9870960D02*
X11237206Y-9823341D01*
X11237206Y-9823341D02*
X11237206Y-9785246D01*
X11237206Y-9785246D02*
X11227682Y-9737627D01*
X11227682Y-9737627D02*
X11218158Y-9709055D01*
X11218158Y-9709055D02*
X11208634Y-9690008D01*
X11208634Y-9690008D02*
X11189587Y-9661436D01*
X11189587Y-9661436D02*
X11180063Y-9651912D01*
D14*
X6375000Y-10023000D02*
X6375000Y-10083000D01*
X6345000Y-10053000D02*
X6405000Y-10053000D01*
D11*
X6703872Y-9944484D02*
X6722920Y-9944484D01*
X6722920Y-9944484D02*
X6741967Y-9954008D01*
X6741967Y-9954008D02*
X6751491Y-9963531D01*
X6751491Y-9963531D02*
X6761015Y-9982579D01*
X6761015Y-9982579D02*
X6770539Y-10020674D01*
X6770539Y-10020674D02*
X6770539Y-10068293D01*
X6770539Y-10068293D02*
X6761015Y-10106389D01*
X6761015Y-10106389D02*
X6751491Y-10125436D01*
X6751491Y-10125436D02*
X6741967Y-10134960D01*
X6741967Y-10134960D02*
X6722920Y-10144484D01*
X6722920Y-10144484D02*
X6703872Y-10144484D01*
X6703872Y-10144484D02*
X6684824Y-10134960D01*
X6684824Y-10134960D02*
X6675301Y-10125436D01*
X6675301Y-10125436D02*
X6665777Y-10106389D01*
X6665777Y-10106389D02*
X6656253Y-10068293D01*
X6656253Y-10068293D02*
X6656253Y-10020674D01*
X6656253Y-10020674D02*
X6665777Y-9982579D01*
X6665777Y-9982579D02*
X6675301Y-9963531D01*
X6675301Y-9963531D02*
X6684824Y-9954008D01*
X6684824Y-9954008D02*
X6703872Y-9944484D01*
X6856253Y-10125436D02*
X6865777Y-10134960D01*
X6865777Y-10134960D02*
X6856253Y-10144484D01*
X6856253Y-10144484D02*
X6846729Y-10134960D01*
X6846729Y-10134960D02*
X6856253Y-10125436D01*
X6856253Y-10125436D02*
X6856253Y-10144484D01*
X7037205Y-9944484D02*
X6999110Y-9944484D01*
X6999110Y-9944484D02*
X6980062Y-9954008D01*
X6980062Y-9954008D02*
X6970539Y-9963531D01*
X6970539Y-9963531D02*
X6951491Y-9992103D01*
X6951491Y-9992103D02*
X6941967Y-10030198D01*
X6941967Y-10030198D02*
X6941967Y-10106389D01*
X6941967Y-10106389D02*
X6951491Y-10125436D01*
X6951491Y-10125436D02*
X6961015Y-10134960D01*
X6961015Y-10134960D02*
X6980062Y-10144484D01*
X6980062Y-10144484D02*
X7018158Y-10144484D01*
X7018158Y-10144484D02*
X7037205Y-10134960D01*
X7037205Y-10134960D02*
X7046729Y-10125436D01*
X7046729Y-10125436D02*
X7056253Y-10106389D01*
X7056253Y-10106389D02*
X7056253Y-10058770D01*
X7056253Y-10058770D02*
X7046729Y-10039722D01*
X7046729Y-10039722D02*
X7037205Y-10030198D01*
X7037205Y-10030198D02*
X7018158Y-10020674D01*
X7018158Y-10020674D02*
X6980062Y-10020674D01*
X6980062Y-10020674D02*
X6961015Y-10030198D01*
X6961015Y-10030198D02*
X6951491Y-10039722D01*
X6951491Y-10039722D02*
X6941967Y-10058770D01*
X7180062Y-9944484D02*
X7199110Y-9944484D01*
X7199110Y-9944484D02*
X7218158Y-9954008D01*
X7218158Y-9954008D02*
X7227682Y-9963531D01*
X7227682Y-9963531D02*
X7237205Y-9982579D01*
X7237205Y-9982579D02*
X7246729Y-10020674D01*
X7246729Y-10020674D02*
X7246729Y-10068293D01*
X7246729Y-10068293D02*
X7237205Y-10106389D01*
X7237205Y-10106389D02*
X7227682Y-10125436D01*
X7227682Y-10125436D02*
X7218158Y-10134960D01*
X7218158Y-10134960D02*
X7199110Y-10144484D01*
X7199110Y-10144484D02*
X7180062Y-10144484D01*
X7180062Y-10144484D02*
X7161015Y-10134960D01*
X7161015Y-10134960D02*
X7151491Y-10125436D01*
X7151491Y-10125436D02*
X7141967Y-10106389D01*
X7141967Y-10106389D02*
X7132443Y-10068293D01*
X7132443Y-10068293D02*
X7132443Y-10020674D01*
X7132443Y-10020674D02*
X7141967Y-9982579D01*
X7141967Y-9982579D02*
X7151491Y-9963531D01*
X7151491Y-9963531D02*
X7161015Y-9954008D01*
X7161015Y-9954008D02*
X7180062Y-9944484D01*
X7370539Y-9944484D02*
X7389586Y-9944484D01*
X7389586Y-9944484D02*
X7408634Y-9954008D01*
X7408634Y-9954008D02*
X7418158Y-9963531D01*
X7418158Y-9963531D02*
X7427682Y-9982579D01*
X7427682Y-9982579D02*
X7437205Y-10020674D01*
X7437205Y-10020674D02*
X7437205Y-10068293D01*
X7437205Y-10068293D02*
X7427682Y-10106389D01*
X7427682Y-10106389D02*
X7418158Y-10125436D01*
X7418158Y-10125436D02*
X7408634Y-10134960D01*
X7408634Y-10134960D02*
X7389586Y-10144484D01*
X7389586Y-10144484D02*
X7370539Y-10144484D01*
X7370539Y-10144484D02*
X7351491Y-10134960D01*
X7351491Y-10134960D02*
X7341967Y-10125436D01*
X7341967Y-10125436D02*
X7332443Y-10106389D01*
X7332443Y-10106389D02*
X7322920Y-10068293D01*
X7322920Y-10068293D02*
X7322920Y-10020674D01*
X7322920Y-10020674D02*
X7332443Y-9982579D01*
X7332443Y-9982579D02*
X7341967Y-9963531D01*
X7341967Y-9963531D02*
X7351491Y-9954008D01*
X7351491Y-9954008D02*
X7370539Y-9944484D01*
X7522920Y-10144484D02*
X7522920Y-10011150D01*
X7522920Y-10030198D02*
X7532443Y-10020674D01*
X7532443Y-10020674D02*
X7551491Y-10011150D01*
X7551491Y-10011150D02*
X7580063Y-10011150D01*
X7580063Y-10011150D02*
X7599110Y-10020674D01*
X7599110Y-10020674D02*
X7608634Y-10039722D01*
X7608634Y-10039722D02*
X7608634Y-10144484D01*
X7608634Y-10039722D02*
X7618158Y-10020674D01*
X7618158Y-10020674D02*
X7637205Y-10011150D01*
X7637205Y-10011150D02*
X7665777Y-10011150D01*
X7665777Y-10011150D02*
X7684824Y-10020674D01*
X7684824Y-10020674D02*
X7694348Y-10039722D01*
X7694348Y-10039722D02*
X7694348Y-10144484D01*
X7789586Y-10144484D02*
X7789586Y-10011150D01*
X7789586Y-10030198D02*
X7799110Y-10020674D01*
X7799110Y-10020674D02*
X7818158Y-10011150D01*
X7818158Y-10011150D02*
X7846729Y-10011150D01*
X7846729Y-10011150D02*
X7865777Y-10020674D01*
X7865777Y-10020674D02*
X7875301Y-10039722D01*
X7875301Y-10039722D02*
X7875301Y-10144484D01*
X7875301Y-10039722D02*
X7884824Y-10020674D01*
X7884824Y-10020674D02*
X7903872Y-10011150D01*
X7903872Y-10011150D02*
X7932443Y-10011150D01*
X7932443Y-10011150D02*
X7951491Y-10020674D01*
X7951491Y-10020674D02*
X7961015Y-10039722D01*
X7961015Y-10039722D02*
X7961015Y-10144484D01*
X8351491Y-9934960D02*
X8180063Y-10192103D01*
X8608634Y-9944484D02*
X8627682Y-9944484D01*
X8627682Y-9944484D02*
X8646729Y-9954008D01*
X8646729Y-9954008D02*
X8656253Y-9963531D01*
X8656253Y-9963531D02*
X8665777Y-9982579D01*
X8665777Y-9982579D02*
X8675301Y-10020674D01*
X8675301Y-10020674D02*
X8675301Y-10068293D01*
X8675301Y-10068293D02*
X8665777Y-10106389D01*
X8665777Y-10106389D02*
X8656253Y-10125436D01*
X8656253Y-10125436D02*
X8646729Y-10134960D01*
X8646729Y-10134960D02*
X8627682Y-10144484D01*
X8627682Y-10144484D02*
X8608634Y-10144484D01*
X8608634Y-10144484D02*
X8589587Y-10134960D01*
X8589587Y-10134960D02*
X8580063Y-10125436D01*
X8580063Y-10125436D02*
X8570539Y-10106389D01*
X8570539Y-10106389D02*
X8561015Y-10068293D01*
X8561015Y-10068293D02*
X8561015Y-10020674D01*
X8561015Y-10020674D02*
X8570539Y-9982579D01*
X8570539Y-9982579D02*
X8580063Y-9963531D01*
X8580063Y-9963531D02*
X8589587Y-9954008D01*
X8589587Y-9954008D02*
X8608634Y-9944484D01*
X8761015Y-10125436D02*
X8770539Y-10134960D01*
X8770539Y-10134960D02*
X8761015Y-10144484D01*
X8761015Y-10144484D02*
X8751491Y-10134960D01*
X8751491Y-10134960D02*
X8761015Y-10125436D01*
X8761015Y-10125436D02*
X8761015Y-10144484D01*
X8894348Y-9944484D02*
X8913396Y-9944484D01*
X8913396Y-9944484D02*
X8932444Y-9954008D01*
X8932444Y-9954008D02*
X8941968Y-9963531D01*
X8941968Y-9963531D02*
X8951491Y-9982579D01*
X8951491Y-9982579D02*
X8961015Y-10020674D01*
X8961015Y-10020674D02*
X8961015Y-10068293D01*
X8961015Y-10068293D02*
X8951491Y-10106389D01*
X8951491Y-10106389D02*
X8941968Y-10125436D01*
X8941968Y-10125436D02*
X8932444Y-10134960D01*
X8932444Y-10134960D02*
X8913396Y-10144484D01*
X8913396Y-10144484D02*
X8894348Y-10144484D01*
X8894348Y-10144484D02*
X8875301Y-10134960D01*
X8875301Y-10134960D02*
X8865777Y-10125436D01*
X8865777Y-10125436D02*
X8856253Y-10106389D01*
X8856253Y-10106389D02*
X8846729Y-10068293D01*
X8846729Y-10068293D02*
X8846729Y-10020674D01*
X8846729Y-10020674D02*
X8856253Y-9982579D01*
X8856253Y-9982579D02*
X8865777Y-9963531D01*
X8865777Y-9963531D02*
X8875301Y-9954008D01*
X8875301Y-9954008D02*
X8894348Y-9944484D01*
X9037206Y-9963531D02*
X9046729Y-9954008D01*
X9046729Y-9954008D02*
X9065777Y-9944484D01*
X9065777Y-9944484D02*
X9113396Y-9944484D01*
X9113396Y-9944484D02*
X9132444Y-9954008D01*
X9132444Y-9954008D02*
X9141968Y-9963531D01*
X9141968Y-9963531D02*
X9151491Y-9982579D01*
X9151491Y-9982579D02*
X9151491Y-10001627D01*
X9151491Y-10001627D02*
X9141968Y-10030198D01*
X9141968Y-10030198D02*
X9027682Y-10144484D01*
X9027682Y-10144484D02*
X9151491Y-10144484D01*
X9218158Y-9944484D02*
X9341968Y-9944484D01*
X9341968Y-9944484D02*
X9275301Y-10020674D01*
X9275301Y-10020674D02*
X9303872Y-10020674D01*
X9303872Y-10020674D02*
X9322920Y-10030198D01*
X9322920Y-10030198D02*
X9332444Y-10039722D01*
X9332444Y-10039722D02*
X9341968Y-10058770D01*
X9341968Y-10058770D02*
X9341968Y-10106389D01*
X9341968Y-10106389D02*
X9332444Y-10125436D01*
X9332444Y-10125436D02*
X9322920Y-10134960D01*
X9322920Y-10134960D02*
X9303872Y-10144484D01*
X9303872Y-10144484D02*
X9246729Y-10144484D01*
X9246729Y-10144484D02*
X9227682Y-10134960D01*
X9227682Y-10134960D02*
X9218158Y-10125436D01*
X9513396Y-9944484D02*
X9475301Y-9944484D01*
X9475301Y-9944484D02*
X9456253Y-9954008D01*
X9456253Y-9954008D02*
X9446729Y-9963531D01*
X9446729Y-9963531D02*
X9427682Y-9992103D01*
X9427682Y-9992103D02*
X9418158Y-10030198D01*
X9418158Y-10030198D02*
X9418158Y-10106389D01*
X9418158Y-10106389D02*
X9427682Y-10125436D01*
X9427682Y-10125436D02*
X9437206Y-10134960D01*
X9437206Y-10134960D02*
X9456253Y-10144484D01*
X9456253Y-10144484D02*
X9494349Y-10144484D01*
X9494349Y-10144484D02*
X9513396Y-10134960D01*
X9513396Y-10134960D02*
X9522920Y-10125436D01*
X9522920Y-10125436D02*
X9532444Y-10106389D01*
X9532444Y-10106389D02*
X9532444Y-10058770D01*
X9532444Y-10058770D02*
X9522920Y-10039722D01*
X9522920Y-10039722D02*
X9513396Y-10030198D01*
X9513396Y-10030198D02*
X9494349Y-10020674D01*
X9494349Y-10020674D02*
X9456253Y-10020674D01*
X9456253Y-10020674D02*
X9437206Y-10030198D01*
X9437206Y-10030198D02*
X9427682Y-10039722D01*
X9427682Y-10039722D02*
X9418158Y-10058770D01*
X9608634Y-9944484D02*
X9608634Y-9982579D01*
X9684825Y-9944484D02*
X9684825Y-9982579D01*
X9980063Y-10220674D02*
X9970539Y-10211150D01*
X9970539Y-10211150D02*
X9951491Y-10182579D01*
X9951491Y-10182579D02*
X9941968Y-10163531D01*
X9941968Y-10163531D02*
X9932444Y-10134960D01*
X9932444Y-10134960D02*
X9922920Y-10087341D01*
X9922920Y-10087341D02*
X9922920Y-10049246D01*
X9922920Y-10049246D02*
X9932444Y-10001627D01*
X9932444Y-10001627D02*
X9941968Y-9973055D01*
X9941968Y-9973055D02*
X9951491Y-9954008D01*
X9951491Y-9954008D02*
X9970539Y-9925436D01*
X9970539Y-9925436D02*
X9980063Y-9915912D01*
X10046730Y-9963531D02*
X10056253Y-9954008D01*
X10056253Y-9954008D02*
X10075301Y-9944484D01*
X10075301Y-9944484D02*
X10122920Y-9944484D01*
X10122920Y-9944484D02*
X10141968Y-9954008D01*
X10141968Y-9954008D02*
X10151491Y-9963531D01*
X10151491Y-9963531D02*
X10161015Y-9982579D01*
X10161015Y-9982579D02*
X10161015Y-10001627D01*
X10161015Y-10001627D02*
X10151491Y-10030198D01*
X10151491Y-10030198D02*
X10037206Y-10144484D01*
X10037206Y-10144484D02*
X10161015Y-10144484D01*
X10399111Y-10144484D02*
X10399111Y-9944484D01*
X10484825Y-10144484D02*
X10484825Y-10039722D01*
X10484825Y-10039722D02*
X10475301Y-10020674D01*
X10475301Y-10020674D02*
X10456253Y-10011150D01*
X10456253Y-10011150D02*
X10427682Y-10011150D01*
X10427682Y-10011150D02*
X10408634Y-10020674D01*
X10408634Y-10020674D02*
X10399111Y-10030198D01*
X10608634Y-10144484D02*
X10589587Y-10134960D01*
X10589587Y-10134960D02*
X10580063Y-10125436D01*
X10580063Y-10125436D02*
X10570539Y-10106389D01*
X10570539Y-10106389D02*
X10570539Y-10049246D01*
X10570539Y-10049246D02*
X10580063Y-10030198D01*
X10580063Y-10030198D02*
X10589587Y-10020674D01*
X10589587Y-10020674D02*
X10608634Y-10011150D01*
X10608634Y-10011150D02*
X10637206Y-10011150D01*
X10637206Y-10011150D02*
X10656253Y-10020674D01*
X10656253Y-10020674D02*
X10665777Y-10030198D01*
X10665777Y-10030198D02*
X10675301Y-10049246D01*
X10675301Y-10049246D02*
X10675301Y-10106389D01*
X10675301Y-10106389D02*
X10665777Y-10125436D01*
X10665777Y-10125436D02*
X10656253Y-10134960D01*
X10656253Y-10134960D02*
X10637206Y-10144484D01*
X10637206Y-10144484D02*
X10608634Y-10144484D01*
X10789587Y-10144484D02*
X10770539Y-10134960D01*
X10770539Y-10134960D02*
X10761015Y-10115912D01*
X10761015Y-10115912D02*
X10761015Y-9944484D01*
X10941968Y-10134960D02*
X10922920Y-10144484D01*
X10922920Y-10144484D02*
X10884825Y-10144484D01*
X10884825Y-10144484D02*
X10865777Y-10134960D01*
X10865777Y-10134960D02*
X10856253Y-10115912D01*
X10856253Y-10115912D02*
X10856253Y-10039722D01*
X10856253Y-10039722D02*
X10865777Y-10020674D01*
X10865777Y-10020674D02*
X10884825Y-10011150D01*
X10884825Y-10011150D02*
X10922920Y-10011150D01*
X10922920Y-10011150D02*
X10941968Y-10020674D01*
X10941968Y-10020674D02*
X10951492Y-10039722D01*
X10951492Y-10039722D02*
X10951492Y-10058770D01*
X10951492Y-10058770D02*
X10856253Y-10077817D01*
X11027682Y-10134960D02*
X11046730Y-10144484D01*
X11046730Y-10144484D02*
X11084825Y-10144484D01*
X11084825Y-10144484D02*
X11103873Y-10134960D01*
X11103873Y-10134960D02*
X11113396Y-10115912D01*
X11113396Y-10115912D02*
X11113396Y-10106389D01*
X11113396Y-10106389D02*
X11103873Y-10087341D01*
X11103873Y-10087341D02*
X11084825Y-10077817D01*
X11084825Y-10077817D02*
X11056253Y-10077817D01*
X11056253Y-10077817D02*
X11037206Y-10068293D01*
X11037206Y-10068293D02*
X11027682Y-10049246D01*
X11027682Y-10049246D02*
X11027682Y-10039722D01*
X11027682Y-10039722D02*
X11037206Y-10020674D01*
X11037206Y-10020674D02*
X11056253Y-10011150D01*
X11056253Y-10011150D02*
X11084825Y-10011150D01*
X11084825Y-10011150D02*
X11103873Y-10020674D01*
X11180063Y-10220674D02*
X11189587Y-10211150D01*
X11189587Y-10211150D02*
X11208634Y-10182579D01*
X11208634Y-10182579D02*
X11218158Y-10163531D01*
X11218158Y-10163531D02*
X11227682Y-10134960D01*
X11227682Y-10134960D02*
X11237206Y-10087341D01*
X11237206Y-10087341D02*
X11237206Y-10049246D01*
X11237206Y-10049246D02*
X11227682Y-10001627D01*
X11227682Y-10001627D02*
X11218158Y-9973055D01*
X11218158Y-9973055D02*
X11208634Y-9954008D01*
X11208634Y-9954008D02*
X11189587Y-9925436D01*
X11189587Y-9925436D02*
X11180063Y-9915912D01*
D15*
X6393284Y-10345285D02*
X6393284Y-10288716D01*
X6336715Y-10288716D01*
X6336715Y-10345285D01*
X6393284Y-10345285D01*
D11*
X6703872Y-10208484D02*
X6722920Y-10208484D01*
X6722920Y-10208484D02*
X6741967Y-10218008D01*
X6741967Y-10218008D02*
X6751491Y-10227531D01*
X6751491Y-10227531D02*
X6761015Y-10246579D01*
X6761015Y-10246579D02*
X6770539Y-10284674D01*
X6770539Y-10284674D02*
X6770539Y-10332293D01*
X6770539Y-10332293D02*
X6761015Y-10370389D01*
X6761015Y-10370389D02*
X6751491Y-10389436D01*
X6751491Y-10389436D02*
X6741967Y-10398960D01*
X6741967Y-10398960D02*
X6722920Y-10408484D01*
X6722920Y-10408484D02*
X6703872Y-10408484D01*
X6703872Y-10408484D02*
X6684824Y-10398960D01*
X6684824Y-10398960D02*
X6675301Y-10389436D01*
X6675301Y-10389436D02*
X6665777Y-10370389D01*
X6665777Y-10370389D02*
X6656253Y-10332293D01*
X6656253Y-10332293D02*
X6656253Y-10284674D01*
X6656253Y-10284674D02*
X6665777Y-10246579D01*
X6665777Y-10246579D02*
X6675301Y-10227531D01*
X6675301Y-10227531D02*
X6684824Y-10218008D01*
X6684824Y-10218008D02*
X6703872Y-10208484D01*
X6856253Y-10389436D02*
X6865777Y-10398960D01*
X6865777Y-10398960D02*
X6856253Y-10408484D01*
X6856253Y-10408484D02*
X6846729Y-10398960D01*
X6846729Y-10398960D02*
X6856253Y-10389436D01*
X6856253Y-10389436D02*
X6856253Y-10408484D01*
X6980062Y-10294198D02*
X6961015Y-10284674D01*
X6961015Y-10284674D02*
X6951491Y-10275150D01*
X6951491Y-10275150D02*
X6941967Y-10256103D01*
X6941967Y-10256103D02*
X6941967Y-10246579D01*
X6941967Y-10246579D02*
X6951491Y-10227531D01*
X6951491Y-10227531D02*
X6961015Y-10218008D01*
X6961015Y-10218008D02*
X6980062Y-10208484D01*
X6980062Y-10208484D02*
X7018158Y-10208484D01*
X7018158Y-10208484D02*
X7037205Y-10218008D01*
X7037205Y-10218008D02*
X7046729Y-10227531D01*
X7046729Y-10227531D02*
X7056253Y-10246579D01*
X7056253Y-10246579D02*
X7056253Y-10256103D01*
X7056253Y-10256103D02*
X7046729Y-10275150D01*
X7046729Y-10275150D02*
X7037205Y-10284674D01*
X7037205Y-10284674D02*
X7018158Y-10294198D01*
X7018158Y-10294198D02*
X6980062Y-10294198D01*
X6980062Y-10294198D02*
X6961015Y-10303722D01*
X6961015Y-10303722D02*
X6951491Y-10313246D01*
X6951491Y-10313246D02*
X6941967Y-10332293D01*
X6941967Y-10332293D02*
X6941967Y-10370389D01*
X6941967Y-10370389D02*
X6951491Y-10389436D01*
X6951491Y-10389436D02*
X6961015Y-10398960D01*
X6961015Y-10398960D02*
X6980062Y-10408484D01*
X6980062Y-10408484D02*
X7018158Y-10408484D01*
X7018158Y-10408484D02*
X7037205Y-10398960D01*
X7037205Y-10398960D02*
X7046729Y-10389436D01*
X7046729Y-10389436D02*
X7056253Y-10370389D01*
X7056253Y-10370389D02*
X7056253Y-10332293D01*
X7056253Y-10332293D02*
X7046729Y-10313246D01*
X7046729Y-10313246D02*
X7037205Y-10303722D01*
X7037205Y-10303722D02*
X7018158Y-10294198D01*
X7180062Y-10208484D02*
X7199110Y-10208484D01*
X7199110Y-10208484D02*
X7218158Y-10218008D01*
X7218158Y-10218008D02*
X7227682Y-10227531D01*
X7227682Y-10227531D02*
X7237205Y-10246579D01*
X7237205Y-10246579D02*
X7246729Y-10284674D01*
X7246729Y-10284674D02*
X7246729Y-10332293D01*
X7246729Y-10332293D02*
X7237205Y-10370389D01*
X7237205Y-10370389D02*
X7227682Y-10389436D01*
X7227682Y-10389436D02*
X7218158Y-10398960D01*
X7218158Y-10398960D02*
X7199110Y-10408484D01*
X7199110Y-10408484D02*
X7180062Y-10408484D01*
X7180062Y-10408484D02*
X7161015Y-10398960D01*
X7161015Y-10398960D02*
X7151491Y-10389436D01*
X7151491Y-10389436D02*
X7141967Y-10370389D01*
X7141967Y-10370389D02*
X7132443Y-10332293D01*
X7132443Y-10332293D02*
X7132443Y-10284674D01*
X7132443Y-10284674D02*
X7141967Y-10246579D01*
X7141967Y-10246579D02*
X7151491Y-10227531D01*
X7151491Y-10227531D02*
X7161015Y-10218008D01*
X7161015Y-10218008D02*
X7180062Y-10208484D01*
X7370539Y-10208484D02*
X7389586Y-10208484D01*
X7389586Y-10208484D02*
X7408634Y-10218008D01*
X7408634Y-10218008D02*
X7418158Y-10227531D01*
X7418158Y-10227531D02*
X7427682Y-10246579D01*
X7427682Y-10246579D02*
X7437205Y-10284674D01*
X7437205Y-10284674D02*
X7437205Y-10332293D01*
X7437205Y-10332293D02*
X7427682Y-10370389D01*
X7427682Y-10370389D02*
X7418158Y-10389436D01*
X7418158Y-10389436D02*
X7408634Y-10398960D01*
X7408634Y-10398960D02*
X7389586Y-10408484D01*
X7389586Y-10408484D02*
X7370539Y-10408484D01*
X7370539Y-10408484D02*
X7351491Y-10398960D01*
X7351491Y-10398960D02*
X7341967Y-10389436D01*
X7341967Y-10389436D02*
X7332443Y-10370389D01*
X7332443Y-10370389D02*
X7322920Y-10332293D01*
X7322920Y-10332293D02*
X7322920Y-10284674D01*
X7322920Y-10284674D02*
X7332443Y-10246579D01*
X7332443Y-10246579D02*
X7341967Y-10227531D01*
X7341967Y-10227531D02*
X7351491Y-10218008D01*
X7351491Y-10218008D02*
X7370539Y-10208484D01*
X7522920Y-10408484D02*
X7522920Y-10275150D01*
X7522920Y-10294198D02*
X7532443Y-10284674D01*
X7532443Y-10284674D02*
X7551491Y-10275150D01*
X7551491Y-10275150D02*
X7580063Y-10275150D01*
X7580063Y-10275150D02*
X7599110Y-10284674D01*
X7599110Y-10284674D02*
X7608634Y-10303722D01*
X7608634Y-10303722D02*
X7608634Y-10408484D01*
X7608634Y-10303722D02*
X7618158Y-10284674D01*
X7618158Y-10284674D02*
X7637205Y-10275150D01*
X7637205Y-10275150D02*
X7665777Y-10275150D01*
X7665777Y-10275150D02*
X7684824Y-10284674D01*
X7684824Y-10284674D02*
X7694348Y-10303722D01*
X7694348Y-10303722D02*
X7694348Y-10408484D01*
X7789586Y-10408484D02*
X7789586Y-10275150D01*
X7789586Y-10294198D02*
X7799110Y-10284674D01*
X7799110Y-10284674D02*
X7818158Y-10275150D01*
X7818158Y-10275150D02*
X7846729Y-10275150D01*
X7846729Y-10275150D02*
X7865777Y-10284674D01*
X7865777Y-10284674D02*
X7875301Y-10303722D01*
X7875301Y-10303722D02*
X7875301Y-10408484D01*
X7875301Y-10303722D02*
X7884824Y-10284674D01*
X7884824Y-10284674D02*
X7903872Y-10275150D01*
X7903872Y-10275150D02*
X7932443Y-10275150D01*
X7932443Y-10275150D02*
X7951491Y-10284674D01*
X7951491Y-10284674D02*
X7961015Y-10303722D01*
X7961015Y-10303722D02*
X7961015Y-10408484D01*
X8351491Y-10198960D02*
X8180063Y-10456103D01*
X8608634Y-10208484D02*
X8627682Y-10208484D01*
X8627682Y-10208484D02*
X8646729Y-10218008D01*
X8646729Y-10218008D02*
X8656253Y-10227531D01*
X8656253Y-10227531D02*
X8665777Y-10246579D01*
X8665777Y-10246579D02*
X8675301Y-10284674D01*
X8675301Y-10284674D02*
X8675301Y-10332293D01*
X8675301Y-10332293D02*
X8665777Y-10370389D01*
X8665777Y-10370389D02*
X8656253Y-10389436D01*
X8656253Y-10389436D02*
X8646729Y-10398960D01*
X8646729Y-10398960D02*
X8627682Y-10408484D01*
X8627682Y-10408484D02*
X8608634Y-10408484D01*
X8608634Y-10408484D02*
X8589587Y-10398960D01*
X8589587Y-10398960D02*
X8580063Y-10389436D01*
X8580063Y-10389436D02*
X8570539Y-10370389D01*
X8570539Y-10370389D02*
X8561015Y-10332293D01*
X8561015Y-10332293D02*
X8561015Y-10284674D01*
X8561015Y-10284674D02*
X8570539Y-10246579D01*
X8570539Y-10246579D02*
X8580063Y-10227531D01*
X8580063Y-10227531D02*
X8589587Y-10218008D01*
X8589587Y-10218008D02*
X8608634Y-10208484D01*
X8761015Y-10389436D02*
X8770539Y-10398960D01*
X8770539Y-10398960D02*
X8761015Y-10408484D01*
X8761015Y-10408484D02*
X8751491Y-10398960D01*
X8751491Y-10398960D02*
X8761015Y-10389436D01*
X8761015Y-10389436D02*
X8761015Y-10408484D01*
X8894348Y-10208484D02*
X8913396Y-10208484D01*
X8913396Y-10208484D02*
X8932444Y-10218008D01*
X8932444Y-10218008D02*
X8941968Y-10227531D01*
X8941968Y-10227531D02*
X8951491Y-10246579D01*
X8951491Y-10246579D02*
X8961015Y-10284674D01*
X8961015Y-10284674D02*
X8961015Y-10332293D01*
X8961015Y-10332293D02*
X8951491Y-10370389D01*
X8951491Y-10370389D02*
X8941968Y-10389436D01*
X8941968Y-10389436D02*
X8932444Y-10398960D01*
X8932444Y-10398960D02*
X8913396Y-10408484D01*
X8913396Y-10408484D02*
X8894348Y-10408484D01*
X8894348Y-10408484D02*
X8875301Y-10398960D01*
X8875301Y-10398960D02*
X8865777Y-10389436D01*
X8865777Y-10389436D02*
X8856253Y-10370389D01*
X8856253Y-10370389D02*
X8846729Y-10332293D01*
X8846729Y-10332293D02*
X8846729Y-10284674D01*
X8846729Y-10284674D02*
X8856253Y-10246579D01*
X8856253Y-10246579D02*
X8865777Y-10227531D01*
X8865777Y-10227531D02*
X8875301Y-10218008D01*
X8875301Y-10218008D02*
X8894348Y-10208484D01*
X9027682Y-10208484D02*
X9151491Y-10208484D01*
X9151491Y-10208484D02*
X9084825Y-10284674D01*
X9084825Y-10284674D02*
X9113396Y-10284674D01*
X9113396Y-10284674D02*
X9132444Y-10294198D01*
X9132444Y-10294198D02*
X9141968Y-10303722D01*
X9141968Y-10303722D02*
X9151491Y-10322770D01*
X9151491Y-10322770D02*
X9151491Y-10370389D01*
X9151491Y-10370389D02*
X9141968Y-10389436D01*
X9141968Y-10389436D02*
X9132444Y-10398960D01*
X9132444Y-10398960D02*
X9113396Y-10408484D01*
X9113396Y-10408484D02*
X9056253Y-10408484D01*
X9056253Y-10408484D02*
X9037206Y-10398960D01*
X9037206Y-10398960D02*
X9027682Y-10389436D01*
X9341968Y-10408484D02*
X9227682Y-10408484D01*
X9284825Y-10408484D02*
X9284825Y-10208484D01*
X9284825Y-10208484D02*
X9265777Y-10237055D01*
X9265777Y-10237055D02*
X9246729Y-10256103D01*
X9246729Y-10256103D02*
X9227682Y-10265627D01*
X9522920Y-10208484D02*
X9427682Y-10208484D01*
X9427682Y-10208484D02*
X9418158Y-10303722D01*
X9418158Y-10303722D02*
X9427682Y-10294198D01*
X9427682Y-10294198D02*
X9446729Y-10284674D01*
X9446729Y-10284674D02*
X9494349Y-10284674D01*
X9494349Y-10284674D02*
X9513396Y-10294198D01*
X9513396Y-10294198D02*
X9522920Y-10303722D01*
X9522920Y-10303722D02*
X9532444Y-10322770D01*
X9532444Y-10322770D02*
X9532444Y-10370389D01*
X9532444Y-10370389D02*
X9522920Y-10389436D01*
X9522920Y-10389436D02*
X9513396Y-10398960D01*
X9513396Y-10398960D02*
X9494349Y-10408484D01*
X9494349Y-10408484D02*
X9446729Y-10408484D01*
X9446729Y-10408484D02*
X9427682Y-10398960D01*
X9427682Y-10398960D02*
X9418158Y-10389436D01*
X9608634Y-10208484D02*
X9608634Y-10246579D01*
X9684825Y-10208484D02*
X9684825Y-10246579D01*
X9980063Y-10484674D02*
X9970539Y-10475150D01*
X9970539Y-10475150D02*
X9951491Y-10446579D01*
X9951491Y-10446579D02*
X9941968Y-10427531D01*
X9941968Y-10427531D02*
X9932444Y-10398960D01*
X9932444Y-10398960D02*
X9922920Y-10351341D01*
X9922920Y-10351341D02*
X9922920Y-10313246D01*
X9922920Y-10313246D02*
X9932444Y-10265627D01*
X9932444Y-10265627D02*
X9941968Y-10237055D01*
X9941968Y-10237055D02*
X9951491Y-10218008D01*
X9951491Y-10218008D02*
X9970539Y-10189436D01*
X9970539Y-10189436D02*
X9980063Y-10179912D01*
X10161015Y-10408484D02*
X10046730Y-10408484D01*
X10103872Y-10408484D02*
X10103872Y-10208484D01*
X10103872Y-10208484D02*
X10084825Y-10237055D01*
X10084825Y-10237055D02*
X10065777Y-10256103D01*
X10065777Y-10256103D02*
X10046730Y-10265627D01*
X10332444Y-10275150D02*
X10332444Y-10408484D01*
X10284825Y-10198960D02*
X10237206Y-10341817D01*
X10237206Y-10341817D02*
X10361015Y-10341817D01*
X10589587Y-10408484D02*
X10589587Y-10208484D01*
X10675301Y-10408484D02*
X10675301Y-10303722D01*
X10675301Y-10303722D02*
X10665777Y-10284674D01*
X10665777Y-10284674D02*
X10646730Y-10275150D01*
X10646730Y-10275150D02*
X10618158Y-10275150D01*
X10618158Y-10275150D02*
X10599111Y-10284674D01*
X10599111Y-10284674D02*
X10589587Y-10294198D01*
X10799111Y-10408484D02*
X10780063Y-10398960D01*
X10780063Y-10398960D02*
X10770539Y-10389436D01*
X10770539Y-10389436D02*
X10761015Y-10370389D01*
X10761015Y-10370389D02*
X10761015Y-10313246D01*
X10761015Y-10313246D02*
X10770539Y-10294198D01*
X10770539Y-10294198D02*
X10780063Y-10284674D01*
X10780063Y-10284674D02*
X10799111Y-10275150D01*
X10799111Y-10275150D02*
X10827682Y-10275150D01*
X10827682Y-10275150D02*
X10846730Y-10284674D01*
X10846730Y-10284674D02*
X10856253Y-10294198D01*
X10856253Y-10294198D02*
X10865777Y-10313246D01*
X10865777Y-10313246D02*
X10865777Y-10370389D01*
X10865777Y-10370389D02*
X10856253Y-10389436D01*
X10856253Y-10389436D02*
X10846730Y-10398960D01*
X10846730Y-10398960D02*
X10827682Y-10408484D01*
X10827682Y-10408484D02*
X10799111Y-10408484D01*
X10980063Y-10408484D02*
X10961015Y-10398960D01*
X10961015Y-10398960D02*
X10951492Y-10379912D01*
X10951492Y-10379912D02*
X10951492Y-10208484D01*
X11132444Y-10398960D02*
X11113396Y-10408484D01*
X11113396Y-10408484D02*
X11075301Y-10408484D01*
X11075301Y-10408484D02*
X11056253Y-10398960D01*
X11056253Y-10398960D02*
X11046730Y-10379912D01*
X11046730Y-10379912D02*
X11046730Y-10303722D01*
X11046730Y-10303722D02*
X11056253Y-10284674D01*
X11056253Y-10284674D02*
X11075301Y-10275150D01*
X11075301Y-10275150D02*
X11113396Y-10275150D01*
X11113396Y-10275150D02*
X11132444Y-10284674D01*
X11132444Y-10284674D02*
X11141968Y-10303722D01*
X11141968Y-10303722D02*
X11141968Y-10322770D01*
X11141968Y-10322770D02*
X11046730Y-10341817D01*
X11218158Y-10398960D02*
X11237206Y-10408484D01*
X11237206Y-10408484D02*
X11275301Y-10408484D01*
X11275301Y-10408484D02*
X11294349Y-10398960D01*
X11294349Y-10398960D02*
X11303872Y-10379912D01*
X11303872Y-10379912D02*
X11303872Y-10370389D01*
X11303872Y-10370389D02*
X11294349Y-10351341D01*
X11294349Y-10351341D02*
X11275301Y-10341817D01*
X11275301Y-10341817D02*
X11246730Y-10341817D01*
X11246730Y-10341817D02*
X11227682Y-10332293D01*
X11227682Y-10332293D02*
X11218158Y-10313246D01*
X11218158Y-10313246D02*
X11218158Y-10303722D01*
X11218158Y-10303722D02*
X11227682Y-10284674D01*
X11227682Y-10284674D02*
X11246730Y-10275150D01*
X11246730Y-10275150D02*
X11275301Y-10275150D01*
X11275301Y-10275150D02*
X11294349Y-10284674D01*
X11370539Y-10484674D02*
X11380063Y-10475150D01*
X11380063Y-10475150D02*
X11399111Y-10446579D01*
X11399111Y-10446579D02*
X11408634Y-10427531D01*
X11408634Y-10427531D02*
X11418158Y-10398960D01*
X11418158Y-10398960D02*
X11427682Y-10351341D01*
X11427682Y-10351341D02*
X11427682Y-10313246D01*
X11427682Y-10313246D02*
X11418158Y-10265627D01*
X11418158Y-10265627D02*
X11408634Y-10237055D01*
X11408634Y-10237055D02*
X11399111Y-10218008D01*
X11399111Y-10218008D02*
X11380063Y-10189436D01*
X11380063Y-10189436D02*
X11370539Y-10179912D01*
D10*
X6355000Y-10631000D02*
X6405000Y-10581000D01*
X6355000Y-10531000D01*
X6305000Y-10581000D01*
X6355000Y-10631000D01*
D11*
X6770539Y-10672484D02*
X6656253Y-10672484D01*
X6713396Y-10672484D02*
X6713396Y-10472484D01*
X6713396Y-10472484D02*
X6694348Y-10501055D01*
X6694348Y-10501055D02*
X6675301Y-10520103D01*
X6675301Y-10520103D02*
X6656253Y-10529627D01*
X6856253Y-10653436D02*
X6865777Y-10662960D01*
X6865777Y-10662960D02*
X6856253Y-10672484D01*
X6856253Y-10672484D02*
X6846729Y-10662960D01*
X6846729Y-10662960D02*
X6856253Y-10653436D01*
X6856253Y-10653436D02*
X6856253Y-10672484D01*
X6989586Y-10472484D02*
X7008634Y-10472484D01*
X7008634Y-10472484D02*
X7027682Y-10482008D01*
X7027682Y-10482008D02*
X7037205Y-10491531D01*
X7037205Y-10491531D02*
X7046729Y-10510579D01*
X7046729Y-10510579D02*
X7056253Y-10548674D01*
X7056253Y-10548674D02*
X7056253Y-10596293D01*
X7056253Y-10596293D02*
X7046729Y-10634389D01*
X7046729Y-10634389D02*
X7037205Y-10653436D01*
X7037205Y-10653436D02*
X7027682Y-10662960D01*
X7027682Y-10662960D02*
X7008634Y-10672484D01*
X7008634Y-10672484D02*
X6989586Y-10672484D01*
X6989586Y-10672484D02*
X6970539Y-10662960D01*
X6970539Y-10662960D02*
X6961015Y-10653436D01*
X6961015Y-10653436D02*
X6951491Y-10634389D01*
X6951491Y-10634389D02*
X6941967Y-10596293D01*
X6941967Y-10596293D02*
X6941967Y-10548674D01*
X6941967Y-10548674D02*
X6951491Y-10510579D01*
X6951491Y-10510579D02*
X6961015Y-10491531D01*
X6961015Y-10491531D02*
X6970539Y-10482008D01*
X6970539Y-10482008D02*
X6989586Y-10472484D01*
X7180062Y-10472484D02*
X7199110Y-10472484D01*
X7199110Y-10472484D02*
X7218158Y-10482008D01*
X7218158Y-10482008D02*
X7227682Y-10491531D01*
X7227682Y-10491531D02*
X7237205Y-10510579D01*
X7237205Y-10510579D02*
X7246729Y-10548674D01*
X7246729Y-10548674D02*
X7246729Y-10596293D01*
X7246729Y-10596293D02*
X7237205Y-10634389D01*
X7237205Y-10634389D02*
X7227682Y-10653436D01*
X7227682Y-10653436D02*
X7218158Y-10662960D01*
X7218158Y-10662960D02*
X7199110Y-10672484D01*
X7199110Y-10672484D02*
X7180062Y-10672484D01*
X7180062Y-10672484D02*
X7161015Y-10662960D01*
X7161015Y-10662960D02*
X7151491Y-10653436D01*
X7151491Y-10653436D02*
X7141967Y-10634389D01*
X7141967Y-10634389D02*
X7132443Y-10596293D01*
X7132443Y-10596293D02*
X7132443Y-10548674D01*
X7132443Y-10548674D02*
X7141967Y-10510579D01*
X7141967Y-10510579D02*
X7151491Y-10491531D01*
X7151491Y-10491531D02*
X7161015Y-10482008D01*
X7161015Y-10482008D02*
X7180062Y-10472484D01*
X7370539Y-10472484D02*
X7389586Y-10472484D01*
X7389586Y-10472484D02*
X7408634Y-10482008D01*
X7408634Y-10482008D02*
X7418158Y-10491531D01*
X7418158Y-10491531D02*
X7427682Y-10510579D01*
X7427682Y-10510579D02*
X7437205Y-10548674D01*
X7437205Y-10548674D02*
X7437205Y-10596293D01*
X7437205Y-10596293D02*
X7427682Y-10634389D01*
X7427682Y-10634389D02*
X7418158Y-10653436D01*
X7418158Y-10653436D02*
X7408634Y-10662960D01*
X7408634Y-10662960D02*
X7389586Y-10672484D01*
X7389586Y-10672484D02*
X7370539Y-10672484D01*
X7370539Y-10672484D02*
X7351491Y-10662960D01*
X7351491Y-10662960D02*
X7341967Y-10653436D01*
X7341967Y-10653436D02*
X7332443Y-10634389D01*
X7332443Y-10634389D02*
X7322920Y-10596293D01*
X7322920Y-10596293D02*
X7322920Y-10548674D01*
X7322920Y-10548674D02*
X7332443Y-10510579D01*
X7332443Y-10510579D02*
X7341967Y-10491531D01*
X7341967Y-10491531D02*
X7351491Y-10482008D01*
X7351491Y-10482008D02*
X7370539Y-10472484D01*
X7522920Y-10672484D02*
X7522920Y-10539150D01*
X7522920Y-10558198D02*
X7532443Y-10548674D01*
X7532443Y-10548674D02*
X7551491Y-10539150D01*
X7551491Y-10539150D02*
X7580063Y-10539150D01*
X7580063Y-10539150D02*
X7599110Y-10548674D01*
X7599110Y-10548674D02*
X7608634Y-10567722D01*
X7608634Y-10567722D02*
X7608634Y-10672484D01*
X7608634Y-10567722D02*
X7618158Y-10548674D01*
X7618158Y-10548674D02*
X7637205Y-10539150D01*
X7637205Y-10539150D02*
X7665777Y-10539150D01*
X7665777Y-10539150D02*
X7684824Y-10548674D01*
X7684824Y-10548674D02*
X7694348Y-10567722D01*
X7694348Y-10567722D02*
X7694348Y-10672484D01*
X7789586Y-10672484D02*
X7789586Y-10539150D01*
X7789586Y-10558198D02*
X7799110Y-10548674D01*
X7799110Y-10548674D02*
X7818158Y-10539150D01*
X7818158Y-10539150D02*
X7846729Y-10539150D01*
X7846729Y-10539150D02*
X7865777Y-10548674D01*
X7865777Y-10548674D02*
X7875301Y-10567722D01*
X7875301Y-10567722D02*
X7875301Y-10672484D01*
X7875301Y-10567722D02*
X7884824Y-10548674D01*
X7884824Y-10548674D02*
X7903872Y-10539150D01*
X7903872Y-10539150D02*
X7932443Y-10539150D01*
X7932443Y-10539150D02*
X7951491Y-10548674D01*
X7951491Y-10548674D02*
X7961015Y-10567722D01*
X7961015Y-10567722D02*
X7961015Y-10672484D01*
X8351491Y-10462960D02*
X8180063Y-10720103D01*
X8608634Y-10472484D02*
X8627682Y-10472484D01*
X8627682Y-10472484D02*
X8646729Y-10482008D01*
X8646729Y-10482008D02*
X8656253Y-10491531D01*
X8656253Y-10491531D02*
X8665777Y-10510579D01*
X8665777Y-10510579D02*
X8675301Y-10548674D01*
X8675301Y-10548674D02*
X8675301Y-10596293D01*
X8675301Y-10596293D02*
X8665777Y-10634389D01*
X8665777Y-10634389D02*
X8656253Y-10653436D01*
X8656253Y-10653436D02*
X8646729Y-10662960D01*
X8646729Y-10662960D02*
X8627682Y-10672484D01*
X8627682Y-10672484D02*
X8608634Y-10672484D01*
X8608634Y-10672484D02*
X8589587Y-10662960D01*
X8589587Y-10662960D02*
X8580063Y-10653436D01*
X8580063Y-10653436D02*
X8570539Y-10634389D01*
X8570539Y-10634389D02*
X8561015Y-10596293D01*
X8561015Y-10596293D02*
X8561015Y-10548674D01*
X8561015Y-10548674D02*
X8570539Y-10510579D01*
X8570539Y-10510579D02*
X8580063Y-10491531D01*
X8580063Y-10491531D02*
X8589587Y-10482008D01*
X8589587Y-10482008D02*
X8608634Y-10472484D01*
X8761015Y-10653436D02*
X8770539Y-10662960D01*
X8770539Y-10662960D02*
X8761015Y-10672484D01*
X8761015Y-10672484D02*
X8751491Y-10662960D01*
X8751491Y-10662960D02*
X8761015Y-10653436D01*
X8761015Y-10653436D02*
X8761015Y-10672484D01*
X8894348Y-10472484D02*
X8913396Y-10472484D01*
X8913396Y-10472484D02*
X8932444Y-10482008D01*
X8932444Y-10482008D02*
X8941968Y-10491531D01*
X8941968Y-10491531D02*
X8951491Y-10510579D01*
X8951491Y-10510579D02*
X8961015Y-10548674D01*
X8961015Y-10548674D02*
X8961015Y-10596293D01*
X8961015Y-10596293D02*
X8951491Y-10634389D01*
X8951491Y-10634389D02*
X8941968Y-10653436D01*
X8941968Y-10653436D02*
X8932444Y-10662960D01*
X8932444Y-10662960D02*
X8913396Y-10672484D01*
X8913396Y-10672484D02*
X8894348Y-10672484D01*
X8894348Y-10672484D02*
X8875301Y-10662960D01*
X8875301Y-10662960D02*
X8865777Y-10653436D01*
X8865777Y-10653436D02*
X8856253Y-10634389D01*
X8856253Y-10634389D02*
X8846729Y-10596293D01*
X8846729Y-10596293D02*
X8846729Y-10548674D01*
X8846729Y-10548674D02*
X8856253Y-10510579D01*
X8856253Y-10510579D02*
X8865777Y-10491531D01*
X8865777Y-10491531D02*
X8875301Y-10482008D01*
X8875301Y-10482008D02*
X8894348Y-10472484D01*
X9027682Y-10472484D02*
X9151491Y-10472484D01*
X9151491Y-10472484D02*
X9084825Y-10548674D01*
X9084825Y-10548674D02*
X9113396Y-10548674D01*
X9113396Y-10548674D02*
X9132444Y-10558198D01*
X9132444Y-10558198D02*
X9141968Y-10567722D01*
X9141968Y-10567722D02*
X9151491Y-10586770D01*
X9151491Y-10586770D02*
X9151491Y-10634389D01*
X9151491Y-10634389D02*
X9141968Y-10653436D01*
X9141968Y-10653436D02*
X9132444Y-10662960D01*
X9132444Y-10662960D02*
X9113396Y-10672484D01*
X9113396Y-10672484D02*
X9056253Y-10672484D01*
X9056253Y-10672484D02*
X9037206Y-10662960D01*
X9037206Y-10662960D02*
X9027682Y-10653436D01*
X9246729Y-10672484D02*
X9284825Y-10672484D01*
X9284825Y-10672484D02*
X9303872Y-10662960D01*
X9303872Y-10662960D02*
X9313396Y-10653436D01*
X9313396Y-10653436D02*
X9332444Y-10624865D01*
X9332444Y-10624865D02*
X9341968Y-10586770D01*
X9341968Y-10586770D02*
X9341968Y-10510579D01*
X9341968Y-10510579D02*
X9332444Y-10491531D01*
X9332444Y-10491531D02*
X9322920Y-10482008D01*
X9322920Y-10482008D02*
X9303872Y-10472484D01*
X9303872Y-10472484D02*
X9265777Y-10472484D01*
X9265777Y-10472484D02*
X9246729Y-10482008D01*
X9246729Y-10482008D02*
X9237206Y-10491531D01*
X9237206Y-10491531D02*
X9227682Y-10510579D01*
X9227682Y-10510579D02*
X9227682Y-10558198D01*
X9227682Y-10558198D02*
X9237206Y-10577246D01*
X9237206Y-10577246D02*
X9246729Y-10586770D01*
X9246729Y-10586770D02*
X9265777Y-10596293D01*
X9265777Y-10596293D02*
X9303872Y-10596293D01*
X9303872Y-10596293D02*
X9322920Y-10586770D01*
X9322920Y-10586770D02*
X9332444Y-10577246D01*
X9332444Y-10577246D02*
X9341968Y-10558198D01*
X9513396Y-10539150D02*
X9513396Y-10672484D01*
X9465777Y-10462960D02*
X9418158Y-10605817D01*
X9418158Y-10605817D02*
X9541968Y-10605817D01*
X9608634Y-10472484D02*
X9608634Y-10510579D01*
X9684825Y-10472484D02*
X9684825Y-10510579D01*
X9980063Y-10748674D02*
X9970539Y-10739150D01*
X9970539Y-10739150D02*
X9951491Y-10710579D01*
X9951491Y-10710579D02*
X9941968Y-10691531D01*
X9941968Y-10691531D02*
X9932444Y-10662960D01*
X9932444Y-10662960D02*
X9922920Y-10615341D01*
X9922920Y-10615341D02*
X9922920Y-10577246D01*
X9922920Y-10577246D02*
X9932444Y-10529627D01*
X9932444Y-10529627D02*
X9941968Y-10501055D01*
X9941968Y-10501055D02*
X9951491Y-10482008D01*
X9951491Y-10482008D02*
X9970539Y-10453436D01*
X9970539Y-10453436D02*
X9980063Y-10443912D01*
X10065777Y-10672484D02*
X10103872Y-10672484D01*
X10103872Y-10672484D02*
X10122920Y-10662960D01*
X10122920Y-10662960D02*
X10132444Y-10653436D01*
X10132444Y-10653436D02*
X10151491Y-10624865D01*
X10151491Y-10624865D02*
X10161015Y-10586770D01*
X10161015Y-10586770D02*
X10161015Y-10510579D01*
X10161015Y-10510579D02*
X10151491Y-10491531D01*
X10151491Y-10491531D02*
X10141968Y-10482008D01*
X10141968Y-10482008D02*
X10122920Y-10472484D01*
X10122920Y-10472484D02*
X10084825Y-10472484D01*
X10084825Y-10472484D02*
X10065777Y-10482008D01*
X10065777Y-10482008D02*
X10056253Y-10491531D01*
X10056253Y-10491531D02*
X10046730Y-10510579D01*
X10046730Y-10510579D02*
X10046730Y-10558198D01*
X10046730Y-10558198D02*
X10056253Y-10577246D01*
X10056253Y-10577246D02*
X10065777Y-10586770D01*
X10065777Y-10586770D02*
X10084825Y-10596293D01*
X10084825Y-10596293D02*
X10122920Y-10596293D01*
X10122920Y-10596293D02*
X10141968Y-10586770D01*
X10141968Y-10586770D02*
X10151491Y-10577246D01*
X10151491Y-10577246D02*
X10161015Y-10558198D01*
X10227682Y-10472484D02*
X10351491Y-10472484D01*
X10351491Y-10472484D02*
X10284825Y-10548674D01*
X10284825Y-10548674D02*
X10313396Y-10548674D01*
X10313396Y-10548674D02*
X10332444Y-10558198D01*
X10332444Y-10558198D02*
X10341968Y-10567722D01*
X10341968Y-10567722D02*
X10351491Y-10586770D01*
X10351491Y-10586770D02*
X10351491Y-10634389D01*
X10351491Y-10634389D02*
X10341968Y-10653436D01*
X10341968Y-10653436D02*
X10332444Y-10662960D01*
X10332444Y-10662960D02*
X10313396Y-10672484D01*
X10313396Y-10672484D02*
X10256253Y-10672484D01*
X10256253Y-10672484D02*
X10237206Y-10662960D01*
X10237206Y-10662960D02*
X10227682Y-10653436D01*
X10589587Y-10672484D02*
X10589587Y-10472484D01*
X10675301Y-10672484D02*
X10675301Y-10567722D01*
X10675301Y-10567722D02*
X10665777Y-10548674D01*
X10665777Y-10548674D02*
X10646730Y-10539150D01*
X10646730Y-10539150D02*
X10618158Y-10539150D01*
X10618158Y-10539150D02*
X10599111Y-10548674D01*
X10599111Y-10548674D02*
X10589587Y-10558198D01*
X10799111Y-10672484D02*
X10780063Y-10662960D01*
X10780063Y-10662960D02*
X10770539Y-10653436D01*
X10770539Y-10653436D02*
X10761015Y-10634389D01*
X10761015Y-10634389D02*
X10761015Y-10577246D01*
X10761015Y-10577246D02*
X10770539Y-10558198D01*
X10770539Y-10558198D02*
X10780063Y-10548674D01*
X10780063Y-10548674D02*
X10799111Y-10539150D01*
X10799111Y-10539150D02*
X10827682Y-10539150D01*
X10827682Y-10539150D02*
X10846730Y-10548674D01*
X10846730Y-10548674D02*
X10856253Y-10558198D01*
X10856253Y-10558198D02*
X10865777Y-10577246D01*
X10865777Y-10577246D02*
X10865777Y-10634389D01*
X10865777Y-10634389D02*
X10856253Y-10653436D01*
X10856253Y-10653436D02*
X10846730Y-10662960D01*
X10846730Y-10662960D02*
X10827682Y-10672484D01*
X10827682Y-10672484D02*
X10799111Y-10672484D01*
X10980063Y-10672484D02*
X10961015Y-10662960D01*
X10961015Y-10662960D02*
X10951492Y-10643912D01*
X10951492Y-10643912D02*
X10951492Y-10472484D01*
X11132444Y-10662960D02*
X11113396Y-10672484D01*
X11113396Y-10672484D02*
X11075301Y-10672484D01*
X11075301Y-10672484D02*
X11056253Y-10662960D01*
X11056253Y-10662960D02*
X11046730Y-10643912D01*
X11046730Y-10643912D02*
X11046730Y-10567722D01*
X11046730Y-10567722D02*
X11056253Y-10548674D01*
X11056253Y-10548674D02*
X11075301Y-10539150D01*
X11075301Y-10539150D02*
X11113396Y-10539150D01*
X11113396Y-10539150D02*
X11132444Y-10548674D01*
X11132444Y-10548674D02*
X11141968Y-10567722D01*
X11141968Y-10567722D02*
X11141968Y-10586770D01*
X11141968Y-10586770D02*
X11046730Y-10605817D01*
X11218158Y-10662960D02*
X11237206Y-10672484D01*
X11237206Y-10672484D02*
X11275301Y-10672484D01*
X11275301Y-10672484D02*
X11294349Y-10662960D01*
X11294349Y-10662960D02*
X11303872Y-10643912D01*
X11303872Y-10643912D02*
X11303872Y-10634389D01*
X11303872Y-10634389D02*
X11294349Y-10615341D01*
X11294349Y-10615341D02*
X11275301Y-10605817D01*
X11275301Y-10605817D02*
X11246730Y-10605817D01*
X11246730Y-10605817D02*
X11227682Y-10596293D01*
X11227682Y-10596293D02*
X11218158Y-10577246D01*
X11218158Y-10577246D02*
X11218158Y-10567722D01*
X11218158Y-10567722D02*
X11227682Y-10548674D01*
X11227682Y-10548674D02*
X11246730Y-10539150D01*
X11246730Y-10539150D02*
X11275301Y-10539150D01*
X11275301Y-10539150D02*
X11294349Y-10548674D01*
X11370539Y-10748674D02*
X11380063Y-10739150D01*
X11380063Y-10739150D02*
X11399111Y-10710579D01*
X11399111Y-10710579D02*
X11408634Y-10691531D01*
X11408634Y-10691531D02*
X11418158Y-10662960D01*
X11418158Y-10662960D02*
X11427682Y-10615341D01*
X11427682Y-10615341D02*
X11427682Y-10577246D01*
X11427682Y-10577246D02*
X11418158Y-10529627D01*
X11418158Y-10529627D02*
X11408634Y-10501055D01*
X11408634Y-10501055D02*
X11399111Y-10482008D01*
X11399111Y-10482008D02*
X11380063Y-10453436D01*
X11380063Y-10453436D02*
X11370539Y-10443912D01*
M02*
