G04 #@! TF.GenerationSoftware,KiCad,Pcbnew,7.0.5*
G04 #@! TF.CreationDate,2024-02-16T17:16:27-05:00*
G04 #@! TF.ProjectId,SoyuzControlBoard,536f7975-7a43-46f6-9e74-726f6c426f61,rev?*
G04 #@! TF.SameCoordinates,Original*
G04 #@! TF.FileFunction,Copper,L1,Top*
G04 #@! TF.FilePolarity,Positive*
%FSLAX46Y46*%
G04 Gerber Fmt 4.6, Leading zero omitted, Abs format (unit mm)*
G04 Created by KiCad (PCBNEW 7.0.5) date 2024-02-16 17:16:27*
%MOMM*%
%LPD*%
G01*
G04 APERTURE LIST*
G04 Aperture macros list*
%AMRoundRect*
0 Rectangle with rounded corners*
0 $1 Rounding radius*
0 $2 $3 $4 $5 $6 $7 $8 $9 X,Y pos of 4 corners*
0 Add a 4 corners polygon primitive as box body*
4,1,4,$2,$3,$4,$5,$6,$7,$8,$9,$2,$3,0*
0 Add four circle primitives for the rounded corners*
1,1,$1+$1,$2,$3*
1,1,$1+$1,$4,$5*
1,1,$1+$1,$6,$7*
1,1,$1+$1,$8,$9*
0 Add four rect primitives between the rounded corners*
20,1,$1+$1,$2,$3,$4,$5,0*
20,1,$1+$1,$4,$5,$6,$7,0*
20,1,$1+$1,$6,$7,$8,$9,0*
20,1,$1+$1,$8,$9,$2,$3,0*%
G04 Aperture macros list end*
G04 #@! TA.AperFunction,ComponentPad*
%ADD10R,1.700000X1.700000*%
G04 #@! TD*
G04 #@! TA.AperFunction,ComponentPad*
%ADD11O,1.700000X1.700000*%
G04 #@! TD*
G04 #@! TA.AperFunction,ComponentPad*
%ADD12C,1.700000*%
G04 #@! TD*
G04 #@! TA.AperFunction,SMDPad,CuDef*
%ADD13RoundRect,0.250000X0.450000X-0.350000X0.450000X0.350000X-0.450000X0.350000X-0.450000X-0.350000X0*%
G04 #@! TD*
G04 #@! TA.AperFunction,SMDPad,CuDef*
%ADD14RoundRect,0.250000X-0.450000X0.350000X-0.450000X-0.350000X0.450000X-0.350000X0.450000X0.350000X0*%
G04 #@! TD*
G04 #@! TA.AperFunction,SMDPad,CuDef*
%ADD15RoundRect,0.250000X-0.350000X-0.450000X0.350000X-0.450000X0.350000X0.450000X-0.350000X0.450000X0*%
G04 #@! TD*
G04 #@! TA.AperFunction,ComponentPad*
%ADD16R,1.200000X1.200000*%
G04 #@! TD*
G04 #@! TA.AperFunction,ComponentPad*
%ADD17C,1.200000*%
G04 #@! TD*
G04 #@! TA.AperFunction,ComponentPad*
%ADD18RoundRect,0.250000X0.600000X0.600000X-0.600000X0.600000X-0.600000X-0.600000X0.600000X-0.600000X0*%
G04 #@! TD*
G04 #@! TA.AperFunction,ComponentPad*
%ADD19R,1.600000X1.600000*%
G04 #@! TD*
G04 #@! TA.AperFunction,ComponentPad*
%ADD20O,1.600000X1.600000*%
G04 #@! TD*
G04 #@! TA.AperFunction,ComponentPad*
%ADD21R,1.700000X3.400000*%
G04 #@! TD*
G04 #@! TA.AperFunction,ComponentPad*
%ADD22O,1.700000X3.400000*%
G04 #@! TD*
G04 #@! TA.AperFunction,ViaPad*
%ADD23C,0.800000*%
G04 #@! TD*
G04 #@! TA.AperFunction,ViaPad*
%ADD24C,1.000000*%
G04 #@! TD*
G04 #@! TA.AperFunction,Conductor*
%ADD25C,0.700000*%
G04 #@! TD*
G04 #@! TA.AperFunction,Conductor*
%ADD26C,0.400000*%
G04 #@! TD*
G04 #@! TA.AperFunction,Conductor*
%ADD27C,0.600000*%
G04 #@! TD*
G04 #@! TA.AperFunction,Conductor*
%ADD28C,0.250000*%
G04 #@! TD*
G04 APERTURE END LIST*
D10*
X118400000Y-84980000D03*
D11*
X120940000Y-84980000D03*
X118400000Y-82440000D03*
X120940000Y-82440000D03*
X118400000Y-79900000D03*
X120940000Y-79900000D03*
D12*
X69700000Y-45720000D03*
D13*
X85700000Y-39700000D03*
X85700000Y-37700000D03*
D12*
X90020000Y-68580000D03*
D13*
X82600000Y-39700000D03*
X82600000Y-37700000D03*
D14*
X124300000Y-50900000D03*
X124300000Y-52900000D03*
D13*
X88800000Y-39700000D03*
X88800000Y-37700000D03*
D15*
X121600000Y-61200000D03*
X123600000Y-61200000D03*
D12*
X69700000Y-48260000D03*
D10*
X127290000Y-69200000D03*
D11*
X124750000Y-69200000D03*
X127290000Y-71740000D03*
X124750000Y-71740000D03*
X127290000Y-74280000D03*
X124750000Y-74280000D03*
X127290000Y-76820000D03*
X124750000Y-76820000D03*
D12*
X69700000Y-71120000D03*
X90020000Y-66040000D03*
D16*
X127250000Y-64050000D03*
D17*
X125250000Y-64050000D03*
D10*
X119360000Y-58340000D03*
D11*
X121900000Y-58340000D03*
X119360000Y-55800000D03*
X121900000Y-55800000D03*
X119360000Y-53260000D03*
X121900000Y-53260000D03*
X119360000Y-50720000D03*
X121900000Y-50720000D03*
D18*
X127000000Y-30840000D03*
D12*
X124460000Y-30840000D03*
X127000000Y-33380000D03*
X124460000Y-33380000D03*
X127000000Y-35920000D03*
X124460000Y-35920000D03*
X127000000Y-38460000D03*
X124460000Y-38460000D03*
X127000000Y-41000000D03*
X124460000Y-41000000D03*
D10*
X92539500Y-38100000D03*
D12*
X92539500Y-40640000D03*
X92539500Y-43180000D03*
X92539500Y-45720000D03*
X92539500Y-48260000D03*
X92539500Y-50800000D03*
X92539500Y-53340000D03*
X92539500Y-55880000D03*
X92539500Y-58420000D03*
X92539500Y-60960000D03*
X92539500Y-63500000D03*
X92539500Y-66040000D03*
X92539500Y-68580000D03*
X92539500Y-71120000D03*
X92539500Y-73660000D03*
X67139500Y-73660000D03*
X67139500Y-71120000D03*
X67139500Y-68580000D03*
X67139500Y-66040000D03*
X67139500Y-63500000D03*
X67139500Y-60960000D03*
X67139500Y-58420000D03*
X67139500Y-55880000D03*
X67139500Y-53340000D03*
X67139500Y-50800000D03*
X67139500Y-48260000D03*
X67139500Y-45720000D03*
X67139500Y-43180000D03*
X67139500Y-40640000D03*
X67139500Y-38100000D03*
D19*
X98475000Y-77300000D03*
D20*
X101015000Y-77300000D03*
X103555000Y-77300000D03*
X106095000Y-77300000D03*
X108635000Y-77300000D03*
X111175000Y-77300000D03*
X113715000Y-77300000D03*
X113715000Y-84920000D03*
X111175000Y-84920000D03*
X108635000Y-84920000D03*
X106095000Y-84920000D03*
X103555000Y-84920000D03*
X101015000Y-84920000D03*
X98475000Y-84920000D03*
D21*
X112980000Y-23000000D03*
D22*
X110440000Y-23000000D03*
X107900000Y-23000000D03*
X105360000Y-23000000D03*
X102820000Y-23000000D03*
D10*
X127300000Y-51300000D03*
D11*
X127300000Y-53840000D03*
X127300000Y-58920000D03*
D10*
X99060000Y-54305200D03*
D11*
X101600000Y-54305200D03*
X104140000Y-54305200D03*
X106680000Y-54305200D03*
X109220000Y-54305200D03*
X111760000Y-54305200D03*
D10*
X97050000Y-71225000D03*
D11*
X99590000Y-71225000D03*
X102130000Y-71225000D03*
X104670000Y-71225000D03*
X107210000Y-71225000D03*
D10*
X99060000Y-46300000D03*
D11*
X101600000Y-46300000D03*
X104140000Y-46300000D03*
X106680000Y-46300000D03*
X109220000Y-46300000D03*
X111760000Y-46300000D03*
X114300000Y-46300000D03*
D23*
X114637500Y-73300000D03*
D24*
X122440000Y-64350000D03*
X112600000Y-64300000D03*
X96250000Y-82750000D03*
X111600000Y-73700000D03*
D23*
X76700000Y-48100000D03*
X76000000Y-45400000D03*
X89100000Y-33800000D03*
X86000000Y-34800000D03*
X83500000Y-35800000D03*
D25*
X122960000Y-82440000D02*
X123000000Y-82400000D01*
X120940000Y-82440000D02*
X122960000Y-82440000D01*
X118400000Y-82440000D02*
X116760000Y-82440000D01*
D26*
X118400000Y-79900000D02*
X120940000Y-79900000D01*
X118400000Y-77062500D02*
X114637500Y-73300000D01*
X118400000Y-79900000D02*
X118400000Y-77062500D01*
D25*
X118400000Y-82440000D02*
X120940000Y-82440000D01*
D27*
X116200000Y-58110000D02*
X116200000Y-53300000D01*
X116200000Y-58110000D02*
X122440000Y-64350000D01*
D28*
X123600000Y-57500000D02*
X123600000Y-61200000D01*
D27*
X99060000Y-47750000D02*
X99060000Y-46300000D01*
D28*
X123600000Y-61200000D02*
X123600000Y-63190000D01*
X121900000Y-55800000D02*
X123600000Y-57500000D01*
D27*
X116200000Y-53300000D02*
X113600000Y-50700000D01*
X102010000Y-50700000D02*
X99060000Y-47750000D01*
X113600000Y-50700000D02*
X102010000Y-50700000D01*
D28*
X123600000Y-63190000D02*
X122440000Y-64350000D01*
D26*
X101300000Y-46600000D02*
X101300000Y-47800000D01*
D27*
X106095000Y-76605000D02*
X106700000Y-76000000D01*
D26*
X92940000Y-40640000D02*
X94600000Y-42300000D01*
X121900000Y-53260000D02*
X123940000Y-53260000D01*
X92539500Y-40640000D02*
X95060000Y-40640000D01*
X106095000Y-77300000D02*
X106095000Y-76605000D01*
X90460000Y-40640000D02*
X90100000Y-41000000D01*
X123940000Y-53260000D02*
X124300000Y-52900000D01*
X92539500Y-40640000D02*
X92940000Y-40640000D01*
X71160000Y-40640000D02*
X71250000Y-40550000D01*
D27*
X110440000Y-23800000D02*
X110440000Y-24590000D01*
D26*
X101600000Y-46300000D02*
X102000000Y-46700000D01*
X102000000Y-46700000D02*
X102000000Y-47800000D01*
X91927500Y-40640000D02*
X90460000Y-40640000D01*
X67139500Y-40640000D02*
X71160000Y-40640000D01*
X106095000Y-77300000D02*
X106095000Y-76505000D01*
D27*
X110440000Y-24590000D02*
X111000000Y-25150000D01*
D26*
X95060000Y-40640000D02*
X95100000Y-40600000D01*
X91927500Y-40640000D02*
X92540000Y-40640000D01*
D28*
X91800000Y-75300000D02*
X91000000Y-74500000D01*
X99155000Y-74200000D02*
X96000000Y-74200000D01*
X91000000Y-72659500D02*
X92539500Y-71120000D01*
X91000000Y-74500000D02*
X91000000Y-72659500D01*
X96000000Y-74200000D02*
X94900000Y-75300000D01*
X94900000Y-75300000D02*
X91800000Y-75300000D01*
X102130000Y-71225000D02*
X99155000Y-74200000D01*
X66527500Y-45720000D02*
X69088000Y-45720000D01*
X84400000Y-81500000D02*
X107755000Y-81500000D01*
X69380000Y-55880000D02*
X67139500Y-55880000D01*
X79900000Y-77000000D02*
X84400000Y-81500000D01*
X111175000Y-84920000D02*
X107755000Y-81500000D01*
X69380000Y-55880000D02*
X79900000Y-66400000D01*
X79900000Y-66400000D02*
X79900000Y-77000000D01*
X80700000Y-76700000D02*
X84800000Y-80800000D01*
X84800000Y-80800000D02*
X105135000Y-80800000D01*
X67139500Y-53340000D02*
X67941713Y-53340000D01*
X80700000Y-66098287D02*
X80700000Y-76700000D01*
X105135000Y-80800000D02*
X108635000Y-77300000D01*
X67941713Y-53340000D02*
X80700000Y-66098287D01*
X66527500Y-53340000D02*
X67941713Y-53340000D01*
X81400000Y-76400000D02*
X81400000Y-65060500D01*
X98115000Y-80200000D02*
X85200000Y-80200000D01*
X81400000Y-65060500D02*
X67139500Y-50800000D01*
X85200000Y-80200000D02*
X81400000Y-76400000D01*
X101015000Y-77300000D02*
X98115000Y-80200000D01*
X89408000Y-66040000D02*
X91927500Y-66040000D01*
X91927500Y-68580000D02*
X89408000Y-68580000D01*
X81940000Y-53340000D02*
X91927500Y-53340000D01*
X76700000Y-48100000D02*
X81940000Y-53340000D01*
X81400000Y-50800000D02*
X91927500Y-50800000D01*
X76000000Y-45400000D02*
X81400000Y-50800000D01*
X96500000Y-57300000D02*
X101145200Y-57300000D01*
X92539500Y-73660000D02*
X94900000Y-71299500D01*
X94900000Y-71299500D02*
X94900000Y-58900000D01*
X94900000Y-58900000D02*
X96500000Y-57300000D01*
X101145200Y-57300000D02*
X104140000Y-54305200D01*
X112400000Y-44400000D02*
X114300000Y-46300000D01*
X90000000Y-43200000D02*
X91200000Y-44400000D01*
X91200000Y-44400000D02*
X112400000Y-44400000D01*
X66547500Y-43200000D02*
X90000000Y-43200000D01*
X102710000Y-44870000D02*
X93389500Y-44870000D01*
X104140000Y-46300000D02*
X102710000Y-44870000D01*
X93389500Y-44870000D02*
X92539500Y-45720000D01*
X119360000Y-58340000D02*
X119360000Y-55800000D01*
X119360000Y-55800000D02*
X119360000Y-53260000D01*
X119360000Y-53260000D02*
X119360000Y-50720000D01*
X88800000Y-34100000D02*
X89100000Y-33800000D01*
X88800000Y-37700000D02*
X88800000Y-34100000D01*
X85700000Y-37700000D02*
X85700000Y-35100000D01*
X85700000Y-35100000D02*
X86000000Y-34800000D01*
X82600000Y-36700000D02*
X83500000Y-35800000D01*
X82600000Y-37700000D02*
X82600000Y-36700000D01*
X88800000Y-39700000D02*
X89200000Y-39700000D01*
X85700000Y-39700000D02*
X88800000Y-39700000D01*
X82600000Y-39700000D02*
X85700000Y-39700000D01*
X89200000Y-39700000D02*
X90800000Y-38100000D01*
X90800000Y-38100000D02*
X92539500Y-38100000D01*
X66527500Y-48260000D02*
X69088000Y-48260000D01*
X69088000Y-71120000D02*
X66527500Y-71120000D01*
X121900000Y-60900000D02*
X121600000Y-61200000D01*
X121900000Y-58340000D02*
X121900000Y-60900000D01*
X122080000Y-50900000D02*
X121900000Y-50720000D01*
X124300000Y-50900000D02*
X122080000Y-50900000D01*
G04 #@! TA.AperFunction,Conductor*
G36*
X94390851Y-28052381D02*
G01*
X94420394Y-28058258D01*
X94465093Y-28076773D01*
X94480545Y-28087097D01*
X94500273Y-28100279D01*
X94500287Y-28100296D01*
X94500291Y-28100292D01*
X94500294Y-28100294D01*
X94950000Y-28550000D01*
X94950000Y-41650000D01*
X94750000Y-41850000D01*
X93192890Y-41850000D01*
X93205610Y-41824838D01*
X93224905Y-41808119D01*
X93300873Y-41754925D01*
X92672033Y-41126086D01*
X92681815Y-41124680D01*
X92812600Y-41064952D01*
X92921261Y-40970798D01*
X92998993Y-40849844D01*
X93022577Y-40769523D01*
X93654426Y-41401373D01*
X93713098Y-41317582D01*
X93713100Y-41317578D01*
X93812929Y-41103492D01*
X93812933Y-41103483D01*
X93874067Y-40875326D01*
X93874069Y-40875315D01*
X93894657Y-40640001D01*
X93894657Y-40639998D01*
X93874069Y-40404684D01*
X93874067Y-40404673D01*
X93812933Y-40176516D01*
X93812929Y-40176507D01*
X93713100Y-39962423D01*
X93713099Y-39962421D01*
X93654425Y-39878626D01*
X93654425Y-39878625D01*
X93022576Y-40510474D01*
X92998993Y-40430156D01*
X92921261Y-40309202D01*
X92812600Y-40215048D01*
X92681815Y-40155320D01*
X92672034Y-40153913D01*
X93339129Y-39486818D01*
X93400452Y-39453333D01*
X93426809Y-39450499D01*
X93437372Y-39450499D01*
X93496983Y-39444091D01*
X93631831Y-39393796D01*
X93747046Y-39307546D01*
X93833296Y-39192331D01*
X93883591Y-39057483D01*
X93890000Y-38997873D01*
X93889999Y-37202128D01*
X93883591Y-37142517D01*
X93841873Y-37030666D01*
X93833297Y-37007671D01*
X93833293Y-37007664D01*
X93747047Y-36892455D01*
X93747044Y-36892452D01*
X93631835Y-36806206D01*
X93631828Y-36806202D01*
X93496982Y-36755908D01*
X93496983Y-36755908D01*
X93437383Y-36749501D01*
X93437381Y-36749500D01*
X93437373Y-36749500D01*
X93437364Y-36749500D01*
X91641629Y-36749500D01*
X91641623Y-36749501D01*
X91582016Y-36755908D01*
X91447171Y-36806202D01*
X91447164Y-36806206D01*
X91331955Y-36892452D01*
X91331952Y-36892455D01*
X91245706Y-37007664D01*
X91245702Y-37007671D01*
X91195408Y-37142517D01*
X91189529Y-37197203D01*
X91189001Y-37202123D01*
X91189000Y-37202135D01*
X91189000Y-37350500D01*
X91169315Y-37417539D01*
X91116511Y-37463294D01*
X91065000Y-37474500D01*
X90882743Y-37474500D01*
X90867122Y-37472775D01*
X90867095Y-37473061D01*
X90859333Y-37472326D01*
X90791140Y-37474469D01*
X90789193Y-37474500D01*
X90760649Y-37474500D01*
X90753778Y-37475367D01*
X90747959Y-37475825D01*
X90701374Y-37477289D01*
X90701368Y-37477290D01*
X90682126Y-37482880D01*
X90663087Y-37486823D01*
X90643217Y-37489334D01*
X90643203Y-37489337D01*
X90599883Y-37506488D01*
X90594358Y-37508380D01*
X90549613Y-37521380D01*
X90549610Y-37521381D01*
X90532366Y-37531579D01*
X90514905Y-37540133D01*
X90496274Y-37547510D01*
X90496262Y-37547517D01*
X90458570Y-37574902D01*
X90453687Y-37578109D01*
X90413580Y-37601829D01*
X90399414Y-37615995D01*
X90384624Y-37628627D01*
X90368414Y-37640404D01*
X90368411Y-37640407D01*
X90338710Y-37676309D01*
X90334777Y-37680631D01*
X90212180Y-37803228D01*
X90150857Y-37836713D01*
X90081165Y-37831729D01*
X90025232Y-37789857D01*
X90000815Y-37724393D01*
X90000499Y-37715547D01*
X90000499Y-37299998D01*
X90000498Y-37299981D01*
X89989999Y-37197203D01*
X89989998Y-37197200D01*
X89945033Y-37061505D01*
X89934814Y-37030666D01*
X89842712Y-36881344D01*
X89718656Y-36757288D01*
X89623047Y-36698316D01*
X89569336Y-36665187D01*
X89569335Y-36665186D01*
X89569334Y-36665186D01*
X89510493Y-36645688D01*
X89453051Y-36605916D01*
X89426228Y-36541400D01*
X89425500Y-36527983D01*
X89425500Y-34721323D01*
X89445185Y-34654284D01*
X89497989Y-34608529D01*
X89498842Y-34608143D01*
X89552730Y-34584151D01*
X89705871Y-34472888D01*
X89832533Y-34332216D01*
X89927179Y-34168284D01*
X89985674Y-33988256D01*
X90005460Y-33800000D01*
X89985674Y-33611744D01*
X89927179Y-33431716D01*
X89832533Y-33267784D01*
X89705871Y-33127112D01*
X89705870Y-33127111D01*
X89552734Y-33015851D01*
X89552729Y-33015848D01*
X89379807Y-32938857D01*
X89379802Y-32938855D01*
X89234000Y-32907865D01*
X89194646Y-32899500D01*
X89005354Y-32899500D01*
X88972897Y-32906398D01*
X88820197Y-32938855D01*
X88820192Y-32938857D01*
X88647270Y-33015848D01*
X88647265Y-33015851D01*
X88494129Y-33127111D01*
X88367466Y-33267785D01*
X88272821Y-33431715D01*
X88272818Y-33431722D01*
X88214327Y-33611740D01*
X88214326Y-33611744D01*
X88194540Y-33800000D01*
X88194540Y-33800001D01*
X88201638Y-33867544D01*
X88194245Y-33915889D01*
X88196738Y-33916614D01*
X88194561Y-33924105D01*
X88187271Y-33970127D01*
X88186087Y-33975846D01*
X88174501Y-34020972D01*
X88174500Y-34020982D01*
X88174500Y-34041016D01*
X88172973Y-34060415D01*
X88169840Y-34080194D01*
X88169840Y-34080195D01*
X88174225Y-34126583D01*
X88174500Y-34132421D01*
X88174500Y-36527983D01*
X88154815Y-36595022D01*
X88102011Y-36640777D01*
X88089510Y-36645686D01*
X88042870Y-36661142D01*
X88030666Y-36665186D01*
X88030663Y-36665187D01*
X87881342Y-36757289D01*
X87757289Y-36881342D01*
X87665187Y-37030663D01*
X87665185Y-37030668D01*
X87637349Y-37114670D01*
X87610001Y-37197203D01*
X87610001Y-37197204D01*
X87610000Y-37197204D01*
X87599500Y-37299983D01*
X87599500Y-38100001D01*
X87599501Y-38100019D01*
X87610000Y-38202796D01*
X87610001Y-38202799D01*
X87665185Y-38369331D01*
X87665187Y-38369336D01*
X87757289Y-38518657D01*
X87850951Y-38612319D01*
X87884436Y-38673642D01*
X87879452Y-38743334D01*
X87850951Y-38787681D01*
X87757289Y-38881342D01*
X87757287Y-38881344D01*
X87757288Y-38881344D01*
X87685414Y-38997872D01*
X87674481Y-39015597D01*
X87622533Y-39062321D01*
X87568942Y-39074500D01*
X86931058Y-39074500D01*
X86864019Y-39054815D01*
X86825519Y-39015597D01*
X86814587Y-38997873D01*
X86742712Y-38881344D01*
X86649049Y-38787680D01*
X86615564Y-38726358D01*
X86620548Y-38656666D01*
X86649049Y-38612319D01*
X86649051Y-38612317D01*
X86742712Y-38518656D01*
X86834814Y-38369334D01*
X86889999Y-38202797D01*
X86900500Y-38100009D01*
X86900499Y-37299992D01*
X86889999Y-37197203D01*
X86834814Y-37030666D01*
X86742712Y-36881344D01*
X86618656Y-36757288D01*
X86523047Y-36698316D01*
X86469336Y-36665187D01*
X86469335Y-36665186D01*
X86469334Y-36665186D01*
X86410493Y-36645688D01*
X86353051Y-36605916D01*
X86326228Y-36541400D01*
X86325500Y-36527983D01*
X86325500Y-35721323D01*
X86345185Y-35654284D01*
X86397989Y-35608529D01*
X86398842Y-35608143D01*
X86452730Y-35584151D01*
X86605871Y-35472888D01*
X86732533Y-35332216D01*
X86827179Y-35168284D01*
X86885674Y-34988256D01*
X86905460Y-34800000D01*
X86885674Y-34611744D01*
X86827179Y-34431716D01*
X86732533Y-34267784D01*
X86605871Y-34127112D01*
X86605143Y-34126583D01*
X86452734Y-34015851D01*
X86452729Y-34015848D01*
X86279807Y-33938857D01*
X86279802Y-33938855D01*
X86134001Y-33907865D01*
X86094646Y-33899500D01*
X85905354Y-33899500D01*
X85872897Y-33906398D01*
X85720197Y-33938855D01*
X85720192Y-33938857D01*
X85547270Y-34015848D01*
X85547265Y-34015851D01*
X85394129Y-34127111D01*
X85267466Y-34267785D01*
X85172821Y-34431715D01*
X85172818Y-34431722D01*
X85114327Y-34611740D01*
X85114326Y-34611744D01*
X85109855Y-34654284D01*
X85094540Y-34800001D01*
X85101638Y-34867544D01*
X85094245Y-34915889D01*
X85096738Y-34916614D01*
X85094561Y-34924105D01*
X85087271Y-34970127D01*
X85086087Y-34975846D01*
X85074501Y-35020972D01*
X85074500Y-35020982D01*
X85074500Y-35041016D01*
X85072973Y-35060415D01*
X85069840Y-35080194D01*
X85069840Y-35080195D01*
X85074225Y-35126583D01*
X85074500Y-35132421D01*
X85074500Y-36527983D01*
X85054815Y-36595022D01*
X85002011Y-36640777D01*
X84989510Y-36645686D01*
X84942870Y-36661142D01*
X84930666Y-36665186D01*
X84930663Y-36665187D01*
X84781342Y-36757289D01*
X84657289Y-36881342D01*
X84565187Y-37030663D01*
X84565185Y-37030668D01*
X84537349Y-37114670D01*
X84510001Y-37197203D01*
X84510001Y-37197204D01*
X84510000Y-37197204D01*
X84499500Y-37299983D01*
X84499500Y-38100001D01*
X84499501Y-38100019D01*
X84510000Y-38202796D01*
X84510001Y-38202799D01*
X84565185Y-38369331D01*
X84565187Y-38369336D01*
X84657289Y-38518657D01*
X84750951Y-38612319D01*
X84784436Y-38673642D01*
X84779452Y-38743334D01*
X84750951Y-38787681D01*
X84657289Y-38881342D01*
X84657287Y-38881344D01*
X84657288Y-38881344D01*
X84585414Y-38997872D01*
X84574481Y-39015597D01*
X84522533Y-39062321D01*
X84468942Y-39074500D01*
X83831058Y-39074500D01*
X83764019Y-39054815D01*
X83725519Y-39015597D01*
X83714587Y-38997873D01*
X83642712Y-38881344D01*
X83549048Y-38787680D01*
X83515564Y-38726356D01*
X83520548Y-38656665D01*
X83549045Y-38612322D01*
X83642712Y-38518656D01*
X83734814Y-38369334D01*
X83789999Y-38202797D01*
X83800500Y-38100009D01*
X83800499Y-37299992D01*
X83789999Y-37197203D01*
X83734814Y-37030666D01*
X83642712Y-36881344D01*
X83642709Y-36881341D01*
X83638234Y-36875681D01*
X83640444Y-36873932D01*
X83613147Y-36823941D01*
X83618131Y-36754249D01*
X83660003Y-36698316D01*
X83708532Y-36676293D01*
X83711842Y-36675589D01*
X83779803Y-36661144D01*
X83952730Y-36584151D01*
X84105871Y-36472888D01*
X84232533Y-36332216D01*
X84327179Y-36168284D01*
X84385674Y-35988256D01*
X84405460Y-35800000D01*
X84385674Y-35611744D01*
X84327179Y-35431716D01*
X84232533Y-35267784D01*
X84105871Y-35127112D01*
X84105143Y-35126583D01*
X83952734Y-35015851D01*
X83952729Y-35015848D01*
X83779807Y-34938857D01*
X83779802Y-34938855D01*
X83634001Y-34907865D01*
X83594646Y-34899500D01*
X83405354Y-34899500D01*
X83372897Y-34906398D01*
X83220197Y-34938855D01*
X83220192Y-34938857D01*
X83047270Y-35015848D01*
X83047265Y-35015851D01*
X82894129Y-35127111D01*
X82767466Y-35267785D01*
X82672821Y-35431715D01*
X82672818Y-35431722D01*
X82614327Y-35611740D01*
X82614326Y-35611744D01*
X82609855Y-35654284D01*
X82596679Y-35779649D01*
X82570094Y-35844263D01*
X82561039Y-35854368D01*
X82216208Y-36199199D01*
X82203951Y-36209020D01*
X82204134Y-36209241D01*
X82198122Y-36214214D01*
X82151432Y-36263932D01*
X82150079Y-36265329D01*
X82129889Y-36285519D01*
X82129877Y-36285532D01*
X82125621Y-36291017D01*
X82121837Y-36295447D01*
X82089937Y-36329418D01*
X82089936Y-36329420D01*
X82080284Y-36346976D01*
X82069610Y-36363226D01*
X82057329Y-36379061D01*
X82057324Y-36379068D01*
X82038815Y-36421838D01*
X82036245Y-36427084D01*
X82013803Y-36467906D01*
X82008822Y-36487307D01*
X82002521Y-36505710D01*
X81994562Y-36524102D01*
X81994561Y-36524107D01*
X81991866Y-36541122D01*
X81961935Y-36604256D01*
X81908398Y-36639427D01*
X81842870Y-36661142D01*
X81830666Y-36665186D01*
X81681342Y-36757289D01*
X81557289Y-36881342D01*
X81465187Y-37030663D01*
X81465185Y-37030668D01*
X81437349Y-37114670D01*
X81410001Y-37197203D01*
X81410001Y-37197204D01*
X81410000Y-37197204D01*
X81399500Y-37299983D01*
X81399500Y-38100001D01*
X81399501Y-38100019D01*
X81410000Y-38202796D01*
X81410001Y-38202799D01*
X81465185Y-38369331D01*
X81465187Y-38369336D01*
X81557289Y-38518657D01*
X81650951Y-38612319D01*
X81684436Y-38673642D01*
X81679452Y-38743334D01*
X81650951Y-38787681D01*
X81557289Y-38881342D01*
X81465187Y-39030663D01*
X81465185Y-39030668D01*
X81450661Y-39074500D01*
X81410001Y-39197203D01*
X81410001Y-39197204D01*
X81410000Y-39197204D01*
X81399500Y-39299983D01*
X81399500Y-40100001D01*
X81399501Y-40100019D01*
X81410000Y-40202796D01*
X81410001Y-40202799D01*
X81465185Y-40369331D01*
X81465187Y-40369336D01*
X81486983Y-40404673D01*
X81557288Y-40518656D01*
X81681344Y-40642712D01*
X81830666Y-40734814D01*
X81997203Y-40789999D01*
X82099991Y-40800500D01*
X83100008Y-40800499D01*
X83100016Y-40800498D01*
X83100019Y-40800498D01*
X83156302Y-40794748D01*
X83202797Y-40789999D01*
X83369334Y-40734814D01*
X83518656Y-40642712D01*
X83642712Y-40518656D01*
X83725519Y-40384402D01*
X83777467Y-40337679D01*
X83831058Y-40325500D01*
X84468942Y-40325500D01*
X84535981Y-40345185D01*
X84574479Y-40384401D01*
X84657288Y-40518656D01*
X84781344Y-40642712D01*
X84930666Y-40734814D01*
X85097203Y-40789999D01*
X85199991Y-40800500D01*
X86200008Y-40800499D01*
X86200016Y-40800498D01*
X86200019Y-40800498D01*
X86256302Y-40794748D01*
X86302797Y-40789999D01*
X86469334Y-40734814D01*
X86618656Y-40642712D01*
X86742712Y-40518656D01*
X86825519Y-40384402D01*
X86877467Y-40337679D01*
X86931058Y-40325500D01*
X87568942Y-40325500D01*
X87635981Y-40345185D01*
X87674479Y-40384401D01*
X87757288Y-40518656D01*
X87881344Y-40642712D01*
X88030666Y-40734814D01*
X88197203Y-40789999D01*
X88299991Y-40800500D01*
X89300008Y-40800499D01*
X89300016Y-40800498D01*
X89300019Y-40800498D01*
X89356302Y-40794748D01*
X89402797Y-40789999D01*
X89569334Y-40734814D01*
X89718656Y-40642712D01*
X89842712Y-40518656D01*
X89934814Y-40369334D01*
X89989999Y-40202797D01*
X90000500Y-40100009D01*
X90000499Y-39835450D01*
X90020183Y-39768412D01*
X90036813Y-39747775D01*
X90977322Y-38807267D01*
X91038643Y-38773784D01*
X91108335Y-38778768D01*
X91164268Y-38820640D01*
X91188685Y-38886104D01*
X91189001Y-38894950D01*
X91189001Y-38997876D01*
X91195408Y-39057483D01*
X91245702Y-39192328D01*
X91245706Y-39192335D01*
X91331952Y-39307544D01*
X91331955Y-39307547D01*
X91447164Y-39393793D01*
X91447171Y-39393797D01*
X91492118Y-39410560D01*
X91582017Y-39444091D01*
X91641627Y-39450500D01*
X91652184Y-39450499D01*
X91719222Y-39470179D01*
X91739871Y-39486818D01*
X92406966Y-40153913D01*
X92397185Y-40155320D01*
X92266400Y-40215048D01*
X92157739Y-40309202D01*
X92080007Y-40430156D01*
X92056423Y-40510476D01*
X91424572Y-39878625D01*
X91365901Y-39962419D01*
X91266070Y-40176507D01*
X91266066Y-40176516D01*
X91204932Y-40404673D01*
X91204930Y-40404684D01*
X91184343Y-40639998D01*
X91184343Y-40640001D01*
X91204930Y-40875315D01*
X91204932Y-40875326D01*
X91266066Y-41103483D01*
X91266070Y-41103492D01*
X91365900Y-41317579D01*
X91365902Y-41317583D01*
X91424572Y-41401373D01*
X91424573Y-41401373D01*
X92056423Y-40769523D01*
X92080007Y-40849844D01*
X92157739Y-40970798D01*
X92266400Y-41064952D01*
X92397185Y-41124680D01*
X92406966Y-41126086D01*
X91763780Y-41769270D01*
X91760881Y-41783695D01*
X91712265Y-41833877D01*
X91651121Y-41850000D01*
X68027878Y-41850000D01*
X67960839Y-41830315D01*
X67915084Y-41777511D01*
X67913341Y-41767393D01*
X67272033Y-41126086D01*
X67281815Y-41124680D01*
X67412600Y-41064952D01*
X67521261Y-40970798D01*
X67598993Y-40849844D01*
X67622576Y-40769524D01*
X68254425Y-41401373D01*
X68254426Y-41401373D01*
X68313098Y-41317582D01*
X68313100Y-41317578D01*
X68412929Y-41103492D01*
X68412933Y-41103483D01*
X68474067Y-40875326D01*
X68474069Y-40875315D01*
X68494657Y-40640001D01*
X68494657Y-40639998D01*
X68474069Y-40404684D01*
X68474067Y-40404673D01*
X68412933Y-40176516D01*
X68412929Y-40176507D01*
X68313100Y-39962423D01*
X68313099Y-39962421D01*
X68254425Y-39878626D01*
X68254425Y-39878625D01*
X67622576Y-40510475D01*
X67598993Y-40430156D01*
X67521261Y-40309202D01*
X67412600Y-40215048D01*
X67281815Y-40155320D01*
X67272033Y-40153913D01*
X67900873Y-39525073D01*
X67900873Y-39525072D01*
X67824905Y-39471880D01*
X67781280Y-39417304D01*
X67774086Y-39347805D01*
X67805608Y-39285451D01*
X67824899Y-39268734D01*
X68010901Y-39138495D01*
X68177995Y-38971401D01*
X68313535Y-38777830D01*
X68413403Y-38563663D01*
X68474563Y-38335408D01*
X68495159Y-38100000D01*
X68474563Y-37864592D01*
X68413403Y-37636337D01*
X68313535Y-37422171D01*
X68227979Y-37299983D01*
X68177994Y-37228597D01*
X68010902Y-37061506D01*
X68010895Y-37061501D01*
X67817334Y-36925967D01*
X67817330Y-36925965D01*
X67817328Y-36925964D01*
X67603163Y-36826097D01*
X67603159Y-36826096D01*
X67603155Y-36826094D01*
X67374913Y-36764938D01*
X67374903Y-36764936D01*
X67139501Y-36744341D01*
X67139499Y-36744341D01*
X66904096Y-36764936D01*
X66904086Y-36764938D01*
X66675844Y-36826094D01*
X66675835Y-36826098D01*
X66461671Y-36925964D01*
X66461669Y-36925965D01*
X66268097Y-37061505D01*
X66101005Y-37228597D01*
X65965465Y-37422169D01*
X65965464Y-37422171D01*
X65865598Y-37636335D01*
X65865594Y-37636344D01*
X65804438Y-37864586D01*
X65804436Y-37864596D01*
X65783841Y-38099999D01*
X65783841Y-38100000D01*
X65804436Y-38335403D01*
X65804438Y-38335413D01*
X65865594Y-38563655D01*
X65865596Y-38563659D01*
X65865597Y-38563663D01*
X65908965Y-38656665D01*
X65965465Y-38777830D01*
X65965467Y-38777834D01*
X66037945Y-38881342D01*
X66101005Y-38971401D01*
X66268099Y-39138495D01*
X66454094Y-39268730D01*
X66497718Y-39323307D01*
X66504911Y-39392806D01*
X66473389Y-39455160D01*
X66454093Y-39471880D01*
X66378126Y-39525072D01*
X66378125Y-39525072D01*
X67006966Y-40153913D01*
X66997185Y-40155320D01*
X66866400Y-40215048D01*
X66757739Y-40309202D01*
X66680007Y-40430156D01*
X66656423Y-40510476D01*
X66024572Y-39878625D01*
X65965901Y-39962419D01*
X65866070Y-40176507D01*
X65866066Y-40176516D01*
X65804932Y-40404673D01*
X65804930Y-40404684D01*
X65784343Y-40639998D01*
X65784343Y-40640001D01*
X65804930Y-40875315D01*
X65804932Y-40875326D01*
X65866066Y-41103483D01*
X65866070Y-41103492D01*
X65965900Y-41317579D01*
X65965902Y-41317583D01*
X66024572Y-41401373D01*
X66024573Y-41401373D01*
X66656423Y-40769523D01*
X66680007Y-40849844D01*
X66757739Y-40970798D01*
X66866400Y-41064952D01*
X66997185Y-41124680D01*
X67006966Y-41126086D01*
X66363780Y-41769270D01*
X66360881Y-41783695D01*
X66312265Y-41833877D01*
X66251121Y-41850000D01*
X65672264Y-41850000D01*
X65664166Y-41849469D01*
X65625862Y-41844426D01*
X65485559Y-41825954D01*
X65454293Y-41817576D01*
X65299181Y-41753327D01*
X65271146Y-41737142D01*
X65224992Y-41701727D01*
X65149012Y-41643425D01*
X65107810Y-41586997D01*
X65100500Y-41545054D01*
X65100500Y-29214618D01*
X65115665Y-29155201D01*
X65213244Y-28976498D01*
X65222806Y-28961621D01*
X65383188Y-28747376D01*
X65394767Y-28734012D01*
X65584012Y-28544767D01*
X65597366Y-28533195D01*
X65811630Y-28372798D01*
X65826491Y-28363248D01*
X66061388Y-28234985D01*
X66077470Y-28227640D01*
X66328241Y-28134107D01*
X66345192Y-28129130D01*
X66606710Y-28072240D01*
X66624207Y-28069724D01*
X66897791Y-28050157D01*
X66902214Y-28050000D01*
X94366662Y-28050000D01*
X94390851Y-28052381D01*
G37*
G04 #@! TD.AperFunction*
G04 #@! TA.AperFunction,Conductor*
G36*
X120480507Y-82230156D02*
G01*
X120440000Y-82368111D01*
X120440000Y-82511889D01*
X120480507Y-82649844D01*
X120506314Y-82690000D01*
X118833686Y-82690000D01*
X118859493Y-82649844D01*
X118900000Y-82511889D01*
X118900000Y-82368111D01*
X118859493Y-82230156D01*
X118833686Y-82190000D01*
X120506314Y-82190000D01*
X120480507Y-82230156D01*
G37*
G04 #@! TD.AperFunction*
G04 #@! TA.AperFunction,Conductor*
G36*
X127539999Y-76384498D02*
G01*
X127432315Y-76335320D01*
X127325763Y-76320000D01*
X127254237Y-76320000D01*
X127147685Y-76335320D01*
X127040000Y-76384498D01*
X127040000Y-74715501D01*
X127147685Y-74764680D01*
X127254237Y-74780000D01*
X127325763Y-74780000D01*
X127432315Y-74764680D01*
X127539999Y-74715501D01*
X127539999Y-76384498D01*
G37*
G04 #@! TD.AperFunction*
G04 #@! TA.AperFunction,Conductor*
G36*
X127550000Y-53404498D02*
G01*
X127442315Y-53355320D01*
X127335763Y-53340000D01*
X127264237Y-53340000D01*
X127157685Y-53355320D01*
X127049999Y-53404498D01*
X127049999Y-51735501D01*
X127157685Y-51784680D01*
X127264237Y-51800000D01*
X127335763Y-51800000D01*
X127442315Y-51784680D01*
X127550000Y-51735501D01*
X127550000Y-53404498D01*
G37*
G04 #@! TD.AperFunction*
G04 #@! TA.AperFunction,Conductor*
G36*
X126540507Y-38669844D02*
G01*
X126618239Y-38790798D01*
X126726900Y-38884952D01*
X126857685Y-38944680D01*
X126867466Y-38946086D01*
X126238625Y-39574925D01*
X126315031Y-39628425D01*
X126358655Y-39683002D01*
X126365848Y-39752501D01*
X126334326Y-39814855D01*
X126315029Y-39831576D01*
X126238626Y-39885072D01*
X126238625Y-39885073D01*
X126867466Y-40513913D01*
X126857685Y-40515320D01*
X126726900Y-40575048D01*
X126618239Y-40669202D01*
X126540507Y-40790156D01*
X126516923Y-40870476D01*
X125885073Y-40238626D01*
X125831881Y-40314594D01*
X125777304Y-40358219D01*
X125707806Y-40365413D01*
X125645451Y-40333891D01*
X125628730Y-40314594D01*
X125498494Y-40128597D01*
X125331402Y-39961506D01*
X125331396Y-39961501D01*
X125145842Y-39831575D01*
X125102217Y-39776998D01*
X125095023Y-39707500D01*
X125126546Y-39645145D01*
X125145842Y-39628425D01*
X125222248Y-39574925D01*
X125331401Y-39498495D01*
X125498495Y-39331401D01*
X125628732Y-39145403D01*
X125683307Y-39101780D01*
X125752805Y-39094586D01*
X125815160Y-39126109D01*
X125831880Y-39145405D01*
X125885073Y-39221373D01*
X126516923Y-38589523D01*
X126540507Y-38669844D01*
G37*
G04 #@! TD.AperFunction*
G04 #@! TA.AperFunction,Conductor*
G36*
X126540507Y-36129844D02*
G01*
X126618239Y-36250798D01*
X126726900Y-36344952D01*
X126857685Y-36404680D01*
X126867466Y-36406086D01*
X126238625Y-37034925D01*
X126315031Y-37088425D01*
X126358655Y-37143002D01*
X126365848Y-37212501D01*
X126334326Y-37274855D01*
X126315029Y-37291576D01*
X126238625Y-37345072D01*
X126867466Y-37973913D01*
X126857685Y-37975320D01*
X126726900Y-38035048D01*
X126618239Y-38129202D01*
X126540507Y-38250156D01*
X126516923Y-38330476D01*
X125885073Y-37698626D01*
X125831881Y-37774594D01*
X125777304Y-37818219D01*
X125707806Y-37825413D01*
X125645451Y-37793891D01*
X125628730Y-37774594D01*
X125498494Y-37588597D01*
X125331402Y-37421506D01*
X125331396Y-37421501D01*
X125145842Y-37291575D01*
X125102217Y-37236998D01*
X125095023Y-37167500D01*
X125126546Y-37105145D01*
X125145842Y-37088425D01*
X125261173Y-37007669D01*
X125331401Y-36958495D01*
X125498495Y-36791401D01*
X125628732Y-36605403D01*
X125683307Y-36561780D01*
X125752805Y-36554586D01*
X125815160Y-36586109D01*
X125831880Y-36605405D01*
X125885073Y-36681373D01*
X126516923Y-36049523D01*
X126540507Y-36129844D01*
G37*
G04 #@! TD.AperFunction*
G04 #@! TA.AperFunction,Conductor*
G36*
X126540507Y-33589844D02*
G01*
X126618239Y-33710798D01*
X126726900Y-33804952D01*
X126857685Y-33864680D01*
X126867466Y-33866086D01*
X126238625Y-34494925D01*
X126315031Y-34548425D01*
X126358655Y-34603002D01*
X126365848Y-34672501D01*
X126334326Y-34734855D01*
X126315029Y-34751576D01*
X126238625Y-34805072D01*
X126867466Y-35433913D01*
X126857685Y-35435320D01*
X126726900Y-35495048D01*
X126618239Y-35589202D01*
X126540507Y-35710156D01*
X126516923Y-35790475D01*
X125885073Y-35158625D01*
X125831881Y-35234594D01*
X125777304Y-35278219D01*
X125707806Y-35285413D01*
X125645451Y-35253891D01*
X125628730Y-35234594D01*
X125498494Y-35048597D01*
X125331402Y-34881506D01*
X125331396Y-34881501D01*
X125145842Y-34751575D01*
X125102217Y-34696998D01*
X125095023Y-34627500D01*
X125126546Y-34565145D01*
X125145842Y-34548425D01*
X125222248Y-34494925D01*
X125331401Y-34418495D01*
X125498495Y-34251401D01*
X125628732Y-34065403D01*
X125683307Y-34021780D01*
X125752805Y-34014586D01*
X125815160Y-34046109D01*
X125831880Y-34065405D01*
X125885073Y-34141373D01*
X126516922Y-33509522D01*
X126540507Y-33589844D01*
G37*
G04 #@! TD.AperFunction*
G04 #@! TA.AperFunction,Conductor*
G36*
X125687418Y-31706607D02*
G01*
X125712713Y-31750283D01*
X125715640Y-31759117D01*
X125715643Y-31759124D01*
X125807684Y-31908345D01*
X125931654Y-32032315D01*
X126080875Y-32124356D01*
X126080882Y-32124359D01*
X126153075Y-32148281D01*
X126210520Y-32188053D01*
X126237344Y-32252569D01*
X126237463Y-32263910D01*
X126867465Y-32893913D01*
X126857685Y-32895320D01*
X126726900Y-32955048D01*
X126618239Y-33049202D01*
X126540507Y-33170156D01*
X126516923Y-33250476D01*
X125885073Y-32618626D01*
X125831881Y-32694594D01*
X125777304Y-32738219D01*
X125707806Y-32745413D01*
X125645451Y-32713891D01*
X125628730Y-32694594D01*
X125498494Y-32508597D01*
X125331402Y-32341506D01*
X125331396Y-32341501D01*
X125145842Y-32211575D01*
X125102217Y-32156998D01*
X125095023Y-32087500D01*
X125126546Y-32025145D01*
X125145842Y-32008425D01*
X125168026Y-31992891D01*
X125331401Y-31878495D01*
X125498495Y-31711401D01*
X125498505Y-31711385D01*
X125500015Y-31709588D01*
X125500890Y-31709005D01*
X125502323Y-31707573D01*
X125502610Y-31707860D01*
X125558185Y-31670884D01*
X125628046Y-31669772D01*
X125687418Y-31706607D01*
G37*
G04 #@! TD.AperFunction*
G04 #@! TA.AperFunction,Conductor*
G36*
X127554046Y-21020185D02*
G01*
X127599801Y-21072989D01*
X127609745Y-21142147D01*
X127580720Y-21205703D01*
X127576278Y-21210563D01*
X127573816Y-21213115D01*
X127573816Y-21213116D01*
X127416202Y-21433419D01*
X127416199Y-21433424D01*
X127292350Y-21674309D01*
X127292343Y-21674327D01*
X127204884Y-21930685D01*
X127204881Y-21930699D01*
X127155681Y-22197068D01*
X127155680Y-22197075D01*
X127145787Y-22467763D01*
X127175413Y-22737013D01*
X127175415Y-22737024D01*
X127243926Y-22999082D01*
X127243928Y-22999088D01*
X127349870Y-23248390D01*
X127390717Y-23315320D01*
X127490979Y-23479605D01*
X127490986Y-23479615D01*
X127664253Y-23687819D01*
X127664259Y-23687824D01*
X127769240Y-23781887D01*
X127865998Y-23868582D01*
X128091910Y-24018044D01*
X128337176Y-24133020D01*
X128337183Y-24133022D01*
X128337185Y-24133023D01*
X128596557Y-24211057D01*
X128596564Y-24211058D01*
X128596569Y-24211060D01*
X128864561Y-24250500D01*
X128864566Y-24250500D01*
X129067629Y-24250500D01*
X129067631Y-24250500D01*
X129067636Y-24250499D01*
X129067648Y-24250499D01*
X129105191Y-24247750D01*
X129270156Y-24235677D01*
X129382758Y-24210593D01*
X129534546Y-24176782D01*
X129534548Y-24176781D01*
X129534553Y-24176780D01*
X129787558Y-24080014D01*
X130023777Y-23947441D01*
X130238177Y-23781888D01*
X130426186Y-23586881D01*
X130583799Y-23366579D01*
X130657787Y-23222669D01*
X130707649Y-23125690D01*
X130707651Y-23125684D01*
X130707656Y-23125675D01*
X130758141Y-22977690D01*
X130798418Y-22920597D01*
X130863167Y-22894343D01*
X130931832Y-22907262D01*
X130982612Y-22955254D01*
X130999500Y-23017728D01*
X130999500Y-85767482D01*
X130979815Y-85834521D01*
X130927011Y-85880276D01*
X130857853Y-85890220D01*
X130794297Y-85861195D01*
X130758176Y-85804990D01*
X130757538Y-85805208D01*
X130756656Y-85802624D01*
X130756523Y-85802417D01*
X130756250Y-85801433D01*
X130756074Y-85800919D01*
X130756073Y-85800917D01*
X130756072Y-85800912D01*
X130650130Y-85551610D01*
X130509018Y-85320390D01*
X130421652Y-85215408D01*
X130335746Y-85112180D01*
X130335740Y-85112175D01*
X130134002Y-84931418D01*
X129908092Y-84781957D01*
X129908090Y-84781956D01*
X129662824Y-84666980D01*
X129662819Y-84666978D01*
X129662814Y-84666976D01*
X129403442Y-84588942D01*
X129403428Y-84588939D01*
X129287791Y-84571921D01*
X129135439Y-84549500D01*
X128932369Y-84549500D01*
X128932351Y-84549500D01*
X128729844Y-84564323D01*
X128729831Y-84564325D01*
X128465453Y-84623217D01*
X128465446Y-84623220D01*
X128212439Y-84719987D01*
X127976226Y-84852557D01*
X127761822Y-85018112D01*
X127573822Y-85213109D01*
X127573816Y-85213116D01*
X127416202Y-85433419D01*
X127416199Y-85433424D01*
X127292350Y-85674309D01*
X127292343Y-85674327D01*
X127204884Y-85930685D01*
X127204881Y-85930699D01*
X127180448Y-86062982D01*
X127157440Y-86187547D01*
X127155681Y-86197068D01*
X127155680Y-86197075D01*
X127145787Y-86467763D01*
X127175413Y-86737013D01*
X127175415Y-86737024D01*
X127243926Y-86999082D01*
X127243928Y-86999088D01*
X127349870Y-87248390D01*
X127490982Y-87479610D01*
X127586425Y-87594297D01*
X127587993Y-87596181D01*
X127615745Y-87660302D01*
X127604425Y-87729249D01*
X127557627Y-87781131D01*
X127492680Y-87799500D01*
X94596409Y-87799500D01*
X94529370Y-87779815D01*
X94487577Y-87734927D01*
X94483255Y-87727011D01*
X94434984Y-87638610D01*
X94427640Y-87622530D01*
X94334108Y-87371762D01*
X94329129Y-87354803D01*
X94272241Y-87093291D01*
X94269724Y-87075785D01*
X94264238Y-86999082D01*
X94250157Y-86802208D01*
X94250000Y-86797786D01*
X94250000Y-82249500D01*
X94269685Y-82182461D01*
X94322489Y-82136706D01*
X94374000Y-82125500D01*
X107444548Y-82125500D01*
X107511587Y-82145185D01*
X107532228Y-82161818D01*
X108856616Y-83486207D01*
X108890101Y-83547529D01*
X108885117Y-83617221D01*
X108885000Y-83617379D01*
X108885000Y-84604314D01*
X108873045Y-84592359D01*
X108760148Y-84534835D01*
X108666481Y-84520000D01*
X108603519Y-84520000D01*
X108509852Y-84534835D01*
X108396955Y-84592359D01*
X108384999Y-84604314D01*
X108384999Y-83641127D01*
X108188672Y-83693734D01*
X107982517Y-83789865D01*
X107796179Y-83920342D01*
X107635342Y-84081179D01*
X107504867Y-84267515D01*
X107477657Y-84325867D01*
X107431484Y-84378306D01*
X107364290Y-84397457D01*
X107297409Y-84377241D01*
X107252893Y-84325865D01*
X107241844Y-84302171D01*
X107225568Y-84267266D01*
X107095934Y-84082128D01*
X107095045Y-84080858D01*
X106934141Y-83919954D01*
X106747734Y-83789432D01*
X106747732Y-83789431D01*
X106541497Y-83693261D01*
X106541488Y-83693258D01*
X106321697Y-83634366D01*
X106321693Y-83634365D01*
X106321692Y-83634365D01*
X106321691Y-83634364D01*
X106321686Y-83634364D01*
X106095002Y-83614532D01*
X106094998Y-83614532D01*
X105868313Y-83634364D01*
X105868302Y-83634366D01*
X105648511Y-83693258D01*
X105648502Y-83693261D01*
X105442267Y-83789431D01*
X105442265Y-83789432D01*
X105255858Y-83919954D01*
X105094954Y-84080858D01*
X104964433Y-84267264D01*
X104964432Y-84267266D01*
X104948156Y-84302171D01*
X104937106Y-84325867D01*
X104890933Y-84378306D01*
X104823739Y-84397457D01*
X104756858Y-84377241D01*
X104712342Y-84325865D01*
X104685135Y-84267520D01*
X104685134Y-84267518D01*
X104554657Y-84081179D01*
X104393820Y-83920342D01*
X104207482Y-83789865D01*
X104001328Y-83693734D01*
X103805000Y-83641127D01*
X103805000Y-84604314D01*
X103793045Y-84592359D01*
X103680148Y-84534835D01*
X103586481Y-84520000D01*
X103523519Y-84520000D01*
X103429852Y-84534835D01*
X103316955Y-84592359D01*
X103305000Y-84604314D01*
X103305000Y-83641127D01*
X103108671Y-83693734D01*
X102902517Y-83789865D01*
X102716179Y-83920342D01*
X102555342Y-84081179D01*
X102424865Y-84267517D01*
X102397382Y-84326457D01*
X102351210Y-84378896D01*
X102284016Y-84398048D01*
X102217135Y-84377832D01*
X102172618Y-84326457D01*
X102145134Y-84267517D01*
X102014657Y-84081179D01*
X101853820Y-83920342D01*
X101667482Y-83789865D01*
X101461328Y-83693734D01*
X101265000Y-83641127D01*
X101265000Y-84604314D01*
X101253045Y-84592359D01*
X101140148Y-84534835D01*
X101046481Y-84520000D01*
X100983519Y-84520000D01*
X100889852Y-84534835D01*
X100776955Y-84592359D01*
X100765000Y-84604314D01*
X100765000Y-83641127D01*
X100568671Y-83693734D01*
X100362517Y-83789865D01*
X100176179Y-83920342D01*
X100015342Y-84081179D01*
X99884867Y-84267515D01*
X99857657Y-84325867D01*
X99811484Y-84378306D01*
X99744290Y-84397457D01*
X99677409Y-84377241D01*
X99632893Y-84325865D01*
X99621844Y-84302171D01*
X99605568Y-84267266D01*
X99475934Y-84082128D01*
X99475045Y-84080858D01*
X99314141Y-83919954D01*
X99127734Y-83789432D01*
X99127732Y-83789431D01*
X98921497Y-83693261D01*
X98921488Y-83693258D01*
X98701697Y-83634366D01*
X98701693Y-83634365D01*
X98701692Y-83634365D01*
X98701691Y-83634364D01*
X98701686Y-83634364D01*
X98475002Y-83614532D01*
X98474998Y-83614532D01*
X98248313Y-83634364D01*
X98248302Y-83634366D01*
X98028511Y-83693258D01*
X98028502Y-83693261D01*
X97822267Y-83789431D01*
X97822265Y-83789432D01*
X97635858Y-83919954D01*
X97474954Y-84080858D01*
X97344432Y-84267265D01*
X97344431Y-84267267D01*
X97248261Y-84473502D01*
X97248258Y-84473511D01*
X97189366Y-84693302D01*
X97189364Y-84693313D01*
X97169532Y-84919998D01*
X97169532Y-84920001D01*
X97189364Y-85146686D01*
X97189366Y-85146697D01*
X97248258Y-85366488D01*
X97248261Y-85366497D01*
X97344431Y-85572732D01*
X97344432Y-85572734D01*
X97474954Y-85759141D01*
X97635858Y-85920045D01*
X97635861Y-85920047D01*
X97822266Y-86050568D01*
X98028504Y-86146739D01*
X98248308Y-86205635D01*
X98410230Y-86219801D01*
X98474998Y-86225468D01*
X98475000Y-86225468D01*
X98475002Y-86225468D01*
X98531672Y-86220509D01*
X98701692Y-86205635D01*
X98921496Y-86146739D01*
X99127734Y-86050568D01*
X99314139Y-85920047D01*
X99475047Y-85759139D01*
X99605568Y-85572734D01*
X99632895Y-85514129D01*
X99679064Y-85461695D01*
X99746257Y-85442542D01*
X99813139Y-85462757D01*
X99857657Y-85514133D01*
X99884865Y-85572482D01*
X100015342Y-85758820D01*
X100176179Y-85919657D01*
X100362517Y-86050134D01*
X100568673Y-86146265D01*
X100568682Y-86146269D01*
X100764999Y-86198872D01*
X100765000Y-86198871D01*
X100765000Y-85235686D01*
X100776955Y-85247641D01*
X100889852Y-85305165D01*
X100983519Y-85320000D01*
X101046481Y-85320000D01*
X101140148Y-85305165D01*
X101253045Y-85247641D01*
X101264999Y-85235686D01*
X101265000Y-86198872D01*
X101461317Y-86146269D01*
X101461326Y-86146265D01*
X101667482Y-86050134D01*
X101853820Y-85919657D01*
X102014657Y-85758820D01*
X102145134Y-85572481D01*
X102145135Y-85572479D01*
X102172618Y-85513543D01*
X102218790Y-85461103D01*
X102285983Y-85441951D01*
X102352864Y-85462166D01*
X102397382Y-85513543D01*
X102424864Y-85572479D01*
X102424865Y-85572481D01*
X102555342Y-85758820D01*
X102716179Y-85919657D01*
X102902517Y-86050134D01*
X103108673Y-86146265D01*
X103108682Y-86146269D01*
X103304999Y-86198872D01*
X103305000Y-86198871D01*
X103305000Y-85235686D01*
X103316955Y-85247641D01*
X103429852Y-85305165D01*
X103523519Y-85320000D01*
X103586481Y-85320000D01*
X103680148Y-85305165D01*
X103793045Y-85247641D01*
X103805000Y-85235686D01*
X103805000Y-86198872D01*
X104001317Y-86146269D01*
X104001326Y-86146265D01*
X104207482Y-86050134D01*
X104393820Y-85919657D01*
X104554657Y-85758820D01*
X104685132Y-85572484D01*
X104712341Y-85514134D01*
X104758513Y-85461695D01*
X104825707Y-85442542D01*
X104892588Y-85462757D01*
X104937106Y-85514133D01*
X104964431Y-85572732D01*
X104964432Y-85572734D01*
X105094954Y-85759141D01*
X105255858Y-85920045D01*
X105255861Y-85920047D01*
X105442266Y-86050568D01*
X105648504Y-86146739D01*
X105868308Y-86205635D01*
X106030230Y-86219801D01*
X106094998Y-86225468D01*
X106095000Y-86225468D01*
X106095002Y-86225468D01*
X106151673Y-86220509D01*
X106321692Y-86205635D01*
X106541496Y-86146739D01*
X106747734Y-86050568D01*
X106934139Y-85920047D01*
X107095047Y-85759139D01*
X107225568Y-85572734D01*
X107252895Y-85514129D01*
X107299064Y-85461695D01*
X107366257Y-85442542D01*
X107433139Y-85462757D01*
X107477657Y-85514133D01*
X107504865Y-85572482D01*
X107635342Y-85758820D01*
X107796179Y-85919657D01*
X107982517Y-86050134D01*
X108188673Y-86146265D01*
X108188679Y-86146268D01*
X108384998Y-86198871D01*
X108384999Y-86198871D01*
X108384999Y-85235685D01*
X108396955Y-85247641D01*
X108509852Y-85305165D01*
X108603519Y-85320000D01*
X108666481Y-85320000D01*
X108760148Y-85305165D01*
X108873045Y-85247641D01*
X108885000Y-85235686D01*
X108885000Y-86198872D01*
X109081317Y-86146269D01*
X109081326Y-86146265D01*
X109287482Y-86050134D01*
X109473820Y-85919657D01*
X109634657Y-85758820D01*
X109765132Y-85572484D01*
X109792341Y-85514134D01*
X109838513Y-85461695D01*
X109905707Y-85442542D01*
X109972588Y-85462757D01*
X110017106Y-85514133D01*
X110044431Y-85572732D01*
X110044432Y-85572734D01*
X110174954Y-85759141D01*
X110335858Y-85920045D01*
X110335861Y-85920047D01*
X110522266Y-86050568D01*
X110728504Y-86146739D01*
X110948308Y-86205635D01*
X111110230Y-86219801D01*
X111174998Y-86225468D01*
X111175000Y-86225468D01*
X111175002Y-86225468D01*
X111231673Y-86220509D01*
X111401692Y-86205635D01*
X111621496Y-86146739D01*
X111827734Y-86050568D01*
X112014139Y-85920047D01*
X112175047Y-85759139D01*
X112305568Y-85572734D01*
X112332618Y-85514724D01*
X112378790Y-85462285D01*
X112445983Y-85443133D01*
X112512865Y-85463348D01*
X112557382Y-85514725D01*
X112584429Y-85572728D01*
X112584432Y-85572734D01*
X112714954Y-85759141D01*
X112875858Y-85920045D01*
X112875861Y-85920047D01*
X113062266Y-86050568D01*
X113268504Y-86146739D01*
X113488308Y-86205635D01*
X113650230Y-86219801D01*
X113714998Y-86225468D01*
X113715000Y-86225468D01*
X113715002Y-86225468D01*
X113771672Y-86220509D01*
X113941692Y-86205635D01*
X114161496Y-86146739D01*
X114367734Y-86050568D01*
X114554139Y-85920047D01*
X114715047Y-85759139D01*
X114845568Y-85572734D01*
X114941739Y-85366496D01*
X115000635Y-85146692D01*
X115020468Y-84920000D01*
X115000635Y-84693308D01*
X114941739Y-84473504D01*
X114845568Y-84267266D01*
X114715934Y-84082128D01*
X114715045Y-84080858D01*
X114554141Y-83919954D01*
X114367734Y-83789432D01*
X114367732Y-83789431D01*
X114161497Y-83693261D01*
X114161488Y-83693258D01*
X113941697Y-83634366D01*
X113941693Y-83634365D01*
X113941692Y-83634365D01*
X113941691Y-83634364D01*
X113941686Y-83634364D01*
X113715002Y-83614532D01*
X113714998Y-83614532D01*
X113488313Y-83634364D01*
X113488302Y-83634366D01*
X113268511Y-83693258D01*
X113268502Y-83693261D01*
X113062267Y-83789431D01*
X113062265Y-83789432D01*
X112875858Y-83919954D01*
X112714954Y-84080858D01*
X112584432Y-84267265D01*
X112584431Y-84267267D01*
X112557382Y-84325275D01*
X112511209Y-84377714D01*
X112444016Y-84396866D01*
X112377135Y-84376650D01*
X112332618Y-84325275D01*
X112305568Y-84267266D01*
X112175934Y-84082128D01*
X112175045Y-84080858D01*
X112014141Y-83919954D01*
X111827734Y-83789432D01*
X111827732Y-83789431D01*
X111621497Y-83693261D01*
X111621488Y-83693258D01*
X111401697Y-83634366D01*
X111401693Y-83634365D01*
X111401692Y-83634365D01*
X111401691Y-83634364D01*
X111401686Y-83634364D01*
X111175002Y-83614532D01*
X111174999Y-83614532D01*
X110948313Y-83634364D01*
X110948296Y-83634367D01*
X110879949Y-83652680D01*
X110810099Y-83651016D01*
X110760177Y-83620586D01*
X108255803Y-81116212D01*
X108245980Y-81103950D01*
X108245759Y-81104134D01*
X108240786Y-81098122D01*
X108191066Y-81051432D01*
X108189666Y-81050075D01*
X108169476Y-81029884D01*
X108163986Y-81025625D01*
X108159561Y-81021847D01*
X108125582Y-80989938D01*
X108125580Y-80989936D01*
X108125577Y-80989935D01*
X108108029Y-80980288D01*
X108091763Y-80969604D01*
X108075933Y-80957325D01*
X108033168Y-80938818D01*
X108027922Y-80936248D01*
X107987093Y-80913803D01*
X107987092Y-80913802D01*
X107967693Y-80908822D01*
X107949281Y-80902518D01*
X107930898Y-80894562D01*
X107930892Y-80894560D01*
X107884874Y-80887272D01*
X107879152Y-80886087D01*
X107834021Y-80874500D01*
X107834019Y-80874500D01*
X107813984Y-80874500D01*
X107794586Y-80872973D01*
X107787162Y-80871797D01*
X107774805Y-80869840D01*
X107774804Y-80869840D01*
X107728416Y-80874225D01*
X107722578Y-80874500D01*
X106244452Y-80874500D01*
X106177413Y-80854815D01*
X106131658Y-80802011D01*
X106121714Y-80732853D01*
X106150739Y-80669297D01*
X106156771Y-80662819D01*
X107172076Y-79647514D01*
X108220179Y-78599410D01*
X108281500Y-78565927D01*
X108339947Y-78567317D01*
X108408308Y-78585635D01*
X108565780Y-78599412D01*
X108634998Y-78605468D01*
X108635000Y-78605468D01*
X108635002Y-78605468D01*
X108704220Y-78599412D01*
X108861692Y-78585635D01*
X109081496Y-78526739D01*
X109287734Y-78430568D01*
X109474139Y-78300047D01*
X109635047Y-78139139D01*
X109765568Y-77952734D01*
X109792618Y-77894724D01*
X109838790Y-77842285D01*
X109905983Y-77823133D01*
X109972865Y-77843348D01*
X110017382Y-77894725D01*
X110044429Y-77952728D01*
X110044432Y-77952734D01*
X110174954Y-78139141D01*
X110335858Y-78300045D01*
X110335861Y-78300047D01*
X110522266Y-78430568D01*
X110728504Y-78526739D01*
X110948308Y-78585635D01*
X111105780Y-78599412D01*
X111174998Y-78605468D01*
X111175000Y-78605468D01*
X111175002Y-78605468D01*
X111244220Y-78599412D01*
X111401692Y-78585635D01*
X111621496Y-78526739D01*
X111827734Y-78430568D01*
X112014139Y-78300047D01*
X112175047Y-78139139D01*
X112305568Y-77952734D01*
X112332895Y-77894129D01*
X112379064Y-77841695D01*
X112446257Y-77822542D01*
X112513139Y-77842757D01*
X112557657Y-77894133D01*
X112584865Y-77952482D01*
X112715342Y-78138820D01*
X112876179Y-78299657D01*
X113062517Y-78430134D01*
X113268673Y-78526265D01*
X113268679Y-78526268D01*
X113464998Y-78578871D01*
X113464999Y-78578871D01*
X113464999Y-77615685D01*
X113476955Y-77627641D01*
X113589852Y-77685165D01*
X113683519Y-77700000D01*
X113746481Y-77700000D01*
X113840148Y-77685165D01*
X113953045Y-77627641D01*
X113965000Y-77615686D01*
X113965000Y-78578872D01*
X114161317Y-78526269D01*
X114161326Y-78526265D01*
X114367482Y-78430134D01*
X114553820Y-78299657D01*
X114714657Y-78138820D01*
X114845134Y-77952482D01*
X114941265Y-77746326D01*
X114941269Y-77746317D01*
X114993872Y-77550000D01*
X114030686Y-77550000D01*
X114042641Y-77538045D01*
X114100165Y-77425148D01*
X114119986Y-77300000D01*
X114100165Y-77174852D01*
X114042641Y-77061955D01*
X114030686Y-77050000D01*
X114993872Y-77050000D01*
X114993872Y-77049999D01*
X114941269Y-76853682D01*
X114941265Y-76853673D01*
X114845134Y-76647517D01*
X114714657Y-76461179D01*
X114553820Y-76300342D01*
X114367482Y-76169865D01*
X114161328Y-76073734D01*
X113965000Y-76021127D01*
X113965000Y-76984314D01*
X113953045Y-76972359D01*
X113840148Y-76914835D01*
X113746481Y-76900000D01*
X113683519Y-76900000D01*
X113589852Y-76914835D01*
X113476955Y-76972359D01*
X113464999Y-76984314D01*
X113464999Y-76021127D01*
X113268672Y-76073734D01*
X113062517Y-76169865D01*
X112876179Y-76300342D01*
X112715342Y-76461179D01*
X112584867Y-76647515D01*
X112557657Y-76705867D01*
X112511484Y-76758306D01*
X112444290Y-76777457D01*
X112377409Y-76757241D01*
X112332893Y-76705865D01*
X112328966Y-76697444D01*
X112305568Y-76647266D01*
X112175047Y-76460861D01*
X112175045Y-76460858D01*
X112014141Y-76299954D01*
X111827734Y-76169432D01*
X111827732Y-76169431D01*
X111621497Y-76073261D01*
X111621488Y-76073258D01*
X111401697Y-76014366D01*
X111401693Y-76014365D01*
X111401692Y-76014365D01*
X111401691Y-76014364D01*
X111401686Y-76014364D01*
X111175002Y-75994532D01*
X111174998Y-75994532D01*
X110948313Y-76014364D01*
X110948302Y-76014366D01*
X110728511Y-76073258D01*
X110728502Y-76073261D01*
X110522267Y-76169431D01*
X110522265Y-76169432D01*
X110335858Y-76299954D01*
X110174954Y-76460858D01*
X110044432Y-76647265D01*
X110044431Y-76647267D01*
X110025310Y-76688272D01*
X110021034Y-76697444D01*
X110017382Y-76705275D01*
X109971209Y-76757714D01*
X109904016Y-76776866D01*
X109837135Y-76756650D01*
X109792618Y-76705275D01*
X109788967Y-76697445D01*
X109765568Y-76647266D01*
X109635047Y-76460861D01*
X109635045Y-76460858D01*
X109474141Y-76299954D01*
X109287734Y-76169432D01*
X109287732Y-76169431D01*
X109081497Y-76073261D01*
X109081488Y-76073258D01*
X108861697Y-76014366D01*
X108861693Y-76014365D01*
X108861692Y-76014365D01*
X108861691Y-76014364D01*
X108861686Y-76014364D01*
X108635002Y-75994532D01*
X108634998Y-75994532D01*
X108408313Y-76014364D01*
X108408302Y-76014366D01*
X108188511Y-76073258D01*
X108188502Y-76073261D01*
X107982267Y-76169431D01*
X107982265Y-76169432D01*
X107795858Y-76299954D01*
X107634954Y-76460858D01*
X107504433Y-76647264D01*
X107504432Y-76647266D01*
X107481034Y-76697444D01*
X107477106Y-76705867D01*
X107430933Y-76758306D01*
X107363739Y-76777457D01*
X107296858Y-76757241D01*
X107252342Y-76705865D01*
X107225135Y-76647520D01*
X107225134Y-76647518D01*
X107094657Y-76461179D01*
X106933820Y-76300342D01*
X106747482Y-76169865D01*
X106541328Y-76073734D01*
X106344999Y-76021127D01*
X106344999Y-76984313D01*
X106333045Y-76972359D01*
X106220148Y-76914835D01*
X106126481Y-76900000D01*
X106063519Y-76900000D01*
X105969852Y-76914835D01*
X105856955Y-76972359D01*
X105845000Y-76984313D01*
X105845000Y-76021127D01*
X105648671Y-76073734D01*
X105442517Y-76169865D01*
X105256179Y-76300342D01*
X105095342Y-76461179D01*
X104964867Y-76647515D01*
X104937657Y-76705867D01*
X104891484Y-76758306D01*
X104824290Y-76777457D01*
X104757409Y-76757241D01*
X104712893Y-76705865D01*
X104708966Y-76697444D01*
X104685568Y-76647266D01*
X104555047Y-76460861D01*
X104555045Y-76460858D01*
X104394141Y-76299954D01*
X104207734Y-76169432D01*
X104207732Y-76169431D01*
X104001497Y-76073261D01*
X104001488Y-76073258D01*
X103781697Y-76014366D01*
X103781693Y-76014365D01*
X103781692Y-76014365D01*
X103781691Y-76014364D01*
X103781686Y-76014364D01*
X103555002Y-75994532D01*
X103554998Y-75994532D01*
X103328313Y-76014364D01*
X103328302Y-76014366D01*
X103108511Y-76073258D01*
X103108502Y-76073261D01*
X102902267Y-76169431D01*
X102902265Y-76169432D01*
X102715858Y-76299954D01*
X102554954Y-76460858D01*
X102424432Y-76647265D01*
X102424431Y-76647267D01*
X102405310Y-76688272D01*
X102401034Y-76697444D01*
X102397382Y-76705275D01*
X102351209Y-76757714D01*
X102284016Y-76776866D01*
X102217135Y-76756650D01*
X102172618Y-76705275D01*
X102168967Y-76697445D01*
X102145568Y-76647266D01*
X102015047Y-76460861D01*
X102015045Y-76460858D01*
X101854141Y-76299954D01*
X101667734Y-76169432D01*
X101667732Y-76169431D01*
X101461497Y-76073261D01*
X101461488Y-76073258D01*
X101241697Y-76014366D01*
X101241693Y-76014365D01*
X101241692Y-76014365D01*
X101241691Y-76014364D01*
X101241686Y-76014364D01*
X101015002Y-75994532D01*
X101014998Y-75994532D01*
X100788313Y-76014364D01*
X100788302Y-76014366D01*
X100568511Y-76073258D01*
X100568502Y-76073261D01*
X100362267Y-76169431D01*
X100362265Y-76169432D01*
X100175858Y-76299954D01*
X100014951Y-76460861D01*
X99997287Y-76486088D01*
X99942710Y-76529712D01*
X99873211Y-76536904D01*
X99810857Y-76505380D01*
X99775445Y-76445150D01*
X99772425Y-76428218D01*
X99768598Y-76392627D01*
X99768596Y-76392620D01*
X99718354Y-76257913D01*
X99718350Y-76257906D01*
X99632190Y-76142812D01*
X99632187Y-76142809D01*
X99517093Y-76056649D01*
X99517086Y-76056645D01*
X99382379Y-76006403D01*
X99382372Y-76006401D01*
X99322844Y-76000000D01*
X98725000Y-76000000D01*
X98725000Y-76984314D01*
X98713045Y-76972359D01*
X98600148Y-76914835D01*
X98506481Y-76900000D01*
X98443519Y-76900000D01*
X98349852Y-76914835D01*
X98236955Y-76972359D01*
X98225000Y-76984313D01*
X98225000Y-76000000D01*
X97627155Y-76000000D01*
X97567627Y-76006401D01*
X97567620Y-76006403D01*
X97432913Y-76056645D01*
X97432906Y-76056649D01*
X97317812Y-76142809D01*
X97317809Y-76142812D01*
X97231649Y-76257906D01*
X97231645Y-76257913D01*
X97181403Y-76392620D01*
X97181401Y-76392627D01*
X97175000Y-76452155D01*
X97175000Y-77050000D01*
X98159314Y-77050000D01*
X98147359Y-77061955D01*
X98089835Y-77174852D01*
X98070014Y-77300000D01*
X98089835Y-77425148D01*
X98147359Y-77538045D01*
X98159314Y-77550000D01*
X97175000Y-77550000D01*
X97175000Y-78147844D01*
X97181401Y-78207372D01*
X97181403Y-78207379D01*
X97231645Y-78342086D01*
X97231649Y-78342093D01*
X97317809Y-78457187D01*
X97317812Y-78457190D01*
X97432906Y-78543350D01*
X97432913Y-78543354D01*
X97567620Y-78593596D01*
X97567627Y-78593598D01*
X97627155Y-78599999D01*
X97627172Y-78600000D01*
X98225000Y-78600000D01*
X98225000Y-77615686D01*
X98236955Y-77627641D01*
X98349852Y-77685165D01*
X98443519Y-77700000D01*
X98506481Y-77700000D01*
X98600148Y-77685165D01*
X98713045Y-77627641D01*
X98725000Y-77615686D01*
X98725000Y-78651362D01*
X98721719Y-78651362D01*
X98718524Y-78696038D01*
X98690023Y-78740385D01*
X97892228Y-79538181D01*
X97830905Y-79571666D01*
X97804547Y-79574500D01*
X94374000Y-79574500D01*
X94306961Y-79554815D01*
X94261206Y-79502011D01*
X94250000Y-79450500D01*
X94250000Y-76049500D01*
X94269685Y-75982461D01*
X94322489Y-75936706D01*
X94374000Y-75925500D01*
X94817257Y-75925500D01*
X94832877Y-75927224D01*
X94832904Y-75926939D01*
X94840666Y-75927673D01*
X94840666Y-75927672D01*
X94840667Y-75927673D01*
X94843999Y-75927568D01*
X94908847Y-75925531D01*
X94910794Y-75925500D01*
X94939347Y-75925500D01*
X94939350Y-75925500D01*
X94946228Y-75924630D01*
X94952041Y-75924172D01*
X94998627Y-75922709D01*
X95017869Y-75917117D01*
X95036912Y-75913174D01*
X95056792Y-75910664D01*
X95100122Y-75893507D01*
X95105646Y-75891617D01*
X95109396Y-75890527D01*
X95150390Y-75878618D01*
X95167629Y-75868422D01*
X95185103Y-75859862D01*
X95203727Y-75852488D01*
X95203727Y-75852487D01*
X95203732Y-75852486D01*
X95241449Y-75825082D01*
X95246305Y-75821892D01*
X95286420Y-75798170D01*
X95300589Y-75783999D01*
X95315379Y-75771368D01*
X95331587Y-75759594D01*
X95361299Y-75723676D01*
X95365212Y-75719376D01*
X96222771Y-74861819D01*
X96284095Y-74828334D01*
X96310453Y-74825500D01*
X99072257Y-74825500D01*
X99087877Y-74827224D01*
X99087904Y-74826939D01*
X99095666Y-74827673D01*
X99095666Y-74827672D01*
X99095667Y-74827673D01*
X99098999Y-74827568D01*
X99163847Y-74825531D01*
X99165794Y-74825500D01*
X99194347Y-74825500D01*
X99194350Y-74825500D01*
X99201228Y-74824630D01*
X99207041Y-74824172D01*
X99253627Y-74822709D01*
X99272869Y-74817117D01*
X99291912Y-74813174D01*
X99311792Y-74810664D01*
X99355122Y-74793507D01*
X99360646Y-74791617D01*
X99364396Y-74790527D01*
X99405390Y-74778618D01*
X99422629Y-74768422D01*
X99440103Y-74759862D01*
X99458727Y-74752488D01*
X99458727Y-74752487D01*
X99458732Y-74752486D01*
X99496449Y-74725082D01*
X99501305Y-74721892D01*
X99541420Y-74698170D01*
X99555589Y-74683999D01*
X99570379Y-74671368D01*
X99586587Y-74659594D01*
X99616299Y-74623676D01*
X99620212Y-74619376D01*
X100939589Y-73300000D01*
X113732040Y-73300000D01*
X113751826Y-73488256D01*
X113751827Y-73488259D01*
X113810318Y-73668277D01*
X113810321Y-73668284D01*
X113904967Y-73832216D01*
X114010302Y-73949202D01*
X114031629Y-73972888D01*
X114184765Y-74084148D01*
X114184770Y-74084151D01*
X114357691Y-74161142D01*
X114357693Y-74161142D01*
X114357697Y-74161144D01*
X114512630Y-74194075D01*
X114574107Y-74227266D01*
X114574526Y-74227683D01*
X117663180Y-77316337D01*
X117696665Y-77377660D01*
X117699499Y-77404018D01*
X117699499Y-78677288D01*
X117679814Y-78744327D01*
X117646623Y-78778862D01*
X117528598Y-78861504D01*
X117361505Y-79028597D01*
X117225965Y-79222169D01*
X117225964Y-79222171D01*
X117126098Y-79436335D01*
X117126094Y-79436344D01*
X117064938Y-79664586D01*
X117064936Y-79664596D01*
X117044341Y-79899999D01*
X117044341Y-79900000D01*
X117064936Y-80135403D01*
X117064938Y-80135413D01*
X117126094Y-80363655D01*
X117126096Y-80363659D01*
X117126097Y-80363663D01*
X117172035Y-80462177D01*
X117225965Y-80577830D01*
X117225967Y-80577834D01*
X117285475Y-80662819D01*
X117353810Y-80760412D01*
X117361501Y-80771395D01*
X117361506Y-80771402D01*
X117528597Y-80938493D01*
X117528603Y-80938498D01*
X117602063Y-80989935D01*
X117688948Y-81050773D01*
X117714594Y-81068730D01*
X117758219Y-81123307D01*
X117765413Y-81192805D01*
X117733890Y-81255160D01*
X117714595Y-81271880D01*
X117528922Y-81401890D01*
X117528920Y-81401891D01*
X117361891Y-81568920D01*
X117361886Y-81568926D01*
X117226400Y-81762420D01*
X117226399Y-81762422D01*
X117126570Y-81976507D01*
X117126567Y-81976513D01*
X117069364Y-82189999D01*
X117069364Y-82190000D01*
X117966314Y-82190000D01*
X117940507Y-82230156D01*
X117900000Y-82368111D01*
X117900000Y-82511889D01*
X117940507Y-82649844D01*
X117966314Y-82690000D01*
X117069364Y-82690000D01*
X117126567Y-82903486D01*
X117126570Y-82903492D01*
X117226399Y-83117578D01*
X117361894Y-83311082D01*
X117483946Y-83433134D01*
X117517431Y-83494457D01*
X117512447Y-83564149D01*
X117470575Y-83620082D01*
X117439598Y-83636997D01*
X117307671Y-83686202D01*
X117307664Y-83686206D01*
X117192455Y-83772452D01*
X117192452Y-83772455D01*
X117106206Y-83887664D01*
X117106202Y-83887671D01*
X117055908Y-84022517D01*
X117049501Y-84082116D01*
X117049500Y-84082135D01*
X117049500Y-85877870D01*
X117049501Y-85877876D01*
X117055908Y-85937483D01*
X117106202Y-86072328D01*
X117106206Y-86072335D01*
X117192452Y-86187544D01*
X117192455Y-86187547D01*
X117307664Y-86273793D01*
X117307671Y-86273797D01*
X117442517Y-86324091D01*
X117442516Y-86324091D01*
X117449444Y-86324835D01*
X117502127Y-86330500D01*
X119297872Y-86330499D01*
X119357483Y-86324091D01*
X119492331Y-86273796D01*
X119607546Y-86187546D01*
X119693796Y-86072331D01*
X119742810Y-85940916D01*
X119784681Y-85884984D01*
X119850145Y-85860566D01*
X119918418Y-85875417D01*
X119946673Y-85896569D01*
X120068599Y-86018495D01*
X120165384Y-86086265D01*
X120262165Y-86154032D01*
X120262167Y-86154033D01*
X120262170Y-86154035D01*
X120476337Y-86253903D01*
X120704592Y-86315063D01*
X120881034Y-86330500D01*
X120939999Y-86335659D01*
X120940000Y-86335659D01*
X120940001Y-86335659D01*
X120998966Y-86330500D01*
X121175408Y-86315063D01*
X121403663Y-86253903D01*
X121617830Y-86154035D01*
X121811401Y-86018495D01*
X121978495Y-85851401D01*
X122114035Y-85657830D01*
X122213903Y-85443663D01*
X122275063Y-85215408D01*
X122295659Y-84980000D01*
X122275063Y-84744592D01*
X122222789Y-84549500D01*
X122213905Y-84516344D01*
X122213904Y-84516343D01*
X122213903Y-84516337D01*
X122114035Y-84302171D01*
X122089773Y-84267520D01*
X121978494Y-84108597D01*
X121811402Y-83941506D01*
X121811401Y-83941505D01*
X121625405Y-83811269D01*
X121581781Y-83756692D01*
X121574588Y-83687193D01*
X121606110Y-83624839D01*
X121625405Y-83608119D01*
X121811082Y-83478105D01*
X121978105Y-83311082D01*
X122113600Y-83117578D01*
X122213429Y-82903492D01*
X122213432Y-82903486D01*
X122270636Y-82690000D01*
X121373686Y-82690000D01*
X121399493Y-82649844D01*
X121440000Y-82511889D01*
X121440000Y-82368111D01*
X121399493Y-82230156D01*
X121373686Y-82190000D01*
X122270636Y-82190000D01*
X122270635Y-82189999D01*
X122213432Y-81976513D01*
X122213429Y-81976507D01*
X122113600Y-81762422D01*
X122113599Y-81762420D01*
X121978113Y-81568926D01*
X121978108Y-81568920D01*
X121811078Y-81401890D01*
X121625405Y-81271879D01*
X121581780Y-81217302D01*
X121574588Y-81147804D01*
X121606110Y-81085449D01*
X121625406Y-81068730D01*
X121650110Y-81051432D01*
X121811401Y-80938495D01*
X121978495Y-80771401D01*
X122114035Y-80577830D01*
X122213903Y-80363663D01*
X122275063Y-80135408D01*
X122295659Y-79900000D01*
X122275063Y-79664592D01*
X122213903Y-79436337D01*
X122114035Y-79222171D01*
X122091683Y-79190248D01*
X121978494Y-79028597D01*
X121811402Y-78861506D01*
X121811399Y-78861504D01*
X121693375Y-78778862D01*
X121617834Y-78725967D01*
X121617830Y-78725965D01*
X121614225Y-78724284D01*
X121403663Y-78626097D01*
X121403659Y-78626096D01*
X121403655Y-78626094D01*
X121175413Y-78564938D01*
X121175403Y-78564936D01*
X120940001Y-78544341D01*
X120939999Y-78544341D01*
X120704596Y-78564936D01*
X120704586Y-78564938D01*
X120476344Y-78626094D01*
X120476335Y-78626098D01*
X120262171Y-78725964D01*
X120262169Y-78725965D01*
X120068597Y-78861505D01*
X119901506Y-79028596D01*
X119818864Y-79146623D01*
X119764287Y-79190248D01*
X119717289Y-79199500D01*
X119622711Y-79199500D01*
X119555672Y-79179815D01*
X119521136Y-79146623D01*
X119438494Y-79028597D01*
X119271404Y-78861508D01*
X119271402Y-78861506D01*
X119271401Y-78861505D01*
X119271396Y-78861501D01*
X119271393Y-78861499D01*
X119153376Y-78778861D01*
X119109751Y-78724284D01*
X119100500Y-78677287D01*
X119100500Y-77085547D01*
X119100613Y-77081802D01*
X119104358Y-77019894D01*
X119093175Y-76958871D01*
X119092613Y-76955174D01*
X119090618Y-76938751D01*
X119085140Y-76893628D01*
X119081548Y-76884156D01*
X119075521Y-76862534D01*
X119073695Y-76852571D01*
X119073695Y-76852569D01*
X119059037Y-76820000D01*
X123394341Y-76820000D01*
X123414936Y-77055403D01*
X123414938Y-77055413D01*
X123476094Y-77283655D01*
X123476096Y-77283659D01*
X123476097Y-77283663D01*
X123559155Y-77461781D01*
X123575965Y-77497830D01*
X123575967Y-77497834D01*
X123666860Y-77627641D01*
X123711505Y-77691401D01*
X123878599Y-77858495D01*
X123929497Y-77894134D01*
X124072165Y-77994032D01*
X124072167Y-77994033D01*
X124072170Y-77994035D01*
X124286337Y-78093903D01*
X124514592Y-78155063D01*
X124702918Y-78171539D01*
X124749999Y-78175659D01*
X124750000Y-78175659D01*
X124750001Y-78175659D01*
X124789234Y-78172226D01*
X124985408Y-78155063D01*
X125213663Y-78093903D01*
X125427830Y-77994035D01*
X125621401Y-77858495D01*
X125788495Y-77691401D01*
X125918730Y-77505405D01*
X125973307Y-77461781D01*
X126042805Y-77454587D01*
X126105160Y-77486110D01*
X126121879Y-77505405D01*
X126251890Y-77691078D01*
X126418917Y-77858105D01*
X126612421Y-77993600D01*
X126826507Y-78093429D01*
X126826516Y-78093433D01*
X127040000Y-78150634D01*
X127040000Y-77255501D01*
X127147685Y-77304680D01*
X127254237Y-77320000D01*
X127325763Y-77320000D01*
X127432315Y-77304680D01*
X127539999Y-77255501D01*
X127539999Y-78150633D01*
X127753483Y-78093433D01*
X127753492Y-78093429D01*
X127967578Y-77993600D01*
X128161082Y-77858105D01*
X128328105Y-77691082D01*
X128463600Y-77497578D01*
X128563429Y-77283492D01*
X128563432Y-77283486D01*
X128620636Y-77070000D01*
X127723686Y-77070000D01*
X127749493Y-77029844D01*
X127790000Y-76891889D01*
X127790000Y-76748111D01*
X127749493Y-76610156D01*
X127723686Y-76570000D01*
X128620636Y-76570000D01*
X128620635Y-76569999D01*
X128563432Y-76356513D01*
X128563429Y-76356507D01*
X128463600Y-76142422D01*
X128463599Y-76142420D01*
X128328113Y-75948926D01*
X128328108Y-75948920D01*
X128161082Y-75781894D01*
X127974968Y-75651575D01*
X127931344Y-75596998D01*
X127924151Y-75527499D01*
X127955673Y-75465145D01*
X127974968Y-75448425D01*
X128161082Y-75318105D01*
X128328105Y-75151082D01*
X128463600Y-74957578D01*
X128563429Y-74743492D01*
X128563432Y-74743486D01*
X128620636Y-74530000D01*
X127723686Y-74530000D01*
X127749493Y-74489844D01*
X127790000Y-74351889D01*
X127790000Y-74208111D01*
X127749493Y-74070156D01*
X127723686Y-74030000D01*
X128620636Y-74030000D01*
X128620635Y-74029999D01*
X128563432Y-73816513D01*
X128563429Y-73816507D01*
X128463600Y-73602422D01*
X128463599Y-73602420D01*
X128328113Y-73408926D01*
X128328108Y-73408920D01*
X128161078Y-73241890D01*
X127975405Y-73111879D01*
X127931780Y-73057302D01*
X127924588Y-72987804D01*
X127956110Y-72925449D01*
X127975406Y-72908730D01*
X127975842Y-72908425D01*
X128161401Y-72778495D01*
X128328495Y-72611401D01*
X128464035Y-72417830D01*
X128563903Y-72203663D01*
X128625063Y-71975408D01*
X128645659Y-71740000D01*
X128645272Y-71735582D01*
X128627066Y-71527485D01*
X128625063Y-71504592D01*
X128563903Y-71276337D01*
X128464035Y-71062171D01*
X128458424Y-71054158D01*
X128328496Y-70868600D01*
X128328493Y-70868597D01*
X128206567Y-70746671D01*
X128173084Y-70685351D01*
X128178068Y-70615659D01*
X128219939Y-70559725D01*
X128250915Y-70542810D01*
X128382331Y-70493796D01*
X128497546Y-70407546D01*
X128583796Y-70292331D01*
X128634091Y-70157483D01*
X128640500Y-70097873D01*
X128640499Y-68302128D01*
X128634091Y-68242517D01*
X128632810Y-68239083D01*
X128583797Y-68107671D01*
X128583793Y-68107664D01*
X128497547Y-67992455D01*
X128497544Y-67992452D01*
X128382335Y-67906206D01*
X128382328Y-67906202D01*
X128247482Y-67855908D01*
X128247483Y-67855908D01*
X128187883Y-67849501D01*
X128187881Y-67849500D01*
X128187873Y-67849500D01*
X128187864Y-67849500D01*
X126392129Y-67849500D01*
X126392123Y-67849501D01*
X126332516Y-67855908D01*
X126197671Y-67906202D01*
X126197664Y-67906206D01*
X126082455Y-67992452D01*
X126082452Y-67992455D01*
X125996206Y-68107664D01*
X125996203Y-68107669D01*
X125947189Y-68239083D01*
X125905317Y-68295016D01*
X125839853Y-68319433D01*
X125771580Y-68304581D01*
X125743326Y-68283430D01*
X125621402Y-68161506D01*
X125621395Y-68161501D01*
X125427834Y-68025967D01*
X125427830Y-68025965D01*
X125427830Y-68025964D01*
X125213663Y-67926097D01*
X125213659Y-67926096D01*
X125213655Y-67926094D01*
X124985413Y-67864938D01*
X124985403Y-67864936D01*
X124750001Y-67844341D01*
X124749999Y-67844341D01*
X124514596Y-67864936D01*
X124514586Y-67864938D01*
X124286344Y-67926094D01*
X124286335Y-67926098D01*
X124072171Y-68025964D01*
X124072169Y-68025965D01*
X123878597Y-68161505D01*
X123711505Y-68328597D01*
X123575965Y-68522169D01*
X123575964Y-68522171D01*
X123476098Y-68736335D01*
X123476094Y-68736344D01*
X123414938Y-68964586D01*
X123414936Y-68964596D01*
X123394341Y-69199999D01*
X123394341Y-69200000D01*
X123414936Y-69435403D01*
X123414938Y-69435413D01*
X123476094Y-69663655D01*
X123476096Y-69663659D01*
X123476097Y-69663663D01*
X123560499Y-69844663D01*
X123575965Y-69877830D01*
X123575967Y-69877834D01*
X123684281Y-70032521D01*
X123697499Y-70051399D01*
X123711501Y-70071395D01*
X123711506Y-70071402D01*
X123878597Y-70238493D01*
X123878603Y-70238498D01*
X124064158Y-70368425D01*
X124107783Y-70423002D01*
X124114977Y-70492500D01*
X124083454Y-70554855D01*
X124064158Y-70571575D01*
X123878597Y-70701505D01*
X123711505Y-70868597D01*
X123575965Y-71062169D01*
X123575964Y-71062171D01*
X123476098Y-71276335D01*
X123476094Y-71276344D01*
X123414938Y-71504586D01*
X123414936Y-71504596D01*
X123394341Y-71739999D01*
X123394341Y-71740000D01*
X123414936Y-71975403D01*
X123414938Y-71975413D01*
X123476094Y-72203655D01*
X123476096Y-72203659D01*
X123476097Y-72203663D01*
X123556004Y-72375023D01*
X123575965Y-72417830D01*
X123575967Y-72417834D01*
X123644600Y-72515851D01*
X123711501Y-72611396D01*
X123711506Y-72611402D01*
X123878597Y-72778493D01*
X123878603Y-72778498D01*
X124064158Y-72908425D01*
X124107783Y-72963002D01*
X124114977Y-73032500D01*
X124083454Y-73094855D01*
X124064158Y-73111575D01*
X123878597Y-73241505D01*
X123711505Y-73408597D01*
X123575965Y-73602169D01*
X123575964Y-73602171D01*
X123476098Y-73816335D01*
X123476094Y-73816344D01*
X123414938Y-74044586D01*
X123414936Y-74044596D01*
X123394341Y-74279999D01*
X123394341Y-74280000D01*
X123414936Y-74515403D01*
X123414938Y-74515413D01*
X123476094Y-74743655D01*
X123476096Y-74743659D01*
X123476097Y-74743663D01*
X123559155Y-74921781D01*
X123575965Y-74957830D01*
X123575967Y-74957834D01*
X123679136Y-75105174D01*
X123711501Y-75151396D01*
X123711506Y-75151402D01*
X123878597Y-75318493D01*
X123878603Y-75318498D01*
X124064158Y-75448425D01*
X124107783Y-75503002D01*
X124114977Y-75572500D01*
X124083454Y-75634855D01*
X124064158Y-75651575D01*
X123878597Y-75781505D01*
X123711505Y-75948597D01*
X123575965Y-76142169D01*
X123575964Y-76142171D01*
X123476098Y-76356335D01*
X123476094Y-76356344D01*
X123414938Y-76584586D01*
X123414936Y-76584596D01*
X123394341Y-76819999D01*
X123394341Y-76820000D01*
X119059037Y-76820000D01*
X119048224Y-76795976D01*
X119046817Y-76792579D01*
X119024818Y-76734570D01*
X119024816Y-76734568D01*
X119024816Y-76734566D01*
X119019062Y-76726231D01*
X119008034Y-76706677D01*
X119003881Y-76697449D01*
X119003878Y-76697445D01*
X119003878Y-76697444D01*
X118965626Y-76648620D01*
X118963416Y-76645615D01*
X118938940Y-76610156D01*
X118928183Y-76594571D01*
X118881742Y-76553428D01*
X118879048Y-76550892D01*
X115564003Y-73235846D01*
X115530518Y-73174523D01*
X115528365Y-73161143D01*
X115523174Y-73111744D01*
X115521296Y-73105965D01*
X115464681Y-72931722D01*
X115464680Y-72931721D01*
X115464679Y-72931716D01*
X115370033Y-72767784D01*
X115243371Y-72627112D01*
X115221740Y-72611396D01*
X115090234Y-72515851D01*
X115090229Y-72515848D01*
X114917307Y-72438857D01*
X114917302Y-72438855D01*
X114765295Y-72406546D01*
X114732146Y-72399500D01*
X114542854Y-72399500D01*
X114510397Y-72406398D01*
X114357697Y-72438855D01*
X114357692Y-72438857D01*
X114184770Y-72515848D01*
X114184765Y-72515851D01*
X114031629Y-72627111D01*
X113904966Y-72767785D01*
X113810321Y-72931715D01*
X113810318Y-72931722D01*
X113751881Y-73111575D01*
X113751826Y-73111744D01*
X113732040Y-73300000D01*
X100939589Y-73300000D01*
X101674354Y-72565235D01*
X101735675Y-72531752D01*
X101794123Y-72533142D01*
X101894592Y-72560063D01*
X102071034Y-72575500D01*
X102129999Y-72580659D01*
X102130000Y-72580659D01*
X102130001Y-72580659D01*
X102188966Y-72575500D01*
X102365408Y-72560063D01*
X102593663Y-72498903D01*
X102807830Y-72399035D01*
X103001401Y-72263495D01*
X103168495Y-72096401D01*
X103298424Y-71910842D01*
X103353002Y-71867217D01*
X103422500Y-71860023D01*
X103484855Y-71891546D01*
X103501575Y-71910842D01*
X103631281Y-72096082D01*
X103631505Y-72096401D01*
X103798599Y-72263495D01*
X103895384Y-72331265D01*
X103992165Y-72399032D01*
X103992167Y-72399033D01*
X103992170Y-72399035D01*
X104206337Y-72498903D01*
X104434592Y-72560063D01*
X104611034Y-72575500D01*
X104669999Y-72580659D01*
X104670000Y-72580659D01*
X104670001Y-72580659D01*
X104728966Y-72575500D01*
X104905408Y-72560063D01*
X105133663Y-72498903D01*
X105347830Y-72399035D01*
X105541401Y-72263495D01*
X105708495Y-72096401D01*
X105838730Y-71910405D01*
X105893307Y-71866781D01*
X105962805Y-71859587D01*
X106025160Y-71891110D01*
X106041879Y-71910405D01*
X106171890Y-72096078D01*
X106338917Y-72263105D01*
X106532421Y-72398600D01*
X106746507Y-72498429D01*
X106746516Y-72498433D01*
X106960000Y-72555634D01*
X106960000Y-71660501D01*
X107067685Y-71709680D01*
X107174237Y-71725000D01*
X107245763Y-71725000D01*
X107352315Y-71709680D01*
X107459999Y-71660501D01*
X107459999Y-72555633D01*
X107673483Y-72498433D01*
X107673492Y-72498429D01*
X107887578Y-72398600D01*
X108081082Y-72263105D01*
X108248105Y-72096082D01*
X108383600Y-71902578D01*
X108483429Y-71688492D01*
X108483432Y-71688486D01*
X108540636Y-71475000D01*
X107643686Y-71475000D01*
X107669493Y-71434844D01*
X107710000Y-71296889D01*
X107710000Y-71153111D01*
X107669493Y-71015156D01*
X107643686Y-70975000D01*
X108540636Y-70975000D01*
X108540635Y-70974999D01*
X108483432Y-70761513D01*
X108483429Y-70761507D01*
X108383600Y-70547422D01*
X108383599Y-70547420D01*
X108248113Y-70353926D01*
X108248108Y-70353920D01*
X108081082Y-70186894D01*
X107887578Y-70051399D01*
X107673492Y-69951570D01*
X107673486Y-69951567D01*
X107459999Y-69894364D01*
X107459999Y-70789498D01*
X107352315Y-70740320D01*
X107245763Y-70725000D01*
X107174237Y-70725000D01*
X107067685Y-70740320D01*
X106960000Y-70789498D01*
X106960000Y-69894364D01*
X106959999Y-69894364D01*
X106746513Y-69951567D01*
X106746507Y-69951570D01*
X106532422Y-70051399D01*
X106532420Y-70051400D01*
X106338926Y-70186886D01*
X106338920Y-70186891D01*
X106171891Y-70353920D01*
X106171890Y-70353922D01*
X106041880Y-70539595D01*
X105987303Y-70583219D01*
X105917804Y-70590412D01*
X105855450Y-70558890D01*
X105838730Y-70539594D01*
X105708494Y-70353597D01*
X105541402Y-70186506D01*
X105541395Y-70186501D01*
X105347834Y-70050967D01*
X105347830Y-70050965D01*
X105347830Y-70050964D01*
X105133663Y-69951097D01*
X105133659Y-69951096D01*
X105133655Y-69951094D01*
X104905413Y-69889938D01*
X104905403Y-69889936D01*
X104670001Y-69869341D01*
X104669999Y-69869341D01*
X104434596Y-69889936D01*
X104434586Y-69889938D01*
X104206344Y-69951094D01*
X104206335Y-69951098D01*
X103992171Y-70050964D01*
X103992169Y-70050965D01*
X103798597Y-70186505D01*
X103631508Y-70353594D01*
X103501574Y-70539159D01*
X103446997Y-70582784D01*
X103377498Y-70589976D01*
X103315144Y-70558454D01*
X103298424Y-70539158D01*
X103266661Y-70493796D01*
X103190584Y-70385145D01*
X103168494Y-70353597D01*
X103001402Y-70186506D01*
X103001395Y-70186501D01*
X102807834Y-70050967D01*
X102807830Y-70050965D01*
X102807829Y-70050964D01*
X102593663Y-69951097D01*
X102593659Y-69951096D01*
X102593655Y-69951094D01*
X102365413Y-69889938D01*
X102365403Y-69889936D01*
X102130001Y-69869341D01*
X102129999Y-69869341D01*
X101894596Y-69889936D01*
X101894586Y-69889938D01*
X101666344Y-69951094D01*
X101666335Y-69951098D01*
X101452171Y-70050964D01*
X101452169Y-70050965D01*
X101258597Y-70186505D01*
X101091505Y-70353597D01*
X100961575Y-70539158D01*
X100906998Y-70582783D01*
X100837500Y-70589977D01*
X100775145Y-70558454D01*
X100758425Y-70539158D01*
X100628494Y-70353597D01*
X100461402Y-70186506D01*
X100461395Y-70186501D01*
X100267834Y-70050967D01*
X100267830Y-70050965D01*
X100267830Y-70050964D01*
X100053663Y-69951097D01*
X100053659Y-69951096D01*
X100053655Y-69951094D01*
X99825413Y-69889938D01*
X99825403Y-69889936D01*
X99590001Y-69869341D01*
X99589999Y-69869341D01*
X99354596Y-69889936D01*
X99354586Y-69889938D01*
X99126344Y-69951094D01*
X99126335Y-69951098D01*
X98912171Y-70050964D01*
X98912169Y-70050965D01*
X98718600Y-70186503D01*
X98596673Y-70308430D01*
X98535350Y-70341914D01*
X98465658Y-70336930D01*
X98409725Y-70295058D01*
X98392810Y-70264081D01*
X98343797Y-70132671D01*
X98343793Y-70132664D01*
X98257547Y-70017455D01*
X98257544Y-70017452D01*
X98142335Y-69931206D01*
X98142328Y-69931202D01*
X98007482Y-69880908D01*
X98007483Y-69880908D01*
X97947883Y-69874501D01*
X97947881Y-69874500D01*
X97947873Y-69874500D01*
X97947864Y-69874500D01*
X96152129Y-69874500D01*
X96152123Y-69874501D01*
X96092516Y-69880908D01*
X95957671Y-69931202D01*
X95957664Y-69931206D01*
X95842455Y-70017452D01*
X95842452Y-70017455D01*
X95750888Y-70139769D01*
X95748855Y-70138247D01*
X95708925Y-70178177D01*
X95640652Y-70193028D01*
X95575188Y-70168610D01*
X95533318Y-70112676D01*
X95525500Y-70069344D01*
X95525500Y-59210451D01*
X95545185Y-59143412D01*
X95561814Y-59122775D01*
X96722770Y-57961819D01*
X96784094Y-57928334D01*
X96810452Y-57925500D01*
X101062457Y-57925500D01*
X101078077Y-57927224D01*
X101078104Y-57926939D01*
X101085866Y-57927673D01*
X101085866Y-57927672D01*
X101085867Y-57927673D01*
X101089199Y-57927568D01*
X101154047Y-57925531D01*
X101155994Y-57925500D01*
X101184547Y-57925500D01*
X101184550Y-57925500D01*
X101191428Y-57924630D01*
X101197241Y-57924172D01*
X101243827Y-57922709D01*
X101263069Y-57917117D01*
X101282112Y-57913174D01*
X101301992Y-57910664D01*
X101345322Y-57893507D01*
X101350846Y-57891617D01*
X101354596Y-57890527D01*
X101395590Y-57878618D01*
X101412829Y-57868422D01*
X101430303Y-57859862D01*
X101448927Y-57852488D01*
X101448927Y-57852487D01*
X101448932Y-57852486D01*
X101486649Y-57825082D01*
X101491505Y-57821892D01*
X101531620Y-57798170D01*
X101545789Y-57783999D01*
X101560579Y-57771368D01*
X101576787Y-57759594D01*
X101606499Y-57723676D01*
X101610412Y-57719376D01*
X103684353Y-55645435D01*
X103745674Y-55611952D01*
X103804125Y-55613343D01*
X103838780Y-55622628D01*
X103904592Y-55640263D01*
X104081034Y-55655700D01*
X104139999Y-55660859D01*
X104140000Y-55660859D01*
X104140001Y-55660859D01*
X104198966Y-55655700D01*
X104375408Y-55640263D01*
X104603663Y-55579103D01*
X104817830Y-55479235D01*
X105011401Y-55343695D01*
X105178495Y-55176601D01*
X105308426Y-54991040D01*
X105363001Y-54947417D01*
X105432499Y-54940223D01*
X105494854Y-54971746D01*
X105511574Y-54991041D01*
X105527370Y-55013600D01*
X105641505Y-55176601D01*
X105808599Y-55343695D01*
X105905384Y-55411465D01*
X106002165Y-55479232D01*
X106002167Y-55479233D01*
X106002170Y-55479235D01*
X106216337Y-55579103D01*
X106444592Y-55640263D01*
X106621034Y-55655700D01*
X106679999Y-55660859D01*
X106680000Y-55660859D01*
X106680001Y-55660859D01*
X106738966Y-55655700D01*
X106915408Y-55640263D01*
X107143663Y-55579103D01*
X107357830Y-55479235D01*
X107551401Y-55343695D01*
X107718495Y-55176601D01*
X107848426Y-54991040D01*
X107903001Y-54947417D01*
X107972499Y-54940223D01*
X108034854Y-54971746D01*
X108051574Y-54991041D01*
X108067370Y-55013600D01*
X108181505Y-55176601D01*
X108348599Y-55343695D01*
X108445384Y-55411465D01*
X108542165Y-55479232D01*
X108542167Y-55479233D01*
X108542170Y-55479235D01*
X108756337Y-55579103D01*
X108984592Y-55640263D01*
X109161034Y-55655700D01*
X109219999Y-55660859D01*
X109220000Y-55660859D01*
X109220001Y-55660859D01*
X109278966Y-55655700D01*
X109455408Y-55640263D01*
X109683663Y-55579103D01*
X109897830Y-55479235D01*
X110091401Y-55343695D01*
X110258495Y-55176601D01*
X110388730Y-54990605D01*
X110443307Y-54946981D01*
X110512805Y-54939787D01*
X110575160Y-54971310D01*
X110591879Y-54990605D01*
X110721890Y-55176278D01*
X110888917Y-55343305D01*
X111082421Y-55478800D01*
X111296507Y-55578629D01*
X111296516Y-55578633D01*
X111510000Y-55635834D01*
X111510000Y-54740701D01*
X111617685Y-54789880D01*
X111724237Y-54805200D01*
X111795763Y-54805200D01*
X111902315Y-54789880D01*
X112010000Y-54740701D01*
X112010000Y-55635833D01*
X112223483Y-55578633D01*
X112223492Y-55578629D01*
X112437578Y-55478800D01*
X112631082Y-55343305D01*
X112798105Y-55176282D01*
X112933600Y-54982778D01*
X113033429Y-54768692D01*
X113033432Y-54768686D01*
X113090636Y-54555200D01*
X112193686Y-54555200D01*
X112219493Y-54515044D01*
X112260000Y-54377089D01*
X112260000Y-54233311D01*
X112219493Y-54095356D01*
X112193686Y-54055200D01*
X113090636Y-54055200D01*
X113090635Y-54055199D01*
X113033432Y-53841713D01*
X113033429Y-53841707D01*
X112933600Y-53627622D01*
X112933599Y-53627620D01*
X112798113Y-53434126D01*
X112798108Y-53434120D01*
X112631082Y-53267094D01*
X112437578Y-53131599D01*
X112223492Y-53031770D01*
X112223486Y-53031767D01*
X112010000Y-52974564D01*
X112010000Y-53869698D01*
X111902315Y-53820520D01*
X111795763Y-53805200D01*
X111724237Y-53805200D01*
X111617685Y-53820520D01*
X111510000Y-53869698D01*
X111510000Y-52974564D01*
X111509999Y-52974564D01*
X111296513Y-53031767D01*
X111296507Y-53031770D01*
X111082422Y-53131599D01*
X111082420Y-53131600D01*
X110888926Y-53267086D01*
X110888920Y-53267091D01*
X110721891Y-53434120D01*
X110721890Y-53434122D01*
X110591880Y-53619795D01*
X110537303Y-53663419D01*
X110467804Y-53670612D01*
X110405450Y-53639090D01*
X110388730Y-53619794D01*
X110258494Y-53433797D01*
X110091402Y-53266706D01*
X110091395Y-53266701D01*
X109897834Y-53131167D01*
X109897830Y-53131165D01*
X109840844Y-53104592D01*
X109683663Y-53031297D01*
X109683659Y-53031296D01*
X109683655Y-53031294D01*
X109455413Y-52970138D01*
X109455403Y-52970136D01*
X109220001Y-52949541D01*
X109219999Y-52949541D01*
X108984596Y-52970136D01*
X108984586Y-52970138D01*
X108756344Y-53031294D01*
X108756335Y-53031298D01*
X108542171Y-53131164D01*
X108542169Y-53131165D01*
X108348597Y-53266705D01*
X108181505Y-53433797D01*
X108051575Y-53619358D01*
X107996998Y-53662983D01*
X107927500Y-53670177D01*
X107865145Y-53638654D01*
X107848425Y-53619358D01*
X107718494Y-53433797D01*
X107551402Y-53266706D01*
X107551395Y-53266701D01*
X107357834Y-53131167D01*
X107357830Y-53131165D01*
X107300844Y-53104592D01*
X107143663Y-53031297D01*
X107143659Y-53031296D01*
X107143655Y-53031294D01*
X106915413Y-52970138D01*
X106915403Y-52970136D01*
X106680001Y-52949541D01*
X106679999Y-52949541D01*
X106444596Y-52970136D01*
X106444586Y-52970138D01*
X106216344Y-53031294D01*
X106216335Y-53031298D01*
X106002171Y-53131164D01*
X106002169Y-53131165D01*
X105808597Y-53266705D01*
X105641508Y-53433794D01*
X105511574Y-53619359D01*
X105456997Y-53662984D01*
X105387498Y-53670176D01*
X105325144Y-53638654D01*
X105308424Y-53619358D01*
X105287867Y-53590000D01*
X105231293Y-53509202D01*
X105178494Y-53433797D01*
X105011402Y-53266706D01*
X105011395Y-53266701D01*
X104817834Y-53131167D01*
X104817830Y-53131165D01*
X104760844Y-53104592D01*
X104603663Y-53031297D01*
X104603659Y-53031296D01*
X104603655Y-53031294D01*
X104375413Y-52970138D01*
X104375403Y-52970136D01*
X104140001Y-52949541D01*
X104139999Y-52949541D01*
X103904596Y-52970136D01*
X103904586Y-52970138D01*
X103676344Y-53031294D01*
X103676335Y-53031298D01*
X103462171Y-53131164D01*
X103462169Y-53131165D01*
X103268597Y-53266705D01*
X103101505Y-53433797D01*
X102971575Y-53619358D01*
X102916998Y-53662983D01*
X102847500Y-53670177D01*
X102785145Y-53638654D01*
X102768425Y-53619358D01*
X102638494Y-53433797D01*
X102471402Y-53266706D01*
X102471395Y-53266701D01*
X102277834Y-53131167D01*
X102277830Y-53131165D01*
X102220844Y-53104592D01*
X102063663Y-53031297D01*
X102063659Y-53031296D01*
X102063655Y-53031294D01*
X101835413Y-52970138D01*
X101835403Y-52970136D01*
X101600001Y-52949541D01*
X101599999Y-52949541D01*
X101364596Y-52970136D01*
X101364586Y-52970138D01*
X101136344Y-53031294D01*
X101136335Y-53031298D01*
X100922171Y-53131164D01*
X100922169Y-53131165D01*
X100728600Y-53266703D01*
X100606673Y-53388630D01*
X100545350Y-53422114D01*
X100475658Y-53417130D01*
X100419725Y-53375258D01*
X100402810Y-53344281D01*
X100353797Y-53212871D01*
X100353793Y-53212864D01*
X100267547Y-53097655D01*
X100267544Y-53097652D01*
X100152335Y-53011406D01*
X100152328Y-53011402D01*
X100017482Y-52961108D01*
X100017483Y-52961108D01*
X99957883Y-52954701D01*
X99957881Y-52954700D01*
X99957873Y-52954700D01*
X99957864Y-52954700D01*
X98162129Y-52954700D01*
X98162123Y-52954701D01*
X98102516Y-52961108D01*
X97967671Y-53011402D01*
X97967664Y-53011406D01*
X97852455Y-53097652D01*
X97852452Y-53097655D01*
X97766206Y-53212864D01*
X97766202Y-53212871D01*
X97715908Y-53347717D01*
X97709501Y-53407316D01*
X97709500Y-53407335D01*
X97709500Y-55203070D01*
X97709501Y-55203076D01*
X97715908Y-55262683D01*
X97766202Y-55397528D01*
X97766206Y-55397535D01*
X97852452Y-55512744D01*
X97852455Y-55512747D01*
X97967664Y-55598993D01*
X97967671Y-55598997D01*
X98102517Y-55649291D01*
X98102516Y-55649291D01*
X98109444Y-55650035D01*
X98162127Y-55655700D01*
X99957872Y-55655699D01*
X100017483Y-55649291D01*
X100152331Y-55598996D01*
X100267546Y-55512746D01*
X100353796Y-55397531D01*
X100402810Y-55266116D01*
X100444681Y-55210184D01*
X100510145Y-55185766D01*
X100578418Y-55200617D01*
X100606672Y-55221769D01*
X100728599Y-55343695D01*
X100825384Y-55411465D01*
X100922165Y-55479232D01*
X100922167Y-55479233D01*
X100922170Y-55479235D01*
X101136337Y-55579103D01*
X101364592Y-55640263D01*
X101541034Y-55655700D01*
X101599999Y-55660859D01*
X101600387Y-55660859D01*
X101600551Y-55660907D01*
X101605394Y-55661331D01*
X101605308Y-55662304D01*
X101667426Y-55680544D01*
X101713181Y-55733348D01*
X101723125Y-55802506D01*
X101694100Y-55866062D01*
X101688068Y-55872540D01*
X100922428Y-56638181D01*
X100861105Y-56671666D01*
X100834747Y-56674500D01*
X96582743Y-56674500D01*
X96567122Y-56672775D01*
X96567095Y-56673061D01*
X96559333Y-56672326D01*
X96491140Y-56674469D01*
X96489193Y-56674500D01*
X96460649Y-56674500D01*
X96453778Y-56675367D01*
X96447959Y-56675825D01*
X96401374Y-56677289D01*
X96401368Y-56677290D01*
X96382126Y-56682880D01*
X96363087Y-56686823D01*
X96343217Y-56689334D01*
X96343203Y-56689337D01*
X96299883Y-56706488D01*
X96294358Y-56708380D01*
X96249613Y-56721380D01*
X96249610Y-56721381D01*
X96232366Y-56731579D01*
X96214905Y-56740133D01*
X96196274Y-56747510D01*
X96196262Y-56747517D01*
X96158570Y-56774902D01*
X96153687Y-56778109D01*
X96113580Y-56801829D01*
X96099414Y-56815995D01*
X96084624Y-56828627D01*
X96068414Y-56840404D01*
X96068411Y-56840407D01*
X96038710Y-56876309D01*
X96034777Y-56880631D01*
X94516208Y-58399199D01*
X94503951Y-58409020D01*
X94504134Y-58409241D01*
X94498122Y-58414214D01*
X94464390Y-58450134D01*
X94404148Y-58485527D01*
X94334334Y-58482732D01*
X94277114Y-58442637D01*
X94250654Y-58377971D01*
X94250000Y-58365248D01*
X94250000Y-45619500D01*
X94269685Y-45552461D01*
X94322489Y-45506706D01*
X94374000Y-45495500D01*
X97585500Y-45495500D01*
X97652539Y-45515185D01*
X97698294Y-45567989D01*
X97709500Y-45619500D01*
X97709500Y-47197870D01*
X97709501Y-47197876D01*
X97715908Y-47257483D01*
X97766202Y-47392328D01*
X97766206Y-47392335D01*
X97852452Y-47507544D01*
X97852455Y-47507547D01*
X97967664Y-47593793D01*
X97967671Y-47593797D01*
X98102516Y-47644091D01*
X98148757Y-47649063D01*
X98213307Y-47675801D01*
X98253155Y-47733194D01*
X98259500Y-47772352D01*
X98259500Y-47840191D01*
X98259501Y-47840200D01*
X98268791Y-47880908D01*
X98269955Y-47887763D01*
X98274632Y-47929259D01*
X98288420Y-47968662D01*
X98290345Y-47975345D01*
X98299639Y-48016061D01*
X98317759Y-48053688D01*
X98320421Y-48060114D01*
X98334212Y-48099525D01*
X98356422Y-48134872D01*
X98359787Y-48140959D01*
X98377910Y-48178589D01*
X98403940Y-48211229D01*
X98407966Y-48216904D01*
X98430182Y-48252259D01*
X98430184Y-48252262D01*
X98462174Y-48284252D01*
X101380184Y-51202262D01*
X101507738Y-51329816D01*
X101543089Y-51352028D01*
X101548765Y-51356055D01*
X101581411Y-51382090D01*
X101581412Y-51382091D01*
X101602548Y-51392269D01*
X101619035Y-51400208D01*
X101625112Y-51403567D01*
X101628733Y-51405842D01*
X101660477Y-51425789D01*
X101699891Y-51439581D01*
X101706320Y-51442244D01*
X101743941Y-51460361D01*
X101784641Y-51469650D01*
X101791328Y-51471576D01*
X101830742Y-51485367D01*
X101830745Y-51485368D01*
X101872241Y-51490043D01*
X101879093Y-51491207D01*
X101919806Y-51500500D01*
X101965046Y-51500500D01*
X113217060Y-51500500D01*
X113284099Y-51520185D01*
X113304741Y-51536819D01*
X115363180Y-53595258D01*
X115396665Y-53656581D01*
X115399499Y-53682939D01*
X115399498Y-58071159D01*
X115399500Y-58071169D01*
X115399500Y-58200191D01*
X115399501Y-58200200D01*
X115408791Y-58240908D01*
X115409955Y-58247763D01*
X115414632Y-58289259D01*
X115428420Y-58328662D01*
X115430345Y-58335345D01*
X115439639Y-58376061D01*
X115457759Y-58413688D01*
X115460421Y-58420114D01*
X115474212Y-58459525D01*
X115496422Y-58494872D01*
X115499787Y-58500959D01*
X115517910Y-58538589D01*
X115543940Y-58571229D01*
X115547966Y-58576904D01*
X115570182Y-58612259D01*
X115570184Y-58612262D01*
X121417131Y-64459209D01*
X121450616Y-64520532D01*
X121452853Y-64534733D01*
X121453975Y-64546129D01*
X121453976Y-64546132D01*
X121500009Y-64697883D01*
X121511188Y-64734733D01*
X121604086Y-64908532D01*
X121604090Y-64908539D01*
X121729116Y-65060883D01*
X121881460Y-65185909D01*
X121881467Y-65185913D01*
X122055266Y-65278811D01*
X122055269Y-65278811D01*
X122055273Y-65278814D01*
X122243868Y-65336024D01*
X122440000Y-65355341D01*
X122636132Y-65336024D01*
X122824727Y-65278814D01*
X122998538Y-65185910D01*
X123150883Y-65060883D01*
X123213783Y-64984240D01*
X124669310Y-64984240D01*
X124669311Y-64984241D01*
X124757581Y-65038895D01*
X124757588Y-65038899D01*
X124947678Y-65112539D01*
X125148072Y-65150000D01*
X125351928Y-65150000D01*
X125552321Y-65112539D01*
X125742414Y-65038897D01*
X125830688Y-64984240D01*
X125250001Y-64403553D01*
X125250000Y-64403553D01*
X124669310Y-64984240D01*
X123213783Y-64984240D01*
X123275910Y-64908538D01*
X123368814Y-64734727D01*
X123426024Y-64546132D01*
X123445341Y-64350000D01*
X123440262Y-64298437D01*
X123453280Y-64229794D01*
X123475981Y-64198607D01*
X123960315Y-63714273D01*
X124021636Y-63680790D01*
X124091328Y-63685774D01*
X124147261Y-63727646D01*
X124171678Y-63793110D01*
X124167262Y-63835885D01*
X124164096Y-63847011D01*
X124145287Y-64049999D01*
X124145287Y-64050000D01*
X124164096Y-64252989D01*
X124164097Y-64252992D01*
X124219883Y-64449063D01*
X124219886Y-64449069D01*
X124310754Y-64631556D01*
X124310755Y-64631557D01*
X124312533Y-64633912D01*
X124896447Y-64050000D01*
X124896447Y-64049999D01*
X124868288Y-64021840D01*
X124946105Y-64021840D01*
X124956454Y-64133521D01*
X125006448Y-64233922D01*
X125089334Y-64309484D01*
X125193920Y-64350000D01*
X125277802Y-64350000D01*
X125360250Y-64334588D01*
X125455610Y-64275543D01*
X125523201Y-64186038D01*
X125553895Y-64078160D01*
X125551285Y-64049999D01*
X125603553Y-64049999D01*
X126113181Y-64559628D01*
X126146666Y-64620951D01*
X126149500Y-64647307D01*
X126149500Y-64697869D01*
X126149501Y-64697876D01*
X126155908Y-64757483D01*
X126206202Y-64892328D01*
X126206206Y-64892335D01*
X126292452Y-65007544D01*
X126292455Y-65007547D01*
X126407664Y-65093793D01*
X126407671Y-65093797D01*
X126542517Y-65144091D01*
X126542516Y-65144091D01*
X126549444Y-65144835D01*
X126602127Y-65150500D01*
X127897872Y-65150499D01*
X127957483Y-65144091D01*
X128092331Y-65093796D01*
X128207546Y-65007546D01*
X128293796Y-64892331D01*
X128344091Y-64757483D01*
X128350500Y-64697873D01*
X128350499Y-63402128D01*
X128344091Y-63342517D01*
X128343773Y-63341665D01*
X128293797Y-63207671D01*
X128293793Y-63207664D01*
X128207547Y-63092455D01*
X128207544Y-63092452D01*
X128092335Y-63006206D01*
X128092328Y-63006202D01*
X127957482Y-62955908D01*
X127957483Y-62955908D01*
X127897883Y-62949501D01*
X127897881Y-62949500D01*
X127897873Y-62949500D01*
X127897864Y-62949500D01*
X126602129Y-62949500D01*
X126602123Y-62949501D01*
X126542516Y-62955908D01*
X126407671Y-63006202D01*
X126407664Y-63006206D01*
X126292455Y-63092452D01*
X126292452Y-63092455D01*
X126206206Y-63207664D01*
X126206202Y-63207671D01*
X126155908Y-63342517D01*
X126149791Y-63399422D01*
X126149501Y-63402123D01*
X126149500Y-63402135D01*
X126149500Y-63452689D01*
X126129815Y-63519728D01*
X126113181Y-63540370D01*
X125603553Y-64049998D01*
X125603553Y-64049999D01*
X125551285Y-64049999D01*
X125543546Y-63966479D01*
X125493552Y-63866078D01*
X125410666Y-63790516D01*
X125306080Y-63750000D01*
X125222198Y-63750000D01*
X125139750Y-63765412D01*
X125044390Y-63824457D01*
X124976799Y-63913962D01*
X124946105Y-64021840D01*
X124868288Y-64021840D01*
X124300928Y-63454480D01*
X124275610Y-63448922D01*
X124226299Y-63399422D01*
X124211577Y-63331121D01*
X124215140Y-63309363D01*
X124222042Y-63282485D01*
X124225500Y-63269019D01*
X124225500Y-63248982D01*
X124227027Y-63229582D01*
X124230160Y-63209804D01*
X124225775Y-63163415D01*
X124225500Y-63157577D01*
X124225500Y-63115758D01*
X124669310Y-63115758D01*
X125250000Y-63696447D01*
X125250001Y-63696447D01*
X125830688Y-63115758D01*
X125830687Y-63115757D01*
X125742418Y-63061104D01*
X125742411Y-63061100D01*
X125552321Y-62987460D01*
X125351928Y-62950000D01*
X125148072Y-62950000D01*
X124947678Y-62987460D01*
X124757588Y-63061100D01*
X124757584Y-63061102D01*
X124669310Y-63115758D01*
X124225500Y-63115758D01*
X124225500Y-62431057D01*
X124245185Y-62364018D01*
X124284401Y-62325520D01*
X124418656Y-62242712D01*
X124542712Y-62118656D01*
X124634814Y-61969334D01*
X124689999Y-61802797D01*
X124700500Y-61700009D01*
X124700499Y-60699992D01*
X124689999Y-60597203D01*
X124634814Y-60430666D01*
X124542712Y-60281344D01*
X124418656Y-60157288D01*
X124284401Y-60074479D01*
X124237678Y-60022532D01*
X124225499Y-59968941D01*
X124225499Y-58920000D01*
X125944341Y-58920000D01*
X125964936Y-59155403D01*
X125964938Y-59155413D01*
X126026094Y-59383655D01*
X126026096Y-59383659D01*
X126026097Y-59383663D01*
X126060992Y-59458495D01*
X126125965Y-59597830D01*
X126125967Y-59597834D01*
X126191074Y-59690815D01*
X126261505Y-59791401D01*
X126428599Y-59958495D01*
X126443519Y-59968942D01*
X126622165Y-60094032D01*
X126622167Y-60094033D01*
X126622170Y-60094035D01*
X126836337Y-60193903D01*
X127064592Y-60255063D01*
X127252918Y-60271539D01*
X127299999Y-60275659D01*
X127300000Y-60275659D01*
X127300001Y-60275659D01*
X127339234Y-60272226D01*
X127535408Y-60255063D01*
X127763663Y-60193903D01*
X127977830Y-60094035D01*
X128171401Y-59958495D01*
X128338495Y-59791401D01*
X128474035Y-59597830D01*
X128573903Y-59383663D01*
X128635063Y-59155408D01*
X128655659Y-58920000D01*
X128635063Y-58684592D01*
X128580975Y-58482732D01*
X128573905Y-58456344D01*
X128573904Y-58456343D01*
X128573903Y-58456337D01*
X128474035Y-58242171D01*
X128444641Y-58200191D01*
X128338494Y-58048597D01*
X128171402Y-57881506D01*
X128171395Y-57881501D01*
X128167276Y-57878617D01*
X128088386Y-57823377D01*
X127977834Y-57745967D01*
X127977830Y-57745965D01*
X127930059Y-57723689D01*
X127763663Y-57646097D01*
X127763659Y-57646096D01*
X127763655Y-57646094D01*
X127535413Y-57584938D01*
X127535403Y-57584936D01*
X127300001Y-57564341D01*
X127299999Y-57564341D01*
X127064596Y-57584936D01*
X127064586Y-57584938D01*
X126836344Y-57646094D01*
X126836335Y-57646098D01*
X126622171Y-57745964D01*
X126622169Y-57745965D01*
X126428597Y-57881505D01*
X126261505Y-58048597D01*
X126125965Y-58242169D01*
X126125964Y-58242171D01*
X126026098Y-58456335D01*
X126026094Y-58456344D01*
X125964938Y-58684586D01*
X125964936Y-58684596D01*
X125944341Y-58919999D01*
X125944341Y-58920000D01*
X124225499Y-58920000D01*
X124225499Y-58820981D01*
X124225499Y-57582729D01*
X124227225Y-57567124D01*
X124226938Y-57567097D01*
X124227672Y-57559334D01*
X124225531Y-57491171D01*
X124225500Y-57489224D01*
X124225500Y-57460651D01*
X124225500Y-57460650D01*
X124224629Y-57453759D01*
X124224172Y-57447945D01*
X124223989Y-57442135D01*
X124222709Y-57401373D01*
X124217122Y-57382144D01*
X124213174Y-57363084D01*
X124210663Y-57343204D01*
X124193512Y-57299887D01*
X124191619Y-57294358D01*
X124178618Y-57249609D01*
X124178616Y-57249606D01*
X124168423Y-57232371D01*
X124159861Y-57214894D01*
X124152487Y-57196270D01*
X124152486Y-57196268D01*
X124125079Y-57158545D01*
X124121888Y-57153686D01*
X124119708Y-57150000D01*
X124098170Y-57113580D01*
X124098168Y-57113578D01*
X124098165Y-57113574D01*
X124084006Y-57099415D01*
X124071368Y-57084619D01*
X124059594Y-57068413D01*
X124032745Y-57046202D01*
X124023688Y-57038709D01*
X124019376Y-57034786D01*
X123240236Y-56255646D01*
X123206752Y-56194324D01*
X123208143Y-56135872D01*
X123235063Y-56035408D01*
X123255659Y-55800000D01*
X123235063Y-55564592D01*
X123173903Y-55336337D01*
X123074035Y-55122171D01*
X123068425Y-55114158D01*
X122938494Y-54928597D01*
X122771402Y-54761506D01*
X122771401Y-54761505D01*
X122592159Y-54635998D01*
X122585405Y-54631269D01*
X122541781Y-54576692D01*
X122534588Y-54507193D01*
X122566110Y-54444839D01*
X122585405Y-54428119D01*
X122771082Y-54298105D01*
X122938105Y-54131082D01*
X123073600Y-53937577D01*
X123073601Y-53937575D01*
X123127019Y-53823020D01*
X123173191Y-53770580D01*
X123240384Y-53751428D01*
X123307265Y-53771643D01*
X123327082Y-53787743D01*
X123381654Y-53842315D01*
X123530875Y-53934356D01*
X123530880Y-53934358D01*
X123697302Y-53989505D01*
X123697309Y-53989506D01*
X123800019Y-53999999D01*
X124049998Y-53999999D01*
X124049999Y-53999998D01*
X124050000Y-53150000D01*
X124550000Y-53150000D01*
X124550000Y-53999999D01*
X124799972Y-53999999D01*
X124799986Y-53999998D01*
X124902697Y-53989505D01*
X125069119Y-53934358D01*
X125069124Y-53934356D01*
X125218345Y-53842315D01*
X125342315Y-53718345D01*
X125434356Y-53569124D01*
X125434358Y-53569119D01*
X125489505Y-53402697D01*
X125489506Y-53402690D01*
X125499999Y-53299986D01*
X125500000Y-53299973D01*
X125500000Y-53150000D01*
X124550000Y-53150000D01*
X124050000Y-53150000D01*
X124050000Y-52774000D01*
X124069685Y-52706960D01*
X124122489Y-52661206D01*
X124174000Y-52650000D01*
X125499999Y-52650000D01*
X125499999Y-52500028D01*
X125499998Y-52500013D01*
X125489505Y-52397302D01*
X125434358Y-52230880D01*
X125434356Y-52230875D01*
X125413982Y-52197844D01*
X125950000Y-52197844D01*
X125956401Y-52257372D01*
X125956403Y-52257379D01*
X126006645Y-52392086D01*
X126006649Y-52392093D01*
X126092809Y-52507187D01*
X126092812Y-52507190D01*
X126207906Y-52593350D01*
X126207913Y-52593354D01*
X126339986Y-52642614D01*
X126395920Y-52684485D01*
X126420337Y-52749949D01*
X126405486Y-52818222D01*
X126384335Y-52846477D01*
X126261886Y-52968926D01*
X126126400Y-53162420D01*
X126126399Y-53162422D01*
X126026570Y-53376507D01*
X126026567Y-53376513D01*
X125969364Y-53589999D01*
X125969364Y-53590000D01*
X126866314Y-53590000D01*
X126840507Y-53630156D01*
X126800000Y-53768111D01*
X126800000Y-53911889D01*
X126840507Y-54049844D01*
X126866314Y-54090000D01*
X125969364Y-54090000D01*
X126026567Y-54303486D01*
X126026570Y-54303492D01*
X126126399Y-54517578D01*
X126261894Y-54711082D01*
X126428917Y-54878105D01*
X126622421Y-55013600D01*
X126836507Y-55113429D01*
X126836516Y-55113433D01*
X127050000Y-55170634D01*
X127050000Y-54275501D01*
X127157685Y-54324680D01*
X127264237Y-54340000D01*
X127335763Y-54340000D01*
X127442315Y-54324680D01*
X127550000Y-54275501D01*
X127550000Y-55170633D01*
X127763483Y-55113433D01*
X127763492Y-55113429D01*
X127977578Y-55013600D01*
X128171082Y-54878105D01*
X128338105Y-54711082D01*
X128473600Y-54517578D01*
X128573429Y-54303492D01*
X128573432Y-54303486D01*
X128630636Y-54090000D01*
X127733686Y-54090000D01*
X127759493Y-54049844D01*
X127800000Y-53911889D01*
X127800000Y-53768111D01*
X127759493Y-53630156D01*
X127733686Y-53590000D01*
X128630636Y-53590000D01*
X128630635Y-53589999D01*
X128573432Y-53376513D01*
X128573429Y-53376507D01*
X128473600Y-53162422D01*
X128473599Y-53162420D01*
X128338113Y-52968926D01*
X128338108Y-52968920D01*
X128215665Y-52846477D01*
X128182180Y-52785154D01*
X128187164Y-52715462D01*
X128229036Y-52659529D01*
X128260013Y-52642614D01*
X128392086Y-52593354D01*
X128392093Y-52593350D01*
X128507187Y-52507190D01*
X128507190Y-52507187D01*
X128593350Y-52392093D01*
X128593354Y-52392086D01*
X128643596Y-52257379D01*
X128643598Y-52257372D01*
X128649999Y-52197844D01*
X128650000Y-52197827D01*
X128650000Y-51550000D01*
X127733686Y-51550000D01*
X127759493Y-51509844D01*
X127800000Y-51371889D01*
X127800000Y-51228111D01*
X127759493Y-51090156D01*
X127733686Y-51050000D01*
X128650000Y-51050000D01*
X128650000Y-50402172D01*
X128649999Y-50402155D01*
X128643598Y-50342627D01*
X128643596Y-50342620D01*
X128593354Y-50207913D01*
X128593350Y-50207906D01*
X128507190Y-50092812D01*
X128507187Y-50092809D01*
X128392093Y-50006649D01*
X128392086Y-50006645D01*
X128257379Y-49956403D01*
X128257372Y-49956401D01*
X128197844Y-49950000D01*
X127550000Y-49950000D01*
X127550000Y-50864498D01*
X127442315Y-50815320D01*
X127335763Y-50800000D01*
X127264237Y-50800000D01*
X127157685Y-50815320D01*
X127049999Y-50864498D01*
X127050000Y-49950000D01*
X126402155Y-49950000D01*
X126342627Y-49956401D01*
X126342620Y-49956403D01*
X126207913Y-50006645D01*
X126207906Y-50006649D01*
X126092812Y-50092809D01*
X126092809Y-50092812D01*
X126006649Y-50207906D01*
X126006645Y-50207913D01*
X125956403Y-50342620D01*
X125956401Y-50342627D01*
X125950000Y-50402155D01*
X125950000Y-51050000D01*
X126866314Y-51050000D01*
X126840507Y-51090156D01*
X126800000Y-51228111D01*
X126800000Y-51371889D01*
X126840507Y-51509844D01*
X126866314Y-51550000D01*
X125950000Y-51550000D01*
X125950000Y-52197844D01*
X125413982Y-52197844D01*
X125342315Y-52081654D01*
X125248695Y-51988034D01*
X125215210Y-51926711D01*
X125220194Y-51857019D01*
X125248691Y-51812676D01*
X125342712Y-51718656D01*
X125434814Y-51569334D01*
X125489999Y-51402797D01*
X125500500Y-51300009D01*
X125500499Y-50499992D01*
X125489999Y-50397203D01*
X125434814Y-50230666D01*
X125342712Y-50081344D01*
X125218656Y-49957288D01*
X125069334Y-49865186D01*
X124902797Y-49810001D01*
X124902795Y-49810000D01*
X124800010Y-49799500D01*
X123799998Y-49799500D01*
X123799980Y-49799501D01*
X123697203Y-49810000D01*
X123697200Y-49810001D01*
X123530668Y-49865185D01*
X123530663Y-49865187D01*
X123381345Y-49957287D01*
X123269717Y-50068915D01*
X123208394Y-50102399D01*
X123138702Y-50097415D01*
X123082769Y-50055543D01*
X123074654Y-50043242D01*
X123074036Y-50042172D01*
X122938494Y-49848597D01*
X122771402Y-49681506D01*
X122771395Y-49681501D01*
X122577834Y-49545967D01*
X122577830Y-49545965D01*
X122543593Y-49530000D01*
X122363663Y-49446097D01*
X122363659Y-49446096D01*
X122363655Y-49446094D01*
X122135413Y-49384938D01*
X122135403Y-49384936D01*
X121900001Y-49364341D01*
X121899999Y-49364341D01*
X121664596Y-49384936D01*
X121664586Y-49384938D01*
X121436344Y-49446094D01*
X121436335Y-49446098D01*
X121222171Y-49545964D01*
X121222169Y-49545965D01*
X121028597Y-49681505D01*
X120861505Y-49848597D01*
X120731575Y-50034158D01*
X120676998Y-50077783D01*
X120607500Y-50084977D01*
X120545145Y-50053454D01*
X120528425Y-50034158D01*
X120398494Y-49848597D01*
X120231402Y-49681506D01*
X120231395Y-49681501D01*
X120037834Y-49545967D01*
X120037830Y-49545965D01*
X120003593Y-49530000D01*
X119823663Y-49446097D01*
X119823659Y-49446096D01*
X119823655Y-49446094D01*
X119595413Y-49384938D01*
X119595403Y-49384936D01*
X119360001Y-49364341D01*
X119359999Y-49364341D01*
X119124596Y-49384936D01*
X119124586Y-49384938D01*
X118896344Y-49446094D01*
X118896335Y-49446098D01*
X118682171Y-49545964D01*
X118682169Y-49545965D01*
X118488597Y-49681505D01*
X118321505Y-49848597D01*
X118185965Y-50042169D01*
X118185964Y-50042171D01*
X118086098Y-50256335D01*
X118086094Y-50256344D01*
X118024938Y-50484586D01*
X118024936Y-50484596D01*
X118004341Y-50719999D01*
X118004341Y-50720000D01*
X118024936Y-50955403D01*
X118024938Y-50955413D01*
X118086094Y-51183655D01*
X118086096Y-51183659D01*
X118086097Y-51183663D01*
X118178625Y-51382090D01*
X118185965Y-51397830D01*
X118185967Y-51397834D01*
X118281838Y-51534751D01*
X118321504Y-51591400D01*
X118321506Y-51591402D01*
X118488597Y-51758493D01*
X118488603Y-51758498D01*
X118674158Y-51888425D01*
X118717783Y-51943002D01*
X118724977Y-52012500D01*
X118693454Y-52074855D01*
X118674158Y-52091575D01*
X118488597Y-52221505D01*
X118321505Y-52388597D01*
X118185965Y-52582169D01*
X118185964Y-52582171D01*
X118086098Y-52796335D01*
X118086094Y-52796344D01*
X118024938Y-53024586D01*
X118024936Y-53024596D01*
X118004341Y-53259999D01*
X118004341Y-53260000D01*
X118024936Y-53495403D01*
X118024938Y-53495413D01*
X118086094Y-53723655D01*
X118086096Y-53723659D01*
X118086097Y-53723663D01*
X118180500Y-53926110D01*
X118185965Y-53937830D01*
X118185967Y-53937834D01*
X118264398Y-54049844D01*
X118321505Y-54131401D01*
X118488599Y-54298495D01*
X118674159Y-54428426D01*
X118717783Y-54483001D01*
X118724977Y-54552499D01*
X118693454Y-54614854D01*
X118674159Y-54631574D01*
X118488594Y-54761508D01*
X118321505Y-54928597D01*
X118185965Y-55122169D01*
X118185964Y-55122171D01*
X118086098Y-55336335D01*
X118086094Y-55336344D01*
X118024938Y-55564586D01*
X118024936Y-55564596D01*
X118004341Y-55799999D01*
X118004341Y-55800000D01*
X118024936Y-56035403D01*
X118024938Y-56035413D01*
X118086094Y-56263655D01*
X118086096Y-56263659D01*
X118086097Y-56263663D01*
X118090000Y-56272032D01*
X118185965Y-56477830D01*
X118185967Y-56477834D01*
X118294281Y-56632521D01*
X118321504Y-56671400D01*
X118321506Y-56671402D01*
X118443430Y-56793326D01*
X118476915Y-56854649D01*
X118471931Y-56924341D01*
X118430059Y-56980274D01*
X118399083Y-56997189D01*
X118267669Y-57046203D01*
X118267664Y-57046206D01*
X118152455Y-57132452D01*
X118152452Y-57132455D01*
X118066206Y-57247664D01*
X118066202Y-57247671D01*
X118015908Y-57382517D01*
X118009501Y-57442116D01*
X118009500Y-57442135D01*
X118009500Y-58488060D01*
X117989815Y-58555099D01*
X117937011Y-58600854D01*
X117867853Y-58610798D01*
X117804297Y-58581773D01*
X117797819Y-58575741D01*
X117036819Y-57814740D01*
X117003334Y-57753417D01*
X117000500Y-57727059D01*
X117000500Y-53209807D01*
X117000500Y-53209806D01*
X116991207Y-53169093D01*
X116990042Y-53162233D01*
X116988664Y-53150000D01*
X116985368Y-53120745D01*
X116979716Y-53104592D01*
X116971576Y-53081328D01*
X116969650Y-53074641D01*
X116960361Y-53033941D01*
X116942244Y-52996320D01*
X116939581Y-52989891D01*
X116925789Y-52950477D01*
X116912420Y-52929202D01*
X116903567Y-52915112D01*
X116900206Y-52909030D01*
X116882091Y-52871412D01*
X116882090Y-52871411D01*
X116856055Y-52838765D01*
X116852028Y-52833089D01*
X116829816Y-52797738D01*
X116702262Y-52670184D01*
X114134252Y-50102174D01*
X114102262Y-50070184D01*
X114102259Y-50070182D01*
X114066904Y-50047966D01*
X114061229Y-50043940D01*
X114028589Y-50017910D01*
X113990959Y-49999787D01*
X113984872Y-49996422D01*
X113949525Y-49974212D01*
X113910114Y-49960421D01*
X113903688Y-49957759D01*
X113866061Y-49939639D01*
X113825345Y-49930345D01*
X113818662Y-49928420D01*
X113779259Y-49914632D01*
X113737763Y-49909955D01*
X113730908Y-49908791D01*
X113690200Y-49899501D01*
X113690196Y-49899500D01*
X113690194Y-49899500D01*
X113690191Y-49899500D01*
X102392940Y-49899500D01*
X102325901Y-49879815D01*
X102305259Y-49863181D01*
X100186919Y-47744841D01*
X100153434Y-47683518D01*
X100158418Y-47613826D01*
X100200288Y-47557894D01*
X100267546Y-47507546D01*
X100353796Y-47392331D01*
X100403002Y-47260401D01*
X100444872Y-47204468D01*
X100510337Y-47180050D01*
X100578610Y-47194901D01*
X100606865Y-47216053D01*
X100728917Y-47338105D01*
X100922421Y-47473600D01*
X101136507Y-47573429D01*
X101136516Y-47573433D01*
X101350000Y-47630634D01*
X101350000Y-46735501D01*
X101457685Y-46784680D01*
X101564237Y-46800000D01*
X101635763Y-46800000D01*
X101742315Y-46784680D01*
X101850000Y-46735501D01*
X101850000Y-47630633D01*
X102063483Y-47573433D01*
X102063492Y-47573429D01*
X102277578Y-47473600D01*
X102471082Y-47338105D01*
X102638105Y-47171082D01*
X102768119Y-46985405D01*
X102822696Y-46941781D01*
X102892195Y-46934588D01*
X102954549Y-46966110D01*
X102971269Y-46985405D01*
X102984180Y-47003844D01*
X103101505Y-47171401D01*
X103268599Y-47338495D01*
X103365384Y-47406264D01*
X103462165Y-47474032D01*
X103462167Y-47474033D01*
X103462170Y-47474035D01*
X103676337Y-47573903D01*
X103904592Y-47635063D01*
X104081034Y-47650500D01*
X104139999Y-47655659D01*
X104140000Y-47655659D01*
X104140001Y-47655659D01*
X104198966Y-47650500D01*
X104375408Y-47635063D01*
X104603663Y-47573903D01*
X104817830Y-47474035D01*
X105011401Y-47338495D01*
X105178495Y-47171401D01*
X105292891Y-47008026D01*
X105308425Y-46985842D01*
X105363002Y-46942217D01*
X105432500Y-46935023D01*
X105494855Y-46966546D01*
X105511575Y-46985842D01*
X105641500Y-47171395D01*
X105641505Y-47171401D01*
X105808599Y-47338495D01*
X105905384Y-47406264D01*
X106002165Y-47474032D01*
X106002167Y-47474033D01*
X106002170Y-47474035D01*
X106216337Y-47573903D01*
X106444592Y-47635063D01*
X106621034Y-47650500D01*
X106679999Y-47655659D01*
X106680000Y-47655659D01*
X106680001Y-47655659D01*
X106738966Y-47650500D01*
X106915408Y-47635063D01*
X107143663Y-47573903D01*
X107357830Y-47474035D01*
X107551401Y-47338495D01*
X107718495Y-47171401D01*
X107832891Y-47008026D01*
X107848425Y-46985842D01*
X107903002Y-46942217D01*
X107972500Y-46935023D01*
X108034855Y-46966546D01*
X108051575Y-46985842D01*
X108181500Y-47171395D01*
X108181505Y-47171401D01*
X108348599Y-47338495D01*
X108445384Y-47406264D01*
X108542165Y-47474032D01*
X108542167Y-47474033D01*
X108542170Y-47474035D01*
X108756337Y-47573903D01*
X108984592Y-47635063D01*
X109161034Y-47650500D01*
X109219999Y-47655659D01*
X109220000Y-47655659D01*
X109220001Y-47655659D01*
X109278966Y-47650500D01*
X109455408Y-47635063D01*
X109683663Y-47573903D01*
X109897830Y-47474035D01*
X110091401Y-47338495D01*
X110258495Y-47171401D01*
X110372891Y-47008026D01*
X110388425Y-46985842D01*
X110443002Y-46942217D01*
X110512500Y-46935023D01*
X110574855Y-46966546D01*
X110591575Y-46985842D01*
X110721500Y-47171395D01*
X110721505Y-47171401D01*
X110888599Y-47338495D01*
X110985384Y-47406264D01*
X111082165Y-47474032D01*
X111082167Y-47474033D01*
X111082170Y-47474035D01*
X111296337Y-47573903D01*
X111524592Y-47635063D01*
X111701034Y-47650500D01*
X111759999Y-47655659D01*
X111760000Y-47655659D01*
X111760001Y-47655659D01*
X111818966Y-47650500D01*
X111995408Y-47635063D01*
X112223663Y-47573903D01*
X112437830Y-47474035D01*
X112631401Y-47338495D01*
X112798495Y-47171401D01*
X112912891Y-47008026D01*
X112928425Y-46985842D01*
X112983002Y-46942217D01*
X113052500Y-46935023D01*
X113114855Y-46966546D01*
X113131575Y-46985842D01*
X113261500Y-47171395D01*
X113261505Y-47171401D01*
X113428599Y-47338495D01*
X113525384Y-47406264D01*
X113622165Y-47474032D01*
X113622167Y-47474033D01*
X113622170Y-47474035D01*
X113836337Y-47573903D01*
X114064592Y-47635063D01*
X114241034Y-47650500D01*
X114299999Y-47655659D01*
X114300000Y-47655659D01*
X114300001Y-47655659D01*
X114358966Y-47650500D01*
X114535408Y-47635063D01*
X114763663Y-47573903D01*
X114977830Y-47474035D01*
X115171401Y-47338495D01*
X115338495Y-47171401D01*
X115474035Y-46977830D01*
X115573903Y-46763663D01*
X115635063Y-46535408D01*
X115655659Y-46300000D01*
X115635063Y-46064592D01*
X115573903Y-45836337D01*
X115474035Y-45622171D01*
X115468425Y-45614158D01*
X115338494Y-45428597D01*
X115171402Y-45261506D01*
X115171395Y-45261501D01*
X114977834Y-45125967D01*
X114977830Y-45125965D01*
X114846329Y-45064645D01*
X114763663Y-45026097D01*
X114763659Y-45026096D01*
X114763655Y-45026094D01*
X114535413Y-44964938D01*
X114535403Y-44964936D01*
X114300001Y-44944341D01*
X114299999Y-44944341D01*
X114064596Y-44964936D01*
X114064586Y-44964938D01*
X113964126Y-44991856D01*
X113894276Y-44990193D01*
X113844352Y-44959762D01*
X112900803Y-44016212D01*
X112890980Y-44003950D01*
X112890759Y-44004134D01*
X112885786Y-43998122D01*
X112836066Y-43951432D01*
X112834666Y-43950075D01*
X112814476Y-43929884D01*
X112808986Y-43925625D01*
X112804561Y-43921847D01*
X112770582Y-43889938D01*
X112770580Y-43889936D01*
X112770577Y-43889935D01*
X112753029Y-43880288D01*
X112736763Y-43869604D01*
X112720933Y-43857325D01*
X112678168Y-43838818D01*
X112672922Y-43836248D01*
X112632093Y-43813803D01*
X112632092Y-43813802D01*
X112612693Y-43808822D01*
X112594281Y-43802518D01*
X112575898Y-43794562D01*
X112575892Y-43794560D01*
X112529874Y-43787272D01*
X112524152Y-43786087D01*
X112479021Y-43774500D01*
X112479019Y-43774500D01*
X112458984Y-43774500D01*
X112439586Y-43772973D01*
X112432162Y-43771797D01*
X112419805Y-43769840D01*
X112419804Y-43769840D01*
X112373416Y-43774225D01*
X112367578Y-43774500D01*
X94360048Y-43774500D01*
X94293009Y-43754815D01*
X94250000Y-43705180D01*
X94250000Y-41850000D01*
X94750000Y-41850000D01*
X94950000Y-41650000D01*
X94950000Y-41000000D01*
X123104341Y-41000000D01*
X123124936Y-41235403D01*
X123124938Y-41235413D01*
X123186094Y-41463655D01*
X123186096Y-41463659D01*
X123186097Y-41463663D01*
X123265800Y-41634586D01*
X123285965Y-41677830D01*
X123285967Y-41677834D01*
X123344462Y-41761373D01*
X123421505Y-41871401D01*
X123588599Y-42038495D01*
X123685384Y-42106264D01*
X123782165Y-42174032D01*
X123782167Y-42174033D01*
X123782170Y-42174035D01*
X123996337Y-42273903D01*
X124224592Y-42335063D01*
X124412918Y-42351539D01*
X124459999Y-42355659D01*
X124460000Y-42355659D01*
X124460001Y-42355659D01*
X124499234Y-42352226D01*
X124695408Y-42335063D01*
X124923663Y-42273903D01*
X125137830Y-42174035D01*
X125331401Y-42038495D01*
X125498495Y-41871401D01*
X125628732Y-41685403D01*
X125683307Y-41641780D01*
X125752805Y-41634586D01*
X125815160Y-41666109D01*
X125831880Y-41685405D01*
X125885073Y-41761373D01*
X126516922Y-41129522D01*
X126540507Y-41209844D01*
X126618239Y-41330798D01*
X126726900Y-41424952D01*
X126857685Y-41484680D01*
X126867466Y-41486086D01*
X126238625Y-42114925D01*
X126322421Y-42173599D01*
X126536507Y-42273429D01*
X126536516Y-42273433D01*
X126764673Y-42334567D01*
X126764684Y-42334569D01*
X126999998Y-42355157D01*
X127000002Y-42355157D01*
X127235315Y-42334569D01*
X127235326Y-42334567D01*
X127463483Y-42273433D01*
X127463492Y-42273429D01*
X127677578Y-42173600D01*
X127677582Y-42173598D01*
X127761373Y-42114926D01*
X127761373Y-42114925D01*
X127132533Y-41486086D01*
X127142315Y-41484680D01*
X127273100Y-41424952D01*
X127381761Y-41330798D01*
X127459493Y-41209844D01*
X127483077Y-41129523D01*
X128114926Y-41761373D01*
X128173598Y-41677582D01*
X128173600Y-41677578D01*
X128273429Y-41463492D01*
X128273433Y-41463483D01*
X128334567Y-41235326D01*
X128334569Y-41235315D01*
X128355157Y-41000001D01*
X128355157Y-40999998D01*
X128334569Y-40764684D01*
X128334567Y-40764673D01*
X128273433Y-40536516D01*
X128273429Y-40536507D01*
X128173600Y-40322423D01*
X128173599Y-40322421D01*
X128114925Y-40238626D01*
X128114925Y-40238625D01*
X127483076Y-40870474D01*
X127459493Y-40790156D01*
X127381761Y-40669202D01*
X127273100Y-40575048D01*
X127142315Y-40515320D01*
X127132531Y-40513913D01*
X127761373Y-39885073D01*
X127684969Y-39831576D01*
X127641344Y-39776999D01*
X127634150Y-39707501D01*
X127665672Y-39645146D01*
X127684968Y-39628425D01*
X127761373Y-39574925D01*
X127132533Y-38946086D01*
X127142315Y-38944680D01*
X127273100Y-38884952D01*
X127381761Y-38790798D01*
X127459493Y-38669844D01*
X127483076Y-38589524D01*
X128114925Y-39221373D01*
X128114926Y-39221373D01*
X128173598Y-39137582D01*
X128173600Y-39137578D01*
X128273429Y-38923492D01*
X128273433Y-38923483D01*
X128334567Y-38695326D01*
X128334569Y-38695315D01*
X128355157Y-38460001D01*
X128355157Y-38459998D01*
X128334569Y-38224684D01*
X128334567Y-38224673D01*
X128273433Y-37996516D01*
X128273429Y-37996507D01*
X128173600Y-37782423D01*
X128173599Y-37782421D01*
X128114925Y-37698626D01*
X128114925Y-37698625D01*
X127483076Y-38330475D01*
X127459493Y-38250156D01*
X127381761Y-38129202D01*
X127273100Y-38035048D01*
X127142315Y-37975320D01*
X127132533Y-37973913D01*
X127761373Y-37345073D01*
X127684969Y-37291576D01*
X127641344Y-37236999D01*
X127634150Y-37167501D01*
X127665672Y-37105146D01*
X127684968Y-37088425D01*
X127761373Y-37034925D01*
X127132533Y-36406086D01*
X127142315Y-36404680D01*
X127273100Y-36344952D01*
X127381761Y-36250798D01*
X127459493Y-36129844D01*
X127483076Y-36049524D01*
X128114925Y-36681373D01*
X128114926Y-36681373D01*
X128173598Y-36597582D01*
X128173600Y-36597578D01*
X128273429Y-36383492D01*
X128273433Y-36383483D01*
X128334567Y-36155326D01*
X128334569Y-36155315D01*
X128355157Y-35920001D01*
X128355157Y-35919998D01*
X128334569Y-35684684D01*
X128334567Y-35684673D01*
X128273433Y-35456516D01*
X128273429Y-35456507D01*
X128173600Y-35242423D01*
X128173599Y-35242421D01*
X128114925Y-35158626D01*
X128114925Y-35158625D01*
X127483076Y-35790475D01*
X127459493Y-35710156D01*
X127381761Y-35589202D01*
X127273100Y-35495048D01*
X127142315Y-35435320D01*
X127132533Y-35433913D01*
X127761373Y-34805073D01*
X127684969Y-34751576D01*
X127641344Y-34696999D01*
X127634150Y-34627501D01*
X127665672Y-34565146D01*
X127684968Y-34548425D01*
X127761373Y-34494925D01*
X127132533Y-33866086D01*
X127142315Y-33864680D01*
X127273100Y-33804952D01*
X127381761Y-33710798D01*
X127459493Y-33589844D01*
X127483076Y-33509524D01*
X128114925Y-34141373D01*
X128114926Y-34141373D01*
X128173598Y-34057582D01*
X128173600Y-34057578D01*
X128273429Y-33843492D01*
X128273433Y-33843483D01*
X128334567Y-33615326D01*
X128334569Y-33615315D01*
X128355157Y-33380001D01*
X128355157Y-33379998D01*
X128334569Y-33144684D01*
X128334567Y-33144673D01*
X128273433Y-32916516D01*
X128273429Y-32916507D01*
X128173600Y-32702423D01*
X128173599Y-32702421D01*
X128114925Y-32618626D01*
X128114925Y-32618625D01*
X127483076Y-33250475D01*
X127459493Y-33170156D01*
X127381761Y-33049202D01*
X127273100Y-32955048D01*
X127142315Y-32895320D01*
X127132532Y-32893913D01*
X127765605Y-32260841D01*
X127776166Y-32208295D01*
X127824781Y-32158112D01*
X127846923Y-32148282D01*
X127919119Y-32124358D01*
X127919124Y-32124356D01*
X128068345Y-32032315D01*
X128192315Y-31908345D01*
X128284356Y-31759124D01*
X128284358Y-31759119D01*
X128339505Y-31592697D01*
X128339506Y-31592690D01*
X128349999Y-31489986D01*
X128350000Y-31489973D01*
X128350000Y-31090000D01*
X127433686Y-31090000D01*
X127459493Y-31049844D01*
X127500000Y-30911889D01*
X127500000Y-30768111D01*
X127459493Y-30630156D01*
X127433686Y-30590000D01*
X128349999Y-30590000D01*
X128349999Y-30190028D01*
X128349998Y-30190013D01*
X128339505Y-30087302D01*
X128284358Y-29920880D01*
X128284356Y-29920875D01*
X128192315Y-29771654D01*
X128068345Y-29647684D01*
X127919124Y-29555643D01*
X127919119Y-29555641D01*
X127752697Y-29500494D01*
X127752690Y-29500493D01*
X127649986Y-29490000D01*
X127250000Y-29490000D01*
X127250000Y-30404498D01*
X127142315Y-30355320D01*
X127035763Y-30340000D01*
X126964237Y-30340000D01*
X126857685Y-30355320D01*
X126749999Y-30404498D01*
X126749999Y-29490000D01*
X126350028Y-29490000D01*
X126350012Y-29490001D01*
X126247302Y-29500494D01*
X126080880Y-29555641D01*
X126080875Y-29555643D01*
X125931654Y-29647684D01*
X125807684Y-29771654D01*
X125715643Y-29920875D01*
X125715640Y-29920883D01*
X125712712Y-29929719D01*
X125672937Y-29987162D01*
X125608420Y-30013982D01*
X125539644Y-30001663D01*
X125502433Y-29972317D01*
X125502324Y-29972427D01*
X125501400Y-29971503D01*
X125500014Y-29970410D01*
X125498487Y-29968590D01*
X125331402Y-29801506D01*
X125331395Y-29801501D01*
X125137834Y-29665967D01*
X125137830Y-29665965D01*
X125098626Y-29647684D01*
X124923663Y-29566097D01*
X124923659Y-29566096D01*
X124923655Y-29566094D01*
X124695413Y-29504938D01*
X124695403Y-29504936D01*
X124460001Y-29484341D01*
X124459999Y-29484341D01*
X124224596Y-29504936D01*
X124224586Y-29504938D01*
X123996344Y-29566094D01*
X123996335Y-29566098D01*
X123782171Y-29665964D01*
X123782169Y-29665965D01*
X123588597Y-29801505D01*
X123421505Y-29968597D01*
X123285965Y-30162169D01*
X123285964Y-30162171D01*
X123186098Y-30376335D01*
X123186094Y-30376344D01*
X123124938Y-30604586D01*
X123124936Y-30604596D01*
X123104341Y-30839999D01*
X123104341Y-30840000D01*
X123124936Y-31075403D01*
X123124938Y-31075413D01*
X123186094Y-31303655D01*
X123186096Y-31303659D01*
X123186097Y-31303663D01*
X123272975Y-31489973D01*
X123285965Y-31517830D01*
X123285967Y-31517834D01*
X123421501Y-31711395D01*
X123421506Y-31711402D01*
X123588597Y-31878493D01*
X123588603Y-31878498D01*
X123774158Y-32008425D01*
X123817783Y-32063002D01*
X123824977Y-32132500D01*
X123793454Y-32194855D01*
X123774158Y-32211575D01*
X123588597Y-32341505D01*
X123421505Y-32508597D01*
X123285965Y-32702169D01*
X123285964Y-32702171D01*
X123186098Y-32916335D01*
X123186094Y-32916344D01*
X123124938Y-33144586D01*
X123124936Y-33144596D01*
X123104341Y-33379999D01*
X123104341Y-33380000D01*
X123124936Y-33615403D01*
X123124938Y-33615413D01*
X123186094Y-33843655D01*
X123186096Y-33843659D01*
X123186097Y-33843663D01*
X123265800Y-34014586D01*
X123285965Y-34057830D01*
X123285967Y-34057834D01*
X123344462Y-34141373D01*
X123421501Y-34251396D01*
X123421506Y-34251402D01*
X123588597Y-34418493D01*
X123588603Y-34418498D01*
X123774158Y-34548425D01*
X123817783Y-34603002D01*
X123824977Y-34672500D01*
X123793454Y-34734855D01*
X123774158Y-34751575D01*
X123588597Y-34881505D01*
X123421505Y-35048597D01*
X123285965Y-35242169D01*
X123285964Y-35242171D01*
X123186098Y-35456335D01*
X123186094Y-35456344D01*
X123124938Y-35684586D01*
X123124936Y-35684596D01*
X123104341Y-35919999D01*
X123104341Y-35920000D01*
X123124936Y-36155403D01*
X123124938Y-36155413D01*
X123186094Y-36383655D01*
X123186096Y-36383659D01*
X123186097Y-36383663D01*
X123265800Y-36554586D01*
X123285965Y-36597830D01*
X123285967Y-36597834D01*
X123344462Y-36681373D01*
X123421501Y-36791396D01*
X123421506Y-36791402D01*
X123588597Y-36958493D01*
X123588603Y-36958498D01*
X123774158Y-37088425D01*
X123817783Y-37143002D01*
X123824977Y-37212500D01*
X123793454Y-37274855D01*
X123774158Y-37291575D01*
X123588597Y-37421505D01*
X123421505Y-37588597D01*
X123285965Y-37782169D01*
X123285964Y-37782171D01*
X123186098Y-37996335D01*
X123186094Y-37996344D01*
X123124938Y-38224586D01*
X123124936Y-38224596D01*
X123104341Y-38459999D01*
X123104341Y-38460000D01*
X123124936Y-38695403D01*
X123124938Y-38695413D01*
X123186094Y-38923655D01*
X123186096Y-38923659D01*
X123186097Y-38923663D01*
X123265800Y-39094586D01*
X123285965Y-39137830D01*
X123285967Y-39137834D01*
X123324127Y-39192331D01*
X123421501Y-39331396D01*
X123421506Y-39331402D01*
X123588597Y-39498493D01*
X123588603Y-39498498D01*
X123774158Y-39628425D01*
X123817783Y-39683002D01*
X123824977Y-39752500D01*
X123793454Y-39814855D01*
X123774158Y-39831575D01*
X123588597Y-39961505D01*
X123421505Y-40128597D01*
X123285965Y-40322169D01*
X123285964Y-40322171D01*
X123186098Y-40536335D01*
X123186094Y-40536344D01*
X123124938Y-40764586D01*
X123124936Y-40764596D01*
X123104341Y-40999999D01*
X123104341Y-41000000D01*
X94950000Y-41000000D01*
X94950000Y-28550000D01*
X94550584Y-28150584D01*
X97575795Y-28152791D01*
X108362303Y-28160663D01*
X108368998Y-28160668D01*
X108368998Y-28160667D01*
X108368999Y-28160668D01*
X108369000Y-28160668D01*
X108369013Y-28160667D01*
X110200000Y-28162004D01*
X110200000Y-24500000D01*
X110200000Y-24240068D01*
X110297685Y-24284680D01*
X110404237Y-24300000D01*
X110475763Y-24300000D01*
X110582315Y-24284680D01*
X110690000Y-24235501D01*
X110690000Y-25180633D01*
X110903483Y-25123433D01*
X110903492Y-25123429D01*
X111117577Y-25023600D01*
X111117579Y-25023599D01*
X111311073Y-24888113D01*
X111433133Y-24766053D01*
X111494456Y-24732568D01*
X111564148Y-24737552D01*
X111620082Y-24779423D01*
X111636997Y-24810401D01*
X111686202Y-24942328D01*
X111686206Y-24942335D01*
X111772452Y-25057544D01*
X111772455Y-25057547D01*
X111887664Y-25143793D01*
X111887671Y-25143797D01*
X112022517Y-25194091D01*
X112022516Y-25194091D01*
X112029444Y-25194835D01*
X112082127Y-25200500D01*
X113877872Y-25200499D01*
X113937483Y-25194091D01*
X114072331Y-25143796D01*
X114187546Y-25057546D01*
X114273796Y-24942331D01*
X114324091Y-24807483D01*
X114330500Y-24747873D01*
X114330499Y-21252128D01*
X114324091Y-21192517D01*
X114324090Y-21192514D01*
X114314885Y-21167832D01*
X114309901Y-21098140D01*
X114343387Y-21036818D01*
X114404711Y-21003333D01*
X114431067Y-21000500D01*
X127487007Y-21000500D01*
X127554046Y-21020185D01*
G37*
G04 #@! TD.AperFunction*
G04 #@! TA.AperFunction,Conductor*
G36*
X103227359Y-84681955D02*
G01*
X103169835Y-84794852D01*
X103150014Y-84920000D01*
X103169835Y-85045148D01*
X103227359Y-85158045D01*
X103239314Y-85170000D01*
X101330686Y-85170000D01*
X101342641Y-85158045D01*
X101400165Y-85045148D01*
X101419986Y-84920000D01*
X101400165Y-84794852D01*
X101342641Y-84681955D01*
X101330686Y-84670000D01*
X103239314Y-84670000D01*
X103227359Y-84681955D01*
G37*
G04 #@! TD.AperFunction*
G04 #@! TA.AperFunction,Conductor*
G36*
X106344999Y-78603303D02*
G01*
X106345621Y-78604155D01*
X106349780Y-78673901D01*
X106316615Y-78733791D01*
X104912228Y-80138181D01*
X104850905Y-80171666D01*
X104824547Y-80174500D01*
X99324452Y-80174500D01*
X99257413Y-80154815D01*
X99211658Y-80102011D01*
X99201714Y-80032853D01*
X99230739Y-79969297D01*
X99236771Y-79962819D01*
X99763255Y-79436335D01*
X100600179Y-78599410D01*
X100661500Y-78565927D01*
X100719947Y-78567317D01*
X100788308Y-78585635D01*
X100945780Y-78599412D01*
X101014998Y-78605468D01*
X101015000Y-78605468D01*
X101015002Y-78605468D01*
X101084220Y-78599412D01*
X101241692Y-78585635D01*
X101461496Y-78526739D01*
X101667734Y-78430568D01*
X101854139Y-78300047D01*
X102015047Y-78139139D01*
X102145568Y-77952734D01*
X102172618Y-77894724D01*
X102218790Y-77842285D01*
X102285983Y-77823133D01*
X102352865Y-77843348D01*
X102397382Y-77894725D01*
X102424429Y-77952728D01*
X102424432Y-77952734D01*
X102554954Y-78139141D01*
X102715858Y-78300045D01*
X102715861Y-78300047D01*
X102902266Y-78430568D01*
X103108504Y-78526739D01*
X103328308Y-78585635D01*
X103485780Y-78599412D01*
X103554998Y-78605468D01*
X103555000Y-78605468D01*
X103555002Y-78605468D01*
X103624220Y-78599412D01*
X103781692Y-78585635D01*
X104001496Y-78526739D01*
X104207734Y-78430568D01*
X104394139Y-78300047D01*
X104555047Y-78139139D01*
X104685568Y-77952734D01*
X104712895Y-77894129D01*
X104759064Y-77841695D01*
X104826257Y-77822542D01*
X104893139Y-77842757D01*
X104937657Y-77894133D01*
X104964865Y-77952482D01*
X105095342Y-78138820D01*
X105256179Y-78299657D01*
X105442517Y-78430134D01*
X105648673Y-78526265D01*
X105648682Y-78526269D01*
X105844999Y-78578872D01*
X105845000Y-78578871D01*
X105845000Y-77615686D01*
X105856955Y-77627641D01*
X105969852Y-77685165D01*
X106063519Y-77700000D01*
X106126481Y-77700000D01*
X106220148Y-77685165D01*
X106333045Y-77627641D01*
X106344999Y-77615686D01*
X106344999Y-78603303D01*
G37*
G04 #@! TD.AperFunction*
G04 #@! TA.AperFunction,Conductor*
G36*
X110633039Y-22769685D02*
G01*
X110678794Y-22822489D01*
X110690000Y-22874000D01*
X110690000Y-23364498D01*
X110582315Y-23315320D01*
X110475763Y-23300000D01*
X110404237Y-23300000D01*
X110297685Y-23315320D01*
X110200000Y-23359931D01*
X110200000Y-22839944D01*
X110209685Y-22806961D01*
X110262489Y-22761206D01*
X110314000Y-22750000D01*
X110566000Y-22750000D01*
X110633039Y-22769685D01*
G37*
G04 #@! TD.AperFunction*
M02*
