%TF.GenerationSoftware,KiCad,Pcbnew,7.0.5*%
%TF.CreationDate,2024-02-16T17:16:37-05:00*%
%TF.ProjectId,SoyuzControlBoard,536f7975-7a43-46f6-9e74-726f6c426f61,rev?*%
%TF.SameCoordinates,Original*%
%TF.FileFunction,Drillmap*%
%TF.FilePolarity,Positive*%
%FSLAX45Y45*%
G04 Gerber Fmt 4.5, Leading zero omitted, Abs format (unit mm)*
G04 Created by KiCad (PCBNEW 7.0.5) date 2024-02-16 17:16:37*
%MOMM*%
%LPD*%
G01*
G04 APERTURE LIST*
%ADD10C,0.100000*%
%ADD11C,0.200000*%
%ADD12C,0.320000*%
G04 APERTURE END LIST*
D10*
X6960000Y-2000000D02*
X6410000Y-2550000D01*
X13200000Y-2000000D02*
X6960000Y-2000000D01*
X13200000Y-2000000D02*
X13200000Y-8880000D01*
X6410000Y-2550000D02*
X6410000Y-8330000D01*
X6960000Y-8880000D02*
X13200000Y-8880000D01*
X6960000Y-8880000D02*
X6410000Y-8330000D01*
D11*
D12*
X6990000Y-2080000D02*
X7310000Y-2400000D01*
X7310000Y-2080000D02*
X6990000Y-2400000D01*
X6990000Y-8480000D02*
X7310000Y-8800000D01*
X7310000Y-8480000D02*
X6990000Y-8800000D01*
X12740000Y-2080000D02*
X13060000Y-2400000D01*
X13060000Y-2080000D02*
X12740000Y-2400000D01*
X12740000Y-8480000D02*
X13060000Y-8800000D01*
X13060000Y-8480000D02*
X12740000Y-8800000D01*
D11*
X6665777Y-9196484D02*
X6665777Y-8996484D01*
X6665777Y-8996484D02*
X6713396Y-8996484D01*
X6713396Y-8996484D02*
X6741967Y-9006008D01*
X6741967Y-9006008D02*
X6761015Y-9025055D01*
X6761015Y-9025055D02*
X6770539Y-9044103D01*
X6770539Y-9044103D02*
X6780062Y-9082198D01*
X6780062Y-9082198D02*
X6780062Y-9110770D01*
X6780062Y-9110770D02*
X6770539Y-9148865D01*
X6770539Y-9148865D02*
X6761015Y-9167912D01*
X6761015Y-9167912D02*
X6741967Y-9186960D01*
X6741967Y-9186960D02*
X6713396Y-9196484D01*
X6713396Y-9196484D02*
X6665777Y-9196484D01*
X6865777Y-9196484D02*
X6865777Y-9063150D01*
X6865777Y-9101246D02*
X6875301Y-9082198D01*
X6875301Y-9082198D02*
X6884824Y-9072674D01*
X6884824Y-9072674D02*
X6903872Y-9063150D01*
X6903872Y-9063150D02*
X6922920Y-9063150D01*
X6989586Y-9196484D02*
X6989586Y-9063150D01*
X6989586Y-8996484D02*
X6980062Y-9006008D01*
X6980062Y-9006008D02*
X6989586Y-9015531D01*
X6989586Y-9015531D02*
X6999110Y-9006008D01*
X6999110Y-9006008D02*
X6989586Y-8996484D01*
X6989586Y-8996484D02*
X6989586Y-9015531D01*
X7113396Y-9196484D02*
X7094348Y-9186960D01*
X7094348Y-9186960D02*
X7084824Y-9167912D01*
X7084824Y-9167912D02*
X7084824Y-8996484D01*
X7218158Y-9196484D02*
X7199110Y-9186960D01*
X7199110Y-9186960D02*
X7189586Y-9167912D01*
X7189586Y-9167912D02*
X7189586Y-8996484D01*
X7446729Y-9196484D02*
X7446729Y-8996484D01*
X7446729Y-8996484D02*
X7513396Y-9139341D01*
X7513396Y-9139341D02*
X7580062Y-8996484D01*
X7580062Y-8996484D02*
X7580062Y-9196484D01*
X7761015Y-9196484D02*
X7761015Y-9091722D01*
X7761015Y-9091722D02*
X7751491Y-9072674D01*
X7751491Y-9072674D02*
X7732443Y-9063150D01*
X7732443Y-9063150D02*
X7694348Y-9063150D01*
X7694348Y-9063150D02*
X7675301Y-9072674D01*
X7761015Y-9186960D02*
X7741967Y-9196484D01*
X7741967Y-9196484D02*
X7694348Y-9196484D01*
X7694348Y-9196484D02*
X7675301Y-9186960D01*
X7675301Y-9186960D02*
X7665777Y-9167912D01*
X7665777Y-9167912D02*
X7665777Y-9148865D01*
X7665777Y-9148865D02*
X7675301Y-9129817D01*
X7675301Y-9129817D02*
X7694348Y-9120293D01*
X7694348Y-9120293D02*
X7741967Y-9120293D01*
X7741967Y-9120293D02*
X7761015Y-9110770D01*
X7856253Y-9063150D02*
X7856253Y-9263150D01*
X7856253Y-9072674D02*
X7875301Y-9063150D01*
X7875301Y-9063150D02*
X7913396Y-9063150D01*
X7913396Y-9063150D02*
X7932443Y-9072674D01*
X7932443Y-9072674D02*
X7941967Y-9082198D01*
X7941967Y-9082198D02*
X7951491Y-9101246D01*
X7951491Y-9101246D02*
X7951491Y-9158389D01*
X7951491Y-9158389D02*
X7941967Y-9177436D01*
X7941967Y-9177436D02*
X7932443Y-9186960D01*
X7932443Y-9186960D02*
X7913396Y-9196484D01*
X7913396Y-9196484D02*
X7875301Y-9196484D01*
X7875301Y-9196484D02*
X7856253Y-9186960D01*
X8037205Y-9177436D02*
X8046729Y-9186960D01*
X8046729Y-9186960D02*
X8037205Y-9196484D01*
X8037205Y-9196484D02*
X8027682Y-9186960D01*
X8027682Y-9186960D02*
X8037205Y-9177436D01*
X8037205Y-9177436D02*
X8037205Y-9196484D01*
X8037205Y-9072674D02*
X8046729Y-9082198D01*
X8046729Y-9082198D02*
X8037205Y-9091722D01*
X8037205Y-9091722D02*
X8027682Y-9082198D01*
X8027682Y-9082198D02*
X8037205Y-9072674D01*
X8037205Y-9072674D02*
X8037205Y-9091722D01*
X6205000Y-9425000D02*
X6405000Y-9625000D01*
X6405000Y-9425000D02*
X6205000Y-9625000D01*
X6646729Y-9416484D02*
X6770539Y-9416484D01*
X6770539Y-9416484D02*
X6703872Y-9492674D01*
X6703872Y-9492674D02*
X6732443Y-9492674D01*
X6732443Y-9492674D02*
X6751491Y-9502198D01*
X6751491Y-9502198D02*
X6761015Y-9511722D01*
X6761015Y-9511722D02*
X6770539Y-9530770D01*
X6770539Y-9530770D02*
X6770539Y-9578389D01*
X6770539Y-9578389D02*
X6761015Y-9597436D01*
X6761015Y-9597436D02*
X6751491Y-9606960D01*
X6751491Y-9606960D02*
X6732443Y-9616484D01*
X6732443Y-9616484D02*
X6675301Y-9616484D01*
X6675301Y-9616484D02*
X6656253Y-9606960D01*
X6656253Y-9606960D02*
X6646729Y-9597436D01*
X6856253Y-9597436D02*
X6865777Y-9606960D01*
X6865777Y-9606960D02*
X6856253Y-9616484D01*
X6856253Y-9616484D02*
X6846729Y-9606960D01*
X6846729Y-9606960D02*
X6856253Y-9597436D01*
X6856253Y-9597436D02*
X6856253Y-9616484D01*
X6941967Y-9435531D02*
X6951491Y-9426008D01*
X6951491Y-9426008D02*
X6970539Y-9416484D01*
X6970539Y-9416484D02*
X7018158Y-9416484D01*
X7018158Y-9416484D02*
X7037205Y-9426008D01*
X7037205Y-9426008D02*
X7046729Y-9435531D01*
X7046729Y-9435531D02*
X7056253Y-9454579D01*
X7056253Y-9454579D02*
X7056253Y-9473627D01*
X7056253Y-9473627D02*
X7046729Y-9502198D01*
X7046729Y-9502198D02*
X6932443Y-9616484D01*
X6932443Y-9616484D02*
X7056253Y-9616484D01*
X7180062Y-9416484D02*
X7199110Y-9416484D01*
X7199110Y-9416484D02*
X7218158Y-9426008D01*
X7218158Y-9426008D02*
X7227682Y-9435531D01*
X7227682Y-9435531D02*
X7237205Y-9454579D01*
X7237205Y-9454579D02*
X7246729Y-9492674D01*
X7246729Y-9492674D02*
X7246729Y-9540293D01*
X7246729Y-9540293D02*
X7237205Y-9578389D01*
X7237205Y-9578389D02*
X7227682Y-9597436D01*
X7227682Y-9597436D02*
X7218158Y-9606960D01*
X7218158Y-9606960D02*
X7199110Y-9616484D01*
X7199110Y-9616484D02*
X7180062Y-9616484D01*
X7180062Y-9616484D02*
X7161015Y-9606960D01*
X7161015Y-9606960D02*
X7151491Y-9597436D01*
X7151491Y-9597436D02*
X7141967Y-9578389D01*
X7141967Y-9578389D02*
X7132443Y-9540293D01*
X7132443Y-9540293D02*
X7132443Y-9492674D01*
X7132443Y-9492674D02*
X7141967Y-9454579D01*
X7141967Y-9454579D02*
X7151491Y-9435531D01*
X7151491Y-9435531D02*
X7161015Y-9426008D01*
X7161015Y-9426008D02*
X7180062Y-9416484D01*
X7370539Y-9416484D02*
X7389586Y-9416484D01*
X7389586Y-9416484D02*
X7408634Y-9426008D01*
X7408634Y-9426008D02*
X7418158Y-9435531D01*
X7418158Y-9435531D02*
X7427682Y-9454579D01*
X7427682Y-9454579D02*
X7437205Y-9492674D01*
X7437205Y-9492674D02*
X7437205Y-9540293D01*
X7437205Y-9540293D02*
X7427682Y-9578389D01*
X7427682Y-9578389D02*
X7418158Y-9597436D01*
X7418158Y-9597436D02*
X7408634Y-9606960D01*
X7408634Y-9606960D02*
X7389586Y-9616484D01*
X7389586Y-9616484D02*
X7370539Y-9616484D01*
X7370539Y-9616484D02*
X7351491Y-9606960D01*
X7351491Y-9606960D02*
X7341967Y-9597436D01*
X7341967Y-9597436D02*
X7332443Y-9578389D01*
X7332443Y-9578389D02*
X7322920Y-9540293D01*
X7322920Y-9540293D02*
X7322920Y-9492674D01*
X7322920Y-9492674D02*
X7332443Y-9454579D01*
X7332443Y-9454579D02*
X7341967Y-9435531D01*
X7341967Y-9435531D02*
X7351491Y-9426008D01*
X7351491Y-9426008D02*
X7370539Y-9416484D01*
X7522920Y-9616484D02*
X7522920Y-9483150D01*
X7522920Y-9502198D02*
X7532443Y-9492674D01*
X7532443Y-9492674D02*
X7551491Y-9483150D01*
X7551491Y-9483150D02*
X7580063Y-9483150D01*
X7580063Y-9483150D02*
X7599110Y-9492674D01*
X7599110Y-9492674D02*
X7608634Y-9511722D01*
X7608634Y-9511722D02*
X7608634Y-9616484D01*
X7608634Y-9511722D02*
X7618158Y-9492674D01*
X7618158Y-9492674D02*
X7637205Y-9483150D01*
X7637205Y-9483150D02*
X7665777Y-9483150D01*
X7665777Y-9483150D02*
X7684824Y-9492674D01*
X7684824Y-9492674D02*
X7694348Y-9511722D01*
X7694348Y-9511722D02*
X7694348Y-9616484D01*
X7789586Y-9616484D02*
X7789586Y-9483150D01*
X7789586Y-9502198D02*
X7799110Y-9492674D01*
X7799110Y-9492674D02*
X7818158Y-9483150D01*
X7818158Y-9483150D02*
X7846729Y-9483150D01*
X7846729Y-9483150D02*
X7865777Y-9492674D01*
X7865777Y-9492674D02*
X7875301Y-9511722D01*
X7875301Y-9511722D02*
X7875301Y-9616484D01*
X7875301Y-9511722D02*
X7884824Y-9492674D01*
X7884824Y-9492674D02*
X7903872Y-9483150D01*
X7903872Y-9483150D02*
X7932443Y-9483150D01*
X7932443Y-9483150D02*
X7951491Y-9492674D01*
X7951491Y-9492674D02*
X7961015Y-9511722D01*
X7961015Y-9511722D02*
X7961015Y-9616484D01*
X8351491Y-9406960D02*
X8180063Y-9664103D01*
X8608634Y-9416484D02*
X8627682Y-9416484D01*
X8627682Y-9416484D02*
X8646729Y-9426008D01*
X8646729Y-9426008D02*
X8656253Y-9435531D01*
X8656253Y-9435531D02*
X8665777Y-9454579D01*
X8665777Y-9454579D02*
X8675301Y-9492674D01*
X8675301Y-9492674D02*
X8675301Y-9540293D01*
X8675301Y-9540293D02*
X8665777Y-9578389D01*
X8665777Y-9578389D02*
X8656253Y-9597436D01*
X8656253Y-9597436D02*
X8646729Y-9606960D01*
X8646729Y-9606960D02*
X8627682Y-9616484D01*
X8627682Y-9616484D02*
X8608634Y-9616484D01*
X8608634Y-9616484D02*
X8589587Y-9606960D01*
X8589587Y-9606960D02*
X8580063Y-9597436D01*
X8580063Y-9597436D02*
X8570539Y-9578389D01*
X8570539Y-9578389D02*
X8561015Y-9540293D01*
X8561015Y-9540293D02*
X8561015Y-9492674D01*
X8561015Y-9492674D02*
X8570539Y-9454579D01*
X8570539Y-9454579D02*
X8580063Y-9435531D01*
X8580063Y-9435531D02*
X8589587Y-9426008D01*
X8589587Y-9426008D02*
X8608634Y-9416484D01*
X8761015Y-9597436D02*
X8770539Y-9606960D01*
X8770539Y-9606960D02*
X8761015Y-9616484D01*
X8761015Y-9616484D02*
X8751491Y-9606960D01*
X8751491Y-9606960D02*
X8761015Y-9597436D01*
X8761015Y-9597436D02*
X8761015Y-9616484D01*
X8961015Y-9616484D02*
X8846729Y-9616484D01*
X8903872Y-9616484D02*
X8903872Y-9416484D01*
X8903872Y-9416484D02*
X8884825Y-9445055D01*
X8884825Y-9445055D02*
X8865777Y-9464103D01*
X8865777Y-9464103D02*
X8846729Y-9473627D01*
X9037206Y-9435531D02*
X9046729Y-9426008D01*
X9046729Y-9426008D02*
X9065777Y-9416484D01*
X9065777Y-9416484D02*
X9113396Y-9416484D01*
X9113396Y-9416484D02*
X9132444Y-9426008D01*
X9132444Y-9426008D02*
X9141968Y-9435531D01*
X9141968Y-9435531D02*
X9151491Y-9454579D01*
X9151491Y-9454579D02*
X9151491Y-9473627D01*
X9151491Y-9473627D02*
X9141968Y-9502198D01*
X9141968Y-9502198D02*
X9027682Y-9616484D01*
X9027682Y-9616484D02*
X9151491Y-9616484D01*
X9322920Y-9416484D02*
X9284825Y-9416484D01*
X9284825Y-9416484D02*
X9265777Y-9426008D01*
X9265777Y-9426008D02*
X9256253Y-9435531D01*
X9256253Y-9435531D02*
X9237206Y-9464103D01*
X9237206Y-9464103D02*
X9227682Y-9502198D01*
X9227682Y-9502198D02*
X9227682Y-9578389D01*
X9227682Y-9578389D02*
X9237206Y-9597436D01*
X9237206Y-9597436D02*
X9246729Y-9606960D01*
X9246729Y-9606960D02*
X9265777Y-9616484D01*
X9265777Y-9616484D02*
X9303872Y-9616484D01*
X9303872Y-9616484D02*
X9322920Y-9606960D01*
X9322920Y-9606960D02*
X9332444Y-9597436D01*
X9332444Y-9597436D02*
X9341968Y-9578389D01*
X9341968Y-9578389D02*
X9341968Y-9530770D01*
X9341968Y-9530770D02*
X9332444Y-9511722D01*
X9332444Y-9511722D02*
X9322920Y-9502198D01*
X9322920Y-9502198D02*
X9303872Y-9492674D01*
X9303872Y-9492674D02*
X9265777Y-9492674D01*
X9265777Y-9492674D02*
X9246729Y-9502198D01*
X9246729Y-9502198D02*
X9237206Y-9511722D01*
X9237206Y-9511722D02*
X9227682Y-9530770D01*
X9465777Y-9416484D02*
X9484825Y-9416484D01*
X9484825Y-9416484D02*
X9503872Y-9426008D01*
X9503872Y-9426008D02*
X9513396Y-9435531D01*
X9513396Y-9435531D02*
X9522920Y-9454579D01*
X9522920Y-9454579D02*
X9532444Y-9492674D01*
X9532444Y-9492674D02*
X9532444Y-9540293D01*
X9532444Y-9540293D02*
X9522920Y-9578389D01*
X9522920Y-9578389D02*
X9513396Y-9597436D01*
X9513396Y-9597436D02*
X9503872Y-9606960D01*
X9503872Y-9606960D02*
X9484825Y-9616484D01*
X9484825Y-9616484D02*
X9465777Y-9616484D01*
X9465777Y-9616484D02*
X9446729Y-9606960D01*
X9446729Y-9606960D02*
X9437206Y-9597436D01*
X9437206Y-9597436D02*
X9427682Y-9578389D01*
X9427682Y-9578389D02*
X9418158Y-9540293D01*
X9418158Y-9540293D02*
X9418158Y-9492674D01*
X9418158Y-9492674D02*
X9427682Y-9454579D01*
X9427682Y-9454579D02*
X9437206Y-9435531D01*
X9437206Y-9435531D02*
X9446729Y-9426008D01*
X9446729Y-9426008D02*
X9465777Y-9416484D01*
X9608634Y-9416484D02*
X9608634Y-9454579D01*
X9684825Y-9416484D02*
X9684825Y-9454579D01*
X9980063Y-9692674D02*
X9970539Y-9683150D01*
X9970539Y-9683150D02*
X9951491Y-9654579D01*
X9951491Y-9654579D02*
X9941968Y-9635531D01*
X9941968Y-9635531D02*
X9932444Y-9606960D01*
X9932444Y-9606960D02*
X9922920Y-9559341D01*
X9922920Y-9559341D02*
X9922920Y-9521246D01*
X9922920Y-9521246D02*
X9932444Y-9473627D01*
X9932444Y-9473627D02*
X9941968Y-9445055D01*
X9941968Y-9445055D02*
X9951491Y-9426008D01*
X9951491Y-9426008D02*
X9970539Y-9397436D01*
X9970539Y-9397436D02*
X9980063Y-9387912D01*
X10141968Y-9483150D02*
X10141968Y-9616484D01*
X10094349Y-9406960D02*
X10046730Y-9549817D01*
X10046730Y-9549817D02*
X10170539Y-9549817D01*
X10399111Y-9616484D02*
X10399111Y-9416484D01*
X10484825Y-9616484D02*
X10484825Y-9511722D01*
X10484825Y-9511722D02*
X10475301Y-9492674D01*
X10475301Y-9492674D02*
X10456253Y-9483150D01*
X10456253Y-9483150D02*
X10427682Y-9483150D01*
X10427682Y-9483150D02*
X10408634Y-9492674D01*
X10408634Y-9492674D02*
X10399111Y-9502198D01*
X10608634Y-9616484D02*
X10589587Y-9606960D01*
X10589587Y-9606960D02*
X10580063Y-9597436D01*
X10580063Y-9597436D02*
X10570539Y-9578389D01*
X10570539Y-9578389D02*
X10570539Y-9521246D01*
X10570539Y-9521246D02*
X10580063Y-9502198D01*
X10580063Y-9502198D02*
X10589587Y-9492674D01*
X10589587Y-9492674D02*
X10608634Y-9483150D01*
X10608634Y-9483150D02*
X10637206Y-9483150D01*
X10637206Y-9483150D02*
X10656253Y-9492674D01*
X10656253Y-9492674D02*
X10665777Y-9502198D01*
X10665777Y-9502198D02*
X10675301Y-9521246D01*
X10675301Y-9521246D02*
X10675301Y-9578389D01*
X10675301Y-9578389D02*
X10665777Y-9597436D01*
X10665777Y-9597436D02*
X10656253Y-9606960D01*
X10656253Y-9606960D02*
X10637206Y-9616484D01*
X10637206Y-9616484D02*
X10608634Y-9616484D01*
X10789587Y-9616484D02*
X10770539Y-9606960D01*
X10770539Y-9606960D02*
X10761015Y-9587912D01*
X10761015Y-9587912D02*
X10761015Y-9416484D01*
X10941968Y-9606960D02*
X10922920Y-9616484D01*
X10922920Y-9616484D02*
X10884825Y-9616484D01*
X10884825Y-9616484D02*
X10865777Y-9606960D01*
X10865777Y-9606960D02*
X10856253Y-9587912D01*
X10856253Y-9587912D02*
X10856253Y-9511722D01*
X10856253Y-9511722D02*
X10865777Y-9492674D01*
X10865777Y-9492674D02*
X10884825Y-9483150D01*
X10884825Y-9483150D02*
X10922920Y-9483150D01*
X10922920Y-9483150D02*
X10941968Y-9492674D01*
X10941968Y-9492674D02*
X10951492Y-9511722D01*
X10951492Y-9511722D02*
X10951492Y-9530770D01*
X10951492Y-9530770D02*
X10856253Y-9549817D01*
X11027682Y-9606960D02*
X11046730Y-9616484D01*
X11046730Y-9616484D02*
X11084825Y-9616484D01*
X11084825Y-9616484D02*
X11103873Y-9606960D01*
X11103873Y-9606960D02*
X11113396Y-9587912D01*
X11113396Y-9587912D02*
X11113396Y-9578389D01*
X11113396Y-9578389D02*
X11103873Y-9559341D01*
X11103873Y-9559341D02*
X11084825Y-9549817D01*
X11084825Y-9549817D02*
X11056253Y-9549817D01*
X11056253Y-9549817D02*
X11037206Y-9540293D01*
X11037206Y-9540293D02*
X11027682Y-9521246D01*
X11027682Y-9521246D02*
X11027682Y-9511722D01*
X11027682Y-9511722D02*
X11037206Y-9492674D01*
X11037206Y-9492674D02*
X11056253Y-9483150D01*
X11056253Y-9483150D02*
X11084825Y-9483150D01*
X11084825Y-9483150D02*
X11103873Y-9492674D01*
X11180063Y-9692674D02*
X11189587Y-9683150D01*
X11189587Y-9683150D02*
X11208634Y-9654579D01*
X11208634Y-9654579D02*
X11218158Y-9635531D01*
X11218158Y-9635531D02*
X11227682Y-9606960D01*
X11227682Y-9606960D02*
X11237206Y-9559341D01*
X11237206Y-9559341D02*
X11237206Y-9521246D01*
X11237206Y-9521246D02*
X11227682Y-9473627D01*
X11227682Y-9473627D02*
X11218158Y-9445055D01*
X11218158Y-9445055D02*
X11208634Y-9426008D01*
X11208634Y-9426008D02*
X11189587Y-9397436D01*
X11189587Y-9397436D02*
X11180063Y-9387912D01*
X11541968Y-9692674D02*
X11532444Y-9683150D01*
X11532444Y-9683150D02*
X11513396Y-9654579D01*
X11513396Y-9654579D02*
X11503872Y-9635531D01*
X11503872Y-9635531D02*
X11494349Y-9606960D01*
X11494349Y-9606960D02*
X11484825Y-9559341D01*
X11484825Y-9559341D02*
X11484825Y-9521246D01*
X11484825Y-9521246D02*
X11494349Y-9473627D01*
X11494349Y-9473627D02*
X11503872Y-9445055D01*
X11503872Y-9445055D02*
X11513396Y-9426008D01*
X11513396Y-9426008D02*
X11532444Y-9397436D01*
X11532444Y-9397436D02*
X11541968Y-9387912D01*
X11618158Y-9483150D02*
X11618158Y-9616484D01*
X11618158Y-9502198D02*
X11627682Y-9492674D01*
X11627682Y-9492674D02*
X11646730Y-9483150D01*
X11646730Y-9483150D02*
X11675301Y-9483150D01*
X11675301Y-9483150D02*
X11694349Y-9492674D01*
X11694349Y-9492674D02*
X11703872Y-9511722D01*
X11703872Y-9511722D02*
X11703872Y-9616484D01*
X11827682Y-9616484D02*
X11808634Y-9606960D01*
X11808634Y-9606960D02*
X11799111Y-9597436D01*
X11799111Y-9597436D02*
X11789587Y-9578389D01*
X11789587Y-9578389D02*
X11789587Y-9521246D01*
X11789587Y-9521246D02*
X11799111Y-9502198D01*
X11799111Y-9502198D02*
X11808634Y-9492674D01*
X11808634Y-9492674D02*
X11827682Y-9483150D01*
X11827682Y-9483150D02*
X11856253Y-9483150D01*
X11856253Y-9483150D02*
X11875301Y-9492674D01*
X11875301Y-9492674D02*
X11884825Y-9502198D01*
X11884825Y-9502198D02*
X11894349Y-9521246D01*
X11894349Y-9521246D02*
X11894349Y-9578389D01*
X11894349Y-9578389D02*
X11884825Y-9597436D01*
X11884825Y-9597436D02*
X11875301Y-9606960D01*
X11875301Y-9606960D02*
X11856253Y-9616484D01*
X11856253Y-9616484D02*
X11827682Y-9616484D01*
X11951492Y-9483150D02*
X12027682Y-9483150D01*
X11980063Y-9416484D02*
X11980063Y-9587912D01*
X11980063Y-9587912D02*
X11989587Y-9606960D01*
X11989587Y-9606960D02*
X12008634Y-9616484D01*
X12008634Y-9616484D02*
X12027682Y-9616484D01*
X12246730Y-9483150D02*
X12246730Y-9683150D01*
X12246730Y-9492674D02*
X12265777Y-9483150D01*
X12265777Y-9483150D02*
X12303873Y-9483150D01*
X12303873Y-9483150D02*
X12322920Y-9492674D01*
X12322920Y-9492674D02*
X12332444Y-9502198D01*
X12332444Y-9502198D02*
X12341968Y-9521246D01*
X12341968Y-9521246D02*
X12341968Y-9578389D01*
X12341968Y-9578389D02*
X12332444Y-9597436D01*
X12332444Y-9597436D02*
X12322920Y-9606960D01*
X12322920Y-9606960D02*
X12303873Y-9616484D01*
X12303873Y-9616484D02*
X12265777Y-9616484D01*
X12265777Y-9616484D02*
X12246730Y-9606960D01*
X12456253Y-9616484D02*
X12437206Y-9606960D01*
X12437206Y-9606960D02*
X12427682Y-9587912D01*
X12427682Y-9587912D02*
X12427682Y-9416484D01*
X12618158Y-9616484D02*
X12618158Y-9511722D01*
X12618158Y-9511722D02*
X12608634Y-9492674D01*
X12608634Y-9492674D02*
X12589587Y-9483150D01*
X12589587Y-9483150D02*
X12551492Y-9483150D01*
X12551492Y-9483150D02*
X12532444Y-9492674D01*
X12618158Y-9606960D02*
X12599111Y-9616484D01*
X12599111Y-9616484D02*
X12551492Y-9616484D01*
X12551492Y-9616484D02*
X12532444Y-9606960D01*
X12532444Y-9606960D02*
X12522920Y-9587912D01*
X12522920Y-9587912D02*
X12522920Y-9568865D01*
X12522920Y-9568865D02*
X12532444Y-9549817D01*
X12532444Y-9549817D02*
X12551492Y-9540293D01*
X12551492Y-9540293D02*
X12599111Y-9540293D01*
X12599111Y-9540293D02*
X12618158Y-9530770D01*
X12684825Y-9483150D02*
X12761015Y-9483150D01*
X12713396Y-9416484D02*
X12713396Y-9587912D01*
X12713396Y-9587912D02*
X12722920Y-9606960D01*
X12722920Y-9606960D02*
X12741968Y-9616484D01*
X12741968Y-9616484D02*
X12761015Y-9616484D01*
X12903873Y-9606960D02*
X12884825Y-9616484D01*
X12884825Y-9616484D02*
X12846730Y-9616484D01*
X12846730Y-9616484D02*
X12827682Y-9606960D01*
X12827682Y-9606960D02*
X12818158Y-9587912D01*
X12818158Y-9587912D02*
X12818158Y-9511722D01*
X12818158Y-9511722D02*
X12827682Y-9492674D01*
X12827682Y-9492674D02*
X12846730Y-9483150D01*
X12846730Y-9483150D02*
X12884825Y-9483150D01*
X12884825Y-9483150D02*
X12903873Y-9492674D01*
X12903873Y-9492674D02*
X12913396Y-9511722D01*
X12913396Y-9511722D02*
X12913396Y-9530770D01*
X12913396Y-9530770D02*
X12818158Y-9549817D01*
X13084825Y-9616484D02*
X13084825Y-9416484D01*
X13084825Y-9606960D02*
X13065777Y-9616484D01*
X13065777Y-9616484D02*
X13027682Y-9616484D01*
X13027682Y-9616484D02*
X13008634Y-9606960D01*
X13008634Y-9606960D02*
X12999111Y-9597436D01*
X12999111Y-9597436D02*
X12989587Y-9578389D01*
X12989587Y-9578389D02*
X12989587Y-9521246D01*
X12989587Y-9521246D02*
X12999111Y-9502198D01*
X12999111Y-9502198D02*
X13008634Y-9492674D01*
X13008634Y-9492674D02*
X13027682Y-9483150D01*
X13027682Y-9483150D02*
X13065777Y-9483150D01*
X13065777Y-9483150D02*
X13084825Y-9492674D01*
X13161015Y-9692674D02*
X13170539Y-9683150D01*
X13170539Y-9683150D02*
X13189587Y-9654579D01*
X13189587Y-9654579D02*
X13199111Y-9635531D01*
X13199111Y-9635531D02*
X13208634Y-9606960D01*
X13208634Y-9606960D02*
X13218158Y-9559341D01*
X13218158Y-9559341D02*
X13218158Y-9521246D01*
X13218158Y-9521246D02*
X13208634Y-9473627D01*
X13208634Y-9473627D02*
X13199111Y-9445055D01*
X13199111Y-9445055D02*
X13189587Y-9426008D01*
X13189587Y-9426008D02*
X13170539Y-9397436D01*
X13170539Y-9397436D02*
X13161015Y-9387912D01*
M02*
