%TF.GenerationSoftware,KiCad,Pcbnew,7.0.5*%
%TF.CreationDate,2024-02-16T17:04:19-05:00*%
%TF.ProjectId,SoyuzLedBoard,536f7975-7a4c-4656-9442-6f6172642e6b,rev?*%
%TF.SameCoordinates,Original*%
%TF.FileFunction,Drillmap*%
%TF.FilePolarity,Positive*%
%FSLAX45Y45*%
G04 Gerber Fmt 4.5, Leading zero omitted, Abs format (unit mm)*
G04 Created by KiCad (PCBNEW 7.0.5) date 2024-02-16 17:04:19*
%MOMM*%
%LPD*%
G01*
G04 APERTURE LIST*
%ADD10C,0.100000*%
%ADD11C,0.200000*%
%ADD12C,0.040000*%
%ADD13C,0.050000*%
%ADD14C,0.060000*%
%ADD15C,0.080000*%
G04 APERTURE END LIST*
D10*
X6960000Y-2000000D02*
X6410000Y-2550000D01*
X13200000Y-2000000D02*
X6960000Y-2000000D01*
X6410000Y-8330000D02*
X6960000Y-8880000D01*
X13200000Y-2000000D02*
X13200000Y-8880000D01*
X6410000Y-8330000D02*
X6410000Y-2550000D01*
X6960000Y-8880000D02*
X13200000Y-8880000D01*
D11*
D12*
X7460000Y-5420000D02*
X7500000Y-5460000D01*
X7500000Y-5420000D02*
X7460000Y-5460000D01*
X8940000Y-5290000D02*
X8980000Y-5330000D01*
X8980000Y-5290000D02*
X8940000Y-5330000D01*
X10110000Y-5470000D02*
X10150000Y-5510000D01*
X10150000Y-5470000D02*
X10110000Y-5510000D01*
X11200000Y-3700000D02*
X11240000Y-3740000D01*
X11240000Y-3700000D02*
X11200000Y-3740000D01*
X11290000Y-5580000D02*
X11330000Y-5620000D01*
X11330000Y-5580000D02*
X11290000Y-5620000D01*
X12000000Y-5220000D02*
X12040000Y-5260000D01*
X12040000Y-5220000D02*
X12000000Y-5260000D01*
X12010000Y-5520000D02*
X12050000Y-5560000D01*
X12050000Y-5520000D02*
X12010000Y-5560000D01*
X12260000Y-3450000D02*
X12300000Y-3490000D01*
X12300000Y-3450000D02*
X12260000Y-3490000D01*
D13*
X9635000Y-5210000D02*
G75*
G03*
X9635000Y-5210000I-25000J0D01*
G01*
X9765000Y-4610000D02*
G75*
G03*
X9765000Y-4610000I-25000J0D01*
G01*
X9765000Y-5020000D02*
G75*
G03*
X9765000Y-5020000I-25000J0D01*
G01*
X10805000Y-6200000D02*
G75*
G03*
X10805000Y-6200000I-25000J0D01*
G01*
X11515000Y-5310000D02*
G75*
G03*
X11515000Y-5310000I-25000J0D01*
G01*
D14*
X7630000Y-5980000D02*
X7630000Y-6040000D01*
X7600000Y-6010000D02*
X7660000Y-6010000D01*
X7630000Y-6180000D02*
X7630000Y-6240000D01*
X7600000Y-6210000D02*
X7660000Y-6210000D01*
X11910000Y-4527260D02*
X11910000Y-4587260D01*
X11880000Y-4557260D02*
X11940000Y-4557260D01*
X11910000Y-4727260D02*
X11910000Y-4787260D01*
X11880000Y-4757260D02*
X11940000Y-4757260D01*
D15*
X6650784Y-5038285D02*
X6650784Y-4981716D01*
X6594215Y-4981716D01*
X6594215Y-5038285D01*
X6650784Y-5038285D01*
X6650784Y-5800284D02*
X6650784Y-5743715D01*
X6594215Y-5743715D01*
X6594215Y-5800284D01*
X6650784Y-5800284D01*
X6753284Y-2868284D02*
X6753284Y-2811715D01*
X6696715Y-2811715D01*
X6696715Y-2868284D01*
X6753284Y-2868284D01*
X6753284Y-3118284D02*
X6753284Y-3061715D01*
X6696715Y-3061715D01*
X6696715Y-3118284D01*
X6753284Y-3118284D01*
X6753284Y-3368284D02*
X6753284Y-3311715D01*
X6696715Y-3311715D01*
X6696715Y-3368284D01*
X6753284Y-3368284D01*
X6753284Y-3618284D02*
X6753284Y-3561715D01*
X6696715Y-3561715D01*
X6696715Y-3618284D01*
X6753284Y-3618284D01*
X6753284Y-3868284D02*
X6753284Y-3811715D01*
X6696715Y-3811715D01*
X6696715Y-3868284D01*
X6753284Y-3868284D01*
X6753284Y-4118284D02*
X6753284Y-4061715D01*
X6696715Y-4061715D01*
X6696715Y-4118284D01*
X6753284Y-4118284D01*
X6753284Y-4368285D02*
X6753284Y-4311716D01*
X6696715Y-4311716D01*
X6696715Y-4368285D01*
X6753284Y-4368285D01*
X6753284Y-6468284D02*
X6753284Y-6411715D01*
X6696715Y-6411715D01*
X6696715Y-6468284D01*
X6753284Y-6468284D01*
X6753284Y-6718284D02*
X6753284Y-6661715D01*
X6696715Y-6661715D01*
X6696715Y-6718284D01*
X6753284Y-6718284D01*
X6753284Y-6968284D02*
X6753284Y-6911715D01*
X6696715Y-6911715D01*
X6696715Y-6968284D01*
X6753284Y-6968284D01*
X6753284Y-7218284D02*
X6753284Y-7161715D01*
X6696715Y-7161715D01*
X6696715Y-7218284D01*
X6753284Y-7218284D01*
X6753284Y-7468284D02*
X6753284Y-7411715D01*
X6696715Y-7411715D01*
X6696715Y-7468284D01*
X6753284Y-7468284D01*
X6753284Y-7718284D02*
X6753284Y-7661715D01*
X6696715Y-7661715D01*
X6696715Y-7718284D01*
X6753284Y-7718284D01*
X6753284Y-7968284D02*
X6753284Y-7911715D01*
X6696715Y-7911715D01*
X6696715Y-7968284D01*
X6753284Y-7968284D01*
X6904784Y-5038285D02*
X6904784Y-4981716D01*
X6848215Y-4981716D01*
X6848215Y-5038285D01*
X6904784Y-5038285D01*
X6904784Y-5800284D02*
X6904784Y-5743715D01*
X6848215Y-5743715D01*
X6848215Y-5800284D01*
X6904784Y-5800284D01*
X7158784Y-5038285D02*
X7158784Y-4981716D01*
X7102215Y-4981716D01*
X7102215Y-5038285D01*
X7158784Y-5038285D01*
X7158784Y-5800284D02*
X7158784Y-5743715D01*
X7102215Y-5743715D01*
X7102215Y-5800284D01*
X7158784Y-5800284D01*
X7412784Y-5038285D02*
X7412784Y-4981716D01*
X7356215Y-4981716D01*
X7356215Y-5038285D01*
X7412784Y-5038285D01*
X7412784Y-5800284D02*
X7412784Y-5743715D01*
X7356215Y-5743715D01*
X7356215Y-5800284D01*
X7412784Y-5800284D01*
X7503284Y-2868284D02*
X7503284Y-2811715D01*
X7446715Y-2811715D01*
X7446715Y-2868284D01*
X7503284Y-2868284D01*
X7503284Y-3118284D02*
X7503284Y-3061715D01*
X7446715Y-3061715D01*
X7446715Y-3118284D01*
X7503284Y-3118284D01*
X7503284Y-3368284D02*
X7503284Y-3311715D01*
X7446715Y-3311715D01*
X7446715Y-3368284D01*
X7503284Y-3368284D01*
X7503284Y-3618284D02*
X7503284Y-3561715D01*
X7446715Y-3561715D01*
X7446715Y-3618284D01*
X7503284Y-3618284D01*
X7503284Y-3868284D02*
X7503284Y-3811715D01*
X7446715Y-3811715D01*
X7446715Y-3868284D01*
X7503284Y-3868284D01*
X7503284Y-4118284D02*
X7503284Y-4061715D01*
X7446715Y-4061715D01*
X7446715Y-4118284D01*
X7503284Y-4118284D01*
X7503284Y-4368285D02*
X7503284Y-4311716D01*
X7446715Y-4311716D01*
X7446715Y-4368285D01*
X7503284Y-4368285D01*
X7503284Y-6468284D02*
X7503284Y-6411715D01*
X7446715Y-6411715D01*
X7446715Y-6468284D01*
X7503284Y-6468284D01*
X7503284Y-6718284D02*
X7503284Y-6661715D01*
X7446715Y-6661715D01*
X7446715Y-6718284D01*
X7503284Y-6718284D01*
X7503284Y-6968284D02*
X7503284Y-6911715D01*
X7446715Y-6911715D01*
X7446715Y-6968284D01*
X7503284Y-6968284D01*
X7503284Y-7218284D02*
X7503284Y-7161715D01*
X7446715Y-7161715D01*
X7446715Y-7218284D01*
X7503284Y-7218284D01*
X7503284Y-7468284D02*
X7503284Y-7411715D01*
X7446715Y-7411715D01*
X7446715Y-7468284D01*
X7503284Y-7468284D01*
X7503284Y-7718284D02*
X7503284Y-7661715D01*
X7446715Y-7661715D01*
X7446715Y-7718284D01*
X7503284Y-7718284D01*
X7503284Y-7968284D02*
X7503284Y-7911715D01*
X7446715Y-7911715D01*
X7446715Y-7968284D01*
X7503284Y-7968284D01*
X7666784Y-5038285D02*
X7666784Y-4981716D01*
X7610215Y-4981716D01*
X7610215Y-5038285D01*
X7666784Y-5038285D01*
X7666784Y-5800284D02*
X7666784Y-5743715D01*
X7610215Y-5743715D01*
X7610215Y-5800284D01*
X7666784Y-5800284D01*
X7823284Y-2868284D02*
X7823284Y-2811715D01*
X7766715Y-2811715D01*
X7766715Y-2868284D01*
X7823284Y-2868284D01*
X7823284Y-3118284D02*
X7823284Y-3061715D01*
X7766715Y-3061715D01*
X7766715Y-3118284D01*
X7823284Y-3118284D01*
X7823284Y-3368284D02*
X7823284Y-3311715D01*
X7766715Y-3311715D01*
X7766715Y-3368284D01*
X7823284Y-3368284D01*
X7823284Y-3618284D02*
X7823284Y-3561715D01*
X7766715Y-3561715D01*
X7766715Y-3618284D01*
X7823284Y-3618284D01*
X7823284Y-3868284D02*
X7823284Y-3811715D01*
X7766715Y-3811715D01*
X7766715Y-3868284D01*
X7823284Y-3868284D01*
X7823284Y-4118284D02*
X7823284Y-4061715D01*
X7766715Y-4061715D01*
X7766715Y-4118284D01*
X7823284Y-4118284D01*
X7823284Y-4368285D02*
X7823284Y-4311716D01*
X7766715Y-4311716D01*
X7766715Y-4368285D01*
X7823284Y-4368285D01*
X7823284Y-6468284D02*
X7823284Y-6411715D01*
X7766715Y-6411715D01*
X7766715Y-6468284D01*
X7823284Y-6468284D01*
X7823284Y-6718284D02*
X7823284Y-6661715D01*
X7766715Y-6661715D01*
X7766715Y-6718284D01*
X7823284Y-6718284D01*
X7823284Y-6968284D02*
X7823284Y-6911715D01*
X7766715Y-6911715D01*
X7766715Y-6968284D01*
X7823284Y-6968284D01*
X7823284Y-7218284D02*
X7823284Y-7161715D01*
X7766715Y-7161715D01*
X7766715Y-7218284D01*
X7823284Y-7218284D01*
X7823284Y-7468284D02*
X7823284Y-7411715D01*
X7766715Y-7411715D01*
X7766715Y-7468284D01*
X7823284Y-7468284D01*
X7823284Y-7718284D02*
X7823284Y-7661715D01*
X7766715Y-7661715D01*
X7766715Y-7718284D01*
X7823284Y-7718284D01*
X7823284Y-7968284D02*
X7823284Y-7911715D01*
X7766715Y-7911715D01*
X7766715Y-7968284D01*
X7823284Y-7968284D01*
X7920784Y-5038285D02*
X7920784Y-4981716D01*
X7864215Y-4981716D01*
X7864215Y-5038285D01*
X7920784Y-5038285D01*
X7920784Y-5800284D02*
X7920784Y-5743715D01*
X7864215Y-5743715D01*
X7864215Y-5800284D01*
X7920784Y-5800284D01*
X8174784Y-5038285D02*
X8174784Y-4981716D01*
X8118215Y-4981716D01*
X8118215Y-5038285D01*
X8174784Y-5038285D01*
X8174784Y-5800284D02*
X8174784Y-5743715D01*
X8118215Y-5743715D01*
X8118215Y-5800284D01*
X8174784Y-5800284D01*
X8428785Y-5038285D02*
X8428785Y-4981716D01*
X8372215Y-4981716D01*
X8372215Y-5038285D01*
X8428785Y-5038285D01*
X8428785Y-5800284D02*
X8428785Y-5743715D01*
X8372215Y-5743715D01*
X8372215Y-5800284D01*
X8428785Y-5800284D01*
X8573285Y-2868284D02*
X8573285Y-2811715D01*
X8516716Y-2811715D01*
X8516716Y-2868284D01*
X8573285Y-2868284D01*
X8573285Y-3118284D02*
X8573285Y-3061715D01*
X8516716Y-3061715D01*
X8516716Y-3118284D01*
X8573285Y-3118284D01*
X8573285Y-3368284D02*
X8573285Y-3311715D01*
X8516716Y-3311715D01*
X8516716Y-3368284D01*
X8573285Y-3368284D01*
X8573285Y-3618284D02*
X8573285Y-3561715D01*
X8516716Y-3561715D01*
X8516716Y-3618284D01*
X8573285Y-3618284D01*
X8573285Y-3868284D02*
X8573285Y-3811715D01*
X8516716Y-3811715D01*
X8516716Y-3868284D01*
X8573285Y-3868284D01*
X8573285Y-4118284D02*
X8573285Y-4061715D01*
X8516716Y-4061715D01*
X8516716Y-4118284D01*
X8573285Y-4118284D01*
X8573285Y-4368285D02*
X8573285Y-4311716D01*
X8516716Y-4311716D01*
X8516716Y-4368285D01*
X8573285Y-4368285D01*
X8573285Y-6468284D02*
X8573285Y-6411715D01*
X8516716Y-6411715D01*
X8516716Y-6468284D01*
X8573285Y-6468284D01*
X8573285Y-6718284D02*
X8573285Y-6661715D01*
X8516716Y-6661715D01*
X8516716Y-6718284D01*
X8573285Y-6718284D01*
X8573285Y-6968284D02*
X8573285Y-6911715D01*
X8516716Y-6911715D01*
X8516716Y-6968284D01*
X8573285Y-6968284D01*
X8573285Y-7218284D02*
X8573285Y-7161715D01*
X8516716Y-7161715D01*
X8516716Y-7218284D01*
X8573285Y-7218284D01*
X8573285Y-7468284D02*
X8573285Y-7411715D01*
X8516716Y-7411715D01*
X8516716Y-7468284D01*
X8573285Y-7468284D01*
X8573285Y-7718284D02*
X8573285Y-7661715D01*
X8516716Y-7661715D01*
X8516716Y-7718284D01*
X8573285Y-7718284D01*
X8573285Y-7968284D02*
X8573285Y-7911715D01*
X8516716Y-7911715D01*
X8516716Y-7968284D01*
X8573285Y-7968284D01*
X8682785Y-5038285D02*
X8682785Y-4981716D01*
X8626216Y-4981716D01*
X8626216Y-5038285D01*
X8682785Y-5038285D01*
X8682785Y-5800284D02*
X8682785Y-5743715D01*
X8626216Y-5743715D01*
X8626216Y-5800284D01*
X8682785Y-5800284D01*
X8893285Y-2868284D02*
X8893285Y-2811715D01*
X8836716Y-2811715D01*
X8836716Y-2868284D01*
X8893285Y-2868284D01*
X8893285Y-3118284D02*
X8893285Y-3061715D01*
X8836716Y-3061715D01*
X8836716Y-3118284D01*
X8893285Y-3118284D01*
X8893285Y-3368284D02*
X8893285Y-3311715D01*
X8836716Y-3311715D01*
X8836716Y-3368284D01*
X8893285Y-3368284D01*
X8893285Y-3618284D02*
X8893285Y-3561715D01*
X8836716Y-3561715D01*
X8836716Y-3618284D01*
X8893285Y-3618284D01*
X8893285Y-3868284D02*
X8893285Y-3811715D01*
X8836716Y-3811715D01*
X8836716Y-3868284D01*
X8893285Y-3868284D01*
X8893285Y-4118284D02*
X8893285Y-4061715D01*
X8836716Y-4061715D01*
X8836716Y-4118284D01*
X8893285Y-4118284D01*
X8893285Y-4368285D02*
X8893285Y-4311716D01*
X8836716Y-4311716D01*
X8836716Y-4368285D01*
X8893285Y-4368285D01*
X8893285Y-6468284D02*
X8893285Y-6411715D01*
X8836716Y-6411715D01*
X8836716Y-6468284D01*
X8893285Y-6468284D01*
X8893285Y-6718284D02*
X8893285Y-6661715D01*
X8836716Y-6661715D01*
X8836716Y-6718284D01*
X8893285Y-6718284D01*
X8893285Y-6968284D02*
X8893285Y-6911715D01*
X8836716Y-6911715D01*
X8836716Y-6968284D01*
X8893285Y-6968284D01*
X8893285Y-7218284D02*
X8893285Y-7161715D01*
X8836716Y-7161715D01*
X8836716Y-7218284D01*
X8893285Y-7218284D01*
X8893285Y-7468284D02*
X8893285Y-7411715D01*
X8836716Y-7411715D01*
X8836716Y-7468284D01*
X8893285Y-7468284D01*
X8893285Y-7718284D02*
X8893285Y-7661715D01*
X8836716Y-7661715D01*
X8836716Y-7718284D01*
X8893285Y-7718284D01*
X8893285Y-7968284D02*
X8893285Y-7911715D01*
X8836716Y-7911715D01*
X8836716Y-7968284D01*
X8893285Y-7968284D01*
X8936785Y-5038285D02*
X8936785Y-4981716D01*
X8880216Y-4981716D01*
X8880216Y-5038285D01*
X8936785Y-5038285D01*
X8936785Y-5800284D02*
X8936785Y-5743715D01*
X8880216Y-5743715D01*
X8880216Y-5800284D01*
X8936785Y-5800284D01*
X9190785Y-5038285D02*
X9190785Y-4981716D01*
X9134216Y-4981716D01*
X9134216Y-5038285D01*
X9190785Y-5038285D01*
X9190785Y-5800284D02*
X9190785Y-5743715D01*
X9134216Y-5743715D01*
X9134216Y-5800284D01*
X9190785Y-5800284D01*
X9444785Y-5038285D02*
X9444785Y-4981716D01*
X9388216Y-4981716D01*
X9388216Y-5038285D01*
X9444785Y-5038285D01*
X9444785Y-5800284D02*
X9444785Y-5743715D01*
X9388216Y-5743715D01*
X9388216Y-5800284D01*
X9444785Y-5800284D01*
X9643285Y-2868284D02*
X9643285Y-2811715D01*
X9586716Y-2811715D01*
X9586716Y-2868284D01*
X9643285Y-2868284D01*
X9643285Y-3118284D02*
X9643285Y-3061715D01*
X9586716Y-3061715D01*
X9586716Y-3118284D01*
X9643285Y-3118284D01*
X9643285Y-3368284D02*
X9643285Y-3311715D01*
X9586716Y-3311715D01*
X9586716Y-3368284D01*
X9643285Y-3368284D01*
X9643285Y-3618284D02*
X9643285Y-3561715D01*
X9586716Y-3561715D01*
X9586716Y-3618284D01*
X9643285Y-3618284D01*
X9643285Y-3868284D02*
X9643285Y-3811715D01*
X9586716Y-3811715D01*
X9586716Y-3868284D01*
X9643285Y-3868284D01*
X9643285Y-4118284D02*
X9643285Y-4061715D01*
X9586716Y-4061715D01*
X9586716Y-4118284D01*
X9643285Y-4118284D01*
X9643285Y-4368285D02*
X9643285Y-4311716D01*
X9586716Y-4311716D01*
X9586716Y-4368285D01*
X9643285Y-4368285D01*
X9643285Y-6468284D02*
X9643285Y-6411715D01*
X9586716Y-6411715D01*
X9586716Y-6468284D01*
X9643285Y-6468284D01*
X9643285Y-6718284D02*
X9643285Y-6661715D01*
X9586716Y-6661715D01*
X9586716Y-6718284D01*
X9643285Y-6718284D01*
X9643285Y-6968284D02*
X9643285Y-6911715D01*
X9586716Y-6911715D01*
X9586716Y-6968284D01*
X9643285Y-6968284D01*
X9643285Y-7218284D02*
X9643285Y-7161715D01*
X9586716Y-7161715D01*
X9586716Y-7218284D01*
X9643285Y-7218284D01*
X9643285Y-7468284D02*
X9643285Y-7411715D01*
X9586716Y-7411715D01*
X9586716Y-7468284D01*
X9643285Y-7468284D01*
X9643285Y-7718284D02*
X9643285Y-7661715D01*
X9586716Y-7661715D01*
X9586716Y-7718284D01*
X9643285Y-7718284D01*
X9643285Y-7968284D02*
X9643285Y-7911715D01*
X9586716Y-7911715D01*
X9586716Y-7968284D01*
X9643285Y-7968284D01*
X9963285Y-2868284D02*
X9963285Y-2811715D01*
X9906716Y-2811715D01*
X9906716Y-2868284D01*
X9963285Y-2868284D01*
X9963285Y-3118284D02*
X9963285Y-3061715D01*
X9906716Y-3061715D01*
X9906716Y-3118284D01*
X9963285Y-3118284D01*
X9963285Y-3368284D02*
X9963285Y-3311715D01*
X9906716Y-3311715D01*
X9906716Y-3368284D01*
X9963285Y-3368284D01*
X9963285Y-3618284D02*
X9963285Y-3561715D01*
X9906716Y-3561715D01*
X9906716Y-3618284D01*
X9963285Y-3618284D01*
X9963285Y-3868284D02*
X9963285Y-3811715D01*
X9906716Y-3811715D01*
X9906716Y-3868284D01*
X9963285Y-3868284D01*
X9963285Y-4118284D02*
X9963285Y-4061715D01*
X9906716Y-4061715D01*
X9906716Y-4118284D01*
X9963285Y-4118284D01*
X9963285Y-4368285D02*
X9963285Y-4311716D01*
X9906716Y-4311716D01*
X9906716Y-4368285D01*
X9963285Y-4368285D01*
X9963285Y-6468284D02*
X9963285Y-6411715D01*
X9906716Y-6411715D01*
X9906716Y-6468284D01*
X9963285Y-6468284D01*
X9963285Y-6718284D02*
X9963285Y-6661715D01*
X9906716Y-6661715D01*
X9906716Y-6718284D01*
X9963285Y-6718284D01*
X9963285Y-6968284D02*
X9963285Y-6911715D01*
X9906716Y-6911715D01*
X9906716Y-6968284D01*
X9963285Y-6968284D01*
X9963285Y-7218284D02*
X9963285Y-7161715D01*
X9906716Y-7161715D01*
X9906716Y-7218284D01*
X9963285Y-7218284D01*
X9963285Y-7468284D02*
X9963285Y-7411715D01*
X9906716Y-7411715D01*
X9906716Y-7468284D01*
X9963285Y-7468284D01*
X9963285Y-7718284D02*
X9963285Y-7661715D01*
X9906716Y-7661715D01*
X9906716Y-7718284D01*
X9963285Y-7718284D01*
X9963285Y-7968284D02*
X9963285Y-7911715D01*
X9906716Y-7911715D01*
X9906716Y-7968284D01*
X9963285Y-7968284D01*
X10031785Y-5036285D02*
X10031785Y-4979716D01*
X9975216Y-4979716D01*
X9975216Y-5036285D01*
X10031785Y-5036285D01*
X10031785Y-5798284D02*
X10031785Y-5741715D01*
X9975216Y-5741715D01*
X9975216Y-5798284D01*
X10031785Y-5798284D01*
X10285785Y-5036285D02*
X10285785Y-4979716D01*
X10229216Y-4979716D01*
X10229216Y-5036285D01*
X10285785Y-5036285D01*
X10285785Y-5798284D02*
X10285785Y-5741715D01*
X10229216Y-5741715D01*
X10229216Y-5798284D01*
X10285785Y-5798284D01*
X10539785Y-5036285D02*
X10539785Y-4979716D01*
X10483216Y-4979716D01*
X10483216Y-5036285D01*
X10539785Y-5036285D01*
X10539785Y-5798284D02*
X10539785Y-5741715D01*
X10483216Y-5741715D01*
X10483216Y-5798284D01*
X10539785Y-5798284D01*
X10713285Y-2868284D02*
X10713285Y-2811715D01*
X10656716Y-2811715D01*
X10656716Y-2868284D01*
X10713285Y-2868284D01*
X10713285Y-3118284D02*
X10713285Y-3061715D01*
X10656716Y-3061715D01*
X10656716Y-3118284D01*
X10713285Y-3118284D01*
X10713285Y-3368284D02*
X10713285Y-3311715D01*
X10656716Y-3311715D01*
X10656716Y-3368284D01*
X10713285Y-3368284D01*
X10713285Y-3618284D02*
X10713285Y-3561715D01*
X10656716Y-3561715D01*
X10656716Y-3618284D01*
X10713285Y-3618284D01*
X10713285Y-3868284D02*
X10713285Y-3811715D01*
X10656716Y-3811715D01*
X10656716Y-3868284D01*
X10713285Y-3868284D01*
X10713285Y-4118284D02*
X10713285Y-4061715D01*
X10656716Y-4061715D01*
X10656716Y-4118284D01*
X10713285Y-4118284D01*
X10713285Y-4368285D02*
X10713285Y-4311716D01*
X10656716Y-4311716D01*
X10656716Y-4368285D01*
X10713285Y-4368285D01*
X10713285Y-6468284D02*
X10713285Y-6411715D01*
X10656716Y-6411715D01*
X10656716Y-6468284D01*
X10713285Y-6468284D01*
X10713285Y-6718284D02*
X10713285Y-6661715D01*
X10656716Y-6661715D01*
X10656716Y-6718284D01*
X10713285Y-6718284D01*
X10713285Y-6968284D02*
X10713285Y-6911715D01*
X10656716Y-6911715D01*
X10656716Y-6968284D01*
X10713285Y-6968284D01*
X10713285Y-7218284D02*
X10713285Y-7161715D01*
X10656716Y-7161715D01*
X10656716Y-7218284D01*
X10713285Y-7218284D01*
X10713285Y-7468284D02*
X10713285Y-7411715D01*
X10656716Y-7411715D01*
X10656716Y-7468284D01*
X10713285Y-7468284D01*
X10713285Y-7718284D02*
X10713285Y-7661715D01*
X10656716Y-7661715D01*
X10656716Y-7718284D01*
X10713285Y-7718284D01*
X10713285Y-7968284D02*
X10713285Y-7911715D01*
X10656716Y-7911715D01*
X10656716Y-7968284D01*
X10713285Y-7968284D01*
X10793785Y-5036285D02*
X10793785Y-4979716D01*
X10737216Y-4979716D01*
X10737216Y-5036285D01*
X10793785Y-5036285D01*
X10793785Y-5798284D02*
X10793785Y-5741715D01*
X10737216Y-5741715D01*
X10737216Y-5798284D01*
X10793785Y-5798284D01*
X11033285Y-2868284D02*
X11033285Y-2811715D01*
X10976716Y-2811715D01*
X10976716Y-2868284D01*
X11033285Y-2868284D01*
X11033285Y-3118284D02*
X11033285Y-3061715D01*
X10976716Y-3061715D01*
X10976716Y-3118284D01*
X11033285Y-3118284D01*
X11033285Y-3368284D02*
X11033285Y-3311715D01*
X10976716Y-3311715D01*
X10976716Y-3368284D01*
X11033285Y-3368284D01*
X11033285Y-3618284D02*
X11033285Y-3561715D01*
X10976716Y-3561715D01*
X10976716Y-3618284D01*
X11033285Y-3618284D01*
X11033285Y-3868284D02*
X11033285Y-3811715D01*
X10976716Y-3811715D01*
X10976716Y-3868284D01*
X11033285Y-3868284D01*
X11033285Y-4118284D02*
X11033285Y-4061715D01*
X10976716Y-4061715D01*
X10976716Y-4118284D01*
X11033285Y-4118284D01*
X11033285Y-4368285D02*
X11033285Y-4311716D01*
X10976716Y-4311716D01*
X10976716Y-4368285D01*
X11033285Y-4368285D01*
X11047785Y-5036285D02*
X11047785Y-4979716D01*
X10991216Y-4979716D01*
X10991216Y-5036285D01*
X11047785Y-5036285D01*
X11047785Y-5798284D02*
X11047785Y-5741715D01*
X10991216Y-5741715D01*
X10991216Y-5798284D01*
X11047785Y-5798284D01*
X11301784Y-5036285D02*
X11301784Y-4979716D01*
X11245215Y-4979716D01*
X11245215Y-5036285D01*
X11301784Y-5036285D01*
X11301784Y-5798284D02*
X11301784Y-5741715D01*
X11245215Y-5741715D01*
X11245215Y-5798284D01*
X11301784Y-5798284D01*
X11555784Y-5036285D02*
X11555784Y-4979716D01*
X11499215Y-4979716D01*
X11499215Y-5036285D01*
X11555784Y-5036285D01*
X11555784Y-5798284D02*
X11555784Y-5741715D01*
X11499215Y-5741715D01*
X11499215Y-5798284D01*
X11555784Y-5798284D01*
X11783284Y-2868284D02*
X11783284Y-2811715D01*
X11726715Y-2811715D01*
X11726715Y-2868284D01*
X11783284Y-2868284D01*
X11783284Y-3118284D02*
X11783284Y-3061715D01*
X11726715Y-3061715D01*
X11726715Y-3118284D01*
X11783284Y-3118284D01*
X11783284Y-3368284D02*
X11783284Y-3311715D01*
X11726715Y-3311715D01*
X11726715Y-3368284D01*
X11783284Y-3368284D01*
X11783284Y-3618284D02*
X11783284Y-3561715D01*
X11726715Y-3561715D01*
X11726715Y-3618284D01*
X11783284Y-3618284D01*
X11783284Y-3868284D02*
X11783284Y-3811715D01*
X11726715Y-3811715D01*
X11726715Y-3868284D01*
X11783284Y-3868284D01*
X11783284Y-4118284D02*
X11783284Y-4061715D01*
X11726715Y-4061715D01*
X11726715Y-4118284D01*
X11783284Y-4118284D01*
X11783284Y-4368285D02*
X11783284Y-4311716D01*
X11726715Y-4311716D01*
X11726715Y-4368285D01*
X11783284Y-4368285D01*
X11809784Y-5036285D02*
X11809784Y-4979716D01*
X11753215Y-4979716D01*
X11753215Y-5036285D01*
X11809784Y-5036285D01*
X11809784Y-5798284D02*
X11809784Y-5741715D01*
X11753215Y-5741715D01*
X11753215Y-5798284D01*
X11809784Y-5798284D01*
X12063784Y-5036285D02*
X12063784Y-4979716D01*
X12007215Y-4979716D01*
X12007215Y-5036285D01*
X12063784Y-5036285D01*
X12063784Y-5798284D02*
X12063784Y-5741715D01*
X12007215Y-5741715D01*
X12007215Y-5798284D01*
X12063784Y-5798284D01*
X12103284Y-2868284D02*
X12103284Y-2811715D01*
X12046715Y-2811715D01*
X12046715Y-2868284D01*
X12103284Y-2868284D01*
X12103284Y-3118284D02*
X12103284Y-3061715D01*
X12046715Y-3061715D01*
X12046715Y-3118284D01*
X12103284Y-3118284D01*
X12103284Y-3368284D02*
X12103284Y-3311715D01*
X12046715Y-3311715D01*
X12046715Y-3368284D01*
X12103284Y-3368284D01*
X12103284Y-3618284D02*
X12103284Y-3561715D01*
X12046715Y-3561715D01*
X12046715Y-3618284D01*
X12103284Y-3618284D01*
X12103284Y-3868284D02*
X12103284Y-3811715D01*
X12046715Y-3811715D01*
X12046715Y-3868284D01*
X12103284Y-3868284D01*
X12103284Y-4118284D02*
X12103284Y-4061715D01*
X12046715Y-4061715D01*
X12046715Y-4118284D01*
X12103284Y-4118284D01*
X12103284Y-4368285D02*
X12103284Y-4311716D01*
X12046715Y-4311716D01*
X12046715Y-4368285D01*
X12103284Y-4368285D01*
X12317784Y-5036285D02*
X12317784Y-4979716D01*
X12261215Y-4979716D01*
X12261215Y-5036285D01*
X12317784Y-5036285D01*
X12317784Y-5798284D02*
X12317784Y-5741715D01*
X12261215Y-5741715D01*
X12261215Y-5798284D01*
X12317784Y-5798284D01*
X12571784Y-5036285D02*
X12571784Y-4979716D01*
X12515215Y-4979716D01*
X12515215Y-5036285D01*
X12571784Y-5036285D01*
X12571784Y-5798284D02*
X12571784Y-5741715D01*
X12515215Y-5741715D01*
X12515215Y-5798284D01*
X12571784Y-5798284D01*
X12825784Y-5036285D02*
X12825784Y-4979716D01*
X12769215Y-4979716D01*
X12769215Y-5036285D01*
X12825784Y-5036285D01*
X12825784Y-5798284D02*
X12825784Y-5741715D01*
X12769215Y-5741715D01*
X12769215Y-5798284D01*
X12825784Y-5798284D01*
X12853284Y-2868284D02*
X12853284Y-2811715D01*
X12796715Y-2811715D01*
X12796715Y-2868284D01*
X12853284Y-2868284D01*
X12853284Y-3118284D02*
X12853284Y-3061715D01*
X12796715Y-3061715D01*
X12796715Y-3118284D01*
X12853284Y-3118284D01*
X12853284Y-3368284D02*
X12853284Y-3311715D01*
X12796715Y-3311715D01*
X12796715Y-3368284D01*
X12853284Y-3368284D01*
X12853284Y-3618284D02*
X12853284Y-3561715D01*
X12796715Y-3561715D01*
X12796715Y-3618284D01*
X12853284Y-3618284D01*
X12853284Y-3868284D02*
X12853284Y-3811715D01*
X12796715Y-3811715D01*
X12796715Y-3868284D01*
X12853284Y-3868284D01*
X12853284Y-4118284D02*
X12853284Y-4061715D01*
X12796715Y-4061715D01*
X12796715Y-4118284D01*
X12853284Y-4118284D01*
X12853284Y-4368285D02*
X12853284Y-4311716D01*
X12796715Y-4311716D01*
X12796715Y-4368285D01*
X12853284Y-4368285D01*
D10*
X12473500Y-6970000D02*
X12523500Y-6920000D01*
X12473500Y-6870000D01*
X12423500Y-6920000D01*
X12473500Y-6970000D01*
X12473500Y-7224000D02*
X12523500Y-7174000D01*
X12473500Y-7124000D01*
X12423500Y-7174000D01*
X12473500Y-7224000D01*
X12473500Y-7478000D02*
X12523500Y-7428000D01*
X12473500Y-7378000D01*
X12423500Y-7428000D01*
X12473500Y-7478000D01*
X12473500Y-7732000D02*
X12523500Y-7682000D01*
X12473500Y-7632000D01*
X12423500Y-7682000D01*
X12473500Y-7732000D01*
X12727500Y-6970000D02*
X12777500Y-6920000D01*
X12727500Y-6870000D01*
X12677500Y-6920000D01*
X12727500Y-6970000D01*
X12727500Y-7224000D02*
X12777500Y-7174000D01*
X12727500Y-7124000D01*
X12677500Y-7174000D01*
X12727500Y-7224000D01*
X12727500Y-7478000D02*
X12777500Y-7428000D01*
X12727500Y-7378000D01*
X12677500Y-7428000D01*
X12727500Y-7478000D01*
X12727500Y-7732000D02*
X12777500Y-7682000D01*
X12727500Y-7632000D01*
X12677500Y-7682000D01*
X12727500Y-7732000D01*
D11*
X6665777Y-9196484D02*
X6665777Y-8996484D01*
X6665777Y-8996484D02*
X6713396Y-8996484D01*
X6713396Y-8996484D02*
X6741967Y-9006008D01*
X6741967Y-9006008D02*
X6761015Y-9025055D01*
X6761015Y-9025055D02*
X6770539Y-9044103D01*
X6770539Y-9044103D02*
X6780062Y-9082198D01*
X6780062Y-9082198D02*
X6780062Y-9110770D01*
X6780062Y-9110770D02*
X6770539Y-9148865D01*
X6770539Y-9148865D02*
X6761015Y-9167912D01*
X6761015Y-9167912D02*
X6741967Y-9186960D01*
X6741967Y-9186960D02*
X6713396Y-9196484D01*
X6713396Y-9196484D02*
X6665777Y-9196484D01*
X6865777Y-9196484D02*
X6865777Y-9063150D01*
X6865777Y-9101246D02*
X6875301Y-9082198D01*
X6875301Y-9082198D02*
X6884824Y-9072674D01*
X6884824Y-9072674D02*
X6903872Y-9063150D01*
X6903872Y-9063150D02*
X6922920Y-9063150D01*
X6989586Y-9196484D02*
X6989586Y-9063150D01*
X6989586Y-8996484D02*
X6980062Y-9006008D01*
X6980062Y-9006008D02*
X6989586Y-9015531D01*
X6989586Y-9015531D02*
X6999110Y-9006008D01*
X6999110Y-9006008D02*
X6989586Y-8996484D01*
X6989586Y-8996484D02*
X6989586Y-9015531D01*
X7113396Y-9196484D02*
X7094348Y-9186960D01*
X7094348Y-9186960D02*
X7084824Y-9167912D01*
X7084824Y-9167912D02*
X7084824Y-8996484D01*
X7218158Y-9196484D02*
X7199110Y-9186960D01*
X7199110Y-9186960D02*
X7189586Y-9167912D01*
X7189586Y-9167912D02*
X7189586Y-8996484D01*
X7446729Y-9196484D02*
X7446729Y-8996484D01*
X7446729Y-8996484D02*
X7513396Y-9139341D01*
X7513396Y-9139341D02*
X7580062Y-8996484D01*
X7580062Y-8996484D02*
X7580062Y-9196484D01*
X7761015Y-9196484D02*
X7761015Y-9091722D01*
X7761015Y-9091722D02*
X7751491Y-9072674D01*
X7751491Y-9072674D02*
X7732443Y-9063150D01*
X7732443Y-9063150D02*
X7694348Y-9063150D01*
X7694348Y-9063150D02*
X7675301Y-9072674D01*
X7761015Y-9186960D02*
X7741967Y-9196484D01*
X7741967Y-9196484D02*
X7694348Y-9196484D01*
X7694348Y-9196484D02*
X7675301Y-9186960D01*
X7675301Y-9186960D02*
X7665777Y-9167912D01*
X7665777Y-9167912D02*
X7665777Y-9148865D01*
X7665777Y-9148865D02*
X7675301Y-9129817D01*
X7675301Y-9129817D02*
X7694348Y-9120293D01*
X7694348Y-9120293D02*
X7741967Y-9120293D01*
X7741967Y-9120293D02*
X7761015Y-9110770D01*
X7856253Y-9063150D02*
X7856253Y-9263150D01*
X7856253Y-9072674D02*
X7875301Y-9063150D01*
X7875301Y-9063150D02*
X7913396Y-9063150D01*
X7913396Y-9063150D02*
X7932443Y-9072674D01*
X7932443Y-9072674D02*
X7941967Y-9082198D01*
X7941967Y-9082198D02*
X7951491Y-9101246D01*
X7951491Y-9101246D02*
X7951491Y-9158389D01*
X7951491Y-9158389D02*
X7941967Y-9177436D01*
X7941967Y-9177436D02*
X7932443Y-9186960D01*
X7932443Y-9186960D02*
X7913396Y-9196484D01*
X7913396Y-9196484D02*
X7875301Y-9196484D01*
X7875301Y-9196484D02*
X7856253Y-9186960D01*
X8037205Y-9177436D02*
X8046729Y-9186960D01*
X8046729Y-9186960D02*
X8037205Y-9196484D01*
X8037205Y-9196484D02*
X8027682Y-9186960D01*
X8027682Y-9186960D02*
X8037205Y-9177436D01*
X8037205Y-9177436D02*
X8037205Y-9196484D01*
X8037205Y-9072674D02*
X8046729Y-9082198D01*
X8046729Y-9082198D02*
X8037205Y-9091722D01*
X8037205Y-9091722D02*
X8027682Y-9082198D01*
X8027682Y-9082198D02*
X8037205Y-9072674D01*
X8037205Y-9072674D02*
X8037205Y-9091722D01*
D12*
X6365000Y-9505000D02*
X6405000Y-9545000D01*
X6405000Y-9505000D02*
X6365000Y-9545000D01*
D11*
X6703872Y-9416484D02*
X6722920Y-9416484D01*
X6722920Y-9416484D02*
X6741967Y-9426008D01*
X6741967Y-9426008D02*
X6751491Y-9435531D01*
X6751491Y-9435531D02*
X6761015Y-9454579D01*
X6761015Y-9454579D02*
X6770539Y-9492674D01*
X6770539Y-9492674D02*
X6770539Y-9540293D01*
X6770539Y-9540293D02*
X6761015Y-9578389D01*
X6761015Y-9578389D02*
X6751491Y-9597436D01*
X6751491Y-9597436D02*
X6741967Y-9606960D01*
X6741967Y-9606960D02*
X6722920Y-9616484D01*
X6722920Y-9616484D02*
X6703872Y-9616484D01*
X6703872Y-9616484D02*
X6684824Y-9606960D01*
X6684824Y-9606960D02*
X6675301Y-9597436D01*
X6675301Y-9597436D02*
X6665777Y-9578389D01*
X6665777Y-9578389D02*
X6656253Y-9540293D01*
X6656253Y-9540293D02*
X6656253Y-9492674D01*
X6656253Y-9492674D02*
X6665777Y-9454579D01*
X6665777Y-9454579D02*
X6675301Y-9435531D01*
X6675301Y-9435531D02*
X6684824Y-9426008D01*
X6684824Y-9426008D02*
X6703872Y-9416484D01*
X6856253Y-9597436D02*
X6865777Y-9606960D01*
X6865777Y-9606960D02*
X6856253Y-9616484D01*
X6856253Y-9616484D02*
X6846729Y-9606960D01*
X6846729Y-9606960D02*
X6856253Y-9597436D01*
X6856253Y-9597436D02*
X6856253Y-9616484D01*
X7037205Y-9483150D02*
X7037205Y-9616484D01*
X6989586Y-9406960D02*
X6941967Y-9549817D01*
X6941967Y-9549817D02*
X7065777Y-9549817D01*
X7180062Y-9416484D02*
X7199110Y-9416484D01*
X7199110Y-9416484D02*
X7218158Y-9426008D01*
X7218158Y-9426008D02*
X7227682Y-9435531D01*
X7227682Y-9435531D02*
X7237205Y-9454579D01*
X7237205Y-9454579D02*
X7246729Y-9492674D01*
X7246729Y-9492674D02*
X7246729Y-9540293D01*
X7246729Y-9540293D02*
X7237205Y-9578389D01*
X7237205Y-9578389D02*
X7227682Y-9597436D01*
X7227682Y-9597436D02*
X7218158Y-9606960D01*
X7218158Y-9606960D02*
X7199110Y-9616484D01*
X7199110Y-9616484D02*
X7180062Y-9616484D01*
X7180062Y-9616484D02*
X7161015Y-9606960D01*
X7161015Y-9606960D02*
X7151491Y-9597436D01*
X7151491Y-9597436D02*
X7141967Y-9578389D01*
X7141967Y-9578389D02*
X7132443Y-9540293D01*
X7132443Y-9540293D02*
X7132443Y-9492674D01*
X7132443Y-9492674D02*
X7141967Y-9454579D01*
X7141967Y-9454579D02*
X7151491Y-9435531D01*
X7151491Y-9435531D02*
X7161015Y-9426008D01*
X7161015Y-9426008D02*
X7180062Y-9416484D01*
X7370539Y-9416484D02*
X7389586Y-9416484D01*
X7389586Y-9416484D02*
X7408634Y-9426008D01*
X7408634Y-9426008D02*
X7418158Y-9435531D01*
X7418158Y-9435531D02*
X7427682Y-9454579D01*
X7427682Y-9454579D02*
X7437205Y-9492674D01*
X7437205Y-9492674D02*
X7437205Y-9540293D01*
X7437205Y-9540293D02*
X7427682Y-9578389D01*
X7427682Y-9578389D02*
X7418158Y-9597436D01*
X7418158Y-9597436D02*
X7408634Y-9606960D01*
X7408634Y-9606960D02*
X7389586Y-9616484D01*
X7389586Y-9616484D02*
X7370539Y-9616484D01*
X7370539Y-9616484D02*
X7351491Y-9606960D01*
X7351491Y-9606960D02*
X7341967Y-9597436D01*
X7341967Y-9597436D02*
X7332443Y-9578389D01*
X7332443Y-9578389D02*
X7322920Y-9540293D01*
X7322920Y-9540293D02*
X7322920Y-9492674D01*
X7322920Y-9492674D02*
X7332443Y-9454579D01*
X7332443Y-9454579D02*
X7341967Y-9435531D01*
X7341967Y-9435531D02*
X7351491Y-9426008D01*
X7351491Y-9426008D02*
X7370539Y-9416484D01*
X7522920Y-9616484D02*
X7522920Y-9483150D01*
X7522920Y-9502198D02*
X7532443Y-9492674D01*
X7532443Y-9492674D02*
X7551491Y-9483150D01*
X7551491Y-9483150D02*
X7580063Y-9483150D01*
X7580063Y-9483150D02*
X7599110Y-9492674D01*
X7599110Y-9492674D02*
X7608634Y-9511722D01*
X7608634Y-9511722D02*
X7608634Y-9616484D01*
X7608634Y-9511722D02*
X7618158Y-9492674D01*
X7618158Y-9492674D02*
X7637205Y-9483150D01*
X7637205Y-9483150D02*
X7665777Y-9483150D01*
X7665777Y-9483150D02*
X7684824Y-9492674D01*
X7684824Y-9492674D02*
X7694348Y-9511722D01*
X7694348Y-9511722D02*
X7694348Y-9616484D01*
X7789586Y-9616484D02*
X7789586Y-9483150D01*
X7789586Y-9502198D02*
X7799110Y-9492674D01*
X7799110Y-9492674D02*
X7818158Y-9483150D01*
X7818158Y-9483150D02*
X7846729Y-9483150D01*
X7846729Y-9483150D02*
X7865777Y-9492674D01*
X7865777Y-9492674D02*
X7875301Y-9511722D01*
X7875301Y-9511722D02*
X7875301Y-9616484D01*
X7875301Y-9511722D02*
X7884824Y-9492674D01*
X7884824Y-9492674D02*
X7903872Y-9483150D01*
X7903872Y-9483150D02*
X7932443Y-9483150D01*
X7932443Y-9483150D02*
X7951491Y-9492674D01*
X7951491Y-9492674D02*
X7961015Y-9511722D01*
X7961015Y-9511722D02*
X7961015Y-9616484D01*
X8351491Y-9406960D02*
X8180063Y-9664103D01*
X8608634Y-9416484D02*
X8627682Y-9416484D01*
X8627682Y-9416484D02*
X8646729Y-9426008D01*
X8646729Y-9426008D02*
X8656253Y-9435531D01*
X8656253Y-9435531D02*
X8665777Y-9454579D01*
X8665777Y-9454579D02*
X8675301Y-9492674D01*
X8675301Y-9492674D02*
X8675301Y-9540293D01*
X8675301Y-9540293D02*
X8665777Y-9578389D01*
X8665777Y-9578389D02*
X8656253Y-9597436D01*
X8656253Y-9597436D02*
X8646729Y-9606960D01*
X8646729Y-9606960D02*
X8627682Y-9616484D01*
X8627682Y-9616484D02*
X8608634Y-9616484D01*
X8608634Y-9616484D02*
X8589587Y-9606960D01*
X8589587Y-9606960D02*
X8580063Y-9597436D01*
X8580063Y-9597436D02*
X8570539Y-9578389D01*
X8570539Y-9578389D02*
X8561015Y-9540293D01*
X8561015Y-9540293D02*
X8561015Y-9492674D01*
X8561015Y-9492674D02*
X8570539Y-9454579D01*
X8570539Y-9454579D02*
X8580063Y-9435531D01*
X8580063Y-9435531D02*
X8589587Y-9426008D01*
X8589587Y-9426008D02*
X8608634Y-9416484D01*
X8761015Y-9597436D02*
X8770539Y-9606960D01*
X8770539Y-9606960D02*
X8761015Y-9616484D01*
X8761015Y-9616484D02*
X8751491Y-9606960D01*
X8751491Y-9606960D02*
X8761015Y-9597436D01*
X8761015Y-9597436D02*
X8761015Y-9616484D01*
X8894348Y-9416484D02*
X8913396Y-9416484D01*
X8913396Y-9416484D02*
X8932444Y-9426008D01*
X8932444Y-9426008D02*
X8941968Y-9435531D01*
X8941968Y-9435531D02*
X8951491Y-9454579D01*
X8951491Y-9454579D02*
X8961015Y-9492674D01*
X8961015Y-9492674D02*
X8961015Y-9540293D01*
X8961015Y-9540293D02*
X8951491Y-9578389D01*
X8951491Y-9578389D02*
X8941968Y-9597436D01*
X8941968Y-9597436D02*
X8932444Y-9606960D01*
X8932444Y-9606960D02*
X8913396Y-9616484D01*
X8913396Y-9616484D02*
X8894348Y-9616484D01*
X8894348Y-9616484D02*
X8875301Y-9606960D01*
X8875301Y-9606960D02*
X8865777Y-9597436D01*
X8865777Y-9597436D02*
X8856253Y-9578389D01*
X8856253Y-9578389D02*
X8846729Y-9540293D01*
X8846729Y-9540293D02*
X8846729Y-9492674D01*
X8846729Y-9492674D02*
X8856253Y-9454579D01*
X8856253Y-9454579D02*
X8865777Y-9435531D01*
X8865777Y-9435531D02*
X8875301Y-9426008D01*
X8875301Y-9426008D02*
X8894348Y-9416484D01*
X9151491Y-9616484D02*
X9037206Y-9616484D01*
X9094348Y-9616484D02*
X9094348Y-9416484D01*
X9094348Y-9416484D02*
X9075301Y-9445055D01*
X9075301Y-9445055D02*
X9056253Y-9464103D01*
X9056253Y-9464103D02*
X9037206Y-9473627D01*
X9332444Y-9416484D02*
X9237206Y-9416484D01*
X9237206Y-9416484D02*
X9227682Y-9511722D01*
X9227682Y-9511722D02*
X9237206Y-9502198D01*
X9237206Y-9502198D02*
X9256253Y-9492674D01*
X9256253Y-9492674D02*
X9303872Y-9492674D01*
X9303872Y-9492674D02*
X9322920Y-9502198D01*
X9322920Y-9502198D02*
X9332444Y-9511722D01*
X9332444Y-9511722D02*
X9341968Y-9530770D01*
X9341968Y-9530770D02*
X9341968Y-9578389D01*
X9341968Y-9578389D02*
X9332444Y-9597436D01*
X9332444Y-9597436D02*
X9322920Y-9606960D01*
X9322920Y-9606960D02*
X9303872Y-9616484D01*
X9303872Y-9616484D02*
X9256253Y-9616484D01*
X9256253Y-9616484D02*
X9237206Y-9606960D01*
X9237206Y-9606960D02*
X9227682Y-9597436D01*
X9408634Y-9416484D02*
X9541968Y-9416484D01*
X9541968Y-9416484D02*
X9456253Y-9616484D01*
X9608634Y-9416484D02*
X9608634Y-9454579D01*
X9684825Y-9416484D02*
X9684825Y-9454579D01*
X9980063Y-9692674D02*
X9970539Y-9683150D01*
X9970539Y-9683150D02*
X9951491Y-9654579D01*
X9951491Y-9654579D02*
X9941968Y-9635531D01*
X9941968Y-9635531D02*
X9932444Y-9606960D01*
X9932444Y-9606960D02*
X9922920Y-9559341D01*
X9922920Y-9559341D02*
X9922920Y-9521246D01*
X9922920Y-9521246D02*
X9932444Y-9473627D01*
X9932444Y-9473627D02*
X9941968Y-9445055D01*
X9941968Y-9445055D02*
X9951491Y-9426008D01*
X9951491Y-9426008D02*
X9970539Y-9397436D01*
X9970539Y-9397436D02*
X9980063Y-9387912D01*
X10084825Y-9502198D02*
X10065777Y-9492674D01*
X10065777Y-9492674D02*
X10056253Y-9483150D01*
X10056253Y-9483150D02*
X10046730Y-9464103D01*
X10046730Y-9464103D02*
X10046730Y-9454579D01*
X10046730Y-9454579D02*
X10056253Y-9435531D01*
X10056253Y-9435531D02*
X10065777Y-9426008D01*
X10065777Y-9426008D02*
X10084825Y-9416484D01*
X10084825Y-9416484D02*
X10122920Y-9416484D01*
X10122920Y-9416484D02*
X10141968Y-9426008D01*
X10141968Y-9426008D02*
X10151491Y-9435531D01*
X10151491Y-9435531D02*
X10161015Y-9454579D01*
X10161015Y-9454579D02*
X10161015Y-9464103D01*
X10161015Y-9464103D02*
X10151491Y-9483150D01*
X10151491Y-9483150D02*
X10141968Y-9492674D01*
X10141968Y-9492674D02*
X10122920Y-9502198D01*
X10122920Y-9502198D02*
X10084825Y-9502198D01*
X10084825Y-9502198D02*
X10065777Y-9511722D01*
X10065777Y-9511722D02*
X10056253Y-9521246D01*
X10056253Y-9521246D02*
X10046730Y-9540293D01*
X10046730Y-9540293D02*
X10046730Y-9578389D01*
X10046730Y-9578389D02*
X10056253Y-9597436D01*
X10056253Y-9597436D02*
X10065777Y-9606960D01*
X10065777Y-9606960D02*
X10084825Y-9616484D01*
X10084825Y-9616484D02*
X10122920Y-9616484D01*
X10122920Y-9616484D02*
X10141968Y-9606960D01*
X10141968Y-9606960D02*
X10151491Y-9597436D01*
X10151491Y-9597436D02*
X10161015Y-9578389D01*
X10161015Y-9578389D02*
X10161015Y-9540293D01*
X10161015Y-9540293D02*
X10151491Y-9521246D01*
X10151491Y-9521246D02*
X10141968Y-9511722D01*
X10141968Y-9511722D02*
X10122920Y-9502198D01*
X10399111Y-9616484D02*
X10399111Y-9416484D01*
X10484825Y-9616484D02*
X10484825Y-9511722D01*
X10484825Y-9511722D02*
X10475301Y-9492674D01*
X10475301Y-9492674D02*
X10456253Y-9483150D01*
X10456253Y-9483150D02*
X10427682Y-9483150D01*
X10427682Y-9483150D02*
X10408634Y-9492674D01*
X10408634Y-9492674D02*
X10399111Y-9502198D01*
X10608634Y-9616484D02*
X10589587Y-9606960D01*
X10589587Y-9606960D02*
X10580063Y-9597436D01*
X10580063Y-9597436D02*
X10570539Y-9578389D01*
X10570539Y-9578389D02*
X10570539Y-9521246D01*
X10570539Y-9521246D02*
X10580063Y-9502198D01*
X10580063Y-9502198D02*
X10589587Y-9492674D01*
X10589587Y-9492674D02*
X10608634Y-9483150D01*
X10608634Y-9483150D02*
X10637206Y-9483150D01*
X10637206Y-9483150D02*
X10656253Y-9492674D01*
X10656253Y-9492674D02*
X10665777Y-9502198D01*
X10665777Y-9502198D02*
X10675301Y-9521246D01*
X10675301Y-9521246D02*
X10675301Y-9578389D01*
X10675301Y-9578389D02*
X10665777Y-9597436D01*
X10665777Y-9597436D02*
X10656253Y-9606960D01*
X10656253Y-9606960D02*
X10637206Y-9616484D01*
X10637206Y-9616484D02*
X10608634Y-9616484D01*
X10789587Y-9616484D02*
X10770539Y-9606960D01*
X10770539Y-9606960D02*
X10761015Y-9587912D01*
X10761015Y-9587912D02*
X10761015Y-9416484D01*
X10941968Y-9606960D02*
X10922920Y-9616484D01*
X10922920Y-9616484D02*
X10884825Y-9616484D01*
X10884825Y-9616484D02*
X10865777Y-9606960D01*
X10865777Y-9606960D02*
X10856253Y-9587912D01*
X10856253Y-9587912D02*
X10856253Y-9511722D01*
X10856253Y-9511722D02*
X10865777Y-9492674D01*
X10865777Y-9492674D02*
X10884825Y-9483150D01*
X10884825Y-9483150D02*
X10922920Y-9483150D01*
X10922920Y-9483150D02*
X10941968Y-9492674D01*
X10941968Y-9492674D02*
X10951492Y-9511722D01*
X10951492Y-9511722D02*
X10951492Y-9530770D01*
X10951492Y-9530770D02*
X10856253Y-9549817D01*
X11027682Y-9606960D02*
X11046730Y-9616484D01*
X11046730Y-9616484D02*
X11084825Y-9616484D01*
X11084825Y-9616484D02*
X11103873Y-9606960D01*
X11103873Y-9606960D02*
X11113396Y-9587912D01*
X11113396Y-9587912D02*
X11113396Y-9578389D01*
X11113396Y-9578389D02*
X11103873Y-9559341D01*
X11103873Y-9559341D02*
X11084825Y-9549817D01*
X11084825Y-9549817D02*
X11056253Y-9549817D01*
X11056253Y-9549817D02*
X11037206Y-9540293D01*
X11037206Y-9540293D02*
X11027682Y-9521246D01*
X11027682Y-9521246D02*
X11027682Y-9511722D01*
X11027682Y-9511722D02*
X11037206Y-9492674D01*
X11037206Y-9492674D02*
X11056253Y-9483150D01*
X11056253Y-9483150D02*
X11084825Y-9483150D01*
X11084825Y-9483150D02*
X11103873Y-9492674D01*
X11180063Y-9692674D02*
X11189587Y-9683150D01*
X11189587Y-9683150D02*
X11208634Y-9654579D01*
X11208634Y-9654579D02*
X11218158Y-9635531D01*
X11218158Y-9635531D02*
X11227682Y-9606960D01*
X11227682Y-9606960D02*
X11237206Y-9559341D01*
X11237206Y-9559341D02*
X11237206Y-9521246D01*
X11237206Y-9521246D02*
X11227682Y-9473627D01*
X11227682Y-9473627D02*
X11218158Y-9445055D01*
X11218158Y-9445055D02*
X11208634Y-9426008D01*
X11208634Y-9426008D02*
X11189587Y-9397436D01*
X11189587Y-9397436D02*
X11180063Y-9387912D01*
D13*
X6405000Y-9789000D02*
G75*
G03*
X6405000Y-9789000I-25000J0D01*
G01*
D11*
X6703872Y-9680484D02*
X6722920Y-9680484D01*
X6722920Y-9680484D02*
X6741967Y-9690008D01*
X6741967Y-9690008D02*
X6751491Y-9699531D01*
X6751491Y-9699531D02*
X6761015Y-9718579D01*
X6761015Y-9718579D02*
X6770539Y-9756674D01*
X6770539Y-9756674D02*
X6770539Y-9804293D01*
X6770539Y-9804293D02*
X6761015Y-9842389D01*
X6761015Y-9842389D02*
X6751491Y-9861436D01*
X6751491Y-9861436D02*
X6741967Y-9870960D01*
X6741967Y-9870960D02*
X6722920Y-9880484D01*
X6722920Y-9880484D02*
X6703872Y-9880484D01*
X6703872Y-9880484D02*
X6684824Y-9870960D01*
X6684824Y-9870960D02*
X6675301Y-9861436D01*
X6675301Y-9861436D02*
X6665777Y-9842389D01*
X6665777Y-9842389D02*
X6656253Y-9804293D01*
X6656253Y-9804293D02*
X6656253Y-9756674D01*
X6656253Y-9756674D02*
X6665777Y-9718579D01*
X6665777Y-9718579D02*
X6675301Y-9699531D01*
X6675301Y-9699531D02*
X6684824Y-9690008D01*
X6684824Y-9690008D02*
X6703872Y-9680484D01*
X6856253Y-9861436D02*
X6865777Y-9870960D01*
X6865777Y-9870960D02*
X6856253Y-9880484D01*
X6856253Y-9880484D02*
X6846729Y-9870960D01*
X6846729Y-9870960D02*
X6856253Y-9861436D01*
X6856253Y-9861436D02*
X6856253Y-9880484D01*
X7046729Y-9680484D02*
X6951491Y-9680484D01*
X6951491Y-9680484D02*
X6941967Y-9775722D01*
X6941967Y-9775722D02*
X6951491Y-9766198D01*
X6951491Y-9766198D02*
X6970539Y-9756674D01*
X6970539Y-9756674D02*
X7018158Y-9756674D01*
X7018158Y-9756674D02*
X7037205Y-9766198D01*
X7037205Y-9766198D02*
X7046729Y-9775722D01*
X7046729Y-9775722D02*
X7056253Y-9794770D01*
X7056253Y-9794770D02*
X7056253Y-9842389D01*
X7056253Y-9842389D02*
X7046729Y-9861436D01*
X7046729Y-9861436D02*
X7037205Y-9870960D01*
X7037205Y-9870960D02*
X7018158Y-9880484D01*
X7018158Y-9880484D02*
X6970539Y-9880484D01*
X6970539Y-9880484D02*
X6951491Y-9870960D01*
X6951491Y-9870960D02*
X6941967Y-9861436D01*
X7180062Y-9680484D02*
X7199110Y-9680484D01*
X7199110Y-9680484D02*
X7218158Y-9690008D01*
X7218158Y-9690008D02*
X7227682Y-9699531D01*
X7227682Y-9699531D02*
X7237205Y-9718579D01*
X7237205Y-9718579D02*
X7246729Y-9756674D01*
X7246729Y-9756674D02*
X7246729Y-9804293D01*
X7246729Y-9804293D02*
X7237205Y-9842389D01*
X7237205Y-9842389D02*
X7227682Y-9861436D01*
X7227682Y-9861436D02*
X7218158Y-9870960D01*
X7218158Y-9870960D02*
X7199110Y-9880484D01*
X7199110Y-9880484D02*
X7180062Y-9880484D01*
X7180062Y-9880484D02*
X7161015Y-9870960D01*
X7161015Y-9870960D02*
X7151491Y-9861436D01*
X7151491Y-9861436D02*
X7141967Y-9842389D01*
X7141967Y-9842389D02*
X7132443Y-9804293D01*
X7132443Y-9804293D02*
X7132443Y-9756674D01*
X7132443Y-9756674D02*
X7141967Y-9718579D01*
X7141967Y-9718579D02*
X7151491Y-9699531D01*
X7151491Y-9699531D02*
X7161015Y-9690008D01*
X7161015Y-9690008D02*
X7180062Y-9680484D01*
X7370539Y-9680484D02*
X7389586Y-9680484D01*
X7389586Y-9680484D02*
X7408634Y-9690008D01*
X7408634Y-9690008D02*
X7418158Y-9699531D01*
X7418158Y-9699531D02*
X7427682Y-9718579D01*
X7427682Y-9718579D02*
X7437205Y-9756674D01*
X7437205Y-9756674D02*
X7437205Y-9804293D01*
X7437205Y-9804293D02*
X7427682Y-9842389D01*
X7427682Y-9842389D02*
X7418158Y-9861436D01*
X7418158Y-9861436D02*
X7408634Y-9870960D01*
X7408634Y-9870960D02*
X7389586Y-9880484D01*
X7389586Y-9880484D02*
X7370539Y-9880484D01*
X7370539Y-9880484D02*
X7351491Y-9870960D01*
X7351491Y-9870960D02*
X7341967Y-9861436D01*
X7341967Y-9861436D02*
X7332443Y-9842389D01*
X7332443Y-9842389D02*
X7322920Y-9804293D01*
X7322920Y-9804293D02*
X7322920Y-9756674D01*
X7322920Y-9756674D02*
X7332443Y-9718579D01*
X7332443Y-9718579D02*
X7341967Y-9699531D01*
X7341967Y-9699531D02*
X7351491Y-9690008D01*
X7351491Y-9690008D02*
X7370539Y-9680484D01*
X7522920Y-9880484D02*
X7522920Y-9747150D01*
X7522920Y-9766198D02*
X7532443Y-9756674D01*
X7532443Y-9756674D02*
X7551491Y-9747150D01*
X7551491Y-9747150D02*
X7580063Y-9747150D01*
X7580063Y-9747150D02*
X7599110Y-9756674D01*
X7599110Y-9756674D02*
X7608634Y-9775722D01*
X7608634Y-9775722D02*
X7608634Y-9880484D01*
X7608634Y-9775722D02*
X7618158Y-9756674D01*
X7618158Y-9756674D02*
X7637205Y-9747150D01*
X7637205Y-9747150D02*
X7665777Y-9747150D01*
X7665777Y-9747150D02*
X7684824Y-9756674D01*
X7684824Y-9756674D02*
X7694348Y-9775722D01*
X7694348Y-9775722D02*
X7694348Y-9880484D01*
X7789586Y-9880484D02*
X7789586Y-9747150D01*
X7789586Y-9766198D02*
X7799110Y-9756674D01*
X7799110Y-9756674D02*
X7818158Y-9747150D01*
X7818158Y-9747150D02*
X7846729Y-9747150D01*
X7846729Y-9747150D02*
X7865777Y-9756674D01*
X7865777Y-9756674D02*
X7875301Y-9775722D01*
X7875301Y-9775722D02*
X7875301Y-9880484D01*
X7875301Y-9775722D02*
X7884824Y-9756674D01*
X7884824Y-9756674D02*
X7903872Y-9747150D01*
X7903872Y-9747150D02*
X7932443Y-9747150D01*
X7932443Y-9747150D02*
X7951491Y-9756674D01*
X7951491Y-9756674D02*
X7961015Y-9775722D01*
X7961015Y-9775722D02*
X7961015Y-9880484D01*
X8351491Y-9670960D02*
X8180063Y-9928103D01*
X8608634Y-9680484D02*
X8627682Y-9680484D01*
X8627682Y-9680484D02*
X8646729Y-9690008D01*
X8646729Y-9690008D02*
X8656253Y-9699531D01*
X8656253Y-9699531D02*
X8665777Y-9718579D01*
X8665777Y-9718579D02*
X8675301Y-9756674D01*
X8675301Y-9756674D02*
X8675301Y-9804293D01*
X8675301Y-9804293D02*
X8665777Y-9842389D01*
X8665777Y-9842389D02*
X8656253Y-9861436D01*
X8656253Y-9861436D02*
X8646729Y-9870960D01*
X8646729Y-9870960D02*
X8627682Y-9880484D01*
X8627682Y-9880484D02*
X8608634Y-9880484D01*
X8608634Y-9880484D02*
X8589587Y-9870960D01*
X8589587Y-9870960D02*
X8580063Y-9861436D01*
X8580063Y-9861436D02*
X8570539Y-9842389D01*
X8570539Y-9842389D02*
X8561015Y-9804293D01*
X8561015Y-9804293D02*
X8561015Y-9756674D01*
X8561015Y-9756674D02*
X8570539Y-9718579D01*
X8570539Y-9718579D02*
X8580063Y-9699531D01*
X8580063Y-9699531D02*
X8589587Y-9690008D01*
X8589587Y-9690008D02*
X8608634Y-9680484D01*
X8761015Y-9861436D02*
X8770539Y-9870960D01*
X8770539Y-9870960D02*
X8761015Y-9880484D01*
X8761015Y-9880484D02*
X8751491Y-9870960D01*
X8751491Y-9870960D02*
X8761015Y-9861436D01*
X8761015Y-9861436D02*
X8761015Y-9880484D01*
X8894348Y-9680484D02*
X8913396Y-9680484D01*
X8913396Y-9680484D02*
X8932444Y-9690008D01*
X8932444Y-9690008D02*
X8941968Y-9699531D01*
X8941968Y-9699531D02*
X8951491Y-9718579D01*
X8951491Y-9718579D02*
X8961015Y-9756674D01*
X8961015Y-9756674D02*
X8961015Y-9804293D01*
X8961015Y-9804293D02*
X8951491Y-9842389D01*
X8951491Y-9842389D02*
X8941968Y-9861436D01*
X8941968Y-9861436D02*
X8932444Y-9870960D01*
X8932444Y-9870960D02*
X8913396Y-9880484D01*
X8913396Y-9880484D02*
X8894348Y-9880484D01*
X8894348Y-9880484D02*
X8875301Y-9870960D01*
X8875301Y-9870960D02*
X8865777Y-9861436D01*
X8865777Y-9861436D02*
X8856253Y-9842389D01*
X8856253Y-9842389D02*
X8846729Y-9804293D01*
X8846729Y-9804293D02*
X8846729Y-9756674D01*
X8846729Y-9756674D02*
X8856253Y-9718579D01*
X8856253Y-9718579D02*
X8865777Y-9699531D01*
X8865777Y-9699531D02*
X8875301Y-9690008D01*
X8875301Y-9690008D02*
X8894348Y-9680484D01*
X9151491Y-9880484D02*
X9037206Y-9880484D01*
X9094348Y-9880484D02*
X9094348Y-9680484D01*
X9094348Y-9680484D02*
X9075301Y-9709055D01*
X9075301Y-9709055D02*
X9056253Y-9728103D01*
X9056253Y-9728103D02*
X9037206Y-9737627D01*
X9246729Y-9880484D02*
X9284825Y-9880484D01*
X9284825Y-9880484D02*
X9303872Y-9870960D01*
X9303872Y-9870960D02*
X9313396Y-9861436D01*
X9313396Y-9861436D02*
X9332444Y-9832865D01*
X9332444Y-9832865D02*
X9341968Y-9794770D01*
X9341968Y-9794770D02*
X9341968Y-9718579D01*
X9341968Y-9718579D02*
X9332444Y-9699531D01*
X9332444Y-9699531D02*
X9322920Y-9690008D01*
X9322920Y-9690008D02*
X9303872Y-9680484D01*
X9303872Y-9680484D02*
X9265777Y-9680484D01*
X9265777Y-9680484D02*
X9246729Y-9690008D01*
X9246729Y-9690008D02*
X9237206Y-9699531D01*
X9237206Y-9699531D02*
X9227682Y-9718579D01*
X9227682Y-9718579D02*
X9227682Y-9766198D01*
X9227682Y-9766198D02*
X9237206Y-9785246D01*
X9237206Y-9785246D02*
X9246729Y-9794770D01*
X9246729Y-9794770D02*
X9265777Y-9804293D01*
X9265777Y-9804293D02*
X9303872Y-9804293D01*
X9303872Y-9804293D02*
X9322920Y-9794770D01*
X9322920Y-9794770D02*
X9332444Y-9785246D01*
X9332444Y-9785246D02*
X9341968Y-9766198D01*
X9408634Y-9680484D02*
X9541968Y-9680484D01*
X9541968Y-9680484D02*
X9456253Y-9880484D01*
X9608634Y-9680484D02*
X9608634Y-9718579D01*
X9684825Y-9680484D02*
X9684825Y-9718579D01*
X9980063Y-9956674D02*
X9970539Y-9947150D01*
X9970539Y-9947150D02*
X9951491Y-9918579D01*
X9951491Y-9918579D02*
X9941968Y-9899531D01*
X9941968Y-9899531D02*
X9932444Y-9870960D01*
X9932444Y-9870960D02*
X9922920Y-9823341D01*
X9922920Y-9823341D02*
X9922920Y-9785246D01*
X9922920Y-9785246D02*
X9932444Y-9737627D01*
X9932444Y-9737627D02*
X9941968Y-9709055D01*
X9941968Y-9709055D02*
X9951491Y-9690008D01*
X9951491Y-9690008D02*
X9970539Y-9661436D01*
X9970539Y-9661436D02*
X9980063Y-9651912D01*
X10151491Y-9680484D02*
X10056253Y-9680484D01*
X10056253Y-9680484D02*
X10046730Y-9775722D01*
X10046730Y-9775722D02*
X10056253Y-9766198D01*
X10056253Y-9766198D02*
X10075301Y-9756674D01*
X10075301Y-9756674D02*
X10122920Y-9756674D01*
X10122920Y-9756674D02*
X10141968Y-9766198D01*
X10141968Y-9766198D02*
X10151491Y-9775722D01*
X10151491Y-9775722D02*
X10161015Y-9794770D01*
X10161015Y-9794770D02*
X10161015Y-9842389D01*
X10161015Y-9842389D02*
X10151491Y-9861436D01*
X10151491Y-9861436D02*
X10141968Y-9870960D01*
X10141968Y-9870960D02*
X10122920Y-9880484D01*
X10122920Y-9880484D02*
X10075301Y-9880484D01*
X10075301Y-9880484D02*
X10056253Y-9870960D01*
X10056253Y-9870960D02*
X10046730Y-9861436D01*
X10399111Y-9880484D02*
X10399111Y-9680484D01*
X10484825Y-9880484D02*
X10484825Y-9775722D01*
X10484825Y-9775722D02*
X10475301Y-9756674D01*
X10475301Y-9756674D02*
X10456253Y-9747150D01*
X10456253Y-9747150D02*
X10427682Y-9747150D01*
X10427682Y-9747150D02*
X10408634Y-9756674D01*
X10408634Y-9756674D02*
X10399111Y-9766198D01*
X10608634Y-9880484D02*
X10589587Y-9870960D01*
X10589587Y-9870960D02*
X10580063Y-9861436D01*
X10580063Y-9861436D02*
X10570539Y-9842389D01*
X10570539Y-9842389D02*
X10570539Y-9785246D01*
X10570539Y-9785246D02*
X10580063Y-9766198D01*
X10580063Y-9766198D02*
X10589587Y-9756674D01*
X10589587Y-9756674D02*
X10608634Y-9747150D01*
X10608634Y-9747150D02*
X10637206Y-9747150D01*
X10637206Y-9747150D02*
X10656253Y-9756674D01*
X10656253Y-9756674D02*
X10665777Y-9766198D01*
X10665777Y-9766198D02*
X10675301Y-9785246D01*
X10675301Y-9785246D02*
X10675301Y-9842389D01*
X10675301Y-9842389D02*
X10665777Y-9861436D01*
X10665777Y-9861436D02*
X10656253Y-9870960D01*
X10656253Y-9870960D02*
X10637206Y-9880484D01*
X10637206Y-9880484D02*
X10608634Y-9880484D01*
X10789587Y-9880484D02*
X10770539Y-9870960D01*
X10770539Y-9870960D02*
X10761015Y-9851912D01*
X10761015Y-9851912D02*
X10761015Y-9680484D01*
X10941968Y-9870960D02*
X10922920Y-9880484D01*
X10922920Y-9880484D02*
X10884825Y-9880484D01*
X10884825Y-9880484D02*
X10865777Y-9870960D01*
X10865777Y-9870960D02*
X10856253Y-9851912D01*
X10856253Y-9851912D02*
X10856253Y-9775722D01*
X10856253Y-9775722D02*
X10865777Y-9756674D01*
X10865777Y-9756674D02*
X10884825Y-9747150D01*
X10884825Y-9747150D02*
X10922920Y-9747150D01*
X10922920Y-9747150D02*
X10941968Y-9756674D01*
X10941968Y-9756674D02*
X10951492Y-9775722D01*
X10951492Y-9775722D02*
X10951492Y-9794770D01*
X10951492Y-9794770D02*
X10856253Y-9813817D01*
X11027682Y-9870960D02*
X11046730Y-9880484D01*
X11046730Y-9880484D02*
X11084825Y-9880484D01*
X11084825Y-9880484D02*
X11103873Y-9870960D01*
X11103873Y-9870960D02*
X11113396Y-9851912D01*
X11113396Y-9851912D02*
X11113396Y-9842389D01*
X11113396Y-9842389D02*
X11103873Y-9823341D01*
X11103873Y-9823341D02*
X11084825Y-9813817D01*
X11084825Y-9813817D02*
X11056253Y-9813817D01*
X11056253Y-9813817D02*
X11037206Y-9804293D01*
X11037206Y-9804293D02*
X11027682Y-9785246D01*
X11027682Y-9785246D02*
X11027682Y-9775722D01*
X11027682Y-9775722D02*
X11037206Y-9756674D01*
X11037206Y-9756674D02*
X11056253Y-9747150D01*
X11056253Y-9747150D02*
X11084825Y-9747150D01*
X11084825Y-9747150D02*
X11103873Y-9756674D01*
X11180063Y-9956674D02*
X11189587Y-9947150D01*
X11189587Y-9947150D02*
X11208634Y-9918579D01*
X11208634Y-9918579D02*
X11218158Y-9899531D01*
X11218158Y-9899531D02*
X11227682Y-9870960D01*
X11227682Y-9870960D02*
X11237206Y-9823341D01*
X11237206Y-9823341D02*
X11237206Y-9785246D01*
X11237206Y-9785246D02*
X11227682Y-9737627D01*
X11227682Y-9737627D02*
X11218158Y-9709055D01*
X11218158Y-9709055D02*
X11208634Y-9690008D01*
X11208634Y-9690008D02*
X11189587Y-9661436D01*
X11189587Y-9661436D02*
X11180063Y-9651912D01*
D14*
X6375000Y-10023000D02*
X6375000Y-10083000D01*
X6345000Y-10053000D02*
X6405000Y-10053000D01*
D11*
X6703872Y-9944484D02*
X6722920Y-9944484D01*
X6722920Y-9944484D02*
X6741967Y-9954008D01*
X6741967Y-9954008D02*
X6751491Y-9963531D01*
X6751491Y-9963531D02*
X6761015Y-9982579D01*
X6761015Y-9982579D02*
X6770539Y-10020674D01*
X6770539Y-10020674D02*
X6770539Y-10068293D01*
X6770539Y-10068293D02*
X6761015Y-10106389D01*
X6761015Y-10106389D02*
X6751491Y-10125436D01*
X6751491Y-10125436D02*
X6741967Y-10134960D01*
X6741967Y-10134960D02*
X6722920Y-10144484D01*
X6722920Y-10144484D02*
X6703872Y-10144484D01*
X6703872Y-10144484D02*
X6684824Y-10134960D01*
X6684824Y-10134960D02*
X6675301Y-10125436D01*
X6675301Y-10125436D02*
X6665777Y-10106389D01*
X6665777Y-10106389D02*
X6656253Y-10068293D01*
X6656253Y-10068293D02*
X6656253Y-10020674D01*
X6656253Y-10020674D02*
X6665777Y-9982579D01*
X6665777Y-9982579D02*
X6675301Y-9963531D01*
X6675301Y-9963531D02*
X6684824Y-9954008D01*
X6684824Y-9954008D02*
X6703872Y-9944484D01*
X6856253Y-10125436D02*
X6865777Y-10134960D01*
X6865777Y-10134960D02*
X6856253Y-10144484D01*
X6856253Y-10144484D02*
X6846729Y-10134960D01*
X6846729Y-10134960D02*
X6856253Y-10125436D01*
X6856253Y-10125436D02*
X6856253Y-10144484D01*
X7037205Y-9944484D02*
X6999110Y-9944484D01*
X6999110Y-9944484D02*
X6980062Y-9954008D01*
X6980062Y-9954008D02*
X6970539Y-9963531D01*
X6970539Y-9963531D02*
X6951491Y-9992103D01*
X6951491Y-9992103D02*
X6941967Y-10030198D01*
X6941967Y-10030198D02*
X6941967Y-10106389D01*
X6941967Y-10106389D02*
X6951491Y-10125436D01*
X6951491Y-10125436D02*
X6961015Y-10134960D01*
X6961015Y-10134960D02*
X6980062Y-10144484D01*
X6980062Y-10144484D02*
X7018158Y-10144484D01*
X7018158Y-10144484D02*
X7037205Y-10134960D01*
X7037205Y-10134960D02*
X7046729Y-10125436D01*
X7046729Y-10125436D02*
X7056253Y-10106389D01*
X7056253Y-10106389D02*
X7056253Y-10058770D01*
X7056253Y-10058770D02*
X7046729Y-10039722D01*
X7046729Y-10039722D02*
X7037205Y-10030198D01*
X7037205Y-10030198D02*
X7018158Y-10020674D01*
X7018158Y-10020674D02*
X6980062Y-10020674D01*
X6980062Y-10020674D02*
X6961015Y-10030198D01*
X6961015Y-10030198D02*
X6951491Y-10039722D01*
X6951491Y-10039722D02*
X6941967Y-10058770D01*
X7180062Y-9944484D02*
X7199110Y-9944484D01*
X7199110Y-9944484D02*
X7218158Y-9954008D01*
X7218158Y-9954008D02*
X7227682Y-9963531D01*
X7227682Y-9963531D02*
X7237205Y-9982579D01*
X7237205Y-9982579D02*
X7246729Y-10020674D01*
X7246729Y-10020674D02*
X7246729Y-10068293D01*
X7246729Y-10068293D02*
X7237205Y-10106389D01*
X7237205Y-10106389D02*
X7227682Y-10125436D01*
X7227682Y-10125436D02*
X7218158Y-10134960D01*
X7218158Y-10134960D02*
X7199110Y-10144484D01*
X7199110Y-10144484D02*
X7180062Y-10144484D01*
X7180062Y-10144484D02*
X7161015Y-10134960D01*
X7161015Y-10134960D02*
X7151491Y-10125436D01*
X7151491Y-10125436D02*
X7141967Y-10106389D01*
X7141967Y-10106389D02*
X7132443Y-10068293D01*
X7132443Y-10068293D02*
X7132443Y-10020674D01*
X7132443Y-10020674D02*
X7141967Y-9982579D01*
X7141967Y-9982579D02*
X7151491Y-9963531D01*
X7151491Y-9963531D02*
X7161015Y-9954008D01*
X7161015Y-9954008D02*
X7180062Y-9944484D01*
X7370539Y-9944484D02*
X7389586Y-9944484D01*
X7389586Y-9944484D02*
X7408634Y-9954008D01*
X7408634Y-9954008D02*
X7418158Y-9963531D01*
X7418158Y-9963531D02*
X7427682Y-9982579D01*
X7427682Y-9982579D02*
X7437205Y-10020674D01*
X7437205Y-10020674D02*
X7437205Y-10068293D01*
X7437205Y-10068293D02*
X7427682Y-10106389D01*
X7427682Y-10106389D02*
X7418158Y-10125436D01*
X7418158Y-10125436D02*
X7408634Y-10134960D01*
X7408634Y-10134960D02*
X7389586Y-10144484D01*
X7389586Y-10144484D02*
X7370539Y-10144484D01*
X7370539Y-10144484D02*
X7351491Y-10134960D01*
X7351491Y-10134960D02*
X7341967Y-10125436D01*
X7341967Y-10125436D02*
X7332443Y-10106389D01*
X7332443Y-10106389D02*
X7322920Y-10068293D01*
X7322920Y-10068293D02*
X7322920Y-10020674D01*
X7322920Y-10020674D02*
X7332443Y-9982579D01*
X7332443Y-9982579D02*
X7341967Y-9963531D01*
X7341967Y-9963531D02*
X7351491Y-9954008D01*
X7351491Y-9954008D02*
X7370539Y-9944484D01*
X7522920Y-10144484D02*
X7522920Y-10011150D01*
X7522920Y-10030198D02*
X7532443Y-10020674D01*
X7532443Y-10020674D02*
X7551491Y-10011150D01*
X7551491Y-10011150D02*
X7580063Y-10011150D01*
X7580063Y-10011150D02*
X7599110Y-10020674D01*
X7599110Y-10020674D02*
X7608634Y-10039722D01*
X7608634Y-10039722D02*
X7608634Y-10144484D01*
X7608634Y-10039722D02*
X7618158Y-10020674D01*
X7618158Y-10020674D02*
X7637205Y-10011150D01*
X7637205Y-10011150D02*
X7665777Y-10011150D01*
X7665777Y-10011150D02*
X7684824Y-10020674D01*
X7684824Y-10020674D02*
X7694348Y-10039722D01*
X7694348Y-10039722D02*
X7694348Y-10144484D01*
X7789586Y-10144484D02*
X7789586Y-10011150D01*
X7789586Y-10030198D02*
X7799110Y-10020674D01*
X7799110Y-10020674D02*
X7818158Y-10011150D01*
X7818158Y-10011150D02*
X7846729Y-10011150D01*
X7846729Y-10011150D02*
X7865777Y-10020674D01*
X7865777Y-10020674D02*
X7875301Y-10039722D01*
X7875301Y-10039722D02*
X7875301Y-10144484D01*
X7875301Y-10039722D02*
X7884824Y-10020674D01*
X7884824Y-10020674D02*
X7903872Y-10011150D01*
X7903872Y-10011150D02*
X7932443Y-10011150D01*
X7932443Y-10011150D02*
X7951491Y-10020674D01*
X7951491Y-10020674D02*
X7961015Y-10039722D01*
X7961015Y-10039722D02*
X7961015Y-10144484D01*
X8351491Y-9934960D02*
X8180063Y-10192103D01*
X8608634Y-9944484D02*
X8627682Y-9944484D01*
X8627682Y-9944484D02*
X8646729Y-9954008D01*
X8646729Y-9954008D02*
X8656253Y-9963531D01*
X8656253Y-9963531D02*
X8665777Y-9982579D01*
X8665777Y-9982579D02*
X8675301Y-10020674D01*
X8675301Y-10020674D02*
X8675301Y-10068293D01*
X8675301Y-10068293D02*
X8665777Y-10106389D01*
X8665777Y-10106389D02*
X8656253Y-10125436D01*
X8656253Y-10125436D02*
X8646729Y-10134960D01*
X8646729Y-10134960D02*
X8627682Y-10144484D01*
X8627682Y-10144484D02*
X8608634Y-10144484D01*
X8608634Y-10144484D02*
X8589587Y-10134960D01*
X8589587Y-10134960D02*
X8580063Y-10125436D01*
X8580063Y-10125436D02*
X8570539Y-10106389D01*
X8570539Y-10106389D02*
X8561015Y-10068293D01*
X8561015Y-10068293D02*
X8561015Y-10020674D01*
X8561015Y-10020674D02*
X8570539Y-9982579D01*
X8570539Y-9982579D02*
X8580063Y-9963531D01*
X8580063Y-9963531D02*
X8589587Y-9954008D01*
X8589587Y-9954008D02*
X8608634Y-9944484D01*
X8761015Y-10125436D02*
X8770539Y-10134960D01*
X8770539Y-10134960D02*
X8761015Y-10144484D01*
X8761015Y-10144484D02*
X8751491Y-10134960D01*
X8751491Y-10134960D02*
X8761015Y-10125436D01*
X8761015Y-10125436D02*
X8761015Y-10144484D01*
X8894348Y-9944484D02*
X8913396Y-9944484D01*
X8913396Y-9944484D02*
X8932444Y-9954008D01*
X8932444Y-9954008D02*
X8941968Y-9963531D01*
X8941968Y-9963531D02*
X8951491Y-9982579D01*
X8951491Y-9982579D02*
X8961015Y-10020674D01*
X8961015Y-10020674D02*
X8961015Y-10068293D01*
X8961015Y-10068293D02*
X8951491Y-10106389D01*
X8951491Y-10106389D02*
X8941968Y-10125436D01*
X8941968Y-10125436D02*
X8932444Y-10134960D01*
X8932444Y-10134960D02*
X8913396Y-10144484D01*
X8913396Y-10144484D02*
X8894348Y-10144484D01*
X8894348Y-10144484D02*
X8875301Y-10134960D01*
X8875301Y-10134960D02*
X8865777Y-10125436D01*
X8865777Y-10125436D02*
X8856253Y-10106389D01*
X8856253Y-10106389D02*
X8846729Y-10068293D01*
X8846729Y-10068293D02*
X8846729Y-10020674D01*
X8846729Y-10020674D02*
X8856253Y-9982579D01*
X8856253Y-9982579D02*
X8865777Y-9963531D01*
X8865777Y-9963531D02*
X8875301Y-9954008D01*
X8875301Y-9954008D02*
X8894348Y-9944484D01*
X9037206Y-9963531D02*
X9046729Y-9954008D01*
X9046729Y-9954008D02*
X9065777Y-9944484D01*
X9065777Y-9944484D02*
X9113396Y-9944484D01*
X9113396Y-9944484D02*
X9132444Y-9954008D01*
X9132444Y-9954008D02*
X9141968Y-9963531D01*
X9141968Y-9963531D02*
X9151491Y-9982579D01*
X9151491Y-9982579D02*
X9151491Y-10001627D01*
X9151491Y-10001627D02*
X9141968Y-10030198D01*
X9141968Y-10030198D02*
X9027682Y-10144484D01*
X9027682Y-10144484D02*
X9151491Y-10144484D01*
X9218158Y-9944484D02*
X9341968Y-9944484D01*
X9341968Y-9944484D02*
X9275301Y-10020674D01*
X9275301Y-10020674D02*
X9303872Y-10020674D01*
X9303872Y-10020674D02*
X9322920Y-10030198D01*
X9322920Y-10030198D02*
X9332444Y-10039722D01*
X9332444Y-10039722D02*
X9341968Y-10058770D01*
X9341968Y-10058770D02*
X9341968Y-10106389D01*
X9341968Y-10106389D02*
X9332444Y-10125436D01*
X9332444Y-10125436D02*
X9322920Y-10134960D01*
X9322920Y-10134960D02*
X9303872Y-10144484D01*
X9303872Y-10144484D02*
X9246729Y-10144484D01*
X9246729Y-10144484D02*
X9227682Y-10134960D01*
X9227682Y-10134960D02*
X9218158Y-10125436D01*
X9513396Y-9944484D02*
X9475301Y-9944484D01*
X9475301Y-9944484D02*
X9456253Y-9954008D01*
X9456253Y-9954008D02*
X9446729Y-9963531D01*
X9446729Y-9963531D02*
X9427682Y-9992103D01*
X9427682Y-9992103D02*
X9418158Y-10030198D01*
X9418158Y-10030198D02*
X9418158Y-10106389D01*
X9418158Y-10106389D02*
X9427682Y-10125436D01*
X9427682Y-10125436D02*
X9437206Y-10134960D01*
X9437206Y-10134960D02*
X9456253Y-10144484D01*
X9456253Y-10144484D02*
X9494349Y-10144484D01*
X9494349Y-10144484D02*
X9513396Y-10134960D01*
X9513396Y-10134960D02*
X9522920Y-10125436D01*
X9522920Y-10125436D02*
X9532444Y-10106389D01*
X9532444Y-10106389D02*
X9532444Y-10058770D01*
X9532444Y-10058770D02*
X9522920Y-10039722D01*
X9522920Y-10039722D02*
X9513396Y-10030198D01*
X9513396Y-10030198D02*
X9494349Y-10020674D01*
X9494349Y-10020674D02*
X9456253Y-10020674D01*
X9456253Y-10020674D02*
X9437206Y-10030198D01*
X9437206Y-10030198D02*
X9427682Y-10039722D01*
X9427682Y-10039722D02*
X9418158Y-10058770D01*
X9608634Y-9944484D02*
X9608634Y-9982579D01*
X9684825Y-9944484D02*
X9684825Y-9982579D01*
X9980063Y-10220674D02*
X9970539Y-10211150D01*
X9970539Y-10211150D02*
X9951491Y-10182579D01*
X9951491Y-10182579D02*
X9941968Y-10163531D01*
X9941968Y-10163531D02*
X9932444Y-10134960D01*
X9932444Y-10134960D02*
X9922920Y-10087341D01*
X9922920Y-10087341D02*
X9922920Y-10049246D01*
X9922920Y-10049246D02*
X9932444Y-10001627D01*
X9932444Y-10001627D02*
X9941968Y-9973055D01*
X9941968Y-9973055D02*
X9951491Y-9954008D01*
X9951491Y-9954008D02*
X9970539Y-9925436D01*
X9970539Y-9925436D02*
X9980063Y-9915912D01*
X10141968Y-10011150D02*
X10141968Y-10144484D01*
X10094349Y-9934960D02*
X10046730Y-10077817D01*
X10046730Y-10077817D02*
X10170539Y-10077817D01*
X10399111Y-10144484D02*
X10399111Y-9944484D01*
X10484825Y-10144484D02*
X10484825Y-10039722D01*
X10484825Y-10039722D02*
X10475301Y-10020674D01*
X10475301Y-10020674D02*
X10456253Y-10011150D01*
X10456253Y-10011150D02*
X10427682Y-10011150D01*
X10427682Y-10011150D02*
X10408634Y-10020674D01*
X10408634Y-10020674D02*
X10399111Y-10030198D01*
X10608634Y-10144484D02*
X10589587Y-10134960D01*
X10589587Y-10134960D02*
X10580063Y-10125436D01*
X10580063Y-10125436D02*
X10570539Y-10106389D01*
X10570539Y-10106389D02*
X10570539Y-10049246D01*
X10570539Y-10049246D02*
X10580063Y-10030198D01*
X10580063Y-10030198D02*
X10589587Y-10020674D01*
X10589587Y-10020674D02*
X10608634Y-10011150D01*
X10608634Y-10011150D02*
X10637206Y-10011150D01*
X10637206Y-10011150D02*
X10656253Y-10020674D01*
X10656253Y-10020674D02*
X10665777Y-10030198D01*
X10665777Y-10030198D02*
X10675301Y-10049246D01*
X10675301Y-10049246D02*
X10675301Y-10106389D01*
X10675301Y-10106389D02*
X10665777Y-10125436D01*
X10665777Y-10125436D02*
X10656253Y-10134960D01*
X10656253Y-10134960D02*
X10637206Y-10144484D01*
X10637206Y-10144484D02*
X10608634Y-10144484D01*
X10789587Y-10144484D02*
X10770539Y-10134960D01*
X10770539Y-10134960D02*
X10761015Y-10115912D01*
X10761015Y-10115912D02*
X10761015Y-9944484D01*
X10941968Y-10134960D02*
X10922920Y-10144484D01*
X10922920Y-10144484D02*
X10884825Y-10144484D01*
X10884825Y-10144484D02*
X10865777Y-10134960D01*
X10865777Y-10134960D02*
X10856253Y-10115912D01*
X10856253Y-10115912D02*
X10856253Y-10039722D01*
X10856253Y-10039722D02*
X10865777Y-10020674D01*
X10865777Y-10020674D02*
X10884825Y-10011150D01*
X10884825Y-10011150D02*
X10922920Y-10011150D01*
X10922920Y-10011150D02*
X10941968Y-10020674D01*
X10941968Y-10020674D02*
X10951492Y-10039722D01*
X10951492Y-10039722D02*
X10951492Y-10058770D01*
X10951492Y-10058770D02*
X10856253Y-10077817D01*
X11027682Y-10134960D02*
X11046730Y-10144484D01*
X11046730Y-10144484D02*
X11084825Y-10144484D01*
X11084825Y-10144484D02*
X11103873Y-10134960D01*
X11103873Y-10134960D02*
X11113396Y-10115912D01*
X11113396Y-10115912D02*
X11113396Y-10106389D01*
X11113396Y-10106389D02*
X11103873Y-10087341D01*
X11103873Y-10087341D02*
X11084825Y-10077817D01*
X11084825Y-10077817D02*
X11056253Y-10077817D01*
X11056253Y-10077817D02*
X11037206Y-10068293D01*
X11037206Y-10068293D02*
X11027682Y-10049246D01*
X11027682Y-10049246D02*
X11027682Y-10039722D01*
X11027682Y-10039722D02*
X11037206Y-10020674D01*
X11037206Y-10020674D02*
X11056253Y-10011150D01*
X11056253Y-10011150D02*
X11084825Y-10011150D01*
X11084825Y-10011150D02*
X11103873Y-10020674D01*
X11180063Y-10220674D02*
X11189587Y-10211150D01*
X11189587Y-10211150D02*
X11208634Y-10182579D01*
X11208634Y-10182579D02*
X11218158Y-10163531D01*
X11218158Y-10163531D02*
X11227682Y-10134960D01*
X11227682Y-10134960D02*
X11237206Y-10087341D01*
X11237206Y-10087341D02*
X11237206Y-10049246D01*
X11237206Y-10049246D02*
X11227682Y-10001627D01*
X11227682Y-10001627D02*
X11218158Y-9973055D01*
X11218158Y-9973055D02*
X11208634Y-9954008D01*
X11208634Y-9954008D02*
X11189587Y-9925436D01*
X11189587Y-9925436D02*
X11180063Y-9915912D01*
D15*
X6393284Y-10345285D02*
X6393284Y-10288716D01*
X6336715Y-10288716D01*
X6336715Y-10345285D01*
X6393284Y-10345285D01*
D11*
X6703872Y-10208484D02*
X6722920Y-10208484D01*
X6722920Y-10208484D02*
X6741967Y-10218008D01*
X6741967Y-10218008D02*
X6751491Y-10227531D01*
X6751491Y-10227531D02*
X6761015Y-10246579D01*
X6761015Y-10246579D02*
X6770539Y-10284674D01*
X6770539Y-10284674D02*
X6770539Y-10332293D01*
X6770539Y-10332293D02*
X6761015Y-10370389D01*
X6761015Y-10370389D02*
X6751491Y-10389436D01*
X6751491Y-10389436D02*
X6741967Y-10398960D01*
X6741967Y-10398960D02*
X6722920Y-10408484D01*
X6722920Y-10408484D02*
X6703872Y-10408484D01*
X6703872Y-10408484D02*
X6684824Y-10398960D01*
X6684824Y-10398960D02*
X6675301Y-10389436D01*
X6675301Y-10389436D02*
X6665777Y-10370389D01*
X6665777Y-10370389D02*
X6656253Y-10332293D01*
X6656253Y-10332293D02*
X6656253Y-10284674D01*
X6656253Y-10284674D02*
X6665777Y-10246579D01*
X6665777Y-10246579D02*
X6675301Y-10227531D01*
X6675301Y-10227531D02*
X6684824Y-10218008D01*
X6684824Y-10218008D02*
X6703872Y-10208484D01*
X6856253Y-10389436D02*
X6865777Y-10398960D01*
X6865777Y-10398960D02*
X6856253Y-10408484D01*
X6856253Y-10408484D02*
X6846729Y-10398960D01*
X6846729Y-10398960D02*
X6856253Y-10389436D01*
X6856253Y-10389436D02*
X6856253Y-10408484D01*
X6980062Y-10294198D02*
X6961015Y-10284674D01*
X6961015Y-10284674D02*
X6951491Y-10275150D01*
X6951491Y-10275150D02*
X6941967Y-10256103D01*
X6941967Y-10256103D02*
X6941967Y-10246579D01*
X6941967Y-10246579D02*
X6951491Y-10227531D01*
X6951491Y-10227531D02*
X6961015Y-10218008D01*
X6961015Y-10218008D02*
X6980062Y-10208484D01*
X6980062Y-10208484D02*
X7018158Y-10208484D01*
X7018158Y-10208484D02*
X7037205Y-10218008D01*
X7037205Y-10218008D02*
X7046729Y-10227531D01*
X7046729Y-10227531D02*
X7056253Y-10246579D01*
X7056253Y-10246579D02*
X7056253Y-10256103D01*
X7056253Y-10256103D02*
X7046729Y-10275150D01*
X7046729Y-10275150D02*
X7037205Y-10284674D01*
X7037205Y-10284674D02*
X7018158Y-10294198D01*
X7018158Y-10294198D02*
X6980062Y-10294198D01*
X6980062Y-10294198D02*
X6961015Y-10303722D01*
X6961015Y-10303722D02*
X6951491Y-10313246D01*
X6951491Y-10313246D02*
X6941967Y-10332293D01*
X6941967Y-10332293D02*
X6941967Y-10370389D01*
X6941967Y-10370389D02*
X6951491Y-10389436D01*
X6951491Y-10389436D02*
X6961015Y-10398960D01*
X6961015Y-10398960D02*
X6980062Y-10408484D01*
X6980062Y-10408484D02*
X7018158Y-10408484D01*
X7018158Y-10408484D02*
X7037205Y-10398960D01*
X7037205Y-10398960D02*
X7046729Y-10389436D01*
X7046729Y-10389436D02*
X7056253Y-10370389D01*
X7056253Y-10370389D02*
X7056253Y-10332293D01*
X7056253Y-10332293D02*
X7046729Y-10313246D01*
X7046729Y-10313246D02*
X7037205Y-10303722D01*
X7037205Y-10303722D02*
X7018158Y-10294198D01*
X7180062Y-10208484D02*
X7199110Y-10208484D01*
X7199110Y-10208484D02*
X7218158Y-10218008D01*
X7218158Y-10218008D02*
X7227682Y-10227531D01*
X7227682Y-10227531D02*
X7237205Y-10246579D01*
X7237205Y-10246579D02*
X7246729Y-10284674D01*
X7246729Y-10284674D02*
X7246729Y-10332293D01*
X7246729Y-10332293D02*
X7237205Y-10370389D01*
X7237205Y-10370389D02*
X7227682Y-10389436D01*
X7227682Y-10389436D02*
X7218158Y-10398960D01*
X7218158Y-10398960D02*
X7199110Y-10408484D01*
X7199110Y-10408484D02*
X7180062Y-10408484D01*
X7180062Y-10408484D02*
X7161015Y-10398960D01*
X7161015Y-10398960D02*
X7151491Y-10389436D01*
X7151491Y-10389436D02*
X7141967Y-10370389D01*
X7141967Y-10370389D02*
X7132443Y-10332293D01*
X7132443Y-10332293D02*
X7132443Y-10284674D01*
X7132443Y-10284674D02*
X7141967Y-10246579D01*
X7141967Y-10246579D02*
X7151491Y-10227531D01*
X7151491Y-10227531D02*
X7161015Y-10218008D01*
X7161015Y-10218008D02*
X7180062Y-10208484D01*
X7370539Y-10208484D02*
X7389586Y-10208484D01*
X7389586Y-10208484D02*
X7408634Y-10218008D01*
X7408634Y-10218008D02*
X7418158Y-10227531D01*
X7418158Y-10227531D02*
X7427682Y-10246579D01*
X7427682Y-10246579D02*
X7437205Y-10284674D01*
X7437205Y-10284674D02*
X7437205Y-10332293D01*
X7437205Y-10332293D02*
X7427682Y-10370389D01*
X7427682Y-10370389D02*
X7418158Y-10389436D01*
X7418158Y-10389436D02*
X7408634Y-10398960D01*
X7408634Y-10398960D02*
X7389586Y-10408484D01*
X7389586Y-10408484D02*
X7370539Y-10408484D01*
X7370539Y-10408484D02*
X7351491Y-10398960D01*
X7351491Y-10398960D02*
X7341967Y-10389436D01*
X7341967Y-10389436D02*
X7332443Y-10370389D01*
X7332443Y-10370389D02*
X7322920Y-10332293D01*
X7322920Y-10332293D02*
X7322920Y-10284674D01*
X7322920Y-10284674D02*
X7332443Y-10246579D01*
X7332443Y-10246579D02*
X7341967Y-10227531D01*
X7341967Y-10227531D02*
X7351491Y-10218008D01*
X7351491Y-10218008D02*
X7370539Y-10208484D01*
X7522920Y-10408484D02*
X7522920Y-10275150D01*
X7522920Y-10294198D02*
X7532443Y-10284674D01*
X7532443Y-10284674D02*
X7551491Y-10275150D01*
X7551491Y-10275150D02*
X7580063Y-10275150D01*
X7580063Y-10275150D02*
X7599110Y-10284674D01*
X7599110Y-10284674D02*
X7608634Y-10303722D01*
X7608634Y-10303722D02*
X7608634Y-10408484D01*
X7608634Y-10303722D02*
X7618158Y-10284674D01*
X7618158Y-10284674D02*
X7637205Y-10275150D01*
X7637205Y-10275150D02*
X7665777Y-10275150D01*
X7665777Y-10275150D02*
X7684824Y-10284674D01*
X7684824Y-10284674D02*
X7694348Y-10303722D01*
X7694348Y-10303722D02*
X7694348Y-10408484D01*
X7789586Y-10408484D02*
X7789586Y-10275150D01*
X7789586Y-10294198D02*
X7799110Y-10284674D01*
X7799110Y-10284674D02*
X7818158Y-10275150D01*
X7818158Y-10275150D02*
X7846729Y-10275150D01*
X7846729Y-10275150D02*
X7865777Y-10284674D01*
X7865777Y-10284674D02*
X7875301Y-10303722D01*
X7875301Y-10303722D02*
X7875301Y-10408484D01*
X7875301Y-10303722D02*
X7884824Y-10284674D01*
X7884824Y-10284674D02*
X7903872Y-10275150D01*
X7903872Y-10275150D02*
X7932443Y-10275150D01*
X7932443Y-10275150D02*
X7951491Y-10284674D01*
X7951491Y-10284674D02*
X7961015Y-10303722D01*
X7961015Y-10303722D02*
X7961015Y-10408484D01*
X8351491Y-10198960D02*
X8180063Y-10456103D01*
X8608634Y-10208484D02*
X8627682Y-10208484D01*
X8627682Y-10208484D02*
X8646729Y-10218008D01*
X8646729Y-10218008D02*
X8656253Y-10227531D01*
X8656253Y-10227531D02*
X8665777Y-10246579D01*
X8665777Y-10246579D02*
X8675301Y-10284674D01*
X8675301Y-10284674D02*
X8675301Y-10332293D01*
X8675301Y-10332293D02*
X8665777Y-10370389D01*
X8665777Y-10370389D02*
X8656253Y-10389436D01*
X8656253Y-10389436D02*
X8646729Y-10398960D01*
X8646729Y-10398960D02*
X8627682Y-10408484D01*
X8627682Y-10408484D02*
X8608634Y-10408484D01*
X8608634Y-10408484D02*
X8589587Y-10398960D01*
X8589587Y-10398960D02*
X8580063Y-10389436D01*
X8580063Y-10389436D02*
X8570539Y-10370389D01*
X8570539Y-10370389D02*
X8561015Y-10332293D01*
X8561015Y-10332293D02*
X8561015Y-10284674D01*
X8561015Y-10284674D02*
X8570539Y-10246579D01*
X8570539Y-10246579D02*
X8580063Y-10227531D01*
X8580063Y-10227531D02*
X8589587Y-10218008D01*
X8589587Y-10218008D02*
X8608634Y-10208484D01*
X8761015Y-10389436D02*
X8770539Y-10398960D01*
X8770539Y-10398960D02*
X8761015Y-10408484D01*
X8761015Y-10408484D02*
X8751491Y-10398960D01*
X8751491Y-10398960D02*
X8761015Y-10389436D01*
X8761015Y-10389436D02*
X8761015Y-10408484D01*
X8894348Y-10208484D02*
X8913396Y-10208484D01*
X8913396Y-10208484D02*
X8932444Y-10218008D01*
X8932444Y-10218008D02*
X8941968Y-10227531D01*
X8941968Y-10227531D02*
X8951491Y-10246579D01*
X8951491Y-10246579D02*
X8961015Y-10284674D01*
X8961015Y-10284674D02*
X8961015Y-10332293D01*
X8961015Y-10332293D02*
X8951491Y-10370389D01*
X8951491Y-10370389D02*
X8941968Y-10389436D01*
X8941968Y-10389436D02*
X8932444Y-10398960D01*
X8932444Y-10398960D02*
X8913396Y-10408484D01*
X8913396Y-10408484D02*
X8894348Y-10408484D01*
X8894348Y-10408484D02*
X8875301Y-10398960D01*
X8875301Y-10398960D02*
X8865777Y-10389436D01*
X8865777Y-10389436D02*
X8856253Y-10370389D01*
X8856253Y-10370389D02*
X8846729Y-10332293D01*
X8846729Y-10332293D02*
X8846729Y-10284674D01*
X8846729Y-10284674D02*
X8856253Y-10246579D01*
X8856253Y-10246579D02*
X8865777Y-10227531D01*
X8865777Y-10227531D02*
X8875301Y-10218008D01*
X8875301Y-10218008D02*
X8894348Y-10208484D01*
X9027682Y-10208484D02*
X9151491Y-10208484D01*
X9151491Y-10208484D02*
X9084825Y-10284674D01*
X9084825Y-10284674D02*
X9113396Y-10284674D01*
X9113396Y-10284674D02*
X9132444Y-10294198D01*
X9132444Y-10294198D02*
X9141968Y-10303722D01*
X9141968Y-10303722D02*
X9151491Y-10322770D01*
X9151491Y-10322770D02*
X9151491Y-10370389D01*
X9151491Y-10370389D02*
X9141968Y-10389436D01*
X9141968Y-10389436D02*
X9132444Y-10398960D01*
X9132444Y-10398960D02*
X9113396Y-10408484D01*
X9113396Y-10408484D02*
X9056253Y-10408484D01*
X9056253Y-10408484D02*
X9037206Y-10398960D01*
X9037206Y-10398960D02*
X9027682Y-10389436D01*
X9341968Y-10408484D02*
X9227682Y-10408484D01*
X9284825Y-10408484D02*
X9284825Y-10208484D01*
X9284825Y-10208484D02*
X9265777Y-10237055D01*
X9265777Y-10237055D02*
X9246729Y-10256103D01*
X9246729Y-10256103D02*
X9227682Y-10265627D01*
X9522920Y-10208484D02*
X9427682Y-10208484D01*
X9427682Y-10208484D02*
X9418158Y-10303722D01*
X9418158Y-10303722D02*
X9427682Y-10294198D01*
X9427682Y-10294198D02*
X9446729Y-10284674D01*
X9446729Y-10284674D02*
X9494349Y-10284674D01*
X9494349Y-10284674D02*
X9513396Y-10294198D01*
X9513396Y-10294198D02*
X9522920Y-10303722D01*
X9522920Y-10303722D02*
X9532444Y-10322770D01*
X9532444Y-10322770D02*
X9532444Y-10370389D01*
X9532444Y-10370389D02*
X9522920Y-10389436D01*
X9522920Y-10389436D02*
X9513396Y-10398960D01*
X9513396Y-10398960D02*
X9494349Y-10408484D01*
X9494349Y-10408484D02*
X9446729Y-10408484D01*
X9446729Y-10408484D02*
X9427682Y-10398960D01*
X9427682Y-10398960D02*
X9418158Y-10389436D01*
X9608634Y-10208484D02*
X9608634Y-10246579D01*
X9684825Y-10208484D02*
X9684825Y-10246579D01*
X9980063Y-10484674D02*
X9970539Y-10475150D01*
X9970539Y-10475150D02*
X9951491Y-10446579D01*
X9951491Y-10446579D02*
X9941968Y-10427531D01*
X9941968Y-10427531D02*
X9932444Y-10398960D01*
X9932444Y-10398960D02*
X9922920Y-10351341D01*
X9922920Y-10351341D02*
X9922920Y-10313246D01*
X9922920Y-10313246D02*
X9932444Y-10265627D01*
X9932444Y-10265627D02*
X9941968Y-10237055D01*
X9941968Y-10237055D02*
X9951491Y-10218008D01*
X9951491Y-10218008D02*
X9970539Y-10189436D01*
X9970539Y-10189436D02*
X9980063Y-10179912D01*
X10161015Y-10408484D02*
X10046730Y-10408484D01*
X10103872Y-10408484D02*
X10103872Y-10208484D01*
X10103872Y-10208484D02*
X10084825Y-10237055D01*
X10084825Y-10237055D02*
X10065777Y-10256103D01*
X10065777Y-10256103D02*
X10046730Y-10265627D01*
X10275301Y-10294198D02*
X10256253Y-10284674D01*
X10256253Y-10284674D02*
X10246730Y-10275150D01*
X10246730Y-10275150D02*
X10237206Y-10256103D01*
X10237206Y-10256103D02*
X10237206Y-10246579D01*
X10237206Y-10246579D02*
X10246730Y-10227531D01*
X10246730Y-10227531D02*
X10256253Y-10218008D01*
X10256253Y-10218008D02*
X10275301Y-10208484D01*
X10275301Y-10208484D02*
X10313396Y-10208484D01*
X10313396Y-10208484D02*
X10332444Y-10218008D01*
X10332444Y-10218008D02*
X10341968Y-10227531D01*
X10341968Y-10227531D02*
X10351491Y-10246579D01*
X10351491Y-10246579D02*
X10351491Y-10256103D01*
X10351491Y-10256103D02*
X10341968Y-10275150D01*
X10341968Y-10275150D02*
X10332444Y-10284674D01*
X10332444Y-10284674D02*
X10313396Y-10294198D01*
X10313396Y-10294198D02*
X10275301Y-10294198D01*
X10275301Y-10294198D02*
X10256253Y-10303722D01*
X10256253Y-10303722D02*
X10246730Y-10313246D01*
X10246730Y-10313246D02*
X10237206Y-10332293D01*
X10237206Y-10332293D02*
X10237206Y-10370389D01*
X10237206Y-10370389D02*
X10246730Y-10389436D01*
X10246730Y-10389436D02*
X10256253Y-10398960D01*
X10256253Y-10398960D02*
X10275301Y-10408484D01*
X10275301Y-10408484D02*
X10313396Y-10408484D01*
X10313396Y-10408484D02*
X10332444Y-10398960D01*
X10332444Y-10398960D02*
X10341968Y-10389436D01*
X10341968Y-10389436D02*
X10351491Y-10370389D01*
X10351491Y-10370389D02*
X10351491Y-10332293D01*
X10351491Y-10332293D02*
X10341968Y-10313246D01*
X10341968Y-10313246D02*
X10332444Y-10303722D01*
X10332444Y-10303722D02*
X10313396Y-10294198D01*
X10465777Y-10294198D02*
X10446730Y-10284674D01*
X10446730Y-10284674D02*
X10437206Y-10275150D01*
X10437206Y-10275150D02*
X10427682Y-10256103D01*
X10427682Y-10256103D02*
X10427682Y-10246579D01*
X10427682Y-10246579D02*
X10437206Y-10227531D01*
X10437206Y-10227531D02*
X10446730Y-10218008D01*
X10446730Y-10218008D02*
X10465777Y-10208484D01*
X10465777Y-10208484D02*
X10503872Y-10208484D01*
X10503872Y-10208484D02*
X10522920Y-10218008D01*
X10522920Y-10218008D02*
X10532444Y-10227531D01*
X10532444Y-10227531D02*
X10541968Y-10246579D01*
X10541968Y-10246579D02*
X10541968Y-10256103D01*
X10541968Y-10256103D02*
X10532444Y-10275150D01*
X10532444Y-10275150D02*
X10522920Y-10284674D01*
X10522920Y-10284674D02*
X10503872Y-10294198D01*
X10503872Y-10294198D02*
X10465777Y-10294198D01*
X10465777Y-10294198D02*
X10446730Y-10303722D01*
X10446730Y-10303722D02*
X10437206Y-10313246D01*
X10437206Y-10313246D02*
X10427682Y-10332293D01*
X10427682Y-10332293D02*
X10427682Y-10370389D01*
X10427682Y-10370389D02*
X10437206Y-10389436D01*
X10437206Y-10389436D02*
X10446730Y-10398960D01*
X10446730Y-10398960D02*
X10465777Y-10408484D01*
X10465777Y-10408484D02*
X10503872Y-10408484D01*
X10503872Y-10408484D02*
X10522920Y-10398960D01*
X10522920Y-10398960D02*
X10532444Y-10389436D01*
X10532444Y-10389436D02*
X10541968Y-10370389D01*
X10541968Y-10370389D02*
X10541968Y-10332293D01*
X10541968Y-10332293D02*
X10532444Y-10313246D01*
X10532444Y-10313246D02*
X10522920Y-10303722D01*
X10522920Y-10303722D02*
X10503872Y-10294198D01*
X10780063Y-10408484D02*
X10780063Y-10208484D01*
X10865777Y-10408484D02*
X10865777Y-10303722D01*
X10865777Y-10303722D02*
X10856253Y-10284674D01*
X10856253Y-10284674D02*
X10837206Y-10275150D01*
X10837206Y-10275150D02*
X10808634Y-10275150D01*
X10808634Y-10275150D02*
X10789587Y-10284674D01*
X10789587Y-10284674D02*
X10780063Y-10294198D01*
X10989587Y-10408484D02*
X10970539Y-10398960D01*
X10970539Y-10398960D02*
X10961015Y-10389436D01*
X10961015Y-10389436D02*
X10951492Y-10370389D01*
X10951492Y-10370389D02*
X10951492Y-10313246D01*
X10951492Y-10313246D02*
X10961015Y-10294198D01*
X10961015Y-10294198D02*
X10970539Y-10284674D01*
X10970539Y-10284674D02*
X10989587Y-10275150D01*
X10989587Y-10275150D02*
X11018158Y-10275150D01*
X11018158Y-10275150D02*
X11037206Y-10284674D01*
X11037206Y-10284674D02*
X11046730Y-10294198D01*
X11046730Y-10294198D02*
X11056253Y-10313246D01*
X11056253Y-10313246D02*
X11056253Y-10370389D01*
X11056253Y-10370389D02*
X11046730Y-10389436D01*
X11046730Y-10389436D02*
X11037206Y-10398960D01*
X11037206Y-10398960D02*
X11018158Y-10408484D01*
X11018158Y-10408484D02*
X10989587Y-10408484D01*
X11170539Y-10408484D02*
X11151492Y-10398960D01*
X11151492Y-10398960D02*
X11141968Y-10379912D01*
X11141968Y-10379912D02*
X11141968Y-10208484D01*
X11322920Y-10398960D02*
X11303872Y-10408484D01*
X11303872Y-10408484D02*
X11265777Y-10408484D01*
X11265777Y-10408484D02*
X11246730Y-10398960D01*
X11246730Y-10398960D02*
X11237206Y-10379912D01*
X11237206Y-10379912D02*
X11237206Y-10303722D01*
X11237206Y-10303722D02*
X11246730Y-10284674D01*
X11246730Y-10284674D02*
X11265777Y-10275150D01*
X11265777Y-10275150D02*
X11303872Y-10275150D01*
X11303872Y-10275150D02*
X11322920Y-10284674D01*
X11322920Y-10284674D02*
X11332444Y-10303722D01*
X11332444Y-10303722D02*
X11332444Y-10322770D01*
X11332444Y-10322770D02*
X11237206Y-10341817D01*
X11408634Y-10398960D02*
X11427682Y-10408484D01*
X11427682Y-10408484D02*
X11465777Y-10408484D01*
X11465777Y-10408484D02*
X11484825Y-10398960D01*
X11484825Y-10398960D02*
X11494349Y-10379912D01*
X11494349Y-10379912D02*
X11494349Y-10370389D01*
X11494349Y-10370389D02*
X11484825Y-10351341D01*
X11484825Y-10351341D02*
X11465777Y-10341817D01*
X11465777Y-10341817D02*
X11437206Y-10341817D01*
X11437206Y-10341817D02*
X11418158Y-10332293D01*
X11418158Y-10332293D02*
X11408634Y-10313246D01*
X11408634Y-10313246D02*
X11408634Y-10303722D01*
X11408634Y-10303722D02*
X11418158Y-10284674D01*
X11418158Y-10284674D02*
X11437206Y-10275150D01*
X11437206Y-10275150D02*
X11465777Y-10275150D01*
X11465777Y-10275150D02*
X11484825Y-10284674D01*
X11561015Y-10484674D02*
X11570539Y-10475150D01*
X11570539Y-10475150D02*
X11589587Y-10446579D01*
X11589587Y-10446579D02*
X11599111Y-10427531D01*
X11599111Y-10427531D02*
X11608634Y-10398960D01*
X11608634Y-10398960D02*
X11618158Y-10351341D01*
X11618158Y-10351341D02*
X11618158Y-10313246D01*
X11618158Y-10313246D02*
X11608634Y-10265627D01*
X11608634Y-10265627D02*
X11599111Y-10237055D01*
X11599111Y-10237055D02*
X11589587Y-10218008D01*
X11589587Y-10218008D02*
X11570539Y-10189436D01*
X11570539Y-10189436D02*
X11561015Y-10179912D01*
D10*
X6355000Y-10631000D02*
X6405000Y-10581000D01*
X6355000Y-10531000D01*
X6305000Y-10581000D01*
X6355000Y-10631000D01*
D11*
X6770539Y-10672484D02*
X6656253Y-10672484D01*
X6713396Y-10672484D02*
X6713396Y-10472484D01*
X6713396Y-10472484D02*
X6694348Y-10501055D01*
X6694348Y-10501055D02*
X6675301Y-10520103D01*
X6675301Y-10520103D02*
X6656253Y-10529627D01*
X6856253Y-10653436D02*
X6865777Y-10662960D01*
X6865777Y-10662960D02*
X6856253Y-10672484D01*
X6856253Y-10672484D02*
X6846729Y-10662960D01*
X6846729Y-10662960D02*
X6856253Y-10653436D01*
X6856253Y-10653436D02*
X6856253Y-10672484D01*
X6989586Y-10472484D02*
X7008634Y-10472484D01*
X7008634Y-10472484D02*
X7027682Y-10482008D01*
X7027682Y-10482008D02*
X7037205Y-10491531D01*
X7037205Y-10491531D02*
X7046729Y-10510579D01*
X7046729Y-10510579D02*
X7056253Y-10548674D01*
X7056253Y-10548674D02*
X7056253Y-10596293D01*
X7056253Y-10596293D02*
X7046729Y-10634389D01*
X7046729Y-10634389D02*
X7037205Y-10653436D01*
X7037205Y-10653436D02*
X7027682Y-10662960D01*
X7027682Y-10662960D02*
X7008634Y-10672484D01*
X7008634Y-10672484D02*
X6989586Y-10672484D01*
X6989586Y-10672484D02*
X6970539Y-10662960D01*
X6970539Y-10662960D02*
X6961015Y-10653436D01*
X6961015Y-10653436D02*
X6951491Y-10634389D01*
X6951491Y-10634389D02*
X6941967Y-10596293D01*
X6941967Y-10596293D02*
X6941967Y-10548674D01*
X6941967Y-10548674D02*
X6951491Y-10510579D01*
X6951491Y-10510579D02*
X6961015Y-10491531D01*
X6961015Y-10491531D02*
X6970539Y-10482008D01*
X6970539Y-10482008D02*
X6989586Y-10472484D01*
X7180062Y-10472484D02*
X7199110Y-10472484D01*
X7199110Y-10472484D02*
X7218158Y-10482008D01*
X7218158Y-10482008D02*
X7227682Y-10491531D01*
X7227682Y-10491531D02*
X7237205Y-10510579D01*
X7237205Y-10510579D02*
X7246729Y-10548674D01*
X7246729Y-10548674D02*
X7246729Y-10596293D01*
X7246729Y-10596293D02*
X7237205Y-10634389D01*
X7237205Y-10634389D02*
X7227682Y-10653436D01*
X7227682Y-10653436D02*
X7218158Y-10662960D01*
X7218158Y-10662960D02*
X7199110Y-10672484D01*
X7199110Y-10672484D02*
X7180062Y-10672484D01*
X7180062Y-10672484D02*
X7161015Y-10662960D01*
X7161015Y-10662960D02*
X7151491Y-10653436D01*
X7151491Y-10653436D02*
X7141967Y-10634389D01*
X7141967Y-10634389D02*
X7132443Y-10596293D01*
X7132443Y-10596293D02*
X7132443Y-10548674D01*
X7132443Y-10548674D02*
X7141967Y-10510579D01*
X7141967Y-10510579D02*
X7151491Y-10491531D01*
X7151491Y-10491531D02*
X7161015Y-10482008D01*
X7161015Y-10482008D02*
X7180062Y-10472484D01*
X7370539Y-10472484D02*
X7389586Y-10472484D01*
X7389586Y-10472484D02*
X7408634Y-10482008D01*
X7408634Y-10482008D02*
X7418158Y-10491531D01*
X7418158Y-10491531D02*
X7427682Y-10510579D01*
X7427682Y-10510579D02*
X7437205Y-10548674D01*
X7437205Y-10548674D02*
X7437205Y-10596293D01*
X7437205Y-10596293D02*
X7427682Y-10634389D01*
X7427682Y-10634389D02*
X7418158Y-10653436D01*
X7418158Y-10653436D02*
X7408634Y-10662960D01*
X7408634Y-10662960D02*
X7389586Y-10672484D01*
X7389586Y-10672484D02*
X7370539Y-10672484D01*
X7370539Y-10672484D02*
X7351491Y-10662960D01*
X7351491Y-10662960D02*
X7341967Y-10653436D01*
X7341967Y-10653436D02*
X7332443Y-10634389D01*
X7332443Y-10634389D02*
X7322920Y-10596293D01*
X7322920Y-10596293D02*
X7322920Y-10548674D01*
X7322920Y-10548674D02*
X7332443Y-10510579D01*
X7332443Y-10510579D02*
X7341967Y-10491531D01*
X7341967Y-10491531D02*
X7351491Y-10482008D01*
X7351491Y-10482008D02*
X7370539Y-10472484D01*
X7522920Y-10672484D02*
X7522920Y-10539150D01*
X7522920Y-10558198D02*
X7532443Y-10548674D01*
X7532443Y-10548674D02*
X7551491Y-10539150D01*
X7551491Y-10539150D02*
X7580063Y-10539150D01*
X7580063Y-10539150D02*
X7599110Y-10548674D01*
X7599110Y-10548674D02*
X7608634Y-10567722D01*
X7608634Y-10567722D02*
X7608634Y-10672484D01*
X7608634Y-10567722D02*
X7618158Y-10548674D01*
X7618158Y-10548674D02*
X7637205Y-10539150D01*
X7637205Y-10539150D02*
X7665777Y-10539150D01*
X7665777Y-10539150D02*
X7684824Y-10548674D01*
X7684824Y-10548674D02*
X7694348Y-10567722D01*
X7694348Y-10567722D02*
X7694348Y-10672484D01*
X7789586Y-10672484D02*
X7789586Y-10539150D01*
X7789586Y-10558198D02*
X7799110Y-10548674D01*
X7799110Y-10548674D02*
X7818158Y-10539150D01*
X7818158Y-10539150D02*
X7846729Y-10539150D01*
X7846729Y-10539150D02*
X7865777Y-10548674D01*
X7865777Y-10548674D02*
X7875301Y-10567722D01*
X7875301Y-10567722D02*
X7875301Y-10672484D01*
X7875301Y-10567722D02*
X7884824Y-10548674D01*
X7884824Y-10548674D02*
X7903872Y-10539150D01*
X7903872Y-10539150D02*
X7932443Y-10539150D01*
X7932443Y-10539150D02*
X7951491Y-10548674D01*
X7951491Y-10548674D02*
X7961015Y-10567722D01*
X7961015Y-10567722D02*
X7961015Y-10672484D01*
X8351491Y-10462960D02*
X8180063Y-10720103D01*
X8608634Y-10472484D02*
X8627682Y-10472484D01*
X8627682Y-10472484D02*
X8646729Y-10482008D01*
X8646729Y-10482008D02*
X8656253Y-10491531D01*
X8656253Y-10491531D02*
X8665777Y-10510579D01*
X8665777Y-10510579D02*
X8675301Y-10548674D01*
X8675301Y-10548674D02*
X8675301Y-10596293D01*
X8675301Y-10596293D02*
X8665777Y-10634389D01*
X8665777Y-10634389D02*
X8656253Y-10653436D01*
X8656253Y-10653436D02*
X8646729Y-10662960D01*
X8646729Y-10662960D02*
X8627682Y-10672484D01*
X8627682Y-10672484D02*
X8608634Y-10672484D01*
X8608634Y-10672484D02*
X8589587Y-10662960D01*
X8589587Y-10662960D02*
X8580063Y-10653436D01*
X8580063Y-10653436D02*
X8570539Y-10634389D01*
X8570539Y-10634389D02*
X8561015Y-10596293D01*
X8561015Y-10596293D02*
X8561015Y-10548674D01*
X8561015Y-10548674D02*
X8570539Y-10510579D01*
X8570539Y-10510579D02*
X8580063Y-10491531D01*
X8580063Y-10491531D02*
X8589587Y-10482008D01*
X8589587Y-10482008D02*
X8608634Y-10472484D01*
X8761015Y-10653436D02*
X8770539Y-10662960D01*
X8770539Y-10662960D02*
X8761015Y-10672484D01*
X8761015Y-10672484D02*
X8751491Y-10662960D01*
X8751491Y-10662960D02*
X8761015Y-10653436D01*
X8761015Y-10653436D02*
X8761015Y-10672484D01*
X8894348Y-10472484D02*
X8913396Y-10472484D01*
X8913396Y-10472484D02*
X8932444Y-10482008D01*
X8932444Y-10482008D02*
X8941968Y-10491531D01*
X8941968Y-10491531D02*
X8951491Y-10510579D01*
X8951491Y-10510579D02*
X8961015Y-10548674D01*
X8961015Y-10548674D02*
X8961015Y-10596293D01*
X8961015Y-10596293D02*
X8951491Y-10634389D01*
X8951491Y-10634389D02*
X8941968Y-10653436D01*
X8941968Y-10653436D02*
X8932444Y-10662960D01*
X8932444Y-10662960D02*
X8913396Y-10672484D01*
X8913396Y-10672484D02*
X8894348Y-10672484D01*
X8894348Y-10672484D02*
X8875301Y-10662960D01*
X8875301Y-10662960D02*
X8865777Y-10653436D01*
X8865777Y-10653436D02*
X8856253Y-10634389D01*
X8856253Y-10634389D02*
X8846729Y-10596293D01*
X8846729Y-10596293D02*
X8846729Y-10548674D01*
X8846729Y-10548674D02*
X8856253Y-10510579D01*
X8856253Y-10510579D02*
X8865777Y-10491531D01*
X8865777Y-10491531D02*
X8875301Y-10482008D01*
X8875301Y-10482008D02*
X8894348Y-10472484D01*
X9027682Y-10472484D02*
X9151491Y-10472484D01*
X9151491Y-10472484D02*
X9084825Y-10548674D01*
X9084825Y-10548674D02*
X9113396Y-10548674D01*
X9113396Y-10548674D02*
X9132444Y-10558198D01*
X9132444Y-10558198D02*
X9141968Y-10567722D01*
X9141968Y-10567722D02*
X9151491Y-10586770D01*
X9151491Y-10586770D02*
X9151491Y-10634389D01*
X9151491Y-10634389D02*
X9141968Y-10653436D01*
X9141968Y-10653436D02*
X9132444Y-10662960D01*
X9132444Y-10662960D02*
X9113396Y-10672484D01*
X9113396Y-10672484D02*
X9056253Y-10672484D01*
X9056253Y-10672484D02*
X9037206Y-10662960D01*
X9037206Y-10662960D02*
X9027682Y-10653436D01*
X9246729Y-10672484D02*
X9284825Y-10672484D01*
X9284825Y-10672484D02*
X9303872Y-10662960D01*
X9303872Y-10662960D02*
X9313396Y-10653436D01*
X9313396Y-10653436D02*
X9332444Y-10624865D01*
X9332444Y-10624865D02*
X9341968Y-10586770D01*
X9341968Y-10586770D02*
X9341968Y-10510579D01*
X9341968Y-10510579D02*
X9332444Y-10491531D01*
X9332444Y-10491531D02*
X9322920Y-10482008D01*
X9322920Y-10482008D02*
X9303872Y-10472484D01*
X9303872Y-10472484D02*
X9265777Y-10472484D01*
X9265777Y-10472484D02*
X9246729Y-10482008D01*
X9246729Y-10482008D02*
X9237206Y-10491531D01*
X9237206Y-10491531D02*
X9227682Y-10510579D01*
X9227682Y-10510579D02*
X9227682Y-10558198D01*
X9227682Y-10558198D02*
X9237206Y-10577246D01*
X9237206Y-10577246D02*
X9246729Y-10586770D01*
X9246729Y-10586770D02*
X9265777Y-10596293D01*
X9265777Y-10596293D02*
X9303872Y-10596293D01*
X9303872Y-10596293D02*
X9322920Y-10586770D01*
X9322920Y-10586770D02*
X9332444Y-10577246D01*
X9332444Y-10577246D02*
X9341968Y-10558198D01*
X9513396Y-10539150D02*
X9513396Y-10672484D01*
X9465777Y-10462960D02*
X9418158Y-10605817D01*
X9418158Y-10605817D02*
X9541968Y-10605817D01*
X9608634Y-10472484D02*
X9608634Y-10510579D01*
X9684825Y-10472484D02*
X9684825Y-10510579D01*
X9980063Y-10748674D02*
X9970539Y-10739150D01*
X9970539Y-10739150D02*
X9951491Y-10710579D01*
X9951491Y-10710579D02*
X9941968Y-10691531D01*
X9941968Y-10691531D02*
X9932444Y-10662960D01*
X9932444Y-10662960D02*
X9922920Y-10615341D01*
X9922920Y-10615341D02*
X9922920Y-10577246D01*
X9922920Y-10577246D02*
X9932444Y-10529627D01*
X9932444Y-10529627D02*
X9941968Y-10501055D01*
X9941968Y-10501055D02*
X9951491Y-10482008D01*
X9951491Y-10482008D02*
X9970539Y-10453436D01*
X9970539Y-10453436D02*
X9980063Y-10443912D01*
X10084825Y-10558198D02*
X10065777Y-10548674D01*
X10065777Y-10548674D02*
X10056253Y-10539150D01*
X10056253Y-10539150D02*
X10046730Y-10520103D01*
X10046730Y-10520103D02*
X10046730Y-10510579D01*
X10046730Y-10510579D02*
X10056253Y-10491531D01*
X10056253Y-10491531D02*
X10065777Y-10482008D01*
X10065777Y-10482008D02*
X10084825Y-10472484D01*
X10084825Y-10472484D02*
X10122920Y-10472484D01*
X10122920Y-10472484D02*
X10141968Y-10482008D01*
X10141968Y-10482008D02*
X10151491Y-10491531D01*
X10151491Y-10491531D02*
X10161015Y-10510579D01*
X10161015Y-10510579D02*
X10161015Y-10520103D01*
X10161015Y-10520103D02*
X10151491Y-10539150D01*
X10151491Y-10539150D02*
X10141968Y-10548674D01*
X10141968Y-10548674D02*
X10122920Y-10558198D01*
X10122920Y-10558198D02*
X10084825Y-10558198D01*
X10084825Y-10558198D02*
X10065777Y-10567722D01*
X10065777Y-10567722D02*
X10056253Y-10577246D01*
X10056253Y-10577246D02*
X10046730Y-10596293D01*
X10046730Y-10596293D02*
X10046730Y-10634389D01*
X10046730Y-10634389D02*
X10056253Y-10653436D01*
X10056253Y-10653436D02*
X10065777Y-10662960D01*
X10065777Y-10662960D02*
X10084825Y-10672484D01*
X10084825Y-10672484D02*
X10122920Y-10672484D01*
X10122920Y-10672484D02*
X10141968Y-10662960D01*
X10141968Y-10662960D02*
X10151491Y-10653436D01*
X10151491Y-10653436D02*
X10161015Y-10634389D01*
X10161015Y-10634389D02*
X10161015Y-10596293D01*
X10161015Y-10596293D02*
X10151491Y-10577246D01*
X10151491Y-10577246D02*
X10141968Y-10567722D01*
X10141968Y-10567722D02*
X10122920Y-10558198D01*
X10399111Y-10672484D02*
X10399111Y-10472484D01*
X10484825Y-10672484D02*
X10484825Y-10567722D01*
X10484825Y-10567722D02*
X10475301Y-10548674D01*
X10475301Y-10548674D02*
X10456253Y-10539150D01*
X10456253Y-10539150D02*
X10427682Y-10539150D01*
X10427682Y-10539150D02*
X10408634Y-10548674D01*
X10408634Y-10548674D02*
X10399111Y-10558198D01*
X10608634Y-10672484D02*
X10589587Y-10662960D01*
X10589587Y-10662960D02*
X10580063Y-10653436D01*
X10580063Y-10653436D02*
X10570539Y-10634389D01*
X10570539Y-10634389D02*
X10570539Y-10577246D01*
X10570539Y-10577246D02*
X10580063Y-10558198D01*
X10580063Y-10558198D02*
X10589587Y-10548674D01*
X10589587Y-10548674D02*
X10608634Y-10539150D01*
X10608634Y-10539150D02*
X10637206Y-10539150D01*
X10637206Y-10539150D02*
X10656253Y-10548674D01*
X10656253Y-10548674D02*
X10665777Y-10558198D01*
X10665777Y-10558198D02*
X10675301Y-10577246D01*
X10675301Y-10577246D02*
X10675301Y-10634389D01*
X10675301Y-10634389D02*
X10665777Y-10653436D01*
X10665777Y-10653436D02*
X10656253Y-10662960D01*
X10656253Y-10662960D02*
X10637206Y-10672484D01*
X10637206Y-10672484D02*
X10608634Y-10672484D01*
X10789587Y-10672484D02*
X10770539Y-10662960D01*
X10770539Y-10662960D02*
X10761015Y-10643912D01*
X10761015Y-10643912D02*
X10761015Y-10472484D01*
X10941968Y-10662960D02*
X10922920Y-10672484D01*
X10922920Y-10672484D02*
X10884825Y-10672484D01*
X10884825Y-10672484D02*
X10865777Y-10662960D01*
X10865777Y-10662960D02*
X10856253Y-10643912D01*
X10856253Y-10643912D02*
X10856253Y-10567722D01*
X10856253Y-10567722D02*
X10865777Y-10548674D01*
X10865777Y-10548674D02*
X10884825Y-10539150D01*
X10884825Y-10539150D02*
X10922920Y-10539150D01*
X10922920Y-10539150D02*
X10941968Y-10548674D01*
X10941968Y-10548674D02*
X10951492Y-10567722D01*
X10951492Y-10567722D02*
X10951492Y-10586770D01*
X10951492Y-10586770D02*
X10856253Y-10605817D01*
X11027682Y-10662960D02*
X11046730Y-10672484D01*
X11046730Y-10672484D02*
X11084825Y-10672484D01*
X11084825Y-10672484D02*
X11103873Y-10662960D01*
X11103873Y-10662960D02*
X11113396Y-10643912D01*
X11113396Y-10643912D02*
X11113396Y-10634389D01*
X11113396Y-10634389D02*
X11103873Y-10615341D01*
X11103873Y-10615341D02*
X11084825Y-10605817D01*
X11084825Y-10605817D02*
X11056253Y-10605817D01*
X11056253Y-10605817D02*
X11037206Y-10596293D01*
X11037206Y-10596293D02*
X11027682Y-10577246D01*
X11027682Y-10577246D02*
X11027682Y-10567722D01*
X11027682Y-10567722D02*
X11037206Y-10548674D01*
X11037206Y-10548674D02*
X11056253Y-10539150D01*
X11056253Y-10539150D02*
X11084825Y-10539150D01*
X11084825Y-10539150D02*
X11103873Y-10548674D01*
X11180063Y-10748674D02*
X11189587Y-10739150D01*
X11189587Y-10739150D02*
X11208634Y-10710579D01*
X11208634Y-10710579D02*
X11218158Y-10691531D01*
X11218158Y-10691531D02*
X11227682Y-10662960D01*
X11227682Y-10662960D02*
X11237206Y-10615341D01*
X11237206Y-10615341D02*
X11237206Y-10577246D01*
X11237206Y-10577246D02*
X11227682Y-10529627D01*
X11227682Y-10529627D02*
X11218158Y-10501055D01*
X11218158Y-10501055D02*
X11208634Y-10482008D01*
X11208634Y-10482008D02*
X11189587Y-10453436D01*
X11189587Y-10453436D02*
X11180063Y-10443912D01*
M02*
