G04 #@! TF.GenerationSoftware,KiCad,Pcbnew,7.0.5*
G04 #@! TF.CreationDate,2024-02-16T17:04:07-05:00*
G04 #@! TF.ProjectId,SoyuzLedBoard,536f7975-7a4c-4656-9442-6f6172642e6b,rev?*
G04 #@! TF.SameCoordinates,Original*
G04 #@! TF.FileFunction,Soldermask,Top*
G04 #@! TF.FilePolarity,Negative*
%FSLAX46Y46*%
G04 Gerber Fmt 4.6, Leading zero omitted, Abs format (unit mm)*
G04 Created by KiCad (PCBNEW 7.0.5) date 2024-02-16 17:04:07*
%MOMM*%
%LPD*%
G01*
G04 APERTURE LIST*
G04 Aperture macros list*
%AMRoundRect*
0 Rectangle with rounded corners*
0 $1 Rounding radius*
0 $2 $3 $4 $5 $6 $7 $8 $9 X,Y pos of 4 corners*
0 Add a 4 corners polygon primitive as box body*
4,1,4,$2,$3,$4,$5,$6,$7,$8,$9,$2,$3,0*
0 Add four circle primitives for the rounded corners*
1,1,$1+$1,$2,$3*
1,1,$1+$1,$4,$5*
1,1,$1+$1,$6,$7*
1,1,$1+$1,$8,$9*
0 Add four rect primitives between the rounded corners*
20,1,$1+$1,$2,$3,$4,$5,0*
20,1,$1+$1,$4,$5,$6,$7,0*
20,1,$1+$1,$6,$7,$8,$9,0*
20,1,$1+$1,$8,$9,$2,$3,0*%
G04 Aperture macros list end*
%ADD10C,3.200000*%
%ADD11R,1.600000X1.600000*%
%ADD12C,1.600000*%
%ADD13RoundRect,0.250000X-0.350000X-0.450000X0.350000X-0.450000X0.350000X0.450000X-0.350000X0.450000X0*%
%ADD14RoundRect,0.250000X0.350000X0.450000X-0.350000X0.450000X-0.350000X-0.450000X0.350000X-0.450000X0*%
%ADD15RoundRect,0.250000X-0.337500X-0.475000X0.337500X-0.475000X0.337500X0.475000X-0.337500X0.475000X0*%
%ADD16O,1.600000X1.600000*%
%ADD17R,1.200000X1.200000*%
%ADD18C,1.200000*%
%ADD19R,1.700000X1.700000*%
%ADD20O,1.700000X1.700000*%
G04 APERTURE END LIST*
D10*
X71500000Y-86400000D03*
D11*
X120750000Y-28400000D03*
D12*
X120750000Y-30900000D03*
X120750000Y-33400000D03*
X120750000Y-35900000D03*
X120750000Y-38400000D03*
X120750000Y-40900000D03*
X120750000Y-43400000D03*
X128250000Y-43400000D03*
X128250000Y-40900000D03*
X128250000Y-38400000D03*
X128250000Y-35900000D03*
X128250000Y-33400000D03*
X128250000Y-30900000D03*
X128250000Y-28400000D03*
D11*
X110050000Y-28400000D03*
D12*
X110050000Y-30900000D03*
X110050000Y-33400000D03*
X110050000Y-35900000D03*
X110050000Y-38400000D03*
X110050000Y-40900000D03*
X110050000Y-43400000D03*
X117550000Y-43400000D03*
X117550000Y-40900000D03*
X117550000Y-38400000D03*
X117550000Y-35900000D03*
X117550000Y-33400000D03*
X117550000Y-30900000D03*
X117550000Y-28400000D03*
D11*
X99350000Y-28400000D03*
D12*
X99350000Y-30900000D03*
X99350000Y-33400000D03*
X99350000Y-35900000D03*
X99350000Y-38400000D03*
X99350000Y-40900000D03*
X99350000Y-43400000D03*
X106850000Y-43400000D03*
X106850000Y-40900000D03*
X106850000Y-38400000D03*
X106850000Y-35900000D03*
X106850000Y-33400000D03*
X106850000Y-30900000D03*
X106850000Y-28400000D03*
D13*
X112800000Y-47300000D03*
X114800000Y-47300000D03*
D10*
X129000000Y-22400000D03*
D14*
X79200000Y-60200000D03*
X81200000Y-60200000D03*
D15*
X78525000Y-55400000D03*
X80600000Y-55400000D03*
D11*
X77950000Y-64400000D03*
D12*
X77950000Y-66900000D03*
X77950000Y-69400000D03*
X77950000Y-71900000D03*
X77950000Y-74400000D03*
X77950000Y-76900000D03*
X77950000Y-79400000D03*
X85450000Y-79400000D03*
X85450000Y-76900000D03*
X85450000Y-74400000D03*
X85450000Y-71900000D03*
X85450000Y-69400000D03*
X85450000Y-66900000D03*
X85450000Y-64400000D03*
D11*
X99350000Y-64400000D03*
D12*
X99350000Y-66900000D03*
X99350000Y-69400000D03*
X99350000Y-71900000D03*
X99350000Y-74400000D03*
X99350000Y-76900000D03*
X99350000Y-79400000D03*
X106850000Y-79400000D03*
X106850000Y-76900000D03*
X106850000Y-74400000D03*
X106850000Y-71900000D03*
X106850000Y-69400000D03*
X106850000Y-66900000D03*
X106850000Y-64400000D03*
D10*
X71500000Y-22400000D03*
D11*
X67250000Y-64400000D03*
D12*
X67250000Y-66900000D03*
X67250000Y-69400000D03*
X67250000Y-71900000D03*
X67250000Y-74400000D03*
X67250000Y-76900000D03*
X67250000Y-79400000D03*
X74750000Y-79400000D03*
X74750000Y-76900000D03*
X74750000Y-74400000D03*
X74750000Y-71900000D03*
X74750000Y-69400000D03*
X74750000Y-66900000D03*
X74750000Y-64400000D03*
D11*
X88650000Y-64400000D03*
D12*
X88650000Y-66900000D03*
X88650000Y-69400000D03*
X88650000Y-71900000D03*
X88650000Y-74400000D03*
X88650000Y-76900000D03*
X88650000Y-79400000D03*
X96150000Y-79400000D03*
X96150000Y-76900000D03*
X96150000Y-74400000D03*
X96150000Y-71900000D03*
X96150000Y-69400000D03*
X96150000Y-66900000D03*
X96150000Y-64400000D03*
D11*
X77950000Y-28400000D03*
D12*
X77950000Y-30900000D03*
X77950000Y-33400000D03*
X77950000Y-35900000D03*
X77950000Y-38400000D03*
X77950000Y-40900000D03*
X77950000Y-43400000D03*
X85450000Y-43400000D03*
X85450000Y-40900000D03*
X85450000Y-38400000D03*
X85450000Y-35900000D03*
X85450000Y-33400000D03*
X85450000Y-30900000D03*
X85450000Y-28400000D03*
D15*
X115425000Y-52400000D03*
X117500000Y-52400000D03*
D11*
X88650000Y-28400000D03*
D12*
X88650000Y-30900000D03*
X88650000Y-33400000D03*
X88650000Y-35900000D03*
X88650000Y-38400000D03*
X88650000Y-40900000D03*
X88650000Y-43400000D03*
X96150000Y-43400000D03*
X96150000Y-40900000D03*
X96150000Y-38400000D03*
X96150000Y-35900000D03*
X96150000Y-33400000D03*
X96150000Y-30900000D03*
X96150000Y-28400000D03*
D11*
X67250000Y-28400000D03*
D12*
X67250000Y-30900000D03*
X67250000Y-33400000D03*
X67250000Y-35900000D03*
X67250000Y-38400000D03*
X67250000Y-40900000D03*
X67250000Y-43400000D03*
X74750000Y-43400000D03*
X74750000Y-40900000D03*
X74750000Y-38400000D03*
X74750000Y-35900000D03*
X74750000Y-33400000D03*
X74750000Y-30900000D03*
X74750000Y-28400000D03*
D10*
X129000000Y-86400000D03*
D11*
X66225000Y-50100000D03*
D16*
X68765000Y-50100000D03*
X71305000Y-50100000D03*
X73845000Y-50100000D03*
X76385000Y-50100000D03*
X78925000Y-50100000D03*
X81465000Y-50100000D03*
X84005000Y-50100000D03*
X86545000Y-50100000D03*
X89085000Y-50100000D03*
X91625000Y-50100000D03*
X94165000Y-50100000D03*
X94165000Y-57720000D03*
X91625000Y-57720000D03*
X89085000Y-57720000D03*
X86545000Y-57720000D03*
X84005000Y-57720000D03*
X81465000Y-57720000D03*
X78925000Y-57720000D03*
X76385000Y-57720000D03*
X73845000Y-57720000D03*
X71305000Y-57720000D03*
X68765000Y-57720000D03*
X66225000Y-57720000D03*
D17*
X119100000Y-47572600D03*
D18*
X119100000Y-45572600D03*
D19*
X127275000Y-69200000D03*
D20*
X124735000Y-69200000D03*
X127275000Y-71740000D03*
X124735000Y-71740000D03*
X127275000Y-74280000D03*
X124735000Y-74280000D03*
X127275000Y-76820000D03*
X124735000Y-76820000D03*
D11*
X127975000Y-57700000D03*
D16*
X125435000Y-57700000D03*
X122895000Y-57700000D03*
X120355000Y-57700000D03*
X117815000Y-57700000D03*
X115275000Y-57700000D03*
X112735000Y-57700000D03*
X110195000Y-57700000D03*
X107655000Y-57700000D03*
X105115000Y-57700000D03*
X102575000Y-57700000D03*
X100035000Y-57700000D03*
X100035000Y-50080000D03*
X102575000Y-50080000D03*
X105115000Y-50080000D03*
X107655000Y-50080000D03*
X110195000Y-50080000D03*
X112735000Y-50080000D03*
X115275000Y-50080000D03*
X117815000Y-50080000D03*
X120355000Y-50080000D03*
X122895000Y-50080000D03*
X125435000Y-50080000D03*
X127975000Y-50080000D03*
D17*
X76300000Y-60100000D03*
D18*
X76300000Y-62100000D03*
M02*
