M48
; DRILL file {KiCad 7.0.5} date Fri Feb 16 17:04:18 2024
; FORMAT={-:-/ absolute / metric / decimal}
; #@! TF.CreationDate,2024-02-16T17:04:18-05:00
; #@! TF.GenerationSoftware,Kicad,Pcbnew,7.0.5
; #@! TF.FileFunction,Plated,1,2,PTH
FMAT,2
METRIC
; #@! TA.AperFunction,Plated,PTH,ViaDrill
T1C0.400
; #@! TA.AperFunction,Plated,PTH,ViaDrill
T2C0.500
; #@! TA.AperFunction,Plated,PTH,ComponentDrill
T3C0.600
; #@! TA.AperFunction,Plated,PTH,ComponentDrill
T4C0.800
; #@! TA.AperFunction,Plated,PTH,ComponentDrill
T5C1.000
%
G90
G05
T1
X74.8Y-54.4
X89.6Y-53.1
X101.3Y-54.9
X112.2Y-37.2
X113.1Y-56.0
X120.2Y-52.4
X120.3Y-55.4
X122.8Y-34.7
T2
X96.1Y-52.1
X97.4Y-46.1
X97.4Y-50.2
X107.8Y-62.0
X114.9Y-53.1
T3
X76.3Y-60.1
X76.3Y-62.1
X119.1Y-45.573
X119.1Y-47.573
T4
X66.225Y-50.1
X66.225Y-57.72
X67.25Y-28.4
X67.25Y-30.9
X67.25Y-33.4
X67.25Y-35.9
X67.25Y-38.4
X67.25Y-40.9
X67.25Y-43.4
X67.25Y-64.4
X67.25Y-66.9
X67.25Y-69.4
X67.25Y-71.9
X67.25Y-74.4
X67.25Y-76.9
X67.25Y-79.4
X68.765Y-50.1
X68.765Y-57.72
X71.305Y-50.1
X71.305Y-57.72
X73.845Y-50.1
X73.845Y-57.72
X74.75Y-28.4
X74.75Y-30.9
X74.75Y-33.4
X74.75Y-35.9
X74.75Y-38.4
X74.75Y-40.9
X74.75Y-43.4
X74.75Y-64.4
X74.75Y-66.9
X74.75Y-69.4
X74.75Y-71.9
X74.75Y-74.4
X74.75Y-76.9
X74.75Y-79.4
X76.385Y-50.1
X76.385Y-57.72
X77.95Y-28.4
X77.95Y-30.9
X77.95Y-33.4
X77.95Y-35.9
X77.95Y-38.4
X77.95Y-40.9
X77.95Y-43.4
X77.95Y-64.4
X77.95Y-66.9
X77.95Y-69.4
X77.95Y-71.9
X77.95Y-74.4
X77.95Y-76.9
X77.95Y-79.4
X78.925Y-50.1
X78.925Y-57.72
X81.465Y-50.1
X81.465Y-57.72
X84.005Y-50.1
X84.005Y-57.72
X85.45Y-28.4
X85.45Y-30.9
X85.45Y-33.4
X85.45Y-35.9
X85.45Y-38.4
X85.45Y-40.9
X85.45Y-43.4
X85.45Y-64.4
X85.45Y-66.9
X85.45Y-69.4
X85.45Y-71.9
X85.45Y-74.4
X85.45Y-76.9
X85.45Y-79.4
X86.545Y-50.1
X86.545Y-57.72
X88.65Y-28.4
X88.65Y-30.9
X88.65Y-33.4
X88.65Y-35.9
X88.65Y-38.4
X88.65Y-40.9
X88.65Y-43.4
X88.65Y-64.4
X88.65Y-66.9
X88.65Y-69.4
X88.65Y-71.9
X88.65Y-74.4
X88.65Y-76.9
X88.65Y-79.4
X89.085Y-50.1
X89.085Y-57.72
X91.625Y-50.1
X91.625Y-57.72
X94.165Y-50.1
X94.165Y-57.72
X96.15Y-28.4
X96.15Y-30.9
X96.15Y-33.4
X96.15Y-35.9
X96.15Y-38.4
X96.15Y-40.9
X96.15Y-43.4
X96.15Y-64.4
X96.15Y-66.9
X96.15Y-69.4
X96.15Y-71.9
X96.15Y-74.4
X96.15Y-76.9
X96.15Y-79.4
X99.35Y-28.4
X99.35Y-30.9
X99.35Y-33.4
X99.35Y-35.9
X99.35Y-38.4
X99.35Y-40.9
X99.35Y-43.4
X99.35Y-64.4
X99.35Y-66.9
X99.35Y-69.4
X99.35Y-71.9
X99.35Y-74.4
X99.35Y-76.9
X99.35Y-79.4
X100.035Y-50.08
X100.035Y-57.7
X102.575Y-50.08
X102.575Y-57.7
X105.115Y-50.08
X105.115Y-57.7
X106.85Y-28.4
X106.85Y-30.9
X106.85Y-33.4
X106.85Y-35.9
X106.85Y-38.4
X106.85Y-40.9
X106.85Y-43.4
X106.85Y-64.4
X106.85Y-66.9
X106.85Y-69.4
X106.85Y-71.9
X106.85Y-74.4
X106.85Y-76.9
X106.85Y-79.4
X107.655Y-50.08
X107.655Y-57.7
X110.05Y-28.4
X110.05Y-30.9
X110.05Y-33.4
X110.05Y-35.9
X110.05Y-38.4
X110.05Y-40.9
X110.05Y-43.4
X110.195Y-50.08
X110.195Y-57.7
X112.735Y-50.08
X112.735Y-57.7
X115.275Y-50.08
X115.275Y-57.7
X117.55Y-28.4
X117.55Y-30.9
X117.55Y-33.4
X117.55Y-35.9
X117.55Y-38.4
X117.55Y-40.9
X117.55Y-43.4
X117.815Y-50.08
X117.815Y-57.7
X120.355Y-50.08
X120.355Y-57.7
X120.75Y-28.4
X120.75Y-30.9
X120.75Y-33.4
X120.75Y-35.9
X120.75Y-38.4
X120.75Y-40.9
X120.75Y-43.4
X122.895Y-50.08
X122.895Y-57.7
X125.435Y-50.08
X125.435Y-57.7
X127.975Y-50.08
X127.975Y-57.7
X128.25Y-28.4
X128.25Y-30.9
X128.25Y-33.4
X128.25Y-35.9
X128.25Y-38.4
X128.25Y-40.9
X128.25Y-43.4
T5
X124.735Y-69.2
X124.735Y-71.74
X124.735Y-74.28
X124.735Y-76.82
X127.275Y-69.2
X127.275Y-71.74
X127.275Y-74.28
X127.275Y-76.82
T0
M30
