G04 #@! TF.GenerationSoftware,KiCad,Pcbnew,7.0.5*
G04 #@! TF.CreationDate,2024-02-16T17:04:07-05:00*
G04 #@! TF.ProjectId,SoyuzLedBoard,536f7975-7a4c-4656-9442-6f6172642e6b,rev?*
G04 #@! TF.SameCoordinates,Original*
G04 #@! TF.FileFunction,Copper,L1,Top*
G04 #@! TF.FilePolarity,Positive*
%FSLAX46Y46*%
G04 Gerber Fmt 4.6, Leading zero omitted, Abs format (unit mm)*
G04 Created by KiCad (PCBNEW 7.0.5) date 2024-02-16 17:04:07*
%MOMM*%
%LPD*%
G01*
G04 APERTURE LIST*
G04 Aperture macros list*
%AMRoundRect*
0 Rectangle with rounded corners*
0 $1 Rounding radius*
0 $2 $3 $4 $5 $6 $7 $8 $9 X,Y pos of 4 corners*
0 Add a 4 corners polygon primitive as box body*
4,1,4,$2,$3,$4,$5,$6,$7,$8,$9,$2,$3,0*
0 Add four circle primitives for the rounded corners*
1,1,$1+$1,$2,$3*
1,1,$1+$1,$4,$5*
1,1,$1+$1,$6,$7*
1,1,$1+$1,$8,$9*
0 Add four rect primitives between the rounded corners*
20,1,$1+$1,$2,$3,$4,$5,0*
20,1,$1+$1,$4,$5,$6,$7,0*
20,1,$1+$1,$6,$7,$8,$9,0*
20,1,$1+$1,$8,$9,$2,$3,0*%
G04 Aperture macros list end*
G04 #@! TA.AperFunction,ComponentPad*
%ADD10R,1.600000X1.600000*%
G04 #@! TD*
G04 #@! TA.AperFunction,ComponentPad*
%ADD11C,1.600000*%
G04 #@! TD*
G04 #@! TA.AperFunction,SMDPad,CuDef*
%ADD12RoundRect,0.250000X-0.350000X-0.450000X0.350000X-0.450000X0.350000X0.450000X-0.350000X0.450000X0*%
G04 #@! TD*
G04 #@! TA.AperFunction,SMDPad,CuDef*
%ADD13RoundRect,0.250000X0.350000X0.450000X-0.350000X0.450000X-0.350000X-0.450000X0.350000X-0.450000X0*%
G04 #@! TD*
G04 #@! TA.AperFunction,SMDPad,CuDef*
%ADD14RoundRect,0.250000X-0.337500X-0.475000X0.337500X-0.475000X0.337500X0.475000X-0.337500X0.475000X0*%
G04 #@! TD*
G04 #@! TA.AperFunction,ComponentPad*
%ADD15O,1.600000X1.600000*%
G04 #@! TD*
G04 #@! TA.AperFunction,ComponentPad*
%ADD16R,1.200000X1.200000*%
G04 #@! TD*
G04 #@! TA.AperFunction,ComponentPad*
%ADD17C,1.200000*%
G04 #@! TD*
G04 #@! TA.AperFunction,ComponentPad*
%ADD18R,1.700000X1.700000*%
G04 #@! TD*
G04 #@! TA.AperFunction,ComponentPad*
%ADD19O,1.700000X1.700000*%
G04 #@! TD*
G04 #@! TA.AperFunction,ViaPad*
%ADD20C,1.000000*%
G04 #@! TD*
G04 #@! TA.AperFunction,ViaPad*
%ADD21C,0.800000*%
G04 #@! TD*
G04 #@! TA.AperFunction,Conductor*
%ADD22C,0.800000*%
G04 #@! TD*
G04 #@! TA.AperFunction,Conductor*
%ADD23C,0.600000*%
G04 #@! TD*
G04 #@! TA.AperFunction,Conductor*
%ADD24C,0.400000*%
G04 #@! TD*
G04 #@! TA.AperFunction,Conductor*
%ADD25C,0.250000*%
G04 #@! TD*
G04 #@! TA.AperFunction,Conductor*
%ADD26C,0.500000*%
G04 #@! TD*
G04 #@! TA.AperFunction,Conductor*
%ADD27C,0.550000*%
G04 #@! TD*
G04 APERTURE END LIST*
D10*
X120750000Y-28400000D03*
D11*
X120750000Y-30900000D03*
X120750000Y-33400000D03*
X120750000Y-35900000D03*
X120750000Y-38400000D03*
X120750000Y-40900000D03*
X120750000Y-43400000D03*
X128250000Y-43400000D03*
X128250000Y-40900000D03*
X128250000Y-38400000D03*
X128250000Y-35900000D03*
X128250000Y-33400000D03*
X128250000Y-30900000D03*
X128250000Y-28400000D03*
D10*
X110050000Y-28400000D03*
D11*
X110050000Y-30900000D03*
X110050000Y-33400000D03*
X110050000Y-35900000D03*
X110050000Y-38400000D03*
X110050000Y-40900000D03*
X110050000Y-43400000D03*
X117550000Y-43400000D03*
X117550000Y-40900000D03*
X117550000Y-38400000D03*
X117550000Y-35900000D03*
X117550000Y-33400000D03*
X117550000Y-30900000D03*
X117550000Y-28400000D03*
D10*
X99350000Y-28400000D03*
D11*
X99350000Y-30900000D03*
X99350000Y-33400000D03*
X99350000Y-35900000D03*
X99350000Y-38400000D03*
X99350000Y-40900000D03*
X99350000Y-43400000D03*
X106850000Y-43400000D03*
X106850000Y-40900000D03*
X106850000Y-38400000D03*
X106850000Y-35900000D03*
X106850000Y-33400000D03*
X106850000Y-30900000D03*
X106850000Y-28400000D03*
D12*
X112800000Y-47300000D03*
X114800000Y-47300000D03*
D13*
X79200000Y-60200000D03*
X81200000Y-60200000D03*
D14*
X78525000Y-55400000D03*
X80600000Y-55400000D03*
D10*
X77950000Y-64400000D03*
D11*
X77950000Y-66900000D03*
X77950000Y-69400000D03*
X77950000Y-71900000D03*
X77950000Y-74400000D03*
X77950000Y-76900000D03*
X77950000Y-79400000D03*
X85450000Y-79400000D03*
X85450000Y-76900000D03*
X85450000Y-74400000D03*
X85450000Y-71900000D03*
X85450000Y-69400000D03*
X85450000Y-66900000D03*
X85450000Y-64400000D03*
D10*
X99350000Y-64400000D03*
D11*
X99350000Y-66900000D03*
X99350000Y-69400000D03*
X99350000Y-71900000D03*
X99350000Y-74400000D03*
X99350000Y-76900000D03*
X99350000Y-79400000D03*
X106850000Y-79400000D03*
X106850000Y-76900000D03*
X106850000Y-74400000D03*
X106850000Y-71900000D03*
X106850000Y-69400000D03*
X106850000Y-66900000D03*
X106850000Y-64400000D03*
D10*
X67250000Y-64400000D03*
D11*
X67250000Y-66900000D03*
X67250000Y-69400000D03*
X67250000Y-71900000D03*
X67250000Y-74400000D03*
X67250000Y-76900000D03*
X67250000Y-79400000D03*
X74750000Y-79400000D03*
X74750000Y-76900000D03*
X74750000Y-74400000D03*
X74750000Y-71900000D03*
X74750000Y-69400000D03*
X74750000Y-66900000D03*
X74750000Y-64400000D03*
D10*
X88650000Y-64400000D03*
D11*
X88650000Y-66900000D03*
X88650000Y-69400000D03*
X88650000Y-71900000D03*
X88650000Y-74400000D03*
X88650000Y-76900000D03*
X88650000Y-79400000D03*
X96150000Y-79400000D03*
X96150000Y-76900000D03*
X96150000Y-74400000D03*
X96150000Y-71900000D03*
X96150000Y-69400000D03*
X96150000Y-66900000D03*
X96150000Y-64400000D03*
D10*
X77950000Y-28400000D03*
D11*
X77950000Y-30900000D03*
X77950000Y-33400000D03*
X77950000Y-35900000D03*
X77950000Y-38400000D03*
X77950000Y-40900000D03*
X77950000Y-43400000D03*
X85450000Y-43400000D03*
X85450000Y-40900000D03*
X85450000Y-38400000D03*
X85450000Y-35900000D03*
X85450000Y-33400000D03*
X85450000Y-30900000D03*
X85450000Y-28400000D03*
D14*
X115425000Y-52400000D03*
X117500000Y-52400000D03*
D10*
X88650000Y-28400000D03*
D11*
X88650000Y-30900000D03*
X88650000Y-33400000D03*
X88650000Y-35900000D03*
X88650000Y-38400000D03*
X88650000Y-40900000D03*
X88650000Y-43400000D03*
X96150000Y-43400000D03*
X96150000Y-40900000D03*
X96150000Y-38400000D03*
X96150000Y-35900000D03*
X96150000Y-33400000D03*
X96150000Y-30900000D03*
X96150000Y-28400000D03*
D10*
X67250000Y-28400000D03*
D11*
X67250000Y-30900000D03*
X67250000Y-33400000D03*
X67250000Y-35900000D03*
X67250000Y-38400000D03*
X67250000Y-40900000D03*
X67250000Y-43400000D03*
X74750000Y-43400000D03*
X74750000Y-40900000D03*
X74750000Y-38400000D03*
X74750000Y-35900000D03*
X74750000Y-33400000D03*
X74750000Y-30900000D03*
X74750000Y-28400000D03*
D10*
X66225000Y-50100000D03*
D15*
X68765000Y-50100000D03*
X71305000Y-50100000D03*
X73845000Y-50100000D03*
X76385000Y-50100000D03*
X78925000Y-50100000D03*
X81465000Y-50100000D03*
X84005000Y-50100000D03*
X86545000Y-50100000D03*
X89085000Y-50100000D03*
X91625000Y-50100000D03*
X94165000Y-50100000D03*
X94165000Y-57720000D03*
X91625000Y-57720000D03*
X89085000Y-57720000D03*
X86545000Y-57720000D03*
X84005000Y-57720000D03*
X81465000Y-57720000D03*
X78925000Y-57720000D03*
X76385000Y-57720000D03*
X73845000Y-57720000D03*
X71305000Y-57720000D03*
X68765000Y-57720000D03*
X66225000Y-57720000D03*
D16*
X119100000Y-47572600D03*
D17*
X119100000Y-45572600D03*
D18*
X127275000Y-69200000D03*
D19*
X124735000Y-69200000D03*
X127275000Y-71740000D03*
X124735000Y-71740000D03*
X127275000Y-74280000D03*
X124735000Y-74280000D03*
X127275000Y-76820000D03*
X124735000Y-76820000D03*
D10*
X127975000Y-57700000D03*
D15*
X125435000Y-57700000D03*
X122895000Y-57700000D03*
X120355000Y-57700000D03*
X117815000Y-57700000D03*
X115275000Y-57700000D03*
X112735000Y-57700000D03*
X110195000Y-57700000D03*
X107655000Y-57700000D03*
X105115000Y-57700000D03*
X102575000Y-57700000D03*
X100035000Y-57700000D03*
X100035000Y-50080000D03*
X102575000Y-50080000D03*
X105115000Y-50080000D03*
X107655000Y-50080000D03*
X110195000Y-50080000D03*
X112735000Y-50080000D03*
X115275000Y-50080000D03*
X117815000Y-50080000D03*
X120355000Y-50080000D03*
X122895000Y-50080000D03*
X125435000Y-50080000D03*
X127975000Y-50080000D03*
D16*
X76300000Y-60100000D03*
D17*
X76300000Y-62100000D03*
D20*
X97400000Y-46100000D03*
X97400000Y-50200000D03*
X96100000Y-52100000D03*
D21*
X101300000Y-54900000D03*
X74800000Y-54400000D03*
D20*
X107800000Y-62000000D03*
X114900000Y-53100000D03*
D21*
X120300000Y-55400000D03*
X120200000Y-52400000D03*
X113100000Y-56000000D03*
X112200000Y-37200000D03*
X122800000Y-34700000D03*
X89600000Y-53100000D03*
D22*
X107900000Y-57700000D02*
X109800000Y-59600000D01*
D23*
X107655000Y-57700000D02*
X107900000Y-57700000D01*
D24*
X78200000Y-62000000D02*
X76300000Y-60100000D01*
X107800000Y-62000000D02*
X78200000Y-62000000D01*
D25*
X118000000Y-69200000D02*
X124735000Y-69200000D01*
X108100000Y-59300000D02*
X118000000Y-69200000D01*
X100035000Y-57700000D02*
X101635000Y-59300000D01*
X101635000Y-59300000D02*
X108100000Y-59300000D01*
X96945000Y-60500000D02*
X94165000Y-57720000D01*
X108200000Y-60500000D02*
X96945000Y-60500000D01*
X124735000Y-71740000D02*
X119440000Y-71740000D01*
X119440000Y-71740000D02*
X108200000Y-60500000D01*
X103900000Y-50700000D02*
X107200000Y-54000000D01*
X107200000Y-54000000D02*
X124055000Y-54000000D01*
X124055000Y-54000000D02*
X127975000Y-50080000D01*
X101575991Y-47200000D02*
X103900000Y-49524009D01*
X103900000Y-49524009D02*
X103900000Y-50700000D01*
X69125000Y-47200000D02*
X101575991Y-47200000D01*
X66225000Y-50100000D02*
X69125000Y-47200000D01*
X115275000Y-55875000D02*
X115275000Y-57700000D01*
X101300000Y-54900000D02*
X101400000Y-55000000D01*
X101400000Y-55000000D02*
X114400000Y-55000000D01*
X114400000Y-55000000D02*
X115275000Y-55875000D01*
X89950000Y-37200000D02*
X88650000Y-35900000D01*
X112200000Y-37200000D02*
X89950000Y-37200000D01*
X77950000Y-64400000D02*
X79075000Y-65525000D01*
X88650000Y-64400000D02*
X90025000Y-65775000D01*
X76825000Y-65525000D02*
X77950000Y-64400000D01*
X68375000Y-65525000D02*
X76825000Y-65525000D01*
X79075000Y-65525000D02*
X87525000Y-65525000D01*
X90025000Y-65775000D02*
X97975000Y-65775000D01*
X87525000Y-65525000D02*
X88650000Y-64400000D01*
X67250000Y-64400000D02*
X68375000Y-65525000D01*
X97975000Y-65775000D02*
X99350000Y-64400000D01*
X87525000Y-68025000D02*
X88650000Y-66900000D01*
X68375000Y-68025000D02*
X76825000Y-68025000D01*
X98225000Y-68025000D02*
X99350000Y-66900000D01*
X67250000Y-66900000D02*
X68375000Y-68025000D01*
X88650000Y-66900000D02*
X89775000Y-68025000D01*
X79075000Y-68025000D02*
X87525000Y-68025000D01*
X77950000Y-66900000D02*
X79075000Y-68025000D01*
X89775000Y-68025000D02*
X98225000Y-68025000D01*
X76825000Y-68025000D02*
X77950000Y-66900000D01*
X67250000Y-79400000D02*
X68850000Y-81000000D01*
X77950000Y-79400000D02*
X79075000Y-80525000D01*
X87525000Y-80525000D02*
X88650000Y-79400000D01*
X79075000Y-80525000D02*
X87525000Y-80525000D01*
X88650000Y-79400000D02*
X89775000Y-80525000D01*
X76350000Y-81000000D02*
X77950000Y-79400000D01*
X68850000Y-81000000D02*
X76350000Y-81000000D01*
X89775000Y-80525000D02*
X98225000Y-80525000D01*
X98225000Y-80525000D02*
X99350000Y-79400000D01*
X79800000Y-79400000D02*
X85450000Y-79400000D01*
X97759009Y-79400000D02*
X98884009Y-78275000D01*
X74750000Y-79400000D02*
X76359009Y-79400000D01*
X89375000Y-78275000D02*
X90500000Y-79400000D01*
X88184009Y-78275000D02*
X89375000Y-78275000D01*
X85450000Y-79400000D02*
X87059009Y-79400000D01*
X98884009Y-78275000D02*
X105725000Y-78275000D01*
X90500000Y-79400000D02*
X96150000Y-79400000D01*
X87059009Y-79400000D02*
X88184009Y-78275000D01*
X78675000Y-78275000D02*
X79800000Y-79400000D01*
X76359009Y-79400000D02*
X77484009Y-78275000D01*
X77484009Y-78275000D02*
X78675000Y-78275000D01*
X105725000Y-78275000D02*
X106850000Y-79400000D01*
X96150000Y-79400000D02*
X97759009Y-79400000D01*
X105725000Y-75775000D02*
X106850000Y-76900000D01*
X84075000Y-75525000D02*
X85450000Y-76900000D01*
X97275000Y-75775000D02*
X105725000Y-75775000D01*
X86575000Y-75775000D02*
X95025000Y-75775000D01*
X95025000Y-75775000D02*
X96150000Y-76900000D01*
X74625000Y-54400000D02*
X71305000Y-57720000D01*
X76125000Y-75525000D02*
X84075000Y-75525000D01*
X74800000Y-54400000D02*
X74625000Y-54400000D01*
X74750000Y-76900000D02*
X76125000Y-75525000D01*
X96150000Y-76900000D02*
X97275000Y-75775000D01*
X85450000Y-76900000D02*
X86575000Y-75775000D01*
X98884009Y-65775000D02*
X105725000Y-65775000D01*
X74750000Y-66900000D02*
X76100000Y-66900000D01*
X105725000Y-65775000D02*
X106850000Y-66900000D01*
X85450000Y-66900000D02*
X87059009Y-66900000D01*
X76100000Y-66900000D02*
X77225000Y-65775000D01*
X89388604Y-65775000D02*
X90513604Y-66900000D01*
X78688604Y-65775000D02*
X79813604Y-66900000D01*
X88184009Y-65775000D02*
X89388604Y-65775000D01*
X79813604Y-66900000D02*
X85450000Y-66900000D01*
X90513604Y-66900000D02*
X96150000Y-66900000D01*
X77225000Y-65775000D02*
X78688604Y-65775000D01*
X96150000Y-66900000D02*
X97759009Y-66900000D01*
X97759009Y-66900000D02*
X98884009Y-65775000D01*
X87059009Y-66900000D02*
X88184009Y-65775000D01*
X106850000Y-64400000D02*
X105725000Y-63275000D01*
X76625000Y-63275000D02*
X84325000Y-63275000D01*
X105725000Y-63275000D02*
X97275000Y-63275000D01*
X97275000Y-63275000D02*
X96150000Y-64400000D01*
X85450000Y-64400000D02*
X86575000Y-63275000D01*
X74750000Y-64400000D02*
X75500000Y-64400000D01*
X84325000Y-63275000D02*
X85450000Y-64400000D01*
X95025000Y-63275000D02*
X96150000Y-64400000D01*
X86575000Y-63275000D02*
X95025000Y-63275000D01*
X75500000Y-64400000D02*
X76625000Y-63275000D01*
X94165000Y-55950000D02*
X100035000Y-50080000D01*
X94165000Y-57720000D02*
X94165000Y-55950000D01*
X87350000Y-78200000D02*
X88650000Y-76900000D01*
X76825000Y-78025000D02*
X77950000Y-76900000D01*
X98225000Y-78025000D02*
X99350000Y-76900000D01*
X77950000Y-76900000D02*
X79250000Y-78200000D01*
X68375000Y-78025000D02*
X76825000Y-78025000D01*
X89775000Y-78025000D02*
X98225000Y-78025000D01*
X88650000Y-76900000D02*
X89775000Y-78025000D01*
X67250000Y-76900000D02*
X68375000Y-78025000D01*
X79250000Y-78200000D02*
X87350000Y-78200000D01*
D23*
X119100000Y-47572600D02*
X117782400Y-47572600D01*
D25*
X114800000Y-47300000D02*
X114800000Y-49605000D01*
D23*
X115275000Y-50080000D02*
X115275000Y-52250000D01*
D24*
X115425000Y-52400000D02*
X115425000Y-52575000D01*
D23*
X78925000Y-55800000D02*
X78525000Y-55400000D01*
D25*
X79200000Y-57995000D02*
X78925000Y-57720000D01*
D23*
X78925000Y-57720000D02*
X78925000Y-55800000D01*
D25*
X114800000Y-49605000D02*
X115275000Y-50080000D01*
D24*
X115275000Y-52250000D02*
X115425000Y-52400000D01*
D23*
X117782400Y-47572600D02*
X115275000Y-50080000D01*
D25*
X79200000Y-60200000D02*
X79200000Y-57995000D01*
D24*
X115425000Y-52575000D02*
X114900000Y-53100000D01*
D23*
X76545000Y-60100000D02*
X78925000Y-57720000D01*
D24*
X76300000Y-60100000D02*
X76545000Y-60100000D01*
D26*
X118527400Y-45572600D02*
X118000000Y-46100000D01*
X121555000Y-51045000D02*
X120200000Y-52400000D01*
X75185000Y-60985000D02*
X75100000Y-60900000D01*
X119100000Y-45572600D02*
X119586300Y-45572600D01*
X121555000Y-47541300D02*
X121605000Y-47591300D01*
D24*
X117500000Y-52400000D02*
X117900000Y-52800000D01*
X117900000Y-52800000D02*
X119100000Y-52800000D01*
X117800000Y-52100000D02*
X118800000Y-52100000D01*
X80600000Y-55400000D02*
X80600000Y-54800000D01*
D26*
X76300000Y-62100000D02*
X75185000Y-60985000D01*
X121605000Y-47591300D02*
X121605000Y-50995000D01*
D27*
X119100000Y-45572600D02*
X117427400Y-45572600D01*
D24*
X119100000Y-45572600D02*
X118527400Y-45572600D01*
D26*
X121605000Y-50995000D02*
X121555000Y-51045000D01*
X75100000Y-60900000D02*
X75100000Y-56300000D01*
D24*
X117427400Y-45572600D02*
X117100000Y-45900000D01*
D26*
X119586300Y-45572600D02*
X121555000Y-47541300D01*
D25*
X112800000Y-47300000D02*
X112735000Y-47365000D01*
X112735000Y-47365000D02*
X112735000Y-50080000D01*
X81465000Y-59935000D02*
X81200000Y-60200000D01*
X81465000Y-57720000D02*
X81465000Y-59935000D01*
X104150201Y-56124799D02*
X102575000Y-57700000D01*
X113100000Y-56000000D02*
X112975201Y-56124799D01*
X112975201Y-56124799D02*
X104150201Y-56124799D01*
X122800000Y-34700000D02*
X86750000Y-34700000D01*
X86750000Y-34700000D02*
X85450000Y-33400000D01*
X78925000Y-50100000D02*
X81925000Y-53100000D01*
X81925000Y-53100000D02*
X89600000Y-53100000D01*
X99350000Y-28400000D02*
X100475000Y-29525000D01*
X108925000Y-29525000D02*
X110050000Y-28400000D01*
X77950000Y-28400000D02*
X79325000Y-29775000D01*
X87275000Y-29775000D02*
X88650000Y-28400000D01*
X90025000Y-29775000D02*
X97975000Y-29775000D01*
X111175000Y-29525000D02*
X119625000Y-29525000D01*
X119625000Y-29525000D02*
X120750000Y-28400000D01*
X110050000Y-28400000D02*
X111175000Y-29525000D01*
X100475000Y-29525000D02*
X108925000Y-29525000D01*
X79325000Y-29775000D02*
X87275000Y-29775000D01*
X88650000Y-28400000D02*
X90025000Y-29775000D01*
X97975000Y-29775000D02*
X99350000Y-28400000D01*
X88650000Y-30900000D02*
X89775000Y-32025000D01*
X77950000Y-30900000D02*
X79075000Y-32025000D01*
X119625000Y-32025000D02*
X120750000Y-30900000D01*
X79075000Y-32025000D02*
X87525000Y-32025000D01*
X98225000Y-32025000D02*
X99350000Y-30900000D01*
X99350000Y-30900000D02*
X100475000Y-32025000D01*
X108925000Y-32025000D02*
X110050000Y-30900000D01*
X100475000Y-32025000D02*
X108925000Y-32025000D01*
X87525000Y-32025000D02*
X88650000Y-30900000D01*
X110050000Y-30900000D02*
X111175000Y-32025000D01*
X111175000Y-32025000D02*
X119625000Y-32025000D01*
X89775000Y-32025000D02*
X98225000Y-32025000D01*
X89775000Y-44525000D02*
X98225000Y-44525000D01*
X125435000Y-50080000D02*
X125435000Y-48085000D01*
X98225000Y-44525000D02*
X99350000Y-43400000D01*
X88650000Y-43400000D02*
X89775000Y-44525000D01*
X108925000Y-44525000D02*
X110050000Y-43400000D01*
X77950000Y-43400000D02*
X79075000Y-44525000D01*
X79075000Y-44525000D02*
X87525000Y-44525000D01*
X111175000Y-44525000D02*
X119625000Y-44525000D01*
X99350000Y-43400000D02*
X100475000Y-44525000D01*
X87525000Y-44525000D02*
X88650000Y-43400000D01*
X125435000Y-48085000D02*
X120750000Y-43400000D01*
X119625000Y-44525000D02*
X120750000Y-43400000D01*
X110050000Y-43400000D02*
X111175000Y-44525000D01*
X100475000Y-44525000D02*
X108925000Y-44525000D01*
X98884009Y-42275000D02*
X100088604Y-42275000D01*
X108459009Y-43400000D02*
X109584009Y-42275000D01*
X106850000Y-43400000D02*
X108459009Y-43400000D01*
X101213604Y-43400000D02*
X106850000Y-43400000D01*
X85450000Y-43400000D02*
X87059009Y-43400000D01*
X109584009Y-42275000D02*
X110775000Y-42275000D01*
X87059009Y-43400000D02*
X88184009Y-42275000D01*
X110775000Y-42275000D02*
X111900000Y-43400000D01*
X90500000Y-43400000D02*
X96150000Y-43400000D01*
X89375000Y-42275000D02*
X90500000Y-43400000D01*
X111900000Y-43400000D02*
X117550000Y-43400000D01*
X100088604Y-42275000D02*
X101213604Y-43400000D01*
X117550000Y-43400000D02*
X118886396Y-43400000D01*
X97759009Y-43400000D02*
X98884009Y-42275000D01*
X88184009Y-42275000D02*
X89375000Y-42275000D01*
X96150000Y-43400000D02*
X97759009Y-43400000D01*
X127125000Y-42275000D02*
X128250000Y-43400000D01*
X120011396Y-42275000D02*
X127125000Y-42275000D01*
X118886396Y-43400000D02*
X120011396Y-42275000D01*
X117550000Y-40900000D02*
X118675000Y-39775000D01*
X86575000Y-39775000D02*
X95025000Y-39775000D01*
X107975000Y-39775000D02*
X116425000Y-39775000D01*
X85450000Y-40900000D02*
X86575000Y-39775000D01*
X106850000Y-40900000D02*
X107975000Y-39775000D01*
X127125000Y-39775000D02*
X128250000Y-40900000D01*
X97275000Y-39775000D02*
X105725000Y-39775000D01*
X105725000Y-39775000D02*
X106850000Y-40900000D01*
X95025000Y-39775000D02*
X96150000Y-40900000D01*
X96150000Y-40900000D02*
X97275000Y-39775000D01*
X116425000Y-39775000D02*
X117550000Y-40900000D01*
X118675000Y-39775000D02*
X127125000Y-39775000D01*
X85450000Y-30900000D02*
X87059009Y-30900000D01*
X111913604Y-30900000D02*
X117550000Y-30900000D01*
X101213604Y-30900000D02*
X106850000Y-30900000D01*
X87059009Y-30900000D02*
X88184009Y-29775000D01*
X109584009Y-29775000D02*
X110788604Y-29775000D01*
X97759009Y-30900000D02*
X98884009Y-29775000D01*
X98884009Y-29775000D02*
X100088604Y-29775000D01*
X108459009Y-30900000D02*
X109584009Y-29775000D01*
X96150000Y-30900000D02*
X97759009Y-30900000D01*
X127125000Y-29775000D02*
X120025000Y-29775000D01*
X128250000Y-30900000D02*
X127125000Y-29775000D01*
X118900000Y-30900000D02*
X117550000Y-30900000D01*
X90513604Y-30900000D02*
X96150000Y-30900000D01*
X120025000Y-29775000D02*
X118900000Y-30900000D01*
X110788604Y-29775000D02*
X111913604Y-30900000D01*
X100088604Y-29775000D02*
X101213604Y-30900000D01*
X89388604Y-29775000D02*
X90513604Y-30900000D01*
X88184009Y-29775000D02*
X89388604Y-29775000D01*
X106850000Y-30900000D02*
X108459009Y-30900000D01*
X85450000Y-28400000D02*
X86575000Y-27275000D01*
X118675000Y-27275000D02*
X127125000Y-27275000D01*
X117550000Y-28400000D02*
X118675000Y-27275000D01*
X96150000Y-28400000D02*
X97275000Y-27275000D01*
X95025000Y-27275000D02*
X96150000Y-28400000D01*
X127125000Y-27275000D02*
X128250000Y-28400000D01*
X106850000Y-28400000D02*
X107975000Y-27275000D01*
X105725000Y-27275000D02*
X106850000Y-28400000D01*
X86575000Y-27275000D02*
X95025000Y-27275000D01*
X107975000Y-27275000D02*
X116425000Y-27275000D01*
X97275000Y-27275000D02*
X105725000Y-27275000D01*
X116425000Y-27275000D02*
X117550000Y-28400000D01*
X88650000Y-40900000D02*
X90025000Y-42275000D01*
X100475000Y-42025000D02*
X108925000Y-42025000D01*
X119625000Y-42025000D02*
X120750000Y-40900000D01*
X97975000Y-42275000D02*
X99350000Y-40900000D01*
X99350000Y-40900000D02*
X100475000Y-42025000D01*
X79075000Y-42025000D02*
X77950000Y-40900000D01*
X110050000Y-40900000D02*
X111175000Y-42025000D01*
X90025000Y-42275000D02*
X97975000Y-42275000D01*
X87525000Y-42025000D02*
X79075000Y-42025000D01*
X88650000Y-40900000D02*
X87525000Y-42025000D01*
X108925000Y-42025000D02*
X110050000Y-40900000D01*
X111175000Y-42025000D02*
X119625000Y-42025000D01*
G04 #@! TA.AperFunction,Conductor*
G36*
X126953441Y-52088661D02*
G01*
X126992909Y-52112541D01*
X130658806Y-55401320D01*
X130695561Y-55460739D01*
X130700000Y-55493619D01*
X130700000Y-76993267D01*
X130680315Y-77060306D01*
X130627511Y-77106061D01*
X130576106Y-77117267D01*
X128704387Y-77118865D01*
X128637331Y-77099238D01*
X128605904Y-77070350D01*
X128605635Y-77070000D01*
X127708686Y-77070000D01*
X127734493Y-77029844D01*
X127775000Y-76891889D01*
X127775000Y-76748111D01*
X127734493Y-76610156D01*
X127708686Y-76570000D01*
X128605636Y-76570000D01*
X128605635Y-76569999D01*
X128548432Y-76356513D01*
X128548429Y-76356507D01*
X128448600Y-76142422D01*
X128448599Y-76142420D01*
X128313113Y-75948926D01*
X128313108Y-75948920D01*
X128146078Y-75781890D01*
X127959968Y-75651573D01*
X127916343Y-75596996D01*
X127909151Y-75527498D01*
X127940673Y-75465143D01*
X127959969Y-75448424D01*
X128146079Y-75318108D01*
X128313105Y-75151082D01*
X128448600Y-74957578D01*
X128548429Y-74743492D01*
X128548432Y-74743486D01*
X128605636Y-74530000D01*
X127708686Y-74530000D01*
X127734493Y-74489844D01*
X127775000Y-74351889D01*
X127775000Y-74208111D01*
X127734493Y-74070156D01*
X127708686Y-74030000D01*
X128605636Y-74030000D01*
X128605635Y-74029999D01*
X128548432Y-73816513D01*
X128548429Y-73816507D01*
X128448600Y-73602422D01*
X128448599Y-73602420D01*
X128313113Y-73408926D01*
X128313108Y-73408920D01*
X128146078Y-73241890D01*
X127960405Y-73111879D01*
X127916780Y-73057302D01*
X127909588Y-72987804D01*
X127941110Y-72925449D01*
X127960406Y-72908730D01*
X127972807Y-72900047D01*
X128146401Y-72778495D01*
X128313495Y-72611401D01*
X128449035Y-72417830D01*
X128548903Y-72203663D01*
X128610063Y-71975408D01*
X128630659Y-71740000D01*
X128610063Y-71504592D01*
X128548903Y-71276337D01*
X128449035Y-71062171D01*
X128448651Y-71061623D01*
X128313496Y-70868600D01*
X128313493Y-70868597D01*
X128191567Y-70746671D01*
X128158084Y-70685351D01*
X128163068Y-70615659D01*
X128204939Y-70559725D01*
X128235915Y-70542810D01*
X128367331Y-70493796D01*
X128482546Y-70407546D01*
X128568796Y-70292331D01*
X128619091Y-70157483D01*
X128625500Y-70097873D01*
X128625499Y-68302128D01*
X128619091Y-68242517D01*
X128617810Y-68239083D01*
X128568797Y-68107671D01*
X128568793Y-68107664D01*
X128482547Y-67992455D01*
X128482544Y-67992452D01*
X128367335Y-67906206D01*
X128367328Y-67906202D01*
X128232482Y-67855908D01*
X128232483Y-67855908D01*
X128172883Y-67849501D01*
X128172881Y-67849500D01*
X128172873Y-67849500D01*
X128172864Y-67849500D01*
X126377129Y-67849500D01*
X126377123Y-67849501D01*
X126317516Y-67855908D01*
X126182671Y-67906202D01*
X126182664Y-67906206D01*
X126067455Y-67992452D01*
X126067452Y-67992455D01*
X125981206Y-68107664D01*
X125981203Y-68107669D01*
X125932189Y-68239083D01*
X125890317Y-68295016D01*
X125824853Y-68319433D01*
X125756580Y-68304581D01*
X125728326Y-68283430D01*
X125606402Y-68161506D01*
X125606395Y-68161501D01*
X125412834Y-68025967D01*
X125412830Y-68025965D01*
X125412828Y-68025964D01*
X125198663Y-67926097D01*
X125198659Y-67926096D01*
X125198655Y-67926094D01*
X124970413Y-67864938D01*
X124970403Y-67864936D01*
X124735001Y-67844341D01*
X124734999Y-67844341D01*
X124499596Y-67864936D01*
X124499586Y-67864938D01*
X124271344Y-67926094D01*
X124271335Y-67926098D01*
X124057171Y-68025964D01*
X124057169Y-68025965D01*
X123863597Y-68161505D01*
X123696505Y-68328597D01*
X123561348Y-68521623D01*
X123506771Y-68565248D01*
X123459773Y-68574500D01*
X123224000Y-68574500D01*
X123156961Y-68554815D01*
X123111206Y-68502011D01*
X123100000Y-68450500D01*
X123100000Y-62703847D01*
X112436370Y-62700456D01*
X112369336Y-62680750D01*
X112348728Y-62664137D01*
X108600803Y-58916212D01*
X108590980Y-58903950D01*
X108590759Y-58904134D01*
X108585786Y-58898122D01*
X108536065Y-58851431D01*
X108534663Y-58850072D01*
X108526710Y-58842118D01*
X108493229Y-58780793D01*
X108498218Y-58711101D01*
X108526716Y-58666762D01*
X108654657Y-58538820D01*
X108785132Y-58352484D01*
X108812341Y-58294134D01*
X108858513Y-58241695D01*
X108925707Y-58222542D01*
X108992588Y-58242757D01*
X109037106Y-58294133D01*
X109064431Y-58352732D01*
X109064432Y-58352734D01*
X109194954Y-58539141D01*
X109355858Y-58700045D01*
X109355861Y-58700047D01*
X109542266Y-58830568D01*
X109748504Y-58926739D01*
X109968308Y-58985635D01*
X110125780Y-58999412D01*
X110194998Y-59005468D01*
X110195000Y-59005468D01*
X110195002Y-59005468D01*
X110264220Y-58999412D01*
X110421692Y-58985635D01*
X110641496Y-58926739D01*
X110847734Y-58830568D01*
X111034139Y-58700047D01*
X111195047Y-58539139D01*
X111325568Y-58352734D01*
X111352618Y-58294724D01*
X111398790Y-58242285D01*
X111465983Y-58223133D01*
X111532865Y-58243348D01*
X111577382Y-58294725D01*
X111604429Y-58352728D01*
X111604432Y-58352734D01*
X111734954Y-58539141D01*
X111895858Y-58700045D01*
X111895861Y-58700047D01*
X112082266Y-58830568D01*
X112288504Y-58926739D01*
X112508308Y-58985635D01*
X112665780Y-58999412D01*
X112734998Y-59005468D01*
X112735000Y-59005468D01*
X112735002Y-59005468D01*
X112804220Y-58999412D01*
X112961692Y-58985635D01*
X113181496Y-58926739D01*
X113387734Y-58830568D01*
X113574139Y-58700047D01*
X113735047Y-58539139D01*
X113865568Y-58352734D01*
X113892618Y-58294724D01*
X113938790Y-58242285D01*
X114005983Y-58223133D01*
X114072865Y-58243348D01*
X114117382Y-58294725D01*
X114144429Y-58352728D01*
X114144432Y-58352734D01*
X114274954Y-58539141D01*
X114435858Y-58700045D01*
X114435861Y-58700047D01*
X114622266Y-58830568D01*
X114828504Y-58926739D01*
X115048308Y-58985635D01*
X115205780Y-58999412D01*
X115274998Y-59005468D01*
X115275000Y-59005468D01*
X115275002Y-59005468D01*
X115344220Y-58999412D01*
X115501692Y-58985635D01*
X115721496Y-58926739D01*
X115927734Y-58830568D01*
X116114139Y-58700047D01*
X116275047Y-58539139D01*
X116405568Y-58352734D01*
X116432618Y-58294724D01*
X116478790Y-58242285D01*
X116545983Y-58223133D01*
X116612865Y-58243348D01*
X116657382Y-58294725D01*
X116684429Y-58352728D01*
X116684432Y-58352734D01*
X116814954Y-58539141D01*
X116975858Y-58700045D01*
X116975861Y-58700047D01*
X117162266Y-58830568D01*
X117368504Y-58926739D01*
X117588308Y-58985635D01*
X117745780Y-58999412D01*
X117814998Y-59005468D01*
X117815000Y-59005468D01*
X117815002Y-59005468D01*
X117884220Y-58999412D01*
X118041692Y-58985635D01*
X118261496Y-58926739D01*
X118467734Y-58830568D01*
X118654139Y-58700047D01*
X118815047Y-58539139D01*
X118945568Y-58352734D01*
X118972895Y-58294129D01*
X119019064Y-58241695D01*
X119086257Y-58222542D01*
X119153139Y-58242757D01*
X119197657Y-58294133D01*
X119224865Y-58352482D01*
X119355342Y-58538820D01*
X119516179Y-58699657D01*
X119702517Y-58830134D01*
X119908673Y-58926265D01*
X119908679Y-58926268D01*
X120104998Y-58978871D01*
X120104999Y-58978871D01*
X120104999Y-58015685D01*
X120116955Y-58027641D01*
X120229852Y-58085165D01*
X120323519Y-58100000D01*
X120386481Y-58100000D01*
X120480148Y-58085165D01*
X120593045Y-58027641D01*
X120605000Y-58015685D01*
X120605000Y-58978872D01*
X120801317Y-58926269D01*
X120801326Y-58926265D01*
X121007482Y-58830134D01*
X121193820Y-58699657D01*
X121354657Y-58538820D01*
X121485132Y-58352484D01*
X121512341Y-58294134D01*
X121558513Y-58241695D01*
X121625707Y-58222542D01*
X121692588Y-58242757D01*
X121737106Y-58294133D01*
X121764431Y-58352732D01*
X121764432Y-58352734D01*
X121894954Y-58539141D01*
X122055858Y-58700045D01*
X122055861Y-58700047D01*
X122242266Y-58830568D01*
X122448504Y-58926739D01*
X122668308Y-58985635D01*
X122825780Y-58999412D01*
X122894998Y-59005468D01*
X122895000Y-59005468D01*
X122895002Y-59005468D01*
X122964220Y-58999412D01*
X123121692Y-58985635D01*
X123341496Y-58926739D01*
X123547734Y-58830568D01*
X123734139Y-58700047D01*
X123895047Y-58539139D01*
X124025568Y-58352734D01*
X124052618Y-58294724D01*
X124098790Y-58242285D01*
X124165983Y-58223133D01*
X124232865Y-58243348D01*
X124277382Y-58294725D01*
X124304429Y-58352728D01*
X124304432Y-58352734D01*
X124434954Y-58539141D01*
X124595858Y-58700045D01*
X124595861Y-58700047D01*
X124782266Y-58830568D01*
X124988504Y-58926739D01*
X125208308Y-58985635D01*
X125365780Y-58999412D01*
X125434998Y-59005468D01*
X125435000Y-59005468D01*
X125435002Y-59005468D01*
X125504220Y-58999412D01*
X125661692Y-58985635D01*
X125881496Y-58926739D01*
X126087734Y-58830568D01*
X126274139Y-58700047D01*
X126435047Y-58539139D01*
X126452271Y-58514539D01*
X126506848Y-58470913D01*
X126576346Y-58463718D01*
X126638701Y-58495239D01*
X126674116Y-58555468D01*
X126677138Y-58572406D01*
X126680908Y-58607483D01*
X126731202Y-58742328D01*
X126731206Y-58742335D01*
X126817452Y-58857544D01*
X126817455Y-58857547D01*
X126932664Y-58943793D01*
X126932671Y-58943797D01*
X127067517Y-58994091D01*
X127067516Y-58994091D01*
X127074444Y-58994835D01*
X127127127Y-59000500D01*
X128822872Y-59000499D01*
X128882483Y-58994091D01*
X129017331Y-58943796D01*
X129132546Y-58857546D01*
X129218796Y-58742331D01*
X129269091Y-58607483D01*
X129275500Y-58547873D01*
X129275499Y-56852128D01*
X129269091Y-56792517D01*
X129268925Y-56792073D01*
X129218797Y-56657671D01*
X129218793Y-56657664D01*
X129132547Y-56542455D01*
X129132544Y-56542452D01*
X129017335Y-56456206D01*
X129017328Y-56456202D01*
X128882482Y-56405908D01*
X128882483Y-56405908D01*
X128822883Y-56399501D01*
X128822881Y-56399500D01*
X128822873Y-56399500D01*
X128822864Y-56399500D01*
X127127129Y-56399500D01*
X127127123Y-56399501D01*
X127067516Y-56405908D01*
X126932671Y-56456202D01*
X126932664Y-56456206D01*
X126817455Y-56542452D01*
X126817452Y-56542455D01*
X126731206Y-56657664D01*
X126731202Y-56657671D01*
X126680908Y-56792516D01*
X126677137Y-56827596D01*
X126650398Y-56892146D01*
X126593006Y-56931994D01*
X126523180Y-56934487D01*
X126463092Y-56898834D01*
X126452273Y-56885462D01*
X126435045Y-56860858D01*
X126274141Y-56699954D01*
X126087734Y-56569432D01*
X126087732Y-56569431D01*
X125881497Y-56473261D01*
X125881488Y-56473258D01*
X125661697Y-56414366D01*
X125661693Y-56414365D01*
X125661692Y-56414365D01*
X125661691Y-56414364D01*
X125661686Y-56414364D01*
X125435002Y-56394532D01*
X125434998Y-56394532D01*
X125208313Y-56414364D01*
X125208302Y-56414366D01*
X124988511Y-56473258D01*
X124988502Y-56473261D01*
X124782267Y-56569431D01*
X124782265Y-56569432D01*
X124595858Y-56699954D01*
X124434954Y-56860858D01*
X124304432Y-57047265D01*
X124304431Y-57047267D01*
X124277382Y-57105275D01*
X124231209Y-57157714D01*
X124164016Y-57176866D01*
X124097135Y-57156650D01*
X124052618Y-57105275D01*
X124025568Y-57047266D01*
X123907900Y-56879217D01*
X123895045Y-56860858D01*
X123734141Y-56699954D01*
X123547734Y-56569432D01*
X123547732Y-56569431D01*
X123341497Y-56473261D01*
X123341488Y-56473258D01*
X123121697Y-56414366D01*
X123121693Y-56414365D01*
X123121692Y-56414365D01*
X123121691Y-56414364D01*
X123121686Y-56414364D01*
X122895002Y-56394532D01*
X122894998Y-56394532D01*
X122668313Y-56414364D01*
X122668302Y-56414366D01*
X122448511Y-56473258D01*
X122448502Y-56473261D01*
X122242267Y-56569431D01*
X122242265Y-56569432D01*
X122055858Y-56699954D01*
X121894954Y-56860858D01*
X121764433Y-57047264D01*
X121764432Y-57047266D01*
X121764315Y-57047518D01*
X121737106Y-57105867D01*
X121690933Y-57158306D01*
X121623739Y-57177457D01*
X121556858Y-57157241D01*
X121512342Y-57105865D01*
X121485135Y-57047520D01*
X121485134Y-57047518D01*
X121354657Y-56861179D01*
X121193820Y-56700342D01*
X121007482Y-56569865D01*
X120801328Y-56473734D01*
X120605000Y-56421127D01*
X120605000Y-57384314D01*
X120593045Y-57372359D01*
X120480148Y-57314835D01*
X120386481Y-57300000D01*
X120323519Y-57300000D01*
X120229852Y-57314835D01*
X120116955Y-57372359D01*
X120104999Y-57384314D01*
X120104999Y-56421127D01*
X119908672Y-56473734D01*
X119702517Y-56569865D01*
X119516179Y-56700342D01*
X119355342Y-56861179D01*
X119224867Y-57047515D01*
X119197657Y-57105867D01*
X119151484Y-57158306D01*
X119084290Y-57177457D01*
X119017409Y-57157241D01*
X118972893Y-57105865D01*
X118954894Y-57067267D01*
X118945568Y-57047266D01*
X118827900Y-56879217D01*
X118815045Y-56860858D01*
X118654141Y-56699954D01*
X118467734Y-56569432D01*
X118467732Y-56569431D01*
X118261497Y-56473261D01*
X118261488Y-56473258D01*
X118041697Y-56414366D01*
X118041693Y-56414365D01*
X118041692Y-56414365D01*
X118041691Y-56414364D01*
X118041686Y-56414364D01*
X117815002Y-56394532D01*
X117814998Y-56394532D01*
X117588313Y-56414364D01*
X117588302Y-56414366D01*
X117368511Y-56473258D01*
X117368502Y-56473261D01*
X117162267Y-56569431D01*
X117162265Y-56569432D01*
X116975858Y-56699954D01*
X116814954Y-56860858D01*
X116684432Y-57047265D01*
X116684431Y-57047267D01*
X116657382Y-57105275D01*
X116611209Y-57157714D01*
X116544016Y-57176866D01*
X116477135Y-57156650D01*
X116432618Y-57105275D01*
X116405568Y-57047266D01*
X116287900Y-56879217D01*
X116275045Y-56860858D01*
X116114140Y-56699953D01*
X115953377Y-56587386D01*
X115909752Y-56532809D01*
X115900500Y-56485811D01*
X115900500Y-55957742D01*
X115902224Y-55942122D01*
X115901939Y-55942096D01*
X115902673Y-55934333D01*
X115900531Y-55866152D01*
X115900500Y-55864205D01*
X115900500Y-55835654D01*
X115900500Y-55835650D01*
X115899631Y-55828772D01*
X115899172Y-55822943D01*
X115897709Y-55776372D01*
X115892122Y-55757144D01*
X115888174Y-55738084D01*
X115885663Y-55718204D01*
X115868512Y-55674887D01*
X115866619Y-55669358D01*
X115853618Y-55624609D01*
X115853616Y-55624606D01*
X115843423Y-55607371D01*
X115834861Y-55589894D01*
X115827487Y-55571270D01*
X115827486Y-55571268D01*
X115800079Y-55533545D01*
X115796888Y-55528686D01*
X115773172Y-55488583D01*
X115773165Y-55488574D01*
X115759006Y-55474415D01*
X115746368Y-55459619D01*
X115734594Y-55443413D01*
X115698688Y-55413709D01*
X115694376Y-55409786D01*
X115121772Y-54837181D01*
X115088287Y-54775858D01*
X115093271Y-54706166D01*
X115135143Y-54650233D01*
X115200607Y-54625816D01*
X115209453Y-54625500D01*
X123972257Y-54625500D01*
X123987877Y-54627224D01*
X123987904Y-54626939D01*
X123995666Y-54627673D01*
X123995666Y-54627672D01*
X123995667Y-54627673D01*
X123998999Y-54627568D01*
X124063847Y-54625531D01*
X124065794Y-54625500D01*
X124094347Y-54625500D01*
X124094350Y-54625500D01*
X124101228Y-54624630D01*
X124107041Y-54624172D01*
X124153627Y-54622709D01*
X124172869Y-54617117D01*
X124191912Y-54613174D01*
X124211792Y-54610664D01*
X124255122Y-54593507D01*
X124260646Y-54591617D01*
X124272204Y-54588259D01*
X124305390Y-54578618D01*
X124322629Y-54568422D01*
X124340103Y-54559862D01*
X124358727Y-54552488D01*
X124358727Y-54552487D01*
X124358732Y-54552486D01*
X124396449Y-54525082D01*
X124401305Y-54521892D01*
X124441420Y-54498170D01*
X124455589Y-54483999D01*
X124470379Y-54471368D01*
X124486587Y-54459594D01*
X124516299Y-54423676D01*
X124520212Y-54419376D01*
X126822429Y-52117159D01*
X126883749Y-52083677D01*
X126953441Y-52088661D01*
G37*
G04 #@! TD.AperFunction*
G04 #@! TA.AperFunction,Conductor*
G36*
X127525000Y-76384498D02*
G01*
X127417315Y-76335320D01*
X127310763Y-76320000D01*
X127239237Y-76320000D01*
X127132685Y-76335320D01*
X127025000Y-76384498D01*
X127025000Y-74715501D01*
X127132685Y-74764680D01*
X127239237Y-74780000D01*
X127310763Y-74780000D01*
X127417315Y-74764680D01*
X127525000Y-74715501D01*
X127525000Y-76384498D01*
G37*
G04 #@! TD.AperFunction*
G04 #@! TA.AperFunction,Conductor*
G36*
X101332578Y-47845185D02*
G01*
X101353220Y-47861819D01*
X102150699Y-48659298D01*
X102184184Y-48720621D01*
X102179200Y-48790313D01*
X102137328Y-48846246D01*
X102115423Y-48859361D01*
X101922267Y-48949431D01*
X101922265Y-48949432D01*
X101735858Y-49079954D01*
X101574954Y-49240858D01*
X101444432Y-49427265D01*
X101444431Y-49427267D01*
X101417382Y-49485275D01*
X101371209Y-49537714D01*
X101304016Y-49556866D01*
X101237135Y-49536650D01*
X101192618Y-49485275D01*
X101192618Y-49485274D01*
X101165568Y-49427266D01*
X101035047Y-49240861D01*
X101035045Y-49240858D01*
X100874141Y-49079954D01*
X100687734Y-48949432D01*
X100687732Y-48949431D01*
X100481497Y-48853261D01*
X100481488Y-48853258D01*
X100261697Y-48794366D01*
X100261693Y-48794365D01*
X100261692Y-48794365D01*
X100261691Y-48794364D01*
X100261686Y-48794364D01*
X100035002Y-48774532D01*
X100034998Y-48774532D01*
X99808313Y-48794364D01*
X99808302Y-48794366D01*
X99588511Y-48853258D01*
X99588502Y-48853261D01*
X99382267Y-48949431D01*
X99382265Y-48949432D01*
X99195858Y-49079954D01*
X99034954Y-49240858D01*
X98904432Y-49427265D01*
X98904431Y-49427267D01*
X98808261Y-49633502D01*
X98808258Y-49633511D01*
X98749366Y-49853302D01*
X98749364Y-49853313D01*
X98729532Y-50079998D01*
X98729532Y-50080000D01*
X98749365Y-50306691D01*
X98749366Y-50306697D01*
X98767680Y-50375048D01*
X98766017Y-50444897D01*
X98735586Y-50494821D01*
X93781208Y-55449199D01*
X93768951Y-55459020D01*
X93769134Y-55459241D01*
X93763122Y-55464214D01*
X93716432Y-55513932D01*
X93715079Y-55515329D01*
X93694889Y-55535519D01*
X93694877Y-55535532D01*
X93690621Y-55541017D01*
X93686837Y-55545447D01*
X93654937Y-55579418D01*
X93654936Y-55579420D01*
X93645284Y-55596976D01*
X93634610Y-55613226D01*
X93622329Y-55629061D01*
X93622324Y-55629068D01*
X93603815Y-55671838D01*
X93601245Y-55677084D01*
X93578803Y-55717906D01*
X93573822Y-55737307D01*
X93567521Y-55755710D01*
X93559562Y-55774102D01*
X93559561Y-55774105D01*
X93552271Y-55820127D01*
X93551087Y-55825846D01*
X93539501Y-55870972D01*
X93539500Y-55870982D01*
X93539500Y-55891016D01*
X93537973Y-55910415D01*
X93534840Y-55930194D01*
X93534840Y-55930195D01*
X93539225Y-55976583D01*
X93539500Y-55982421D01*
X93539500Y-56505811D01*
X93519815Y-56572850D01*
X93486623Y-56607386D01*
X93325859Y-56719953D01*
X93164954Y-56880858D01*
X93034432Y-57067265D01*
X93034431Y-57067267D01*
X93007382Y-57125275D01*
X92961209Y-57177714D01*
X92894016Y-57196866D01*
X92827135Y-57176650D01*
X92782618Y-57125275D01*
X92755568Y-57067267D01*
X92755567Y-57067265D01*
X92741564Y-57047267D01*
X92625047Y-56880861D01*
X92625045Y-56880858D01*
X92464141Y-56719954D01*
X92277734Y-56589432D01*
X92277732Y-56589431D01*
X92071497Y-56493261D01*
X92071488Y-56493258D01*
X91851697Y-56434366D01*
X91851693Y-56434365D01*
X91851692Y-56434365D01*
X91851691Y-56434364D01*
X91851686Y-56434364D01*
X91625002Y-56414532D01*
X91624998Y-56414532D01*
X91398313Y-56434364D01*
X91398302Y-56434366D01*
X91178511Y-56493258D01*
X91178502Y-56493261D01*
X90972267Y-56589431D01*
X90972265Y-56589432D01*
X90785858Y-56719954D01*
X90624954Y-56880858D01*
X90494432Y-57067265D01*
X90494431Y-57067267D01*
X90467382Y-57125275D01*
X90421209Y-57177714D01*
X90354016Y-57196866D01*
X90287135Y-57176650D01*
X90242618Y-57125275D01*
X90215568Y-57067267D01*
X90215567Y-57067265D01*
X90201564Y-57047267D01*
X90085047Y-56880861D01*
X90085045Y-56880858D01*
X89924141Y-56719954D01*
X89737734Y-56589432D01*
X89737732Y-56589431D01*
X89531497Y-56493261D01*
X89531488Y-56493258D01*
X89311697Y-56434366D01*
X89311693Y-56434365D01*
X89311692Y-56434365D01*
X89311691Y-56434364D01*
X89311686Y-56434364D01*
X89085002Y-56414532D01*
X89084998Y-56414532D01*
X88858313Y-56434364D01*
X88858302Y-56434366D01*
X88638511Y-56493258D01*
X88638502Y-56493261D01*
X88432267Y-56589431D01*
X88432265Y-56589432D01*
X88245858Y-56719954D01*
X88084954Y-56880858D01*
X87954432Y-57067265D01*
X87954431Y-57067267D01*
X87927382Y-57125275D01*
X87881209Y-57177714D01*
X87814016Y-57196866D01*
X87747135Y-57176650D01*
X87702618Y-57125275D01*
X87675568Y-57067267D01*
X87675567Y-57067265D01*
X87661564Y-57047267D01*
X87545047Y-56880861D01*
X87545045Y-56880858D01*
X87384141Y-56719954D01*
X87197734Y-56589432D01*
X87197732Y-56589431D01*
X86991497Y-56493261D01*
X86991488Y-56493258D01*
X86771697Y-56434366D01*
X86771693Y-56434365D01*
X86771692Y-56434365D01*
X86771691Y-56434364D01*
X86771686Y-56434364D01*
X86545002Y-56414532D01*
X86544998Y-56414532D01*
X86318313Y-56434364D01*
X86318302Y-56434366D01*
X86098511Y-56493258D01*
X86098502Y-56493261D01*
X85892267Y-56589431D01*
X85892265Y-56589432D01*
X85705858Y-56719954D01*
X85544954Y-56880858D01*
X85414432Y-57067265D01*
X85414431Y-57067267D01*
X85387382Y-57125275D01*
X85341209Y-57177714D01*
X85274016Y-57196866D01*
X85207135Y-57176650D01*
X85162618Y-57125275D01*
X85135568Y-57067267D01*
X85135567Y-57067265D01*
X85121564Y-57047267D01*
X85005047Y-56880861D01*
X85005045Y-56880858D01*
X84844141Y-56719954D01*
X84657734Y-56589432D01*
X84657732Y-56589431D01*
X84451497Y-56493261D01*
X84451488Y-56493258D01*
X84231697Y-56434366D01*
X84231693Y-56434365D01*
X84231692Y-56434365D01*
X84231691Y-56434364D01*
X84231686Y-56434364D01*
X84005002Y-56414532D01*
X84004998Y-56414532D01*
X83778313Y-56434364D01*
X83778302Y-56434366D01*
X83558511Y-56493258D01*
X83558502Y-56493261D01*
X83352267Y-56589431D01*
X83352265Y-56589432D01*
X83165858Y-56719954D01*
X83004954Y-56880858D01*
X82874432Y-57067265D01*
X82874431Y-57067267D01*
X82847382Y-57125275D01*
X82801209Y-57177714D01*
X82734016Y-57196866D01*
X82667135Y-57176650D01*
X82622618Y-57125275D01*
X82595568Y-57067267D01*
X82595567Y-57067265D01*
X82581564Y-57047267D01*
X82465047Y-56880861D01*
X82465045Y-56880858D01*
X82304141Y-56719954D01*
X82117734Y-56589432D01*
X82117732Y-56589431D01*
X81911497Y-56493261D01*
X81911488Y-56493258D01*
X81691697Y-56434366D01*
X81691693Y-56434365D01*
X81691692Y-56434365D01*
X81691689Y-56434364D01*
X81691679Y-56434363D01*
X81685097Y-56433787D01*
X81620030Y-56408330D01*
X81579055Y-56351736D01*
X81575182Y-56281974D01*
X81590375Y-56245162D01*
X81621855Y-56194125D01*
X81621858Y-56194119D01*
X81677005Y-56027697D01*
X81677006Y-56027690D01*
X81687499Y-55924986D01*
X81687500Y-55924973D01*
X81687500Y-55650000D01*
X80474000Y-55650000D01*
X80406961Y-55630315D01*
X80361206Y-55577511D01*
X80350000Y-55526000D01*
X80350000Y-54175000D01*
X80850000Y-54175000D01*
X80850000Y-55150000D01*
X81687499Y-55150000D01*
X81687499Y-54875028D01*
X81687498Y-54875013D01*
X81677005Y-54772302D01*
X81621858Y-54605880D01*
X81621856Y-54605875D01*
X81529815Y-54456654D01*
X81405845Y-54332684D01*
X81256624Y-54240643D01*
X81256619Y-54240641D01*
X81090197Y-54185494D01*
X81090190Y-54185493D01*
X80987486Y-54175000D01*
X80850000Y-54175000D01*
X80350000Y-54175000D01*
X80212527Y-54175000D01*
X80212512Y-54175001D01*
X80109802Y-54185494D01*
X79943380Y-54240641D01*
X79943375Y-54240643D01*
X79794154Y-54332684D01*
X79670183Y-54456655D01*
X79670179Y-54456660D01*
X79668326Y-54459665D01*
X79666518Y-54461290D01*
X79665702Y-54462323D01*
X79665525Y-54462183D01*
X79616374Y-54506385D01*
X79547411Y-54517601D01*
X79483331Y-54489752D01*
X79457253Y-54459653D01*
X79457217Y-54459594D01*
X79455212Y-54456344D01*
X79331156Y-54332288D01*
X79204287Y-54254035D01*
X79181836Y-54240187D01*
X79181831Y-54240185D01*
X79142376Y-54227111D01*
X79015297Y-54185001D01*
X79015295Y-54185000D01*
X78912510Y-54174500D01*
X78137498Y-54174500D01*
X78137480Y-54174501D01*
X78034703Y-54185000D01*
X78034700Y-54185001D01*
X77868168Y-54240185D01*
X77868163Y-54240187D01*
X77718842Y-54332289D01*
X77594789Y-54456342D01*
X77502687Y-54605663D01*
X77502685Y-54605668D01*
X77487918Y-54650233D01*
X77447501Y-54772203D01*
X77447501Y-54772204D01*
X77447500Y-54772204D01*
X77437000Y-54874983D01*
X77437000Y-55925001D01*
X77437001Y-55925019D01*
X77447500Y-56027796D01*
X77447501Y-56027799D01*
X77502685Y-56194331D01*
X77502687Y-56194336D01*
X77519834Y-56222135D01*
X77594788Y-56343656D01*
X77718844Y-56467712D01*
X77868166Y-56559814D01*
X77961130Y-56590619D01*
X78018575Y-56630392D01*
X78045398Y-56694908D01*
X78033083Y-56763683D01*
X78009807Y-56796006D01*
X77924954Y-56880858D01*
X77794432Y-57067265D01*
X77794431Y-57067267D01*
X77767382Y-57125275D01*
X77721209Y-57177714D01*
X77654016Y-57196866D01*
X77587135Y-57176650D01*
X77542618Y-57125275D01*
X77515568Y-57067267D01*
X77515567Y-57067265D01*
X77501564Y-57047267D01*
X77385047Y-56880861D01*
X77385045Y-56880858D01*
X77224141Y-56719954D01*
X77037734Y-56589432D01*
X77037732Y-56589431D01*
X76831497Y-56493261D01*
X76831488Y-56493258D01*
X76611697Y-56434366D01*
X76611693Y-56434365D01*
X76611692Y-56434365D01*
X76611691Y-56434364D01*
X76611686Y-56434364D01*
X76385002Y-56414532D01*
X76384998Y-56414532D01*
X76158313Y-56434364D01*
X76158302Y-56434366D01*
X75938511Y-56493258D01*
X75938502Y-56493261D01*
X75732267Y-56589431D01*
X75732265Y-56589432D01*
X75545858Y-56719954D01*
X75467532Y-56798279D01*
X75406209Y-56831764D01*
X75378416Y-56834589D01*
X74842505Y-56828384D01*
X74775698Y-56807924D01*
X74756260Y-56792073D01*
X74684141Y-56719954D01*
X74497734Y-56589432D01*
X74497732Y-56589431D01*
X74291497Y-56493261D01*
X74291488Y-56493258D01*
X74071697Y-56434366D01*
X74071693Y-56434365D01*
X74071692Y-56434365D01*
X74071691Y-56434364D01*
X74071686Y-56434364D01*
X73845002Y-56414532D01*
X73844996Y-56414532D01*
X73800895Y-56418390D01*
X73732395Y-56404623D01*
X73682213Y-56356007D01*
X73666280Y-56287978D01*
X73689656Y-56222135D01*
X73702402Y-56207187D01*
X74578359Y-55331230D01*
X74639680Y-55297747D01*
X74691819Y-55297623D01*
X74705354Y-55300500D01*
X74894644Y-55300500D01*
X74894646Y-55300500D01*
X75079803Y-55261144D01*
X75252730Y-55184151D01*
X75405871Y-55072888D01*
X75532533Y-54932216D01*
X75627179Y-54768284D01*
X75685674Y-54588256D01*
X75705460Y-54400000D01*
X75685674Y-54211744D01*
X75627179Y-54031716D01*
X75532533Y-53867784D01*
X75405871Y-53727112D01*
X75404031Y-53725775D01*
X75252734Y-53615851D01*
X75252729Y-53615848D01*
X75079807Y-53538857D01*
X75079802Y-53538855D01*
X74934001Y-53507865D01*
X74894646Y-53499500D01*
X74705354Y-53499500D01*
X74672897Y-53506398D01*
X74520197Y-53538855D01*
X74520192Y-53538857D01*
X74347270Y-53615848D01*
X74347265Y-53615851D01*
X74194129Y-53727111D01*
X74067466Y-53867785D01*
X73972821Y-54031715D01*
X73972819Y-54031719D01*
X73916623Y-54204673D01*
X73886374Y-54254035D01*
X73811679Y-54328729D01*
X73750359Y-54362213D01*
X73680667Y-54357229D01*
X73624733Y-54315358D01*
X73600316Y-54249894D01*
X73600000Y-54241047D01*
X73600000Y-51413962D01*
X73600000Y-50420686D01*
X73606955Y-50427641D01*
X73719852Y-50485165D01*
X73813519Y-50500000D01*
X73876481Y-50500000D01*
X73970148Y-50485165D01*
X74083045Y-50427641D01*
X74095000Y-50415686D01*
X74095000Y-51378872D01*
X74291317Y-51326269D01*
X74291326Y-51326265D01*
X74497482Y-51230134D01*
X74683820Y-51099657D01*
X74844657Y-50938820D01*
X74975132Y-50752484D01*
X75002341Y-50694134D01*
X75048513Y-50641695D01*
X75115707Y-50622542D01*
X75182588Y-50642757D01*
X75227106Y-50694133D01*
X75254431Y-50752732D01*
X75254432Y-50752734D01*
X75384954Y-50939141D01*
X75545858Y-51100045D01*
X75545861Y-51100047D01*
X75732266Y-51230568D01*
X75938504Y-51326739D01*
X76158308Y-51385635D01*
X76315780Y-51399412D01*
X76384998Y-51405468D01*
X76385000Y-51405468D01*
X76385002Y-51405468D01*
X76454220Y-51399412D01*
X76611692Y-51385635D01*
X76831496Y-51326739D01*
X77037734Y-51230568D01*
X77224139Y-51100047D01*
X77385047Y-50939139D01*
X77515568Y-50752734D01*
X77542618Y-50694724D01*
X77588790Y-50642285D01*
X77655983Y-50623133D01*
X77722865Y-50643348D01*
X77767382Y-50694725D01*
X77794429Y-50752728D01*
X77794432Y-50752734D01*
X77924954Y-50939141D01*
X78085858Y-51100045D01*
X78085861Y-51100047D01*
X78272266Y-51230568D01*
X78478504Y-51326739D01*
X78698308Y-51385635D01*
X78855780Y-51399412D01*
X78924998Y-51405468D01*
X78925000Y-51405468D01*
X78925002Y-51405468D01*
X78994220Y-51399412D01*
X79151692Y-51385635D01*
X79220048Y-51367319D01*
X79289896Y-51368980D01*
X79339822Y-51399412D01*
X81424194Y-53483784D01*
X81434019Y-53496048D01*
X81434240Y-53495866D01*
X81439210Y-53501874D01*
X81488949Y-53548582D01*
X81490316Y-53549906D01*
X81510530Y-53570120D01*
X81516004Y-53574366D01*
X81520442Y-53578156D01*
X81554418Y-53610062D01*
X81564948Y-53615851D01*
X81571973Y-53619713D01*
X81588231Y-53630392D01*
X81604064Y-53642674D01*
X81626015Y-53652172D01*
X81646837Y-53661183D01*
X81652081Y-53663752D01*
X81692908Y-53686197D01*
X81712312Y-53691179D01*
X81730710Y-53697478D01*
X81749105Y-53705438D01*
X81795129Y-53712726D01*
X81800832Y-53713907D01*
X81845981Y-53725500D01*
X81866016Y-53725500D01*
X81885413Y-53727026D01*
X81905196Y-53730160D01*
X81951583Y-53725775D01*
X81957422Y-53725500D01*
X88896252Y-53725500D01*
X88963291Y-53745185D01*
X88988400Y-53766526D01*
X88994126Y-53772885D01*
X88994130Y-53772889D01*
X89147265Y-53884148D01*
X89147270Y-53884151D01*
X89320192Y-53961142D01*
X89320197Y-53961144D01*
X89505354Y-54000500D01*
X89505355Y-54000500D01*
X89694644Y-54000500D01*
X89694646Y-54000500D01*
X89879803Y-53961144D01*
X90052730Y-53884151D01*
X90205871Y-53772888D01*
X90332533Y-53632216D01*
X90427179Y-53468284D01*
X90485674Y-53288256D01*
X90505460Y-53100000D01*
X90485674Y-52911744D01*
X90427179Y-52731716D01*
X90332533Y-52567784D01*
X90205871Y-52427112D01*
X90205870Y-52427111D01*
X90052734Y-52315851D01*
X90052729Y-52315848D01*
X89879807Y-52238857D01*
X89879802Y-52238855D01*
X89734001Y-52207865D01*
X89694646Y-52199500D01*
X89505354Y-52199500D01*
X89472897Y-52206398D01*
X89320197Y-52238855D01*
X89320192Y-52238857D01*
X89147270Y-52315848D01*
X89147265Y-52315851D01*
X88994130Y-52427110D01*
X88994126Y-52427114D01*
X88988400Y-52433474D01*
X88928913Y-52470121D01*
X88896252Y-52474500D01*
X82235452Y-52474500D01*
X82168413Y-52454815D01*
X82147771Y-52438181D01*
X81322408Y-51612818D01*
X81288923Y-51551495D01*
X81293907Y-51481803D01*
X81335779Y-51425870D01*
X81401243Y-51401453D01*
X81420890Y-51401608D01*
X81465000Y-51405468D01*
X81465000Y-51405467D01*
X81465001Y-51405468D01*
X81465002Y-51405468D01*
X81534220Y-51399412D01*
X81691692Y-51385635D01*
X81911496Y-51326739D01*
X82117734Y-51230568D01*
X82304139Y-51100047D01*
X82465047Y-50939139D01*
X82595568Y-50752734D01*
X82622618Y-50694724D01*
X82668790Y-50642285D01*
X82735983Y-50623133D01*
X82802865Y-50643348D01*
X82847382Y-50694725D01*
X82874429Y-50752728D01*
X82874432Y-50752734D01*
X83004954Y-50939141D01*
X83165858Y-51100045D01*
X83165861Y-51100047D01*
X83352266Y-51230568D01*
X83558504Y-51326739D01*
X83778308Y-51385635D01*
X83935780Y-51399412D01*
X84004998Y-51405468D01*
X84005000Y-51405468D01*
X84005002Y-51405468D01*
X84074220Y-51399412D01*
X84231692Y-51385635D01*
X84451496Y-51326739D01*
X84657734Y-51230568D01*
X84844139Y-51100047D01*
X85005047Y-50939139D01*
X85135568Y-50752734D01*
X85162895Y-50694129D01*
X85209064Y-50641695D01*
X85276257Y-50622542D01*
X85343139Y-50642757D01*
X85387657Y-50694133D01*
X85414865Y-50752482D01*
X85545342Y-50938820D01*
X85706179Y-51099657D01*
X85892517Y-51230134D01*
X86098673Y-51326265D01*
X86098682Y-51326269D01*
X86294999Y-51378872D01*
X86295000Y-51378871D01*
X86295000Y-50415685D01*
X86306955Y-50427641D01*
X86419852Y-50485165D01*
X86513519Y-50500000D01*
X86576481Y-50500000D01*
X86670148Y-50485165D01*
X86783045Y-50427641D01*
X86795000Y-50415685D01*
X86795000Y-51378872D01*
X86991317Y-51326269D01*
X86991326Y-51326265D01*
X87197482Y-51230134D01*
X87383820Y-51099657D01*
X87544657Y-50938820D01*
X87675132Y-50752484D01*
X87702341Y-50694134D01*
X87748513Y-50641695D01*
X87815707Y-50622542D01*
X87882588Y-50642757D01*
X87927106Y-50694133D01*
X87954431Y-50752732D01*
X87954432Y-50752734D01*
X88084954Y-50939141D01*
X88245858Y-51100045D01*
X88245861Y-51100047D01*
X88432266Y-51230568D01*
X88638504Y-51326739D01*
X88858308Y-51385635D01*
X89015780Y-51399412D01*
X89084998Y-51405468D01*
X89085000Y-51405468D01*
X89085002Y-51405468D01*
X89154220Y-51399412D01*
X89311692Y-51385635D01*
X89531496Y-51326739D01*
X89737734Y-51230568D01*
X89924139Y-51100047D01*
X90085047Y-50939139D01*
X90215568Y-50752734D01*
X90242618Y-50694724D01*
X90288790Y-50642285D01*
X90355983Y-50623133D01*
X90422865Y-50643348D01*
X90467382Y-50694725D01*
X90494429Y-50752728D01*
X90494432Y-50752734D01*
X90624954Y-50939141D01*
X90785858Y-51100045D01*
X90785861Y-51100047D01*
X90972266Y-51230568D01*
X91178504Y-51326739D01*
X91398308Y-51385635D01*
X91555780Y-51399412D01*
X91624998Y-51405468D01*
X91625000Y-51405468D01*
X91625002Y-51405468D01*
X91694220Y-51399412D01*
X91851692Y-51385635D01*
X92071496Y-51326739D01*
X92277734Y-51230568D01*
X92464139Y-51100047D01*
X92625047Y-50939139D01*
X92755568Y-50752734D01*
X92782618Y-50694724D01*
X92828790Y-50642285D01*
X92895983Y-50623133D01*
X92962865Y-50643348D01*
X93007382Y-50694725D01*
X93034429Y-50752728D01*
X93034432Y-50752734D01*
X93164954Y-50939141D01*
X93325858Y-51100045D01*
X93325861Y-51100047D01*
X93512266Y-51230568D01*
X93718504Y-51326739D01*
X93938308Y-51385635D01*
X94095780Y-51399412D01*
X94164998Y-51405468D01*
X94165000Y-51405468D01*
X94165002Y-51405468D01*
X94234220Y-51399412D01*
X94391692Y-51385635D01*
X94611496Y-51326739D01*
X94817734Y-51230568D01*
X95004139Y-51100047D01*
X95165047Y-50939139D01*
X95295568Y-50752734D01*
X95391739Y-50546496D01*
X95450635Y-50326692D01*
X95470468Y-50100000D01*
X95450635Y-49873308D01*
X95391739Y-49653504D01*
X95295568Y-49447266D01*
X95165047Y-49260861D01*
X95165045Y-49260858D01*
X95004141Y-49099954D01*
X94817734Y-48969432D01*
X94817732Y-48969431D01*
X94611497Y-48873261D01*
X94611488Y-48873258D01*
X94391697Y-48814366D01*
X94391693Y-48814365D01*
X94391692Y-48814365D01*
X94391691Y-48814364D01*
X94391686Y-48814364D01*
X94165002Y-48794532D01*
X94164998Y-48794532D01*
X93938313Y-48814364D01*
X93938302Y-48814366D01*
X93718511Y-48873258D01*
X93718502Y-48873261D01*
X93512267Y-48969431D01*
X93512265Y-48969432D01*
X93325858Y-49099954D01*
X93164954Y-49260858D01*
X93034432Y-49447265D01*
X93034431Y-49447267D01*
X93007382Y-49505275D01*
X92961209Y-49557714D01*
X92894016Y-49576866D01*
X92827135Y-49556650D01*
X92782618Y-49505275D01*
X92773292Y-49485275D01*
X92755568Y-49447266D01*
X92625047Y-49260861D01*
X92625045Y-49260858D01*
X92464141Y-49099954D01*
X92277734Y-48969432D01*
X92277732Y-48969431D01*
X92071497Y-48873261D01*
X92071488Y-48873258D01*
X91851697Y-48814366D01*
X91851693Y-48814365D01*
X91851692Y-48814365D01*
X91851691Y-48814364D01*
X91851686Y-48814364D01*
X91625002Y-48794532D01*
X91624998Y-48794532D01*
X91398313Y-48814364D01*
X91398302Y-48814366D01*
X91178511Y-48873258D01*
X91178502Y-48873261D01*
X90972267Y-48969431D01*
X90972265Y-48969432D01*
X90785858Y-49099954D01*
X90624954Y-49260858D01*
X90494432Y-49447265D01*
X90494431Y-49447267D01*
X90467382Y-49505275D01*
X90421209Y-49557714D01*
X90354016Y-49576866D01*
X90287135Y-49556650D01*
X90242618Y-49505275D01*
X90233292Y-49485275D01*
X90215568Y-49447266D01*
X90085047Y-49260861D01*
X90085045Y-49260858D01*
X89924141Y-49099954D01*
X89737734Y-48969432D01*
X89737732Y-48969431D01*
X89531497Y-48873261D01*
X89531488Y-48873258D01*
X89311697Y-48814366D01*
X89311693Y-48814365D01*
X89311692Y-48814365D01*
X89311691Y-48814364D01*
X89311686Y-48814364D01*
X89085002Y-48794532D01*
X89084998Y-48794532D01*
X88858313Y-48814364D01*
X88858302Y-48814366D01*
X88638511Y-48873258D01*
X88638502Y-48873261D01*
X88432267Y-48969431D01*
X88432265Y-48969432D01*
X88245858Y-49099954D01*
X88084954Y-49260858D01*
X87954433Y-49447264D01*
X87954432Y-49447266D01*
X87936709Y-49485274D01*
X87927106Y-49505867D01*
X87880933Y-49558306D01*
X87813739Y-49577457D01*
X87746858Y-49557241D01*
X87702342Y-49505865D01*
X87675135Y-49447520D01*
X87675134Y-49447518D01*
X87544657Y-49261179D01*
X87383820Y-49100342D01*
X87197482Y-48969865D01*
X86991328Y-48873734D01*
X86795000Y-48821127D01*
X86795000Y-49784314D01*
X86783045Y-49772359D01*
X86670148Y-49714835D01*
X86576481Y-49700000D01*
X86513519Y-49700000D01*
X86419852Y-49714835D01*
X86306955Y-49772359D01*
X86295000Y-49784314D01*
X86295000Y-48821127D01*
X86098671Y-48873734D01*
X85892517Y-48969865D01*
X85706179Y-49100342D01*
X85545342Y-49261179D01*
X85414867Y-49447515D01*
X85387657Y-49505867D01*
X85341484Y-49558306D01*
X85274290Y-49577457D01*
X85207409Y-49557241D01*
X85162893Y-49505865D01*
X85153291Y-49485274D01*
X85135568Y-49447266D01*
X85005047Y-49260861D01*
X85005045Y-49260858D01*
X84844141Y-49099954D01*
X84657734Y-48969432D01*
X84657732Y-48969431D01*
X84451497Y-48873261D01*
X84451488Y-48873258D01*
X84231697Y-48814366D01*
X84231693Y-48814365D01*
X84231692Y-48814365D01*
X84231691Y-48814364D01*
X84231686Y-48814364D01*
X84005002Y-48794532D01*
X84004998Y-48794532D01*
X83778313Y-48814364D01*
X83778302Y-48814366D01*
X83558511Y-48873258D01*
X83558502Y-48873261D01*
X83352267Y-48969431D01*
X83352265Y-48969432D01*
X83165858Y-49099954D01*
X83004954Y-49260858D01*
X82874432Y-49447265D01*
X82874431Y-49447267D01*
X82847382Y-49505275D01*
X82801209Y-49557714D01*
X82734016Y-49576866D01*
X82667135Y-49556650D01*
X82622618Y-49505275D01*
X82613292Y-49485275D01*
X82595568Y-49447266D01*
X82465047Y-49260861D01*
X82465045Y-49260858D01*
X82304141Y-49099954D01*
X82117734Y-48969432D01*
X82117732Y-48969431D01*
X81911497Y-48873261D01*
X81911488Y-48873258D01*
X81691697Y-48814366D01*
X81691693Y-48814365D01*
X81691692Y-48814365D01*
X81691691Y-48814364D01*
X81691686Y-48814364D01*
X81465002Y-48794532D01*
X81464998Y-48794532D01*
X81238313Y-48814364D01*
X81238302Y-48814366D01*
X81018511Y-48873258D01*
X81018502Y-48873261D01*
X80812267Y-48969431D01*
X80812265Y-48969432D01*
X80625858Y-49099954D01*
X80464954Y-49260858D01*
X80334432Y-49447265D01*
X80334431Y-49447267D01*
X80307382Y-49505275D01*
X80261209Y-49557714D01*
X80194016Y-49576866D01*
X80127135Y-49556650D01*
X80082618Y-49505275D01*
X80073292Y-49485275D01*
X80055568Y-49447266D01*
X79925047Y-49260861D01*
X79925045Y-49260858D01*
X79764141Y-49099954D01*
X79577734Y-48969432D01*
X79577732Y-48969431D01*
X79371497Y-48873261D01*
X79371488Y-48873258D01*
X79151697Y-48814366D01*
X79151693Y-48814365D01*
X79151692Y-48814365D01*
X79151691Y-48814364D01*
X79151686Y-48814364D01*
X78925002Y-48794532D01*
X78924998Y-48794532D01*
X78698313Y-48814364D01*
X78698302Y-48814366D01*
X78478511Y-48873258D01*
X78478502Y-48873261D01*
X78272267Y-48969431D01*
X78272265Y-48969432D01*
X78085858Y-49099954D01*
X77924954Y-49260858D01*
X77794432Y-49447265D01*
X77794431Y-49447267D01*
X77767382Y-49505275D01*
X77721209Y-49557714D01*
X77654016Y-49576866D01*
X77587135Y-49556650D01*
X77542618Y-49505275D01*
X77533292Y-49485275D01*
X77515568Y-49447266D01*
X77385047Y-49260861D01*
X77385045Y-49260858D01*
X77224141Y-49099954D01*
X77037734Y-48969432D01*
X77037732Y-48969431D01*
X76831497Y-48873261D01*
X76831488Y-48873258D01*
X76611697Y-48814366D01*
X76611693Y-48814365D01*
X76611692Y-48814365D01*
X76611691Y-48814364D01*
X76611686Y-48814364D01*
X76385002Y-48794532D01*
X76384998Y-48794532D01*
X76158313Y-48814364D01*
X76158302Y-48814366D01*
X75938511Y-48873258D01*
X75938502Y-48873261D01*
X75732267Y-48969431D01*
X75732265Y-48969432D01*
X75545858Y-49099954D01*
X75384954Y-49260858D01*
X75254433Y-49447264D01*
X75254432Y-49447266D01*
X75236709Y-49485274D01*
X75227106Y-49505867D01*
X75180933Y-49558306D01*
X75113739Y-49577457D01*
X75046858Y-49557241D01*
X75002342Y-49505865D01*
X74975135Y-49447520D01*
X74975134Y-49447518D01*
X74844657Y-49261179D01*
X74683820Y-49100342D01*
X74497482Y-48969865D01*
X74291328Y-48873734D01*
X74095000Y-48821127D01*
X74095000Y-49784314D01*
X74083045Y-49772359D01*
X73970148Y-49714835D01*
X73876481Y-49700000D01*
X73813519Y-49700000D01*
X73719852Y-49714835D01*
X73606955Y-49772359D01*
X73600000Y-49779314D01*
X73600000Y-47949499D01*
X73619685Y-47882461D01*
X73672489Y-47836706D01*
X73724000Y-47825500D01*
X101265539Y-47825500D01*
X101332578Y-47845185D01*
G37*
G04 #@! TD.AperFunction*
G04 #@! TA.AperFunction,Conductor*
G36*
X124232865Y-50623348D02*
G01*
X124277382Y-50674725D01*
X124304429Y-50732728D01*
X124304432Y-50732734D01*
X124434954Y-50919141D01*
X124595858Y-51080045D01*
X124623867Y-51099657D01*
X124782266Y-51210568D01*
X124988504Y-51306739D01*
X125208308Y-51365635D01*
X125365780Y-51379412D01*
X125434998Y-51385468D01*
X125434999Y-51385468D01*
X125434999Y-51385467D01*
X125435000Y-51385468D01*
X125479101Y-51381609D01*
X125547599Y-51395375D01*
X125597783Y-51443989D01*
X125613717Y-51512018D01*
X125590343Y-51577861D01*
X125577589Y-51592818D01*
X123832228Y-53338181D01*
X123770905Y-53371666D01*
X123744547Y-53374500D01*
X118632387Y-53374500D01*
X118565348Y-53354815D01*
X118519593Y-53302011D01*
X118509649Y-53232853D01*
X118520004Y-53198096D01*
X118521858Y-53194118D01*
X118577005Y-53027697D01*
X118577006Y-53027690D01*
X118587499Y-52924986D01*
X118587500Y-52924973D01*
X118587500Y-52650000D01*
X117374000Y-52650000D01*
X117306961Y-52630315D01*
X117261206Y-52577511D01*
X117250000Y-52526000D01*
X117250000Y-52274000D01*
X117269685Y-52206961D01*
X117322489Y-52161206D01*
X117374000Y-52150000D01*
X118587499Y-52150000D01*
X118587499Y-51875028D01*
X118587498Y-51875013D01*
X118577005Y-51772302D01*
X118521858Y-51605880D01*
X118521856Y-51605875D01*
X118429815Y-51456654D01*
X118399268Y-51426107D01*
X118365783Y-51364784D01*
X118370767Y-51295092D01*
X118412639Y-51239159D01*
X118434534Y-51226049D01*
X118467734Y-51210568D01*
X118654139Y-51080047D01*
X118815047Y-50919139D01*
X118945568Y-50732734D01*
X118972618Y-50674724D01*
X119018790Y-50622285D01*
X119085983Y-50603133D01*
X119152865Y-50623348D01*
X119197382Y-50674725D01*
X119224429Y-50732728D01*
X119224432Y-50732734D01*
X119354954Y-50919141D01*
X119515858Y-51080045D01*
X119543867Y-51099657D01*
X119702266Y-51210568D01*
X119908504Y-51306739D01*
X120128308Y-51365635D01*
X120285780Y-51379412D01*
X120354998Y-51385468D01*
X120355000Y-51385468D01*
X120355002Y-51385468D01*
X120424220Y-51379412D01*
X120581692Y-51365635D01*
X120801496Y-51306739D01*
X121007734Y-51210568D01*
X121194139Y-51080047D01*
X121355047Y-50919139D01*
X121485568Y-50732734D01*
X121512618Y-50674724D01*
X121558790Y-50622285D01*
X121625983Y-50603133D01*
X121692865Y-50623348D01*
X121737382Y-50674725D01*
X121764429Y-50732728D01*
X121764432Y-50732734D01*
X121894954Y-50919141D01*
X122055858Y-51080045D01*
X122083867Y-51099657D01*
X122242266Y-51210568D01*
X122448504Y-51306739D01*
X122668308Y-51365635D01*
X122825780Y-51379412D01*
X122894998Y-51385468D01*
X122895000Y-51385468D01*
X122895002Y-51385468D01*
X122964220Y-51379412D01*
X123121692Y-51365635D01*
X123341496Y-51306739D01*
X123547734Y-51210568D01*
X123734139Y-51080047D01*
X123895047Y-50919139D01*
X124025568Y-50732734D01*
X124052618Y-50674724D01*
X124098790Y-50622285D01*
X124165983Y-50603133D01*
X124232865Y-50623348D01*
G37*
G04 #@! TD.AperFunction*
G04 #@! TA.AperFunction,Conductor*
G36*
X117951565Y-45319685D02*
G01*
X117997320Y-45372489D01*
X118007997Y-45435442D01*
X117995287Y-45572600D01*
X118014096Y-45775589D01*
X118014097Y-45775592D01*
X118069883Y-45971663D01*
X118069886Y-45971669D01*
X118160754Y-46154156D01*
X118160755Y-46154157D01*
X118162533Y-46156512D01*
X118804654Y-45514390D01*
X118796105Y-45544440D01*
X118806454Y-45656121D01*
X118856448Y-45756522D01*
X118939334Y-45832084D01*
X119043920Y-45872600D01*
X119127802Y-45872600D01*
X119210250Y-45857188D01*
X119305610Y-45798143D01*
X119373201Y-45708638D01*
X119403895Y-45600760D01*
X119395947Y-45514994D01*
X120037465Y-46156512D01*
X120039247Y-46154152D01*
X120039249Y-46154150D01*
X120130113Y-45971670D01*
X120171811Y-45825114D01*
X120209090Y-45766020D01*
X120272400Y-45736462D01*
X120341639Y-45745824D01*
X120378074Y-45770686D01*
X122400804Y-47762151D01*
X123229720Y-48578256D01*
X123236711Y-48585138D01*
X123270672Y-48646198D01*
X123266231Y-48715926D01*
X123224796Y-48772184D01*
X123159524Y-48797110D01*
X123127227Y-48794160D01*
X123127026Y-48795306D01*
X123121686Y-48794364D01*
X122895002Y-48774532D01*
X122894998Y-48774532D01*
X122668313Y-48794364D01*
X122668302Y-48794366D01*
X122448511Y-48853258D01*
X122448502Y-48853261D01*
X122242267Y-48949431D01*
X122242265Y-48949432D01*
X122055858Y-49079954D01*
X121894954Y-49240858D01*
X121764432Y-49427265D01*
X121764430Y-49427268D01*
X121737380Y-49485277D01*
X121691207Y-49537715D01*
X121624013Y-49556866D01*
X121557132Y-49536649D01*
X121512619Y-49485277D01*
X121485568Y-49427266D01*
X121355047Y-49240861D01*
X121355045Y-49240858D01*
X121194141Y-49079954D01*
X121007734Y-48949432D01*
X121007732Y-48949431D01*
X120801497Y-48853261D01*
X120801488Y-48853258D01*
X120581697Y-48794366D01*
X120581693Y-48794365D01*
X120581692Y-48794365D01*
X120581691Y-48794364D01*
X120581686Y-48794364D01*
X120355002Y-48774532D01*
X120354998Y-48774532D01*
X120128313Y-48794364D01*
X120128306Y-48794365D01*
X120089825Y-48804676D01*
X120019975Y-48803011D01*
X119962113Y-48763847D01*
X119934611Y-48699618D01*
X119946199Y-48630716D01*
X119983422Y-48585634D01*
X120057546Y-48530146D01*
X120143796Y-48414931D01*
X120194091Y-48280083D01*
X120200500Y-48220473D01*
X120200499Y-46924728D01*
X120194091Y-46865117D01*
X120192994Y-46862177D01*
X120143797Y-46730271D01*
X120143793Y-46730264D01*
X120057547Y-46615055D01*
X120057544Y-46615052D01*
X119942335Y-46528806D01*
X119942328Y-46528802D01*
X119807482Y-46478508D01*
X119807483Y-46478508D01*
X119747883Y-46472101D01*
X119747881Y-46472100D01*
X119747873Y-46472100D01*
X119747865Y-46472100D01*
X119697309Y-46472100D01*
X119630270Y-46452415D01*
X119609628Y-46435781D01*
X119100001Y-45926153D01*
X119100000Y-45926153D01*
X118590370Y-46435781D01*
X118529047Y-46469266D01*
X118502691Y-46472100D01*
X118452130Y-46472100D01*
X118452123Y-46472101D01*
X118392516Y-46478508D01*
X118257671Y-46528802D01*
X118257664Y-46528806D01*
X118142456Y-46615052D01*
X118142455Y-46615053D01*
X118142454Y-46615054D01*
X118062087Y-46722411D01*
X118006153Y-46764282D01*
X117962820Y-46772100D01*
X117872594Y-46772100D01*
X117692206Y-46772100D01*
X117686288Y-46773450D01*
X117651489Y-46781391D01*
X117644635Y-46782555D01*
X117603144Y-46787232D01*
X117563741Y-46801019D01*
X117557059Y-46802944D01*
X117516339Y-46812239D01*
X117478720Y-46830355D01*
X117472295Y-46833016D01*
X117432883Y-46846808D01*
X117432876Y-46846812D01*
X117397520Y-46869027D01*
X117391433Y-46872391D01*
X117353810Y-46890510D01*
X117321169Y-46916541D01*
X117315496Y-46920566D01*
X117280139Y-46942783D01*
X117230707Y-46992214D01*
X116046791Y-48176130D01*
X115985468Y-48209615D01*
X115915776Y-48204631D01*
X115859843Y-48162759D01*
X115835426Y-48097295D01*
X115841403Y-48049447D01*
X115889999Y-47902797D01*
X115900500Y-47800009D01*
X115900499Y-46799992D01*
X115889999Y-46697203D01*
X115834814Y-46530666D01*
X115742712Y-46381344D01*
X115618656Y-46257288D01*
X115469334Y-46165186D01*
X115302797Y-46110001D01*
X115302795Y-46110000D01*
X115200010Y-46099500D01*
X114399998Y-46099500D01*
X114399980Y-46099501D01*
X114297203Y-46110000D01*
X114297200Y-46110001D01*
X114130668Y-46165185D01*
X114130663Y-46165187D01*
X113981345Y-46257287D01*
X113887680Y-46350952D01*
X113826356Y-46384436D01*
X113756665Y-46379452D01*
X113712322Y-46350954D01*
X113618656Y-46257288D01*
X113469334Y-46165186D01*
X113302797Y-46110001D01*
X113302795Y-46110000D01*
X113200010Y-46099500D01*
X112399998Y-46099500D01*
X112399980Y-46099501D01*
X112297203Y-46110000D01*
X112297200Y-46110001D01*
X112130668Y-46165185D01*
X112130663Y-46165187D01*
X111981342Y-46257289D01*
X111857289Y-46381342D01*
X111765187Y-46530663D01*
X111765185Y-46530668D01*
X111745745Y-46589336D01*
X111710001Y-46697203D01*
X111710001Y-46697204D01*
X111710000Y-46697204D01*
X111699500Y-46799983D01*
X111699500Y-47800001D01*
X111699501Y-47800019D01*
X111710000Y-47902796D01*
X111710001Y-47902799D01*
X111728214Y-47957761D01*
X111765186Y-48069334D01*
X111857288Y-48218656D01*
X111981344Y-48342712D01*
X112050596Y-48385426D01*
X112097321Y-48437373D01*
X112109500Y-48490965D01*
X112109500Y-48865811D01*
X112089815Y-48932850D01*
X112056623Y-48967386D01*
X111895859Y-49079953D01*
X111734954Y-49240858D01*
X111604432Y-49427265D01*
X111604431Y-49427267D01*
X111577382Y-49485275D01*
X111531209Y-49537714D01*
X111464016Y-49556866D01*
X111397135Y-49536650D01*
X111352618Y-49485275D01*
X111352618Y-49485274D01*
X111325568Y-49427266D01*
X111195047Y-49240861D01*
X111195045Y-49240858D01*
X111034141Y-49079954D01*
X110847734Y-48949432D01*
X110847732Y-48949431D01*
X110641497Y-48853261D01*
X110641488Y-48853258D01*
X110421697Y-48794366D01*
X110421693Y-48794365D01*
X110421692Y-48794365D01*
X110421691Y-48794364D01*
X110421686Y-48794364D01*
X110195002Y-48774532D01*
X110194998Y-48774532D01*
X109968313Y-48794364D01*
X109968302Y-48794366D01*
X109748511Y-48853258D01*
X109748502Y-48853261D01*
X109542267Y-48949431D01*
X109542265Y-48949432D01*
X109355858Y-49079954D01*
X109194954Y-49240858D01*
X109064432Y-49427265D01*
X109064431Y-49427267D01*
X109037382Y-49485275D01*
X108991209Y-49537714D01*
X108924016Y-49556866D01*
X108857135Y-49536650D01*
X108812618Y-49485275D01*
X108812618Y-49485274D01*
X108785568Y-49427266D01*
X108655047Y-49240861D01*
X108655045Y-49240858D01*
X108494141Y-49079954D01*
X108307734Y-48949432D01*
X108307732Y-48949431D01*
X108101497Y-48853261D01*
X108101488Y-48853258D01*
X107881697Y-48794366D01*
X107881693Y-48794365D01*
X107881692Y-48794365D01*
X107881691Y-48794364D01*
X107881686Y-48794364D01*
X107655002Y-48774532D01*
X107654998Y-48774532D01*
X107428313Y-48794364D01*
X107428302Y-48794366D01*
X107208511Y-48853258D01*
X107208502Y-48853261D01*
X107002267Y-48949431D01*
X107002265Y-48949432D01*
X106815858Y-49079954D01*
X106654954Y-49240858D01*
X106524432Y-49427265D01*
X106524431Y-49427267D01*
X106497382Y-49485275D01*
X106451209Y-49537714D01*
X106384016Y-49556866D01*
X106317135Y-49536650D01*
X106272618Y-49485275D01*
X106272618Y-49485274D01*
X106245568Y-49427266D01*
X106115047Y-49240861D01*
X106115045Y-49240858D01*
X105954141Y-49079954D01*
X105767734Y-48949432D01*
X105767732Y-48949431D01*
X105561497Y-48853261D01*
X105561488Y-48853258D01*
X105341697Y-48794366D01*
X105341693Y-48794365D01*
X105341692Y-48794365D01*
X105341691Y-48794364D01*
X105341686Y-48794364D01*
X105115002Y-48774532D01*
X105114998Y-48774532D01*
X104888313Y-48794364D01*
X104888302Y-48794366D01*
X104668511Y-48853258D01*
X104668502Y-48853261D01*
X104462262Y-48949434D01*
X104399130Y-48993639D01*
X104332923Y-49015966D01*
X104265156Y-48998955D01*
X104240326Y-48979745D01*
X103188789Y-47928208D01*
X102076794Y-46816212D01*
X102066971Y-46803950D01*
X102066750Y-46804134D01*
X102061777Y-46798122D01*
X102012057Y-46751432D01*
X102010657Y-46750075D01*
X101990467Y-46729884D01*
X101984977Y-46725625D01*
X101980552Y-46721847D01*
X101946573Y-46689938D01*
X101946571Y-46689936D01*
X101946568Y-46689935D01*
X101929020Y-46680288D01*
X101912754Y-46669604D01*
X101896924Y-46657325D01*
X101854159Y-46638818D01*
X101848913Y-46636248D01*
X101808084Y-46613803D01*
X101808083Y-46613802D01*
X101788684Y-46608822D01*
X101770272Y-46602518D01*
X101751889Y-46594562D01*
X101751883Y-46594560D01*
X101705865Y-46587272D01*
X101700143Y-46586087D01*
X101655012Y-46574500D01*
X101655010Y-46574500D01*
X101634975Y-46574500D01*
X101615577Y-46572973D01*
X101608153Y-46571797D01*
X101595796Y-46569840D01*
X101595795Y-46569840D01*
X101549407Y-46574225D01*
X101543569Y-46574500D01*
X73724000Y-46574500D01*
X73656961Y-46554815D01*
X73611206Y-46502011D01*
X73600000Y-46450500D01*
X73600000Y-46191411D01*
X73619685Y-46124372D01*
X73644617Y-46096152D01*
X74565511Y-45328741D01*
X74629614Y-45300945D01*
X74644894Y-45300000D01*
X117884526Y-45300000D01*
X117951565Y-45319685D01*
G37*
G04 #@! TD.AperFunction*
M02*
